<?xml version="1.0"?>
<Project_Data Version="8.00">
<Project_Settings>
<ProfileName></ProfileName>
<ProjectWidth>800</ProjectWidth>
<ProjectHeight>600</ProjectHeight>
<IsCustomProject>1</IsCustomProject>
<SavedProjectSettings>1</SavedProjectSettings>
<LastFlashTemplate>-1</LastFlashTemplate>
</Project_Settings>


<AutoSaveFile>C:\Users\rbwinst-pr\AppData\Local\TechSmith\Camtasia Studio\8.0\Auto-Saves\FgdcMetaEditor231ca4.autosave.camproj</AutoSaveFile>

<ProjectID>B88A075D-D94D-439A-9E66-FA06415CC650</ProjectID>

<PowerPointProject>0</PowerPointProject>

<PowerPointFilename></PowerPointFilename>


<Project_Notes>
</Project_Notes>

<Project_MetaData>
<Project_MetaData_Object>
<FieldArrayKey>8</FieldArrayKey>
<Value>FgdcMetaEditor Overriew</Value>
</Project_MetaData_Object>
<Project_MetaData_Object>
<FieldArrayKey>13</FieldArrayKey>
<Value>2018-03-07 03:50:14 PM</Value>
</Project_MetaData_Object>
<Project_MetaData_Object>
<FieldArrayKey>16</FieldArrayKey>
<Value>ENU</Value>
</Project_MetaData_Object>
<Project_MetaData_Object>
<FieldArrayKey>11</FieldArrayKey>
<Value>metadata</Value>
</Project_MetaData_Object>
<Project_MetaData_Object>
<FieldArrayKey>12</FieldArrayKey>
<Value>This video provides and overview of FgdcMetaEditor.</Value>
</Project_MetaData_Object>
<Project_MetaData_Object>
<FieldArrayKey>21</FieldArrayKey>
<Value>No</Value>
</Project_MetaData_Object>
<Project_MetaData_Object>
<FieldArrayKey>22</FieldArrayKey>
<Value>Clean</Value>
</Project_MetaData_Object>
<Project_MetaData_Object>
<FieldArrayKey>24</FieldArrayKey>
<Value>Natural Sciences</Value>
</Project_MetaData_Object>
</Project_MetaData>

<CSMLData>
<GoProject id="1" version="3.0" >
 <Project id="2" editRate="30/1" version="3.0" >
  <Author></Author>
  <Comment></Comment>
  <System></System>
  <SourceBin id="3"  >
    <Source id="4" src="C:\Colab\GWModelTools\ModelArchiver\Videos\FgdcMetaEditor.trec" lastMod="20180307T210519" rect="(0,0,800,600)" >
      <SourceTrack range="(0,11601)" type="0" editRate="30/1" trackRect="(0,0,800,600)" sampleRate="0/1" bitDepth="0" numChannels="0" filename="FgdcMetaEditor.trec!Strack0.tsc2" metaData="FgdcMetaEditor.trec;" />
      <SourceTrack range="(0,17046528)" type="2" editRate="44100/1" trackRect="(0,0,0,0)" sampleRate="44100/1" bitDepth="16" numChannels="2" filename="FgdcMetaEditor.trec!Maudio1.mp4" metaData="" />
      <SourceTrack range="(0,17024000)" type="2" editRate="44100/1" trackRect="(0,0,0,0)" sampleRate="44100/1" bitDepth="16" numChannels="2" filename="FgdcMetaEditor.trec!$audio2.mp4" metaData="" />
    </Source>
  </SourceBin>
  <Timeline id="5"  >
   <Attributes>
    <Attribute id="6" value="800" name="width"/>
    <Attribute id="7" value="600" name="height"/>
    <Attribute id="8" value="(0,0,0,255)" name="backgroundColor"/>
   </Attributes>
    <GenericMixer id="9"  name="Unified Mixer">
     <MetaData>
      <entry key="MixerType" val="TimelineMixer"/>
     </MetaData>
     <Tracks>
      <GenericTrack id="10"  >
       <Attributes>
        <Attribute id="11" value="" name="ident"/>
        <Attribute id="12" value="0" name="audioMuted"/>
        <Attribute id="13" value="0" name="videoHidden"/>
       </Attributes>
       <MetaData>
        <entry key="IsLocked" val="False"/>
        <entry key="WinTrackHeight" val="62"/>
       </MetaData>
       <Medias>
        <StitchedMedia id="14" start="0" duration="5683" scalar="1/1" mediaStart="84/1" mediaDuration="5683/1" minMediaStart="0/1" >
         <Transformer>
          <VectorParam id="15"  name="translation">
           <InterpolatingParam id="16" interp="linr"  time="0/1" value="0" leadInLength="0/1"  />
           <InterpolatingParam id="17" interp="linr"  time="0/1" value="0" leadInLength="0/1"  />
           <InterpolatingParam id="18" interp="linr"  time="0/1" value="0" leadInLength="0/1"  />
          </VectorParam>
          <VectorParam id="19"  name="rotation">
           <InterpolatingParam id="20" interp="linr"  time="0/1" value="0" leadInLength="0/1"  />
           <InterpolatingParam id="21" interp="linr"  time="0/1" value="0" leadInLength="0/1"  />
           <InterpolatingParam id="22" interp="linr"  time="0/1" value="0" leadInLength="0/1"  />
          </VectorParam>
          <VectorParam id="23"  name="shear">
           <InterpolatingParam id="24" interp="linr"  time="0/1" value="0" leadInLength="0/1"  />
           <InterpolatingParam id="25" interp="linr"  time="0/1" value="0" leadInLength="0/1"  />
           <InterpolatingParam id="26" interp="linr"  time="0/1" value="0" leadInLength="0/1"  />
          </VectorParam>
          <VectorParam id="27"  name="scale">
           <InterpolatingParam id="28" interp="linr"  time="0/1" value="1" leadInLength="0/1"  />
           <InterpolatingParam id="29" interp="linr"  time="0/1" value="1" leadInLength="0/1"  />
           <InterpolatingParam id="30" interp="linr"  time="0/1" value="1" leadInLength="0/1"  />
          </VectorParam>
          <VectorParam id="31"  name="anchor">
           <InterpolatingParam id="32" interp="linr"  time="0/1" value="0" leadInLength="0/1"  />
           <InterpolatingParam id="33" interp="linr"  time="0/1" value="0" leadInLength="0/1"  />
           <InterpolatingParam id="34" interp="linr"  time="0/1" value="0" leadInLength="0/1"  />
          </VectorParam>
         </Transformer>
         <Parameters>
          <InterpolatingParam id="35" interp="linr"  time="0/1" value="1" leadInLength="0/1"  name="cursorOpacity"/>
          <InterpolatingParam id="36" interp="linr"  time="0/1" value="1" leadInLength="0/1"  name="cursorScale"/>
          <InterpolatingParam id="37" interp="linr"  time="0/1" value="1" leadInLength="0/1"  name="volume"/>
          <Parameter id="38"  name="captions"/>
         </Parameters>
         <Attributes>
          <Attribute id="39" value="" name="ident"/>
          <Attribute id="40" value="0" name="mixToMono"/>
         </Attributes>
         <MetaData>
          <entry key="WinSubProjectDisplayName" val=""/>
         </MetaData>
         <ExtraData>
          <Entry key="ZoomPanBin">
           <ZoomPanBin id="41"  >
            <ZoomPanKeyframes>
            </ZoomPanKeyframes>
           </ZoomPanBin>
          </Entry>
          <Entry key="CursorEffectBin">
           <CursorEffectBin id="42"  >
            <CursorEffectKeyframes>
            </CursorEffectKeyframes>
           </CursorEffectBin>
          </Entry>
         </ExtraData>
         <GenericTrack id="43"  >
          <Attributes>
           <Attribute id="44" value="" name="ident"/>
           <Attribute id="45" value="0" name="audioMuted"/>
           <Attribute id="46" value="0" name="videoHidden"/>
          </Attributes>
          <MetaData>
           <entry key="IsLocked" val="False"/>
           <entry key="WinTrackHeight" val="0"/>
          </MetaData>
          <Medias>
           <AMFile id="47" start="0" duration="216" scalar="1/1" mediaStart="0/1" mediaDuration="216/1" trackNumber="2" src="4" channelNumber="0,1" >
            <Parameters>
             <InterpolatingParam id="48" interp="linr"  time="0/1" value="1" leadInLength="0/1"  name="volume"/>
             <Parameter id="49"  name="captions"/>
            </Parameters>
            <Attributes>
             <Attribute id="50" value="" name="ident"/>
             <Attribute id="51" value="44100" name="sampleRate"/>
             <Attribute id="52" value="16" name="bitDepth"/>
             <Attribute id="53" value="1" name="gain"/>
             <Attribute id="54" value="0" name="mixToMono"/>
            </Attributes>
            <MetaData>
             <entry key="WinSubProjectDisplayName" val=""/>
            </MetaData>
           </AMFile>
           <AMFile id="55" start="216" duration="507" scalar="1/1" mediaStart="271/1" mediaDuration="507/1" trackNumber="2" src="4" channelNumber="0,1" >
            <Parameters>
             <InterpolatingParam id="56" interp="linr"  time="0/1" value="1" leadInLength="0/1"  name="volume"/>
             <Parameter id="57"  name="captions"/>
            </Parameters>
            <Attributes>
             <Attribute id="58" value="" name="ident"/>
             <Attribute id="59" value="44100" name="sampleRate"/>
             <Attribute id="60" value="16" name="bitDepth"/>
             <Attribute id="61" value="1" name="gain"/>
             <Attribute id="62" value="0" name="mixToMono"/>
            </Attributes>
            <MetaData>
             <entry key="WinSubProjectDisplayName" val=""/>
            </MetaData>
           </AMFile>
           <AMFile id="63" start="723" duration="85" scalar="1/1" mediaStart="822/1" mediaDuration="85/1" trackNumber="2" src="4" channelNumber="0,1" >
            <Parameters>
             <InterpolatingParam id="64" interp="linr"  time="0/1" value="1" leadInLength="0/1"  name="volume"/>
             <Parameter id="65"  name="captions"/>
            </Parameters>
            <Attributes>
             <Attribute id="66" value="" name="ident"/>
             <Attribute id="67" value="44100" name="sampleRate"/>
             <Attribute id="68" value="16" name="bitDepth"/>
             <Attribute id="69" value="1" name="gain"/>
             <Attribute id="70" value="0" name="mixToMono"/>
            </Attributes>
            <MetaData>
             <entry key="WinSubProjectDisplayName" val=""/>
            </MetaData>
           </AMFile>
           <AMFile id="71" start="808" duration="46" scalar="1/1" mediaStart="962/1" mediaDuration="46/1" trackNumber="2" src="4" channelNumber="0,1" >
            <Parameters>
             <InterpolatingParam id="72" interp="linr"  time="0/1" value="1" leadInLength="0/1"  name="volume"/>
             <Parameter id="73"  name="captions"/>
            </Parameters>
            <Attributes>
             <Attribute id="74" value="" name="ident"/>
             <Attribute id="75" value="44100" name="sampleRate"/>
             <Attribute id="76" value="16" name="bitDepth"/>
             <Attribute id="77" value="1" name="gain"/>
             <Attribute id="78" value="0" name="mixToMono"/>
            </Attributes>
            <MetaData>
             <entry key="WinSubProjectDisplayName" val=""/>
            </MetaData>
           </AMFile>
           <AMFile id="79" start="854" duration="110" scalar="1/1" mediaStart="1151/1" mediaDuration="110/1" trackNumber="2" src="4" channelNumber="0,1" >
            <Parameters>
             <InterpolatingParam id="80" interp="linr"  time="0/1" value="1" leadInLength="0/1"  name="volume"/>
             <Parameter id="81"  name="captions"/>
            </Parameters>
            <Attributes>
             <Attribute id="82" value="" name="ident"/>
             <Attribute id="83" value="44100" name="sampleRate"/>
             <Attribute id="84" value="16" name="bitDepth"/>
             <Attribute id="85" value="1" name="gain"/>
             <Attribute id="86" value="0" name="mixToMono"/>
            </Attributes>
            <MetaData>
             <entry key="WinSubProjectDisplayName" val=""/>
            </MetaData>
           </AMFile>
           <AMFile id="87" start="964" duration="153" scalar="1/1" mediaStart="1315/1" mediaDuration="153/1" trackNumber="2" src="4" channelNumber="0,1" >
            <Parameters>
             <InterpolatingParam id="88" interp="linr"  time="0/1" value="1" leadInLength="0/1"  name="volume"/>
             <Parameter id="89"  name="captions"/>
            </Parameters>
            <Attributes>
             <Attribute id="90" value="" name="ident"/>
             <Attribute id="91" value="44100" name="sampleRate"/>
             <Attribute id="92" value="16" name="bitDepth"/>
             <Attribute id="93" value="1" name="gain"/>
             <Attribute id="94" value="0" name="mixToMono"/>
            </Attributes>
            <MetaData>
             <entry key="WinSubProjectDisplayName" val=""/>
            </MetaData>
           </AMFile>
           <AMFile id="95" start="1117" duration="165" scalar="1/1" mediaStart="1587/1" mediaDuration="165/1" trackNumber="2" src="4" channelNumber="0,1" >
            <Parameters>
             <InterpolatingParam id="96" interp="linr"  time="0/1" value="1" leadInLength="0/1"  name="volume"/>
             <Parameter id="97"  name="captions"/>
            </Parameters>
            <Attributes>
             <Attribute id="98" value="" name="ident"/>
             <Attribute id="99" value="44100" name="sampleRate"/>
             <Attribute id="100" value="16" name="bitDepth"/>
             <Attribute id="101" value="1" name="gain"/>
             <Attribute id="102" value="0" name="mixToMono"/>
            </Attributes>
            <MetaData>
             <entry key="WinSubProjectDisplayName" val=""/>
            </MetaData>
           </AMFile>
           <AMFile id="103" start="1282" duration="31" scalar="1/1" mediaStart="1831/1" mediaDuration="31/1" trackNumber="2" src="4" channelNumber="0,1" >
            <Parameters>
             <InterpolatingParam id="104" interp="linr"  time="0/1" value="1" leadInLength="0/1"  name="volume"/>
             <Parameter id="105"  name="captions"/>
            </Parameters>
            <Attributes>
             <Attribute id="106" value="" name="ident"/>
             <Attribute id="107" value="44100" name="sampleRate"/>
             <Attribute id="108" value="16" name="bitDepth"/>
             <Attribute id="109" value="1" name="gain"/>
             <Attribute id="110" value="0" name="mixToMono"/>
            </Attributes>
            <MetaData>
             <entry key="WinSubProjectDisplayName" val=""/>
            </MetaData>
           </AMFile>
           <AMFile id="111" start="1313" duration="101" scalar="1/1" mediaStart="1906/1" mediaDuration="101/1" trackNumber="2" src="4" channelNumber="0,1" >
            <Parameters>
             <InterpolatingParam id="112" interp="linr"  time="0/1" value="1" leadInLength="0/1"  name="volume"/>
             <Parameter id="113"  name="captions"/>
            </Parameters>
            <Attributes>
             <Attribute id="114" value="" name="ident"/>
             <Attribute id="115" value="44100" name="sampleRate"/>
             <Attribute id="116" value="16" name="bitDepth"/>
             <Attribute id="117" value="1" name="gain"/>
             <Attribute id="118" value="0" name="mixToMono"/>
            </Attributes>
            <MetaData>
             <entry key="WinSubProjectDisplayName" val=""/>
            </MetaData>
           </AMFile>
           <AMFile id="119" start="1414" duration="282" scalar="1/1" mediaStart="2208/1" mediaDuration="282/1" trackNumber="2" src="4" channelNumber="0,1" >
            <Parameters>
             <InterpolatingParam id="120" interp="linr"  time="0/1" value="1" leadInLength="0/1"  name="volume"/>
             <Parameter id="121"  name="captions"/>
            </Parameters>
            <Attributes>
             <Attribute id="122" value="" name="ident"/>
             <Attribute id="123" value="44100" name="sampleRate"/>
             <Attribute id="124" value="16" name="bitDepth"/>
             <Attribute id="125" value="1" name="gain"/>
             <Attribute id="126" value="0" name="mixToMono"/>
            </Attributes>
            <MetaData>
             <entry key="WinSubProjectDisplayName" val=""/>
            </MetaData>
           </AMFile>
           <AMFile id="127" start="1696" duration="61" scalar="1/1" mediaStart="2529/1" mediaDuration="61/1" trackNumber="2" src="4" channelNumber="0,1" >
            <Parameters>
             <InterpolatingParam id="128" interp="linr"  time="0/1" value="1" leadInLength="0/1"  name="volume"/>
             <Parameter id="129"  name="captions"/>
            </Parameters>
            <Attributes>
             <Attribute id="130" value="" name="ident"/>
             <Attribute id="131" value="44100" name="sampleRate"/>
             <Attribute id="132" value="16" name="bitDepth"/>
             <Attribute id="133" value="1" name="gain"/>
             <Attribute id="134" value="0" name="mixToMono"/>
            </Attributes>
            <MetaData>
             <entry key="WinSubProjectDisplayName" val=""/>
            </MetaData>
           </AMFile>
           <AMFile id="135" start="1757" duration="157" scalar="1/1" mediaStart="2674/1" mediaDuration="157/1" trackNumber="2" src="4" channelNumber="0,1" >
            <Parameters>
             <InterpolatingParam id="136" interp="linr"  time="0/1" value="1" leadInLength="0/1"  name="volume"/>
             <Parameter id="137"  name="captions"/>
            </Parameters>
            <Attributes>
             <Attribute id="138" value="" name="ident"/>
             <Attribute id="139" value="44100" name="sampleRate"/>
             <Attribute id="140" value="16" name="bitDepth"/>
             <Attribute id="141" value="1" name="gain"/>
             <Attribute id="142" value="0" name="mixToMono"/>
            </Attributes>
            <MetaData>
             <entry key="WinSubProjectDisplayName" val=""/>
            </MetaData>
           </AMFile>
           <AMFile id="143" start="1914" duration="104" scalar="1/1" mediaStart="2895/1" mediaDuration="104/1" trackNumber="2" src="4" channelNumber="0,1" >
            <Parameters>
             <InterpolatingParam id="144" interp="linr"  time="0/1" value="1" leadInLength="0/1"  name="volume"/>
             <Parameter id="145"  name="captions"/>
            </Parameters>
            <Attributes>
             <Attribute id="146" value="" name="ident"/>
             <Attribute id="147" value="44100" name="sampleRate"/>
             <Attribute id="148" value="16" name="bitDepth"/>
             <Attribute id="149" value="1" name="gain"/>
             <Attribute id="150" value="0" name="mixToMono"/>
            </Attributes>
            <MetaData>
             <entry key="WinSubProjectDisplayName" val=""/>
            </MetaData>
           </AMFile>
           <AMFile id="151" start="2018" duration="40" scalar="1/1" mediaStart="3039/1" mediaDuration="40/1" trackNumber="2" src="4" channelNumber="0,1" >
            <Parameters>
             <InterpolatingParam id="152" interp="linr"  time="0/1" value="1" leadInLength="0/1"  name="volume"/>
             <Parameter id="153"  name="captions"/>
            </Parameters>
            <Attributes>
             <Attribute id="154" value="" name="ident"/>
             <Attribute id="155" value="44100" name="sampleRate"/>
             <Attribute id="156" value="16" name="bitDepth"/>
             <Attribute id="157" value="1" name="gain"/>
             <Attribute id="158" value="0" name="mixToMono"/>
            </Attributes>
            <MetaData>
             <entry key="WinSubProjectDisplayName" val=""/>
            </MetaData>
           </AMFile>
           <AMFile id="159" start="2058" duration="205" scalar="1/1" mediaStart="3110/1" mediaDuration="205/1" trackNumber="2" src="4" channelNumber="0,1" >
            <Parameters>
             <InterpolatingParam id="160" interp="linr"  time="0/1" value="1" leadInLength="0/1"  name="volume"/>
             <Parameter id="161"  name="captions"/>
            </Parameters>
            <Attributes>
             <Attribute id="162" value="" name="ident"/>
             <Attribute id="163" value="44100" name="sampleRate"/>
             <Attribute id="164" value="16" name="bitDepth"/>
             <Attribute id="165" value="1" name="gain"/>
             <Attribute id="166" value="0" name="mixToMono"/>
            </Attributes>
            <MetaData>
             <entry key="WinSubProjectDisplayName" val=""/>
            </MetaData>
           </AMFile>
           <AMFile id="167" start="2263" duration="626" scalar="1/1" mediaStart="5144/1" mediaDuration="626/1" trackNumber="2" src="4" channelNumber="0,1" >
            <Parameters>
             <InterpolatingParam id="168" interp="linr"  time="0/1" value="1" leadInLength="0/1"  name="volume"/>
             <Parameter id="169"  name="captions"/>
            </Parameters>
            <Attributes>
             <Attribute id="170" value="" name="ident"/>
             <Attribute id="171" value="44100" name="sampleRate"/>
             <Attribute id="172" value="16" name="bitDepth"/>
             <Attribute id="173" value="1" name="gain"/>
             <Attribute id="174" value="0" name="mixToMono"/>
            </Attributes>
            <MetaData>
             <entry key="WinSubProjectDisplayName" val=""/>
            </MetaData>
           </AMFile>
           <AMFile id="175" start="2889" duration="295" scalar="1/1" mediaStart="5904/1" mediaDuration="295/1" trackNumber="2" src="4" channelNumber="0,1" >
            <Parameters>
             <InterpolatingParam id="176" interp="linr"  time="0/1" value="1" leadInLength="0/1"  name="volume"/>
             <Parameter id="177"  name="captions"/>
            </Parameters>
            <Attributes>
             <Attribute id="178" value="" name="ident"/>
             <Attribute id="179" value="44100" name="sampleRate"/>
             <Attribute id="180" value="16" name="bitDepth"/>
             <Attribute id="181" value="1" name="gain"/>
             <Attribute id="182" value="0" name="mixToMono"/>
            </Attributes>
            <MetaData>
             <entry key="WinSubProjectDisplayName" val=""/>
            </MetaData>
           </AMFile>
           <AMFile id="183" start="3184" duration="216" scalar="1/1" mediaStart="6256/1" mediaDuration="216/1" trackNumber="2" src="4" channelNumber="0,1" >
            <Parameters>
             <InterpolatingParam id="184" interp="linr"  time="0/1" value="1" leadInLength="0/1"  name="volume"/>
             <Parameter id="185"  name="captions"/>
            </Parameters>
            <Attributes>
             <Attribute id="186" value="" name="ident"/>
             <Attribute id="187" value="44100" name="sampleRate"/>
             <Attribute id="188" value="16" name="bitDepth"/>
             <Attribute id="189" value="1" name="gain"/>
             <Attribute id="190" value="0" name="mixToMono"/>
            </Attributes>
            <MetaData>
             <entry key="WinSubProjectDisplayName" val=""/>
            </MetaData>
           </AMFile>
           <AMFile id="191" start="3400" duration="40" scalar="1/1" mediaStart="6717/1" mediaDuration="40/1" trackNumber="2" src="4" channelNumber="0,1" >
            <Parameters>
             <InterpolatingParam id="192" interp="linr"  time="0/1" value="1" leadInLength="0/1"  name="volume"/>
             <Parameter id="193"  name="captions"/>
            </Parameters>
            <Attributes>
             <Attribute id="194" value="" name="ident"/>
             <Attribute id="195" value="44100" name="sampleRate"/>
             <Attribute id="196" value="16" name="bitDepth"/>
             <Attribute id="197" value="1" name="gain"/>
             <Attribute id="198" value="0" name="mixToMono"/>
            </Attributes>
            <MetaData>
             <entry key="WinSubProjectDisplayName" val=""/>
            </MetaData>
           </AMFile>
           <AMFile id="199" start="3440" duration="179" scalar="1/1" mediaStart="6783/1" mediaDuration="179/1" trackNumber="2" src="4" channelNumber="0,1" >
            <Parameters>
             <InterpolatingParam id="200" interp="linr"  time="0/1" value="1" leadInLength="0/1"  name="volume"/>
             <Parameter id="201"  name="captions"/>
            </Parameters>
            <Attributes>
             <Attribute id="202" value="" name="ident"/>
             <Attribute id="203" value="44100" name="sampleRate"/>
             <Attribute id="204" value="16" name="bitDepth"/>
             <Attribute id="205" value="1" name="gain"/>
             <Attribute id="206" value="0" name="mixToMono"/>
            </Attributes>
            <MetaData>
             <entry key="WinSubProjectDisplayName" val=""/>
            </MetaData>
           </AMFile>
           <AMFile id="207" start="3619" duration="218" scalar="1/1" mediaStart="7004/1" mediaDuration="218/1" trackNumber="2" src="4" channelNumber="0,1" >
            <Parameters>
             <InterpolatingParam id="208" interp="linr"  time="0/1" value="1" leadInLength="0/1"  name="volume"/>
             <Parameter id="209"  name="captions"/>
            </Parameters>
            <Attributes>
             <Attribute id="210" value="" name="ident"/>
             <Attribute id="211" value="44100" name="sampleRate"/>
             <Attribute id="212" value="16" name="bitDepth"/>
             <Attribute id="213" value="1" name="gain"/>
             <Attribute id="214" value="0" name="mixToMono"/>
            </Attributes>
            <MetaData>
             <entry key="WinSubProjectDisplayName" val=""/>
            </MetaData>
           </AMFile>
           <AMFile id="215" start="3837" duration="34" scalar="1/1" mediaStart="7238/1" mediaDuration="34/1" trackNumber="2" src="4" channelNumber="0,1" >
            <Parameters>
             <InterpolatingParam id="216" interp="linr"  time="0/1" value="1" leadInLength="0/1"  name="volume"/>
             <Parameter id="217"  name="captions"/>
            </Parameters>
            <Attributes>
             <Attribute id="218" value="" name="ident"/>
             <Attribute id="219" value="44100" name="sampleRate"/>
             <Attribute id="220" value="16" name="bitDepth"/>
             <Attribute id="221" value="1" name="gain"/>
             <Attribute id="222" value="0" name="mixToMono"/>
            </Attributes>
            <MetaData>
             <entry key="WinSubProjectDisplayName" val=""/>
            </MetaData>
           </AMFile>
           <AMFile id="223" start="3871" duration="141" scalar="1/1" mediaStart="7285/1" mediaDuration="141/1" trackNumber="2" src="4" channelNumber="0,1" >
            <Parameters>
             <InterpolatingParam id="224" interp="linr"  time="0/1" value="1" leadInLength="0/1"  name="volume"/>
             <Parameter id="225"  name="captions"/>
            </Parameters>
            <Attributes>
             <Attribute id="226" value="" name="ident"/>
             <Attribute id="227" value="44100" name="sampleRate"/>
             <Attribute id="228" value="16" name="bitDepth"/>
             <Attribute id="229" value="1" name="gain"/>
             <Attribute id="230" value="0" name="mixToMono"/>
            </Attributes>
            <MetaData>
             <entry key="WinSubProjectDisplayName" val=""/>
            </MetaData>
           </AMFile>
           <AMFile id="231" start="4012" duration="25" scalar="1/1" mediaStart="7936/1" mediaDuration="25/1" trackNumber="2" src="4" channelNumber="0,1" >
            <Parameters>
             <InterpolatingParam id="232" interp="linr"  time="0/1" value="1" leadInLength="0/1"  name="volume"/>
             <Parameter id="233"  name="captions"/>
            </Parameters>
            <Attributes>
             <Attribute id="234" value="" name="ident"/>
             <Attribute id="235" value="44100" name="sampleRate"/>
             <Attribute id="236" value="16" name="bitDepth"/>
             <Attribute id="237" value="1" name="gain"/>
             <Attribute id="238" value="0" name="mixToMono"/>
            </Attributes>
            <MetaData>
             <entry key="WinSubProjectDisplayName" val=""/>
            </MetaData>
           </AMFile>
           <AMFile id="239" start="4037" duration="34" scalar="1/1" mediaStart="7983/1" mediaDuration="34/1" trackNumber="2" src="4" channelNumber="0,1" >
            <Parameters>
             <InterpolatingParam id="240" interp="linr"  time="0/1" value="1" leadInLength="0/1"  name="volume"/>
             <Parameter id="241"  name="captions"/>
            </Parameters>
            <Attributes>
             <Attribute id="242" value="" name="ident"/>
             <Attribute id="243" value="44100" name="sampleRate"/>
             <Attribute id="244" value="16" name="bitDepth"/>
             <Attribute id="245" value="1" name="gain"/>
             <Attribute id="246" value="0" name="mixToMono"/>
            </Attributes>
            <MetaData>
             <entry key="WinSubProjectDisplayName" val=""/>
            </MetaData>
           </AMFile>
           <AMFile id="247" start="4071" duration="249" scalar="1/1" mediaStart="8059/1" mediaDuration="249/1" trackNumber="2" src="4" channelNumber="0,1" >
            <Parameters>
             <InterpolatingParam id="248" interp="linr"  time="0/1" value="1" leadInLength="0/1"  name="volume"/>
             <Parameter id="249"  name="captions"/>
            </Parameters>
            <Attributes>
             <Attribute id="250" value="" name="ident"/>
             <Attribute id="251" value="44100" name="sampleRate"/>
             <Attribute id="252" value="16" name="bitDepth"/>
             <Attribute id="253" value="1" name="gain"/>
             <Attribute id="254" value="0" name="mixToMono"/>
            </Attributes>
            <MetaData>
             <entry key="WinSubProjectDisplayName" val=""/>
            </MetaData>
           </AMFile>
           <AMFile id="255" start="4320" duration="239" scalar="1/1" mediaStart="8761/1" mediaDuration="239/1" trackNumber="2" src="4" channelNumber="0,1" >
            <Parameters>
             <InterpolatingParam id="256" interp="linr"  time="0/1" value="1" leadInLength="0/1"  name="volume"/>
             <Parameter id="257"  name="captions"/>
            </Parameters>
            <Attributes>
             <Attribute id="258" value="" name="ident"/>
             <Attribute id="259" value="44100" name="sampleRate"/>
             <Attribute id="260" value="16" name="bitDepth"/>
             <Attribute id="261" value="1" name="gain"/>
             <Attribute id="262" value="0" name="mixToMono"/>
            </Attributes>
            <MetaData>
             <entry key="WinSubProjectDisplayName" val=""/>
            </MetaData>
           </AMFile>
           <AMFile id="263" start="4559" duration="118" scalar="1/1" mediaStart="9032/1" mediaDuration="118/1" trackNumber="2" src="4" channelNumber="0,1" >
            <Parameters>
             <InterpolatingParam id="264" interp="linr"  time="0/1" value="1" leadInLength="0/1"  name="volume"/>
             <Parameter id="265"  name="captions"/>
            </Parameters>
            <Attributes>
             <Attribute id="266" value="" name="ident"/>
             <Attribute id="267" value="44100" name="sampleRate"/>
             <Attribute id="268" value="16" name="bitDepth"/>
             <Attribute id="269" value="1" name="gain"/>
             <Attribute id="270" value="0" name="mixToMono"/>
            </Attributes>
            <MetaData>
             <entry key="WinSubProjectDisplayName" val=""/>
            </MetaData>
           </AMFile>
           <AMFile id="271" start="4677" duration="69" scalar="1/1" mediaStart="9231/1" mediaDuration="69/1" trackNumber="2" src="4" channelNumber="0,1" >
            <Parameters>
             <InterpolatingParam id="272" interp="linr"  time="0/1" value="1" leadInLength="0/1"  name="volume"/>
             <Parameter id="273"  name="captions"/>
            </Parameters>
            <Attributes>
             <Attribute id="274" value="" name="ident"/>
             <Attribute id="275" value="44100" name="sampleRate"/>
             <Attribute id="276" value="16" name="bitDepth"/>
             <Attribute id="277" value="1" name="gain"/>
             <Attribute id="278" value="0" name="mixToMono"/>
            </Attributes>
            <MetaData>
             <entry key="WinSubProjectDisplayName" val=""/>
            </MetaData>
           </AMFile>
           <AMFile id="279" start="4746" duration="40" scalar="1/1" mediaStart="9311/1" mediaDuration="40/1" trackNumber="2" src="4" channelNumber="0,1" >
            <Parameters>
             <InterpolatingParam id="280" interp="linr"  time="0/1" value="1" leadInLength="0/1"  name="volume"/>
             <Parameter id="281"  name="captions"/>
            </Parameters>
            <Attributes>
             <Attribute id="282" value="" name="ident"/>
             <Attribute id="283" value="44100" name="sampleRate"/>
             <Attribute id="284" value="16" name="bitDepth"/>
             <Attribute id="285" value="1" name="gain"/>
             <Attribute id="286" value="0" name="mixToMono"/>
            </Attributes>
            <MetaData>
             <entry key="WinSubProjectDisplayName" val=""/>
            </MetaData>
           </AMFile>
           <AMFile id="287" start="4786" duration="126" scalar="1/1" mediaStart="9378/1" mediaDuration="126/1" trackNumber="2" src="4" channelNumber="0,1" >
            <Parameters>
             <InterpolatingParam id="288" interp="linr"  time="0/1" value="1" leadInLength="0/1"  name="volume"/>
             <Parameter id="289"  name="captions"/>
            </Parameters>
            <Attributes>
             <Attribute id="290" value="" name="ident"/>
             <Attribute id="291" value="44100" name="sampleRate"/>
             <Attribute id="292" value="16" name="bitDepth"/>
             <Attribute id="293" value="1" name="gain"/>
             <Attribute id="294" value="0" name="mixToMono"/>
            </Attributes>
            <MetaData>
             <entry key="WinSubProjectDisplayName" val=""/>
            </MetaData>
           </AMFile>
           <AMFile id="295" start="4912" duration="294" scalar="1/1" mediaStart="9880/1" mediaDuration="294/1" trackNumber="2" src="4" channelNumber="0,1" >
            <Parameters>
             <InterpolatingParam id="296" interp="linr"  time="0/1" value="1" leadInLength="0/1"  name="volume"/>
             <Parameter id="297"  name="captions"/>
            </Parameters>
            <Attributes>
             <Attribute id="298" value="" name="ident"/>
             <Attribute id="299" value="44100" name="sampleRate"/>
             <Attribute id="300" value="16" name="bitDepth"/>
             <Attribute id="301" value="1" name="gain"/>
             <Attribute id="302" value="0" name="mixToMono"/>
            </Attributes>
            <MetaData>
             <entry key="WinSubProjectDisplayName" val=""/>
            </MetaData>
           </AMFile>
           <AMFile id="303" start="5206" duration="351" scalar="1/1" mediaStart="10815/1" mediaDuration="351/1" trackNumber="2" src="4" channelNumber="0,1" >
            <Parameters>
             <InterpolatingParam id="304" interp="linr"  time="0/1" value="1" leadInLength="0/1"  name="volume"/>
             <Parameter id="305"  name="captions"/>
            </Parameters>
            <Attributes>
             <Attribute id="306" value="" name="ident"/>
             <Attribute id="307" value="44100" name="sampleRate"/>
             <Attribute id="308" value="16" name="bitDepth"/>
             <Attribute id="309" value="1" name="gain"/>
             <Attribute id="310" value="0" name="mixToMono"/>
            </Attributes>
            <MetaData>
             <entry key="WinSubProjectDisplayName" val=""/>
            </MetaData>
           </AMFile>
           <AMFile id="311" start="5557" duration="72" scalar="1/1" mediaStart="11229/1" mediaDuration="72/1" trackNumber="2" src="4" channelNumber="0,1" >
            <Parameters>
             <InterpolatingParam id="312" interp="linr"  time="0/1" value="1" leadInLength="0/1"  name="volume"/>
             <Parameter id="313"  name="captions"/>
            </Parameters>
            <Attributes>
             <Attribute id="314" value="" name="ident"/>
             <Attribute id="315" value="44100" name="sampleRate"/>
             <Attribute id="316" value="16" name="bitDepth"/>
             <Attribute id="317" value="1" name="gain"/>
             <Attribute id="318" value="0" name="mixToMono"/>
            </Attributes>
            <MetaData>
             <entry key="WinSubProjectDisplayName" val=""/>
            </MetaData>
           </AMFile>
           <AMFile id="319" start="5629" duration="64" scalar="1/1" mediaStart="11404/1" mediaDuration="64/1" trackNumber="2" src="4" channelNumber="0,1" >
            <Parameters>
             <InterpolatingParam id="320" interp="linr"  time="0/1" value="1" leadInLength="0/1"  name="volume"/>
             <Parameter id="321"  name="captions"/>
            </Parameters>
            <Attributes>
             <Attribute id="322" value="" name="ident"/>
             <Attribute id="323" value="44100" name="sampleRate"/>
             <Attribute id="324" value="16" name="bitDepth"/>
             <Attribute id="325" value="1" name="gain"/>
             <Attribute id="326" value="0" name="mixToMono"/>
            </Attributes>
            <MetaData>
             <entry key="WinSubProjectDisplayName" val=""/>
            </MetaData>
           </AMFile>
           <AMFile id="327" start="5693" duration="95" scalar="1/1" mediaStart="11485/1" mediaDuration="95/1" trackNumber="2" src="4" channelNumber="0,1" >
            <Parameters>
             <InterpolatingParam id="328" interp="linr"  time="0/1" value="1" leadInLength="0/1"  name="volume"/>
             <Parameter id="329"  name="captions"/>
            </Parameters>
            <Attributes>
             <Attribute id="330" value="" name="ident"/>
             <Attribute id="331" value="44100" name="sampleRate"/>
             <Attribute id="332" value="16" name="bitDepth"/>
             <Attribute id="333" value="1" name="gain"/>
             <Attribute id="334" value="0" name="mixToMono"/>
            </Attributes>
            <MetaData>
             <entry key="WinSubProjectDisplayName" val=""/>
            </MetaData>
           </AMFile>
          </Medias>
         </GenericTrack>
        </StitchedMedia>
       </Medias>
      </GenericTrack>
      <GenericTrack id="335"  >
       <Attributes>
        <Attribute id="336" value="" name="ident"/>
        <Attribute id="337" value="0" name="audioMuted"/>
        <Attribute id="338" value="0" name="videoHidden"/>
       </Attributes>
       <MetaData>
        <entry key="IsLocked" val="False"/>
        <entry key="WinTrackHeight" val="62"/>
       </MetaData>
       <Medias>
        <StitchedMedia id="339" start="0" duration="5683" scalar="1/1" mediaStart="84/1" mediaDuration="5683/1" minMediaStart="0/1" >
         <Transformer>
          <VectorParam id="340"  name="translation">
           <InterpolatingParam id="341" interp="linr"  time="-9999999/1" value="0" leadInLength="0/1"  />
           <InterpolatingParam id="342" interp="linr"  time="-9999999/1" value="0" leadInLength="0/1"  />
           <InterpolatingParam id="343" interp="linr"  time="-9999999/1" value="0" leadInLength="0/1"  />
          </VectorParam>
          <VectorParam id="344"  name="rotation">
           <InterpolatingParam id="345" interp="linr"  time="-9999999/1" value="0" leadInLength="0/1"  />
           <InterpolatingParam id="346" interp="linr"  time="-9999999/1" value="0" leadInLength="0/1"  />
           <InterpolatingParam id="347" interp="linr"  time="-9999999/1" value="0" leadInLength="0/1"  />
          </VectorParam>
          <VectorParam id="348"  name="shear">
           <InterpolatingParam id="349" interp="linr"  time="-9999999/1" value="0" leadInLength="0/1"  />
           <InterpolatingParam id="350" interp="linr"  time="-9999999/1" value="0" leadInLength="0/1"  />
           <InterpolatingParam id="351" interp="linr"  time="-9999999/1" value="0" leadInLength="0/1"  />
          </VectorParam>
          <VectorParam id="352"  name="scale">
           <InterpolatingParam id="353" interp="linr"  time="-9999999/1" value="1" leadInLength="0/1"  />
           <InterpolatingParam id="354" interp="linr"  time="-9999999/1" value="1" leadInLength="0/1"  />
           <InterpolatingParam id="355" interp="linr"  time="-9999999/1" value="1" leadInLength="0/1"  />
          </VectorParam>
          <VectorParam id="356"  name="anchor">
           <InterpolatingParam id="357" interp="linr"  time="0/1" value="0" leadInLength="0/1"  />
           <InterpolatingParam id="358" interp="linr"  time="0/1" value="0" leadInLength="0/1"  />
           <InterpolatingParam id="359" interp="linr"  time="0/1" value="0" leadInLength="0/1"  />
          </VectorParam>
         </Transformer>
         <Parameters>
          <VectorParam id="360"  name="sourceCrop">
           <InterpolatingParam id="361" interp="linr"  time="0/1" value="0" leadInLength="0/1"  />
           <InterpolatingParam id="362" interp="linr"  time="0/1" value="0" leadInLength="0/1"  />
           <InterpolatingParam id="363" interp="linr"  time="0/1" value="0" leadInLength="0/1"  />
           <InterpolatingParam id="364" interp="linr"  time="0/1" value="0" leadInLength="0/1"  />
          </VectorParam>
          <VectorParam id="365"  name="geometryCrop">
           <InterpolatingParam id="366" interp="linr"  time="-9999999/1" value="0" leadInLength="0/1"  />
           <InterpolatingParam id="367" interp="linr"  time="-9999999/1" value="0" leadInLength="0/1"  />
           <InterpolatingParam id="368" interp="linr"  time="-9999999/1" value="0" leadInLength="0/1"  />
           <InterpolatingParam id="369" interp="linr"  time="-9999999/1" value="0" leadInLength="0/1"  />
          </VectorParam>
          <InterpolatingParam id="370" interp="linr"  time="-9999999/1" value="1" leadInLength="0/1"  name="opacity"/>
          <InterpolatingParam id="371" interp="linr"  time="0/1" value="1" leadInLength="0/1"  name="cursorOpacity"/>
          <InterpolatingParam id="372" interp="linr"  time="0/1" value="1" leadInLength="0/1"  name="cursorScale"/>
          <InterpolatingParam id="373" interp="linr"  time="0/1" value="1" leadInLength="0/1"  name="volume"/>
          <Parameter id="374"  name="captions"/>
         </Parameters>
         <Effects>
          <GenericEffect id="375" name = "CursorBaseEffectName" >
           <Parameters>
           <InterpolatingParam id="376" interp="linr"  time="-9999999/1" value="1" leadInLength="0/1"   name="cursorSize"/>
           <InterpolatingParam id="377" interp="linr"  time="-9999999/1" value="0" leadInLength="0/1"   name="highlightBlurRadius"/>
           <InterpolatingParam id="378" interp="linr"  time="-9999999/1" value="0" leadInLength="0/1"   name="highlightColorBlue"/>
           <InterpolatingParam id="379" interp="linr"  time="-9999999/1" value="255" leadInLength="0/1"   name="highlightColorGreen"/>
           <InterpolatingParam id="380" interp="linr"  time="-9999999/1" value="255" leadInLength="0/1"   name="highlightColorRed"/>
           <InterpolatingParam id="381" interp="linr"  time="-9999999/1" value="5" leadInLength="0/1"   name="highlightFeatherSize"/>
           <InterpolatingParam id="382" interp="linr"  time="-9999999/1" value="2" leadInLength="0/1"   name="highlightMagnification"/>
           <InterpolatingParam id="383" interp="linr"  time="-9999999/1" value="1" leadInLength="0/1"   name="highlightOpacity"/>
           <InterpolatingParam id="384" interp="linr"  time="-9999999/1" value="45" leadInLength="0/1"   name="highlightSize"/>
           <Parameter id="385"   name="highlightType">
            <Keyframes>
            <Keyframe id="386"  time="-9999999/1" value="0" leadInLength="0/1"  />
            </Keyframes>
           </Parameter>
           <InterpolatingParam id="387" interp="linr"  time="-9999999/1" value="0" leadInLength="0/1"   name="leftClickColorBlue"/>
           <InterpolatingParam id="388" interp="linr"  time="-9999999/1" value="0" leadInLength="0/1"   name="leftClickColorGreen"/>
           <InterpolatingParam id="389" interp="linr"  time="-9999999/1" value="255" leadInLength="0/1"   name="leftClickColorRed"/>
           <InterpolatingParam id="390" interp="linr"  time="-9999999/1" value="0.80000000000000004" leadInLength="0/1"   name="leftClickDuration"/>
           <InterpolatingParam id="391" interp="linr"  time="-9999999/1" value="20" leadInLength="0/1"   name="leftClickSize"/>
           <Parameter id="392"   name="leftClickSoundFilename">
            <Keyframes>
            <Keyframe id="393"  time="-9999999/1" value="" leadInLength="0/1"  />
            </Keyframes>
           </Parameter>
           <InterpolatingParam id="394" interp="linr"  time="-9999999/1" value="1" leadInLength="0/1"   name="leftClickSoundVolume"/>
           <Parameter id="395"   name="leftClickType">
            <Keyframes>
            <Keyframe id="396"  time="-9999999/1" value="0" leadInLength="0/1"  />
            </Keyframes>
           </Parameter>
           <InterpolatingParam id="397" interp="linr"  time="-9999999/1" value="1" leadInLength="0/1"   name="opacity"/>
           <InterpolatingParam id="398" interp="linr"  time="-9999999/1" value="255" leadInLength="0/1"   name="rightClickColorBlue"/>
           <InterpolatingParam id="399" interp="linr"  time="-9999999/1" value="0" leadInLength="0/1"   name="rightClickColorGreen"/>
           <InterpolatingParam id="400" interp="linr"  time="-9999999/1" value="0" leadInLength="0/1"   name="rightClickColorRed"/>
           <InterpolatingParam id="401" interp="linr"  time="-9999999/1" value="0.80000000000000004" leadInLength="0/1"   name="rightClickDuration"/>
           <InterpolatingParam id="402" interp="linr"  time="-9999999/1" value="20" leadInLength="0/1"   name="rightClickSize"/>
           <Parameter id="403"   name="rightClickSoundFilename">
            <Keyframes>
            <Keyframe id="404"  time="-9999999/1" value="" leadInLength="0/1"  />
            </Keyframes>
           </Parameter>
           <InterpolatingParam id="405" interp="linr"  time="-9999999/1" value="1" leadInLength="0/1"   name="rightClickSoundVolume"/>
           <Parameter id="406"   name="rightClickType">
            <Keyframes>
            <Keyframe id="407"  time="-9999999/1" value="0" leadInLength="0/1"  />
            </Keyframes>
           </Parameter>
           </Parameters>
           <MetaData>
            <entry key="effectIndex" val="0"/>
           </MetaData>
          </GenericEffect>
         </Effects>
         <Attributes>
          <Attribute id="408" value="" name="ident"/>
          <Attribute id="409" value="0" name="mixToMono"/>
         </Attributes>
         <MetaData>
          <entry key="AutoAppliedSmartFocus" val="False"/>
          <entry key="WinSubProjectDisplayName" val=""/>
         </MetaData>
         <ExtraData>
          <Entry key="ZoomPanBin">
           <ZoomPanBin id="410"  >
            <ZoomPanKeyframes>
             <ZoomPanKeyframe id="411" timeRangeEnd="-9999999/1" timeRangeDuration="0/1" interpolaterName=""  />
            </ZoomPanKeyframes>
           </ZoomPanBin>
          </Entry>
          <Entry key="CursorEffectBin">
           <CursorEffectBin id="412"  >
            <CursorEffectKeyframes>
             <CursorEffectKeyframe id="413" timeRangeEnd="-9999999/1" timeRangeDuration="0/1" interpolaterName=""  />
            </CursorEffectKeyframes>
           </CursorEffectBin>
          </Entry>
         </ExtraData>
         <GenericTrack id="414"  >
          <Attributes>
           <Attribute id="415" value="" name="ident"/>
           <Attribute id="416" value="0" name="audioMuted"/>
           <Attribute id="417" value="0" name="videoHidden"/>
          </Attributes>
          <MetaData>
           <entry key="IsLocked" val="False"/>
           <entry key="WinTrackHeight" val="0"/>
          </MetaData>
          <Medias>
           <UnifiedMedia id="418"  >
            <AMFile id="419" start="0" duration="216" scalar="1/1" mediaStart="0/1" mediaDuration="216/1" trackNumber="1" src="4" channelNumber="0,1" >
             <Parameters>
              <InterpolatingParam id="420" interp="linr"  time="0/1" value="1" leadInLength="0/1"  name="volume"/>
              <Parameter id="421"  name="captions"/>
             </Parameters>
             <Attributes>
              <Attribute id="422" value="" name="ident"/>
              <Attribute id="423" value="44100" name="sampleRate"/>
              <Attribute id="424" value="16" name="bitDepth"/>
              <Attribute id="425" value="1" name="gain"/>
              <Attribute id="426" value="0" name="mixToMono"/>
             </Attributes>
            </AMFile>
            <ScreenVMFile id="427" start="0" duration="216" scalar="1/1" mediaStart="0/1" mediaDuration="216/1" trackNumber="0" src="4" >
             <Transformer>
              <VectorParam id="428"  name="translation">
               <InterpolatingParam id="429" interp="linr"  time="-9999999/1" value="0" leadInLength="0/1"  />
               <InterpolatingParam id="430" interp="linr"  time="-9999999/1" value="0" leadInLength="0/1"  />
               <InterpolatingParam id="431" interp="linr"  time="-9999999/1" value="0" leadInLength="0/1"  />
              </VectorParam>
              <VectorParam id="432"  name="rotation">
               <InterpolatingParam id="433" interp="linr"  time="-9999999/1" value="0" leadInLength="0/1"  />
               <InterpolatingParam id="434" interp="linr"  time="-9999999/1" value="0" leadInLength="0/1"  />
               <InterpolatingParam id="435" interp="linr"  time="-9999999/1" value="0" leadInLength="0/1"  />
              </VectorParam>
              <VectorParam id="436"  name="shear">
               <InterpolatingParam id="437" interp="linr"  time="-9999999/1" value="0" leadInLength="0/1"  />
               <InterpolatingParam id="438" interp="linr"  time="-9999999/1" value="0" leadInLength="0/1"  />
               <InterpolatingParam id="439" interp="linr"  time="-9999999/1" value="0" leadInLength="0/1"  />
              </VectorParam>
              <VectorParam id="440"  name="scale">
               <InterpolatingParam id="441" interp="linr"  time="-9999999/1" value="1" leadInLength="0/1"  />
               <InterpolatingParam id="442" interp="linr"  time="-9999999/1" value="1" leadInLength="0/1"  />
               <InterpolatingParam id="443" interp="linr"  time="-9999999/1" value="1" leadInLength="0/1"  />
              </VectorParam>
              <VectorParam id="444"  name="anchor">
               <InterpolatingParam id="445" interp="linr"  time="0/1" value="0" leadInLength="0/1"  />
               <InterpolatingParam id="446" interp="linr"  time="0/1" value="0" leadInLength="0/1"  />
               <InterpolatingParam id="447" interp="linr"  time="0/1" value="0" leadInLength="0/1"  />
              </VectorParam>
             </Transformer>
             <Parameters>
              <VectorParam id="448"  name="sourceCrop">
               <InterpolatingParam id="449" interp="linr"  time="0/1" value="0" leadInLength="0/1"  />
               <InterpolatingParam id="450" interp="linr"  time="0/1" value="0" leadInLength="0/1"  />
               <InterpolatingParam id="451" interp="linr"  time="0/1" value="0" leadInLength="0/1"  />
               <InterpolatingParam id="452" interp="linr"  time="0/1" value="0" leadInLength="0/1"  />
              </VectorParam>
              <VectorParam id="453"  name="geometryCrop">
               <InterpolatingParam id="454" interp="linr"  time="-9999999/1" value="0" leadInLength="0/1"  />
               <InterpolatingParam id="455" interp="linr"  time="-9999999/1" value="0" leadInLength="0/1"  />
               <InterpolatingParam id="456" interp="linr"  time="-9999999/1" value="0" leadInLength="0/1"  />
               <InterpolatingParam id="457" interp="linr"  time="-9999999/1" value="0" leadInLength="0/1"  />
              </VectorParam>
              <InterpolatingParam id="458" interp="linr"  time="-9999999/1" value="1" leadInLength="0/1"  name="opacity"/>
              <InterpolatingParam id="459" interp="linr"  time="0/1" value="0" leadInLength="0/1"  name="cursorOpacity"/>
              <InterpolatingParam id="460" interp="linr"  time="0/1" value="0" leadInLength="0/1"  name="cursorScale"/>
             </Parameters>
             <Attributes>
              <Attribute id="461" value="" name="ident"/>
             </Attributes>
             <ExtraData>
              <Entry key="ZoomPanBin">
               <ZoomPanBin id="462"  >
                <ZoomPanKeyframes>
                 <ZoomPanKeyframe id="463" timeRangeEnd="-9999999/1" timeRangeDuration="0/1" interpolaterName=""  />
                </ZoomPanKeyframes>
               </ZoomPanBin>
              </Entry>
              <Entry key="CursorEffectBin">
               <CursorEffectBin id="464"  >
                <CursorEffectKeyframes>
                </CursorEffectKeyframes>
               </CursorEffectBin>
              </Entry>
             </ExtraData>
            </ScreenVMFile>
            <MetaData>
             <entry key="AutoAppliedSmartFocus" val="False"/>
             <entry key="WinSubProjectDisplayName" val=""/>
            </MetaData>
           </UnifiedMedia>
           <UnifiedMedia id="465"  >
            <AMFile id="466" start="216" duration="507" scalar="1/1" mediaStart="271/1" mediaDuration="507/1" trackNumber="1" src="4" channelNumber="0,1" >
             <Parameters>
              <InterpolatingParam id="467" interp="linr"  time="0/1" value="1" leadInLength="0/1"  name="volume"/>
              <Parameter id="468"  name="captions"/>
             </Parameters>
             <Attributes>
              <Attribute id="469" value="" name="ident"/>
              <Attribute id="470" value="44100" name="sampleRate"/>
              <Attribute id="471" value="16" name="bitDepth"/>
              <Attribute id="472" value="1" name="gain"/>
              <Attribute id="473" value="0" name="mixToMono"/>
             </Attributes>
            </AMFile>
            <ScreenVMFile id="474" start="216" duration="507" scalar="1/1" mediaStart="271/1" mediaDuration="507/1" trackNumber="0" src="4" >
             <Transformer>
              <VectorParam id="475"  name="translation">
               <InterpolatingParam id="476" interp="linr"  time="-9999999/1" value="0" leadInLength="0/1"  />
               <InterpolatingParam id="477" interp="linr"  time="-9999999/1" value="0" leadInLength="0/1"  />
               <InterpolatingParam id="478" interp="linr"  time="-9999999/1" value="0" leadInLength="0/1"  />
              </VectorParam>
              <VectorParam id="479"  name="rotation">
               <InterpolatingParam id="480" interp="linr"  time="-9999999/1" value="0" leadInLength="0/1"  />
               <InterpolatingParam id="481" interp="linr"  time="-9999999/1" value="0" leadInLength="0/1"  />
               <InterpolatingParam id="482" interp="linr"  time="-9999999/1" value="0" leadInLength="0/1"  />
              </VectorParam>
              <VectorParam id="483"  name="shear">
               <InterpolatingParam id="484" interp="linr"  time="-9999999/1" value="0" leadInLength="0/1"  />
               <InterpolatingParam id="485" interp="linr"  time="-9999999/1" value="0" leadInLength="0/1"  />
               <InterpolatingParam id="486" interp="linr"  time="-9999999/1" value="0" leadInLength="0/1"  />
              </VectorParam>
              <VectorParam id="487"  name="scale">
               <InterpolatingParam id="488" interp="linr"  time="-9999999/1" value="1" leadInLength="0/1"  />
               <InterpolatingParam id="489" interp="linr"  time="-9999999/1" value="1" leadInLength="0/1"  />
               <InterpolatingParam id="490" interp="linr"  time="-9999999/1" value="1" leadInLength="0/1"  />
              </VectorParam>
              <VectorParam id="491"  name="anchor">
               <InterpolatingParam id="492" interp="linr"  time="0/1" value="0" leadInLength="0/1"  />
               <InterpolatingParam id="493" interp="linr"  time="0/1" value="0" leadInLength="0/1"  />
               <InterpolatingParam id="494" interp="linr"  time="0/1" value="0" leadInLength="0/1"  />
              </VectorParam>
             </Transformer>
             <Parameters>
              <VectorParam id="495"  name="sourceCrop">
               <InterpolatingParam id="496" interp="linr"  time="0/1" value="0" leadInLength="0/1"  />
               <InterpolatingParam id="497" interp="linr"  time="0/1" value="0" leadInLength="0/1"  />
               <InterpolatingParam id="498" interp="linr"  time="0/1" value="0" leadInLength="0/1"  />
               <InterpolatingParam id="499" interp="linr"  time="0/1" value="0" leadInLength="0/1"  />
              </VectorParam>
              <VectorParam id="500"  name="geometryCrop">
               <InterpolatingParam id="501" interp="linr"  time="-9999999/1" value="0" leadInLength="0/1"  />
               <InterpolatingParam id="502" interp="linr"  time="-9999999/1" value="0" leadInLength="0/1"  />
               <InterpolatingParam id="503" interp="linr"  time="-9999999/1" value="0" leadInLength="0/1"  />
               <InterpolatingParam id="504" interp="linr"  time="-9999999/1" value="0" leadInLength="0/1"  />
              </VectorParam>
              <InterpolatingParam id="505" interp="linr"  time="-9999999/1" value="1" leadInLength="0/1"  name="opacity"/>
              <InterpolatingParam id="506" interp="linr"  time="0/1" value="0" leadInLength="0/1"  name="cursorOpacity"/>
              <InterpolatingParam id="507" interp="linr"  time="0/1" value="0" leadInLength="0/1"  name="cursorScale"/>
             </Parameters>
             <Attributes>
              <Attribute id="508" value="" name="ident"/>
             </Attributes>
             <ExtraData>
              <Entry key="ZoomPanBin">
               <ZoomPanBin id="509"  >
                <ZoomPanKeyframes>
                 <ZoomPanKeyframe id="510" timeRangeEnd="-9999999/1" timeRangeDuration="0/1" interpolaterName=""  />
                </ZoomPanKeyframes>
               </ZoomPanBin>
              </Entry>
              <Entry key="CursorEffectBin">
               <CursorEffectBin id="511"  >
                <CursorEffectKeyframes>
                </CursorEffectKeyframes>
               </CursorEffectBin>
              </Entry>
             </ExtraData>
            </ScreenVMFile>
            <MetaData>
             <entry key="AutoAppliedSmartFocus" val="False"/>
             <entry key="WinSubProjectDisplayName" val=""/>
            </MetaData>
           </UnifiedMedia>
           <UnifiedMedia id="512"  >
            <AMFile id="513" start="723" duration="85" scalar="1/1" mediaStart="822/1" mediaDuration="85/1" trackNumber="1" src="4" channelNumber="0,1" >
             <Parameters>
              <InterpolatingParam id="514" interp="linr"  time="0/1" value="1" leadInLength="0/1"  name="volume"/>
              <Parameter id="515"  name="captions"/>
             </Parameters>
             <Attributes>
              <Attribute id="516" value="" name="ident"/>
              <Attribute id="517" value="44100" name="sampleRate"/>
              <Attribute id="518" value="16" name="bitDepth"/>
              <Attribute id="519" value="1" name="gain"/>
              <Attribute id="520" value="0" name="mixToMono"/>
             </Attributes>
            </AMFile>
            <ScreenVMFile id="521" start="723" duration="85" scalar="1/1" mediaStart="822/1" mediaDuration="85/1" trackNumber="0" src="4" >
             <Transformer>
              <VectorParam id="522"  name="translation">
               <InterpolatingParam id="523" interp="linr"  time="-9999999/1" value="0" leadInLength="0/1"  />
               <InterpolatingParam id="524" interp="linr"  time="-9999999/1" value="0" leadInLength="0/1"  />
               <InterpolatingParam id="525" interp="linr"  time="-9999999/1" value="0" leadInLength="0/1"  />
              </VectorParam>
              <VectorParam id="526"  name="rotation">
               <InterpolatingParam id="527" interp="linr"  time="-9999999/1" value="0" leadInLength="0/1"  />
               <InterpolatingParam id="528" interp="linr"  time="-9999999/1" value="0" leadInLength="0/1"  />
               <InterpolatingParam id="529" interp="linr"  time="-9999999/1" value="0" leadInLength="0/1"  />
              </VectorParam>
              <VectorParam id="530"  name="shear">
               <InterpolatingParam id="531" interp="linr"  time="-9999999/1" value="0" leadInLength="0/1"  />
               <InterpolatingParam id="532" interp="linr"  time="-9999999/1" value="0" leadInLength="0/1"  />
               <InterpolatingParam id="533" interp="linr"  time="-9999999/1" value="0" leadInLength="0/1"  />
              </VectorParam>
              <VectorParam id="534"  name="scale">
               <InterpolatingParam id="535" interp="linr"  time="-9999999/1" value="1" leadInLength="0/1"  />
               <InterpolatingParam id="536" interp="linr"  time="-9999999/1" value="1" leadInLength="0/1"  />
               <InterpolatingParam id="537" interp="linr"  time="-9999999/1" value="1" leadInLength="0/1"  />
              </VectorParam>
              <VectorParam id="538"  name="anchor">
               <InterpolatingParam id="539" interp="linr"  time="0/1" value="0" leadInLength="0/1"  />
               <InterpolatingParam id="540" interp="linr"  time="0/1" value="0" leadInLength="0/1"  />
               <InterpolatingParam id="541" interp="linr"  time="0/1" value="0" leadInLength="0/1"  />
              </VectorParam>
             </Transformer>
             <Parameters>
              <VectorParam id="542"  name="sourceCrop">
               <InterpolatingParam id="543" interp="linr"  time="0/1" value="0" leadInLength="0/1"  />
               <InterpolatingParam id="544" interp="linr"  time="0/1" value="0" leadInLength="0/1"  />
               <InterpolatingParam id="545" interp="linr"  time="0/1" value="0" leadInLength="0/1"  />
               <InterpolatingParam id="546" interp="linr"  time="0/1" value="0" leadInLength="0/1"  />
              </VectorParam>
              <VectorParam id="547"  name="geometryCrop">
               <InterpolatingParam id="548" interp="linr"  time="-9999999/1" value="0" leadInLength="0/1"  />
               <InterpolatingParam id="549" interp="linr"  time="-9999999/1" value="0" leadInLength="0/1"  />
               <InterpolatingParam id="550" interp="linr"  time="-9999999/1" value="0" leadInLength="0/1"  />
               <InterpolatingParam id="551" interp="linr"  time="-9999999/1" value="0" leadInLength="0/1"  />
              </VectorParam>
              <InterpolatingParam id="552" interp="linr"  time="-9999999/1" value="1" leadInLength="0/1"  name="opacity"/>
              <InterpolatingParam id="553" interp="linr"  time="0/1" value="0" leadInLength="0/1"  name="cursorOpacity"/>
              <InterpolatingParam id="554" interp="linr"  time="0/1" value="0" leadInLength="0/1"  name="cursorScale"/>
             </Parameters>
             <Attributes>
              <Attribute id="555" value="" name="ident"/>
             </Attributes>
             <ExtraData>
              <Entry key="ZoomPanBin">
               <ZoomPanBin id="556"  >
                <ZoomPanKeyframes>
                 <ZoomPanKeyframe id="557" timeRangeEnd="-9999999/1" timeRangeDuration="0/1" interpolaterName=""  />
                </ZoomPanKeyframes>
               </ZoomPanBin>
              </Entry>
              <Entry key="CursorEffectBin">
               <CursorEffectBin id="558"  >
                <CursorEffectKeyframes>
                </CursorEffectKeyframes>
               </CursorEffectBin>
              </Entry>
             </ExtraData>
            </ScreenVMFile>
            <MetaData>
             <entry key="AutoAppliedSmartFocus" val="False"/>
             <entry key="WinSubProjectDisplayName" val=""/>
            </MetaData>
           </UnifiedMedia>
           <UnifiedMedia id="559"  >
            <AMFile id="560" start="808" duration="46" scalar="1/1" mediaStart="962/1" mediaDuration="46/1" trackNumber="1" src="4" channelNumber="0,1" >
             <Parameters>
              <InterpolatingParam id="561" interp="linr"  time="0/1" value="1" leadInLength="0/1"  name="volume"/>
              <Parameter id="562"  name="captions"/>
             </Parameters>
             <Attributes>
              <Attribute id="563" value="" name="ident"/>
              <Attribute id="564" value="44100" name="sampleRate"/>
              <Attribute id="565" value="16" name="bitDepth"/>
              <Attribute id="566" value="1" name="gain"/>
              <Attribute id="567" value="0" name="mixToMono"/>
             </Attributes>
            </AMFile>
            <ScreenVMFile id="568" start="808" duration="46" scalar="1/1" mediaStart="962/1" mediaDuration="46/1" trackNumber="0" src="4" >
             <Transformer>
              <VectorParam id="569"  name="translation">
               <InterpolatingParam id="570" interp="linr"  time="-9999999/1" value="0" leadInLength="0/1"  />
               <InterpolatingParam id="571" interp="linr"  time="-9999999/1" value="0" leadInLength="0/1"  />
               <InterpolatingParam id="572" interp="linr"  time="-9999999/1" value="0" leadInLength="0/1"  />
              </VectorParam>
              <VectorParam id="573"  name="rotation">
               <InterpolatingParam id="574" interp="linr"  time="-9999999/1" value="0" leadInLength="0/1"  />
               <InterpolatingParam id="575" interp="linr"  time="-9999999/1" value="0" leadInLength="0/1"  />
               <InterpolatingParam id="576" interp="linr"  time="-9999999/1" value="0" leadInLength="0/1"  />
              </VectorParam>
              <VectorParam id="577"  name="shear">
               <InterpolatingParam id="578" interp="linr"  time="-9999999/1" value="0" leadInLength="0/1"  />
               <InterpolatingParam id="579" interp="linr"  time="-9999999/1" value="0" leadInLength="0/1"  />
               <InterpolatingParam id="580" interp="linr"  time="-9999999/1" value="0" leadInLength="0/1"  />
              </VectorParam>
              <VectorParam id="581"  name="scale">
               <InterpolatingParam id="582" interp="linr"  time="-9999999/1" value="1" leadInLength="0/1"  />
               <InterpolatingParam id="583" interp="linr"  time="-9999999/1" value="1" leadInLength="0/1"  />
               <InterpolatingParam id="584" interp="linr"  time="-9999999/1" value="1" leadInLength="0/1"  />
              </VectorParam>
              <VectorParam id="585"  name="anchor">
               <InterpolatingParam id="586" interp="linr"  time="0/1" value="0" leadInLength="0/1"  />
               <InterpolatingParam id="587" interp="linr"  time="0/1" value="0" leadInLength="0/1"  />
               <InterpolatingParam id="588" interp="linr"  time="0/1" value="0" leadInLength="0/1"  />
              </VectorParam>
             </Transformer>
             <Parameters>
              <VectorParam id="589"  name="sourceCrop">
               <InterpolatingParam id="590" interp="linr"  time="0/1" value="0" leadInLength="0/1"  />
               <InterpolatingParam id="591" interp="linr"  time="0/1" value="0" leadInLength="0/1"  />
               <InterpolatingParam id="592" interp="linr"  time="0/1" value="0" leadInLength="0/1"  />
               <InterpolatingParam id="593" interp="linr"  time="0/1" value="0" leadInLength="0/1"  />
              </VectorParam>
              <VectorParam id="594"  name="geometryCrop">
               <InterpolatingParam id="595" interp="linr"  time="-9999999/1" value="0" leadInLength="0/1"  />
               <InterpolatingParam id="596" interp="linr"  time="-9999999/1" value="0" leadInLength="0/1"  />
               <InterpolatingParam id="597" interp="linr"  time="-9999999/1" value="0" leadInLength="0/1"  />
               <InterpolatingParam id="598" interp="linr"  time="-9999999/1" value="0" leadInLength="0/1"  />
              </VectorParam>
              <InterpolatingParam id="599" interp="linr"  time="-9999999/1" value="1" leadInLength="0/1"  name="opacity"/>
              <InterpolatingParam id="600" interp="linr"  time="0/1" value="0" leadInLength="0/1"  name="cursorOpacity"/>
              <InterpolatingParam id="601" interp="linr"  time="0/1" value="0" leadInLength="0/1"  name="cursorScale"/>
             </Parameters>
             <Attributes>
              <Attribute id="602" value="" name="ident"/>
             </Attributes>
             <ExtraData>
              <Entry key="ZoomPanBin">
               <ZoomPanBin id="603"  >
                <ZoomPanKeyframes>
                 <ZoomPanKeyframe id="604" timeRangeEnd="-9999999/1" timeRangeDuration="0/1" interpolaterName=""  />
                </ZoomPanKeyframes>
               </ZoomPanBin>
              </Entry>
              <Entry key="CursorEffectBin">
               <CursorEffectBin id="605"  >
                <CursorEffectKeyframes>
                </CursorEffectKeyframes>
               </CursorEffectBin>
              </Entry>
             </ExtraData>
            </ScreenVMFile>
            <MetaData>
             <entry key="AutoAppliedSmartFocus" val="False"/>
             <entry key="WinSubProjectDisplayName" val=""/>
            </MetaData>
           </UnifiedMedia>
           <UnifiedMedia id="606"  >
            <AMFile id="607" start="854" duration="110" scalar="1/1" mediaStart="1151/1" mediaDuration="110/1" trackNumber="1" src="4" channelNumber="0,1" >
             <Parameters>
              <InterpolatingParam id="608" interp="linr"  time="0/1" value="1" leadInLength="0/1"  name="volume"/>
              <Parameter id="609"  name="captions"/>
             </Parameters>
             <Attributes>
              <Attribute id="610" value="" name="ident"/>
              <Attribute id="611" value="44100" name="sampleRate"/>
              <Attribute id="612" value="16" name="bitDepth"/>
              <Attribute id="613" value="1" name="gain"/>
              <Attribute id="614" value="0" name="mixToMono"/>
             </Attributes>
            </AMFile>
            <ScreenVMFile id="615" start="854" duration="110" scalar="1/1" mediaStart="1151/1" mediaDuration="110/1" trackNumber="0" src="4" >
             <Transformer>
              <VectorParam id="616"  name="translation">
               <InterpolatingParam id="617" interp="linr"  time="-9999999/1" value="0" leadInLength="0/1"  />
               <InterpolatingParam id="618" interp="linr"  time="-9999999/1" value="0" leadInLength="0/1"  />
               <InterpolatingParam id="619" interp="linr"  time="-9999999/1" value="0" leadInLength="0/1"  />
              </VectorParam>
              <VectorParam id="620"  name="rotation">
               <InterpolatingParam id="621" interp="linr"  time="-9999999/1" value="0" leadInLength="0/1"  />
               <InterpolatingParam id="622" interp="linr"  time="-9999999/1" value="0" leadInLength="0/1"  />
               <InterpolatingParam id="623" interp="linr"  time="-9999999/1" value="0" leadInLength="0/1"  />
              </VectorParam>
              <VectorParam id="624"  name="shear">
               <InterpolatingParam id="625" interp="linr"  time="-9999999/1" value="0" leadInLength="0/1"  />
               <InterpolatingParam id="626" interp="linr"  time="-9999999/1" value="0" leadInLength="0/1"  />
               <InterpolatingParam id="627" interp="linr"  time="-9999999/1" value="0" leadInLength="0/1"  />
              </VectorParam>
              <VectorParam id="628"  name="scale">
               <InterpolatingParam id="629" interp="linr"  time="-9999999/1" value="1" leadInLength="0/1"  />
               <InterpolatingParam id="630" interp="linr"  time="-9999999/1" value="1" leadInLength="0/1"  />
               <InterpolatingParam id="631" interp="linr"  time="-9999999/1" value="1" leadInLength="0/1"  />
              </VectorParam>
              <VectorParam id="632"  name="anchor">
               <InterpolatingParam id="633" interp="linr"  time="0/1" value="0" leadInLength="0/1"  />
               <InterpolatingParam id="634" interp="linr"  time="0/1" value="0" leadInLength="0/1"  />
               <InterpolatingParam id="635" interp="linr"  time="0/1" value="0" leadInLength="0/1"  />
              </VectorParam>
             </Transformer>
             <Parameters>
              <VectorParam id="636"  name="sourceCrop">
               <InterpolatingParam id="637" interp="linr"  time="0/1" value="0" leadInLength="0/1"  />
               <InterpolatingParam id="638" interp="linr"  time="0/1" value="0" leadInLength="0/1"  />
               <InterpolatingParam id="639" interp="linr"  time="0/1" value="0" leadInLength="0/1"  />
               <InterpolatingParam id="640" interp="linr"  time="0/1" value="0" leadInLength="0/1"  />
              </VectorParam>
              <VectorParam id="641"  name="geometryCrop">
               <InterpolatingParam id="642" interp="linr"  time="-9999999/1" value="0" leadInLength="0/1"  />
               <InterpolatingParam id="643" interp="linr"  time="-9999999/1" value="0" leadInLength="0/1"  />
               <InterpolatingParam id="644" interp="linr"  time="-9999999/1" value="0" leadInLength="0/1"  />
               <InterpolatingParam id="645" interp="linr"  time="-9999999/1" value="0" leadInLength="0/1"  />
              </VectorParam>
              <InterpolatingParam id="646" interp="linr"  time="-9999999/1" value="1" leadInLength="0/1"  name="opacity"/>
              <InterpolatingParam id="647" interp="linr"  time="0/1" value="0" leadInLength="0/1"  name="cursorOpacity"/>
              <InterpolatingParam id="648" interp="linr"  time="0/1" value="0" leadInLength="0/1"  name="cursorScale"/>
             </Parameters>
             <Attributes>
              <Attribute id="649" value="" name="ident"/>
             </Attributes>
             <ExtraData>
              <Entry key="ZoomPanBin">
               <ZoomPanBin id="650"  >
                <ZoomPanKeyframes>
                 <ZoomPanKeyframe id="651" timeRangeEnd="-9999999/1" timeRangeDuration="0/1" interpolaterName=""  />
                </ZoomPanKeyframes>
               </ZoomPanBin>
              </Entry>
              <Entry key="CursorEffectBin">
               <CursorEffectBin id="652"  >
                <CursorEffectKeyframes>
                </CursorEffectKeyframes>
               </CursorEffectBin>
              </Entry>
             </ExtraData>
            </ScreenVMFile>
            <MetaData>
             <entry key="AutoAppliedSmartFocus" val="False"/>
             <entry key="WinSubProjectDisplayName" val=""/>
            </MetaData>
           </UnifiedMedia>
           <UnifiedMedia id="653"  >
            <AMFile id="654" start="964" duration="153" scalar="1/1" mediaStart="1315/1" mediaDuration="153/1" trackNumber="1" src="4" channelNumber="0,1" >
             <Parameters>
              <InterpolatingParam id="655" interp="linr"  time="0/1" value="1" leadInLength="0/1"  name="volume"/>
              <Parameter id="656"  name="captions"/>
             </Parameters>
             <Attributes>
              <Attribute id="657" value="" name="ident"/>
              <Attribute id="658" value="44100" name="sampleRate"/>
              <Attribute id="659" value="16" name="bitDepth"/>
              <Attribute id="660" value="1" name="gain"/>
              <Attribute id="661" value="0" name="mixToMono"/>
             </Attributes>
            </AMFile>
            <ScreenVMFile id="662" start="964" duration="153" scalar="1/1" mediaStart="1315/1" mediaDuration="153/1" trackNumber="0" src="4" >
             <Transformer>
              <VectorParam id="663"  name="translation">
               <InterpolatingParam id="664" interp="linr"  time="-9999999/1" value="0" leadInLength="0/1"  />
               <InterpolatingParam id="665" interp="linr"  time="-9999999/1" value="0" leadInLength="0/1"  />
               <InterpolatingParam id="666" interp="linr"  time="-9999999/1" value="0" leadInLength="0/1"  />
              </VectorParam>
              <VectorParam id="667"  name="rotation">
               <InterpolatingParam id="668" interp="linr"  time="-9999999/1" value="0" leadInLength="0/1"  />
               <InterpolatingParam id="669" interp="linr"  time="-9999999/1" value="0" leadInLength="0/1"  />
               <InterpolatingParam id="670" interp="linr"  time="-9999999/1" value="0" leadInLength="0/1"  />
              </VectorParam>
              <VectorParam id="671"  name="shear">
               <InterpolatingParam id="672" interp="linr"  time="-9999999/1" value="0" leadInLength="0/1"  />
               <InterpolatingParam id="673" interp="linr"  time="-9999999/1" value="0" leadInLength="0/1"  />
               <InterpolatingParam id="674" interp="linr"  time="-9999999/1" value="0" leadInLength="0/1"  />
              </VectorParam>
              <VectorParam id="675"  name="scale">
               <InterpolatingParam id="676" interp="linr"  time="-9999999/1" value="1" leadInLength="0/1"  />
               <InterpolatingParam id="677" interp="linr"  time="-9999999/1" value="1" leadInLength="0/1"  />
               <InterpolatingParam id="678" interp="linr"  time="-9999999/1" value="1" leadInLength="0/1"  />
              </VectorParam>
              <VectorParam id="679"  name="anchor">
               <InterpolatingParam id="680" interp="linr"  time="0/1" value="0" leadInLength="0/1"  />
               <InterpolatingParam id="681" interp="linr"  time="0/1" value="0" leadInLength="0/1"  />
               <InterpolatingParam id="682" interp="linr"  time="0/1" value="0" leadInLength="0/1"  />
              </VectorParam>
             </Transformer>
             <Parameters>
              <VectorParam id="683"  name="sourceCrop">
               <InterpolatingParam id="684" interp="linr"  time="0/1" value="0" leadInLength="0/1"  />
               <InterpolatingParam id="685" interp="linr"  time="0/1" value="0" leadInLength="0/1"  />
               <InterpolatingParam id="686" interp="linr"  time="0/1" value="0" leadInLength="0/1"  />
               <InterpolatingParam id="687" interp="linr"  time="0/1" value="0" leadInLength="0/1"  />
              </VectorParam>
              <VectorParam id="688"  name="geometryCrop">
               <InterpolatingParam id="689" interp="linr"  time="-9999999/1" value="0" leadInLength="0/1"  />
               <InterpolatingParam id="690" interp="linr"  time="-9999999/1" value="0" leadInLength="0/1"  />
               <InterpolatingParam id="691" interp="linr"  time="-9999999/1" value="0" leadInLength="0/1"  />
               <InterpolatingParam id="692" interp="linr"  time="-9999999/1" value="0" leadInLength="0/1"  />
              </VectorParam>
              <InterpolatingParam id="693" interp="linr"  time="-9999999/1" value="1" leadInLength="0/1"  name="opacity"/>
              <InterpolatingParam id="694" interp="linr"  time="0/1" value="0" leadInLength="0/1"  name="cursorOpacity"/>
              <InterpolatingParam id="695" interp="linr"  time="0/1" value="0" leadInLength="0/1"  name="cursorScale"/>
             </Parameters>
             <Attributes>
              <Attribute id="696" value="" name="ident"/>
             </Attributes>
             <ExtraData>
              <Entry key="ZoomPanBin">
               <ZoomPanBin id="697"  >
                <ZoomPanKeyframes>
                 <ZoomPanKeyframe id="698" timeRangeEnd="-9999999/1" timeRangeDuration="0/1" interpolaterName=""  />
                </ZoomPanKeyframes>
               </ZoomPanBin>
              </Entry>
              <Entry key="CursorEffectBin">
               <CursorEffectBin id="699"  >
                <CursorEffectKeyframes>
                </CursorEffectKeyframes>
               </CursorEffectBin>
              </Entry>
             </ExtraData>
            </ScreenVMFile>
            <MetaData>
             <entry key="AutoAppliedSmartFocus" val="False"/>
             <entry key="WinSubProjectDisplayName" val=""/>
            </MetaData>
           </UnifiedMedia>
           <UnifiedMedia id="700"  >
            <AMFile id="701" start="1117" duration="165" scalar="1/1" mediaStart="1587/1" mediaDuration="165/1" trackNumber="1" src="4" channelNumber="0,1" >
             <Parameters>
              <InterpolatingParam id="702" interp="linr"  time="0/1" value="1" leadInLength="0/1"  name="volume"/>
              <Parameter id="703"  name="captions"/>
             </Parameters>
             <Attributes>
              <Attribute id="704" value="" name="ident"/>
              <Attribute id="705" value="44100" name="sampleRate"/>
              <Attribute id="706" value="16" name="bitDepth"/>
              <Attribute id="707" value="1" name="gain"/>
              <Attribute id="708" value="0" name="mixToMono"/>
             </Attributes>
            </AMFile>
            <ScreenVMFile id="709" start="1117" duration="165" scalar="1/1" mediaStart="1587/1" mediaDuration="165/1" trackNumber="0" src="4" >
             <Transformer>
              <VectorParam id="710"  name="translation">
               <InterpolatingParam id="711" interp="linr"  time="-9999999/1" value="0" leadInLength="0/1"  />
               <InterpolatingParam id="712" interp="linr"  time="-9999999/1" value="0" leadInLength="0/1"  />
               <InterpolatingParam id="713" interp="linr"  time="-9999999/1" value="0" leadInLength="0/1"  />
              </VectorParam>
              <VectorParam id="714"  name="rotation">
               <InterpolatingParam id="715" interp="linr"  time="-9999999/1" value="0" leadInLength="0/1"  />
               <InterpolatingParam id="716" interp="linr"  time="-9999999/1" value="0" leadInLength="0/1"  />
               <InterpolatingParam id="717" interp="linr"  time="-9999999/1" value="0" leadInLength="0/1"  />
              </VectorParam>
              <VectorParam id="718"  name="shear">
               <InterpolatingParam id="719" interp="linr"  time="-9999999/1" value="0" leadInLength="0/1"  />
               <InterpolatingParam id="720" interp="linr"  time="-9999999/1" value="0" leadInLength="0/1"  />
               <InterpolatingParam id="721" interp="linr"  time="-9999999/1" value="0" leadInLength="0/1"  />
              </VectorParam>
              <VectorParam id="722"  name="scale">
               <InterpolatingParam id="723" interp="linr"  time="-9999999/1" value="1" leadInLength="0/1"  />
               <InterpolatingParam id="724" interp="linr"  time="-9999999/1" value="1" leadInLength="0/1"  />
               <InterpolatingParam id="725" interp="linr"  time="-9999999/1" value="1" leadInLength="0/1"  />
              </VectorParam>
              <VectorParam id="726"  name="anchor">
               <InterpolatingParam id="727" interp="linr"  time="0/1" value="0" leadInLength="0/1"  />
               <InterpolatingParam id="728" interp="linr"  time="0/1" value="0" leadInLength="0/1"  />
               <InterpolatingParam id="729" interp="linr"  time="0/1" value="0" leadInLength="0/1"  />
              </VectorParam>
             </Transformer>
             <Parameters>
              <VectorParam id="730"  name="sourceCrop">
               <InterpolatingParam id="731" interp="linr"  time="0/1" value="0" leadInLength="0/1"  />
               <InterpolatingParam id="732" interp="linr"  time="0/1" value="0" leadInLength="0/1"  />
               <InterpolatingParam id="733" interp="linr"  time="0/1" value="0" leadInLength="0/1"  />
               <InterpolatingParam id="734" interp="linr"  time="0/1" value="0" leadInLength="0/1"  />
              </VectorParam>
              <VectorParam id="735"  name="geometryCrop">
               <InterpolatingParam id="736" interp="linr"  time="-9999999/1" value="0" leadInLength="0/1"  />
               <InterpolatingParam id="737" interp="linr"  time="-9999999/1" value="0" leadInLength="0/1"  />
               <InterpolatingParam id="738" interp="linr"  time="-9999999/1" value="0" leadInLength="0/1"  />
               <InterpolatingParam id="739" interp="linr"  time="-9999999/1" value="0" leadInLength="0/1"  />
              </VectorParam>
              <InterpolatingParam id="740" interp="linr"  time="-9999999/1" value="1" leadInLength="0/1"  name="opacity"/>
              <InterpolatingParam id="741" interp="linr"  time="0/1" value="0" leadInLength="0/1"  name="cursorOpacity"/>
              <InterpolatingParam id="742" interp="linr"  time="0/1" value="0" leadInLength="0/1"  name="cursorScale"/>
             </Parameters>
             <Attributes>
              <Attribute id="743" value="" name="ident"/>
             </Attributes>
             <ExtraData>
              <Entry key="ZoomPanBin">
               <ZoomPanBin id="744"  >
                <ZoomPanKeyframes>
                 <ZoomPanKeyframe id="745" timeRangeEnd="-9999999/1" timeRangeDuration="0/1" interpolaterName=""  />
                </ZoomPanKeyframes>
               </ZoomPanBin>
              </Entry>
              <Entry key="CursorEffectBin">
               <CursorEffectBin id="746"  >
                <CursorEffectKeyframes>
                </CursorEffectKeyframes>
               </CursorEffectBin>
              </Entry>
             </ExtraData>
            </ScreenVMFile>
            <MetaData>
             <entry key="AutoAppliedSmartFocus" val="False"/>
             <entry key="WinSubProjectDisplayName" val=""/>
            </MetaData>
           </UnifiedMedia>
           <UnifiedMedia id="747"  >
            <AMFile id="748" start="1282" duration="31" scalar="1/1" mediaStart="1831/1" mediaDuration="31/1" trackNumber="1" src="4" channelNumber="0,1" >
             <Parameters>
              <InterpolatingParam id="749" interp="linr"  time="0/1" value="1" leadInLength="0/1"  name="volume"/>
              <Parameter id="750"  name="captions"/>
             </Parameters>
             <Attributes>
              <Attribute id="751" value="" name="ident"/>
              <Attribute id="752" value="44100" name="sampleRate"/>
              <Attribute id="753" value="16" name="bitDepth"/>
              <Attribute id="754" value="1" name="gain"/>
              <Attribute id="755" value="0" name="mixToMono"/>
             </Attributes>
            </AMFile>
            <ScreenVMFile id="756" start="1282" duration="31" scalar="1/1" mediaStart="1831/1" mediaDuration="31/1" trackNumber="0" src="4" >
             <Transformer>
              <VectorParam id="757"  name="translation">
               <InterpolatingParam id="758" interp="linr"  time="-9999999/1" value="0" leadInLength="0/1"  />
               <InterpolatingParam id="759" interp="linr"  time="-9999999/1" value="0" leadInLength="0/1"  />
               <InterpolatingParam id="760" interp="linr"  time="-9999999/1" value="0" leadInLength="0/1"  />
              </VectorParam>
              <VectorParam id="761"  name="rotation">
               <InterpolatingParam id="762" interp="linr"  time="-9999999/1" value="0" leadInLength="0/1"  />
               <InterpolatingParam id="763" interp="linr"  time="-9999999/1" value="0" leadInLength="0/1"  />
               <InterpolatingParam id="764" interp="linr"  time="-9999999/1" value="0" leadInLength="0/1"  />
              </VectorParam>
              <VectorParam id="765"  name="shear">
               <InterpolatingParam id="766" interp="linr"  time="-9999999/1" value="0" leadInLength="0/1"  />
               <InterpolatingParam id="767" interp="linr"  time="-9999999/1" value="0" leadInLength="0/1"  />
               <InterpolatingParam id="768" interp="linr"  time="-9999999/1" value="0" leadInLength="0/1"  />
              </VectorParam>
              <VectorParam id="769"  name="scale">
               <InterpolatingParam id="770" interp="linr"  time="-9999999/1" value="1" leadInLength="0/1"  />
               <InterpolatingParam id="771" interp="linr"  time="-9999999/1" value="1" leadInLength="0/1"  />
               <InterpolatingParam id="772" interp="linr"  time="-9999999/1" value="1" leadInLength="0/1"  />
              </VectorParam>
              <VectorParam id="773"  name="anchor">
               <InterpolatingParam id="774" interp="linr"  time="0/1" value="0" leadInLength="0/1"  />
               <InterpolatingParam id="775" interp="linr"  time="0/1" value="0" leadInLength="0/1"  />
               <InterpolatingParam id="776" interp="linr"  time="0/1" value="0" leadInLength="0/1"  />
              </VectorParam>
             </Transformer>
             <Parameters>
              <VectorParam id="777"  name="sourceCrop">
               <InterpolatingParam id="778" interp="linr"  time="0/1" value="0" leadInLength="0/1"  />
               <InterpolatingParam id="779" interp="linr"  time="0/1" value="0" leadInLength="0/1"  />
               <InterpolatingParam id="780" interp="linr"  time="0/1" value="0" leadInLength="0/1"  />
               <InterpolatingParam id="781" interp="linr"  time="0/1" value="0" leadInLength="0/1"  />
              </VectorParam>
              <VectorParam id="782"  name="geometryCrop">
               <InterpolatingParam id="783" interp="linr"  time="-9999999/1" value="0" leadInLength="0/1"  />
               <InterpolatingParam id="784" interp="linr"  time="-9999999/1" value="0" leadInLength="0/1"  />
               <InterpolatingParam id="785" interp="linr"  time="-9999999/1" value="0" leadInLength="0/1"  />
               <InterpolatingParam id="786" interp="linr"  time="-9999999/1" value="0" leadInLength="0/1"  />
              </VectorParam>
              <InterpolatingParam id="787" interp="linr"  time="-9999999/1" value="1" leadInLength="0/1"  name="opacity"/>
              <InterpolatingParam id="788" interp="linr"  time="0/1" value="0" leadInLength="0/1"  name="cursorOpacity"/>
              <InterpolatingParam id="789" interp="linr"  time="0/1" value="0" leadInLength="0/1"  name="cursorScale"/>
             </Parameters>
             <Attributes>
              <Attribute id="790" value="" name="ident"/>
             </Attributes>
             <ExtraData>
              <Entry key="ZoomPanBin">
               <ZoomPanBin id="791"  >
                <ZoomPanKeyframes>
                 <ZoomPanKeyframe id="792" timeRangeEnd="-9999999/1" timeRangeDuration="0/1" interpolaterName=""  />
                </ZoomPanKeyframes>
               </ZoomPanBin>
              </Entry>
              <Entry key="CursorEffectBin">
               <CursorEffectBin id="793"  >
                <CursorEffectKeyframes>
                </CursorEffectKeyframes>
               </CursorEffectBin>
              </Entry>
             </ExtraData>
            </ScreenVMFile>
            <MetaData>
             <entry key="AutoAppliedSmartFocus" val="False"/>
             <entry key="WinSubProjectDisplayName" val=""/>
            </MetaData>
           </UnifiedMedia>
           <UnifiedMedia id="794"  >
            <AMFile id="795" start="1313" duration="101" scalar="1/1" mediaStart="1906/1" mediaDuration="101/1" trackNumber="1" src="4" channelNumber="0,1" >
             <Parameters>
              <InterpolatingParam id="796" interp="linr"  time="0/1" value="1" leadInLength="0/1"  name="volume"/>
              <Parameter id="797"  name="captions"/>
             </Parameters>
             <Attributes>
              <Attribute id="798" value="" name="ident"/>
              <Attribute id="799" value="44100" name="sampleRate"/>
              <Attribute id="800" value="16" name="bitDepth"/>
              <Attribute id="801" value="1" name="gain"/>
              <Attribute id="802" value="0" name="mixToMono"/>
             </Attributes>
            </AMFile>
            <ScreenVMFile id="803" start="1313" duration="101" scalar="1/1" mediaStart="1906/1" mediaDuration="101/1" trackNumber="0" src="4" >
             <Transformer>
              <VectorParam id="804"  name="translation">
               <InterpolatingParam id="805" interp="linr"  time="-9999999/1" value="0" leadInLength="0/1"  />
               <InterpolatingParam id="806" interp="linr"  time="-9999999/1" value="0" leadInLength="0/1"  />
               <InterpolatingParam id="807" interp="linr"  time="-9999999/1" value="0" leadInLength="0/1"  />
              </VectorParam>
              <VectorParam id="808"  name="rotation">
               <InterpolatingParam id="809" interp="linr"  time="-9999999/1" value="0" leadInLength="0/1"  />
               <InterpolatingParam id="810" interp="linr"  time="-9999999/1" value="0" leadInLength="0/1"  />
               <InterpolatingParam id="811" interp="linr"  time="-9999999/1" value="0" leadInLength="0/1"  />
              </VectorParam>
              <VectorParam id="812"  name="shear">
               <InterpolatingParam id="813" interp="linr"  time="-9999999/1" value="0" leadInLength="0/1"  />
               <InterpolatingParam id="814" interp="linr"  time="-9999999/1" value="0" leadInLength="0/1"  />
               <InterpolatingParam id="815" interp="linr"  time="-9999999/1" value="0" leadInLength="0/1"  />
              </VectorParam>
              <VectorParam id="816"  name="scale">
               <InterpolatingParam id="817" interp="linr"  time="-9999999/1" value="1" leadInLength="0/1"  />
               <InterpolatingParam id="818" interp="linr"  time="-9999999/1" value="1" leadInLength="0/1"  />
               <InterpolatingParam id="819" interp="linr"  time="-9999999/1" value="1" leadInLength="0/1"  />
              </VectorParam>
              <VectorParam id="820"  name="anchor">
               <InterpolatingParam id="821" interp="linr"  time="0/1" value="0" leadInLength="0/1"  />
               <InterpolatingParam id="822" interp="linr"  time="0/1" value="0" leadInLength="0/1"  />
               <InterpolatingParam id="823" interp="linr"  time="0/1" value="0" leadInLength="0/1"  />
              </VectorParam>
             </Transformer>
             <Parameters>
              <VectorParam id="824"  name="sourceCrop">
               <InterpolatingParam id="825" interp="linr"  time="0/1" value="0" leadInLength="0/1"  />
               <InterpolatingParam id="826" interp="linr"  time="0/1" value="0" leadInLength="0/1"  />
               <InterpolatingParam id="827" interp="linr"  time="0/1" value="0" leadInLength="0/1"  />
               <InterpolatingParam id="828" interp="linr"  time="0/1" value="0" leadInLength="0/1"  />
              </VectorParam>
              <VectorParam id="829"  name="geometryCrop">
               <InterpolatingParam id="830" interp="linr"  time="-9999999/1" value="0" leadInLength="0/1"  />
               <InterpolatingParam id="831" interp="linr"  time="-9999999/1" value="0" leadInLength="0/1"  />
               <InterpolatingParam id="832" interp="linr"  time="-9999999/1" value="0" leadInLength="0/1"  />
               <InterpolatingParam id="833" interp="linr"  time="-9999999/1" value="0" leadInLength="0/1"  />
              </VectorParam>
              <InterpolatingParam id="834" interp="linr"  time="-9999999/1" value="1" leadInLength="0/1"  name="opacity"/>
              <InterpolatingParam id="835" interp="linr"  time="0/1" value="0" leadInLength="0/1"  name="cursorOpacity"/>
              <InterpolatingParam id="836" interp="linr"  time="0/1" value="0" leadInLength="0/1"  name="cursorScale"/>
             </Parameters>
             <Attributes>
              <Attribute id="837" value="" name="ident"/>
             </Attributes>
             <ExtraData>
              <Entry key="ZoomPanBin">
               <ZoomPanBin id="838"  >
                <ZoomPanKeyframes>
                 <ZoomPanKeyframe id="839" timeRangeEnd="-9999999/1" timeRangeDuration="0/1" interpolaterName=""  />
                </ZoomPanKeyframes>
               </ZoomPanBin>
              </Entry>
              <Entry key="CursorEffectBin">
               <CursorEffectBin id="840"  >
                <CursorEffectKeyframes>
                </CursorEffectKeyframes>
               </CursorEffectBin>
              </Entry>
             </ExtraData>
            </ScreenVMFile>
            <MetaData>
             <entry key="AutoAppliedSmartFocus" val="False"/>
             <entry key="WinSubProjectDisplayName" val=""/>
            </MetaData>
           </UnifiedMedia>
           <UnifiedMedia id="841"  >
            <AMFile id="842" start="1414" duration="282" scalar="1/1" mediaStart="2208/1" mediaDuration="282/1" trackNumber="1" src="4" channelNumber="0,1" >
             <Parameters>
              <InterpolatingParam id="843" interp="linr"  time="0/1" value="1" leadInLength="0/1"  name="volume"/>
              <Parameter id="844"  name="captions"/>
             </Parameters>
             <Attributes>
              <Attribute id="845" value="" name="ident"/>
              <Attribute id="846" value="44100" name="sampleRate"/>
              <Attribute id="847" value="16" name="bitDepth"/>
              <Attribute id="848" value="1" name="gain"/>
              <Attribute id="849" value="0" name="mixToMono"/>
             </Attributes>
            </AMFile>
            <ScreenVMFile id="850" start="1414" duration="282" scalar="1/1" mediaStart="2208/1" mediaDuration="282/1" trackNumber="0" src="4" >
             <Transformer>
              <VectorParam id="851"  name="translation">
               <InterpolatingParam id="852" interp="linr"  time="-9999999/1" value="0" leadInLength="0/1"  />
               <InterpolatingParam id="853" interp="linr"  time="-9999999/1" value="0" leadInLength="0/1"  />
               <InterpolatingParam id="854" interp="linr"  time="-9999999/1" value="0" leadInLength="0/1"  />
              </VectorParam>
              <VectorParam id="855"  name="rotation">
               <InterpolatingParam id="856" interp="linr"  time="-9999999/1" value="0" leadInLength="0/1"  />
               <InterpolatingParam id="857" interp="linr"  time="-9999999/1" value="0" leadInLength="0/1"  />
               <InterpolatingParam id="858" interp="linr"  time="-9999999/1" value="0" leadInLength="0/1"  />
              </VectorParam>
              <VectorParam id="859"  name="shear">
               <InterpolatingParam id="860" interp="linr"  time="-9999999/1" value="0" leadInLength="0/1"  />
               <InterpolatingParam id="861" interp="linr"  time="-9999999/1" value="0" leadInLength="0/1"  />
               <InterpolatingParam id="862" interp="linr"  time="-9999999/1" value="0" leadInLength="0/1"  />
              </VectorParam>
              <VectorParam id="863"  name="scale">
               <InterpolatingParam id="864" interp="linr"  time="-9999999/1" value="1" leadInLength="0/1"  />
               <InterpolatingParam id="865" interp="linr"  time="-9999999/1" value="1" leadInLength="0/1"  />
               <InterpolatingParam id="866" interp="linr"  time="-9999999/1" value="1" leadInLength="0/1"  />
              </VectorParam>
              <VectorParam id="867"  name="anchor">
               <InterpolatingParam id="868" interp="linr"  time="0/1" value="0" leadInLength="0/1"  />
               <InterpolatingParam id="869" interp="linr"  time="0/1" value="0" leadInLength="0/1"  />
               <InterpolatingParam id="870" interp="linr"  time="0/1" value="0" leadInLength="0/1"  />
              </VectorParam>
             </Transformer>
             <Parameters>
              <VectorParam id="871"  name="sourceCrop">
               <InterpolatingParam id="872" interp="linr"  time="0/1" value="0" leadInLength="0/1"  />
               <InterpolatingParam id="873" interp="linr"  time="0/1" value="0" leadInLength="0/1"  />
               <InterpolatingParam id="874" interp="linr"  time="0/1" value="0" leadInLength="0/1"  />
               <InterpolatingParam id="875" interp="linr"  time="0/1" value="0" leadInLength="0/1"  />
              </VectorParam>
              <VectorParam id="876"  name="geometryCrop">
               <InterpolatingParam id="877" interp="linr"  time="-9999999/1" value="0" leadInLength="0/1"  />
               <InterpolatingParam id="878" interp="linr"  time="-9999999/1" value="0" leadInLength="0/1"  />
               <InterpolatingParam id="879" interp="linr"  time="-9999999/1" value="0" leadInLength="0/1"  />
               <InterpolatingParam id="880" interp="linr"  time="-9999999/1" value="0" leadInLength="0/1"  />
              </VectorParam>
              <InterpolatingParam id="881" interp="linr"  time="-9999999/1" value="1" leadInLength="0/1"  name="opacity"/>
              <InterpolatingParam id="882" interp="linr"  time="0/1" value="0" leadInLength="0/1"  name="cursorOpacity"/>
              <InterpolatingParam id="883" interp="linr"  time="0/1" value="0" leadInLength="0/1"  name="cursorScale"/>
             </Parameters>
             <Attributes>
              <Attribute id="884" value="" name="ident"/>
             </Attributes>
             <ExtraData>
              <Entry key="ZoomPanBin">
               <ZoomPanBin id="885"  >
                <ZoomPanKeyframes>
                 <ZoomPanKeyframe id="886" timeRangeEnd="-9999999/1" timeRangeDuration="0/1" interpolaterName=""  />
                </ZoomPanKeyframes>
               </ZoomPanBin>
              </Entry>
              <Entry key="CursorEffectBin">
               <CursorEffectBin id="887"  >
                <CursorEffectKeyframes>
                </CursorEffectKeyframes>
               </CursorEffectBin>
              </Entry>
             </ExtraData>
            </ScreenVMFile>
            <MetaData>
             <entry key="AutoAppliedSmartFocus" val="False"/>
             <entry key="WinSubProjectDisplayName" val=""/>
            </MetaData>
           </UnifiedMedia>
           <UnifiedMedia id="888"  >
            <AMFile id="889" start="1696" duration="61" scalar="1/1" mediaStart="2529/1" mediaDuration="61/1" trackNumber="1" src="4" channelNumber="0,1" >
             <Parameters>
              <InterpolatingParam id="890" interp="linr"  time="0/1" value="1" leadInLength="0/1"  name="volume"/>
              <Parameter id="891"  name="captions"/>
             </Parameters>
             <Attributes>
              <Attribute id="892" value="" name="ident"/>
              <Attribute id="893" value="44100" name="sampleRate"/>
              <Attribute id="894" value="16" name="bitDepth"/>
              <Attribute id="895" value="1" name="gain"/>
              <Attribute id="896" value="0" name="mixToMono"/>
             </Attributes>
            </AMFile>
            <ScreenVMFile id="897" start="1696" duration="61" scalar="1/1" mediaStart="2529/1" mediaDuration="61/1" trackNumber="0" src="4" >
             <Transformer>
              <VectorParam id="898"  name="translation">
               <InterpolatingParam id="899" interp="linr"  time="-9999999/1" value="0" leadInLength="0/1"  />
               <InterpolatingParam id="900" interp="linr"  time="-9999999/1" value="0" leadInLength="0/1"  />
               <InterpolatingParam id="901" interp="linr"  time="-9999999/1" value="0" leadInLength="0/1"  />
              </VectorParam>
              <VectorParam id="902"  name="rotation">
               <InterpolatingParam id="903" interp="linr"  time="-9999999/1" value="0" leadInLength="0/1"  />
               <InterpolatingParam id="904" interp="linr"  time="-9999999/1" value="0" leadInLength="0/1"  />
               <InterpolatingParam id="905" interp="linr"  time="-9999999/1" value="0" leadInLength="0/1"  />
              </VectorParam>
              <VectorParam id="906"  name="shear">
               <InterpolatingParam id="907" interp="linr"  time="-9999999/1" value="0" leadInLength="0/1"  />
               <InterpolatingParam id="908" interp="linr"  time="-9999999/1" value="0" leadInLength="0/1"  />
               <InterpolatingParam id="909" interp="linr"  time="-9999999/1" value="0" leadInLength="0/1"  />
              </VectorParam>
              <VectorParam id="910"  name="scale">
               <InterpolatingParam id="911" interp="linr"  time="-9999999/1" value="1" leadInLength="0/1"  />
               <InterpolatingParam id="912" interp="linr"  time="-9999999/1" value="1" leadInLength="0/1"  />
               <InterpolatingParam id="913" interp="linr"  time="-9999999/1" value="1" leadInLength="0/1"  />
              </VectorParam>
              <VectorParam id="914"  name="anchor">
               <InterpolatingParam id="915" interp="linr"  time="0/1" value="0" leadInLength="0/1"  />
               <InterpolatingParam id="916" interp="linr"  time="0/1" value="0" leadInLength="0/1"  />
               <InterpolatingParam id="917" interp="linr"  time="0/1" value="0" leadInLength="0/1"  />
              </VectorParam>
             </Transformer>
             <Parameters>
              <VectorParam id="918"  name="sourceCrop">
               <InterpolatingParam id="919" interp="linr"  time="0/1" value="0" leadInLength="0/1"  />
               <InterpolatingParam id="920" interp="linr"  time="0/1" value="0" leadInLength="0/1"  />
               <InterpolatingParam id="921" interp="linr"  time="0/1" value="0" leadInLength="0/1"  />
               <InterpolatingParam id="922" interp="linr"  time="0/1" value="0" leadInLength="0/1"  />
              </VectorParam>
              <VectorParam id="923"  name="geometryCrop">
               <InterpolatingParam id="924" interp="linr"  time="-9999999/1" value="0" leadInLength="0/1"  />
               <InterpolatingParam id="925" interp="linr"  time="-9999999/1" value="0" leadInLength="0/1"  />
               <InterpolatingParam id="926" interp="linr"  time="-9999999/1" value="0" leadInLength="0/1"  />
               <InterpolatingParam id="927" interp="linr"  time="-9999999/1" value="0" leadInLength="0/1"  />
              </VectorParam>
              <InterpolatingParam id="928" interp="linr"  time="-9999999/1" value="1" leadInLength="0/1"  name="opacity"/>
              <InterpolatingParam id="929" interp="linr"  time="0/1" value="0" leadInLength="0/1"  name="cursorOpacity"/>
              <InterpolatingParam id="930" interp="linr"  time="0/1" value="0" leadInLength="0/1"  name="cursorScale"/>
             </Parameters>
             <Attributes>
              <Attribute id="931" value="" name="ident"/>
             </Attributes>
             <ExtraData>
              <Entry key="ZoomPanBin">
               <ZoomPanBin id="932"  >
                <ZoomPanKeyframes>
                 <ZoomPanKeyframe id="933" timeRangeEnd="-9999999/1" timeRangeDuration="0/1" interpolaterName=""  />
                </ZoomPanKeyframes>
               </ZoomPanBin>
              </Entry>
              <Entry key="CursorEffectBin">
               <CursorEffectBin id="934"  >
                <CursorEffectKeyframes>
                </CursorEffectKeyframes>
               </CursorEffectBin>
              </Entry>
             </ExtraData>
            </ScreenVMFile>
            <MetaData>
             <entry key="AutoAppliedSmartFocus" val="False"/>
             <entry key="WinSubProjectDisplayName" val=""/>
            </MetaData>
           </UnifiedMedia>
           <UnifiedMedia id="935"  >
            <AMFile id="936" start="1757" duration="157" scalar="1/1" mediaStart="2674/1" mediaDuration="157/1" trackNumber="1" src="4" channelNumber="0,1" >
             <Parameters>
              <InterpolatingParam id="937" interp="linr"  time="0/1" value="1" leadInLength="0/1"  name="volume"/>
              <Parameter id="938"  name="captions"/>
             </Parameters>
             <Attributes>
              <Attribute id="939" value="" name="ident"/>
              <Attribute id="940" value="44100" name="sampleRate"/>
              <Attribute id="941" value="16" name="bitDepth"/>
              <Attribute id="942" value="1" name="gain"/>
              <Attribute id="943" value="0" name="mixToMono"/>
             </Attributes>
            </AMFile>
            <ScreenVMFile id="944" start="1757" duration="157" scalar="1/1" mediaStart="2674/1" mediaDuration="157/1" trackNumber="0" src="4" >
             <Transformer>
              <VectorParam id="945"  name="translation">
               <InterpolatingParam id="946" interp="linr"  time="-9999999/1" value="0" leadInLength="0/1"  />
               <InterpolatingParam id="947" interp="linr"  time="-9999999/1" value="0" leadInLength="0/1"  />
               <InterpolatingParam id="948" interp="linr"  time="-9999999/1" value="0" leadInLength="0/1"  />
              </VectorParam>
              <VectorParam id="949"  name="rotation">
               <InterpolatingParam id="950" interp="linr"  time="-9999999/1" value="0" leadInLength="0/1"  />
               <InterpolatingParam id="951" interp="linr"  time="-9999999/1" value="0" leadInLength="0/1"  />
               <InterpolatingParam id="952" interp="linr"  time="-9999999/1" value="0" leadInLength="0/1"  />
              </VectorParam>
              <VectorParam id="953"  name="shear">
               <InterpolatingParam id="954" interp="linr"  time="-9999999/1" value="0" leadInLength="0/1"  />
               <InterpolatingParam id="955" interp="linr"  time="-9999999/1" value="0" leadInLength="0/1"  />
               <InterpolatingParam id="956" interp="linr"  time="-9999999/1" value="0" leadInLength="0/1"  />
              </VectorParam>
              <VectorParam id="957"  name="scale">
               <InterpolatingParam id="958" interp="linr"  time="-9999999/1" value="1" leadInLength="0/1"  />
               <InterpolatingParam id="959" interp="linr"  time="-9999999/1" value="1" leadInLength="0/1"  />
               <InterpolatingParam id="960" interp="linr"  time="-9999999/1" value="1" leadInLength="0/1"  />
              </VectorParam>
              <VectorParam id="961"  name="anchor">
               <InterpolatingParam id="962" interp="linr"  time="0/1" value="0" leadInLength="0/1"  />
               <InterpolatingParam id="963" interp="linr"  time="0/1" value="0" leadInLength="0/1"  />
               <InterpolatingParam id="964" interp="linr"  time="0/1" value="0" leadInLength="0/1"  />
              </VectorParam>
             </Transformer>
             <Parameters>
              <VectorParam id="965"  name="sourceCrop">
               <InterpolatingParam id="966" interp="linr"  time="0/1" value="0" leadInLength="0/1"  />
               <InterpolatingParam id="967" interp="linr"  time="0/1" value="0" leadInLength="0/1"  />
               <InterpolatingParam id="968" interp="linr"  time="0/1" value="0" leadInLength="0/1"  />
               <InterpolatingParam id="969" interp="linr"  time="0/1" value="0" leadInLength="0/1"  />
              </VectorParam>
              <VectorParam id="970"  name="geometryCrop">
               <InterpolatingParam id="971" interp="linr"  time="-9999999/1" value="0" leadInLength="0/1"  />
               <InterpolatingParam id="972" interp="linr"  time="-9999999/1" value="0" leadInLength="0/1"  />
               <InterpolatingParam id="973" interp="linr"  time="-9999999/1" value="0" leadInLength="0/1"  />
               <InterpolatingParam id="974" interp="linr"  time="-9999999/1" value="0" leadInLength="0/1"  />
              </VectorParam>
              <InterpolatingParam id="975" interp="linr"  time="-9999999/1" value="1" leadInLength="0/1"  name="opacity"/>
              <InterpolatingParam id="976" interp="linr"  time="0/1" value="0" leadInLength="0/1"  name="cursorOpacity"/>
              <InterpolatingParam id="977" interp="linr"  time="0/1" value="0" leadInLength="0/1"  name="cursorScale"/>
             </Parameters>
             <Attributes>
              <Attribute id="978" value="" name="ident"/>
             </Attributes>
             <ExtraData>
              <Entry key="ZoomPanBin">
               <ZoomPanBin id="979"  >
                <ZoomPanKeyframes>
                 <ZoomPanKeyframe id="980" timeRangeEnd="-9999999/1" timeRangeDuration="0/1" interpolaterName=""  />
                </ZoomPanKeyframes>
               </ZoomPanBin>
              </Entry>
              <Entry key="CursorEffectBin">
               <CursorEffectBin id="981"  >
                <CursorEffectKeyframes>
                </CursorEffectKeyframes>
               </CursorEffectBin>
              </Entry>
             </ExtraData>
            </ScreenVMFile>
            <MetaData>
             <entry key="AutoAppliedSmartFocus" val="False"/>
             <entry key="WinSubProjectDisplayName" val=""/>
            </MetaData>
           </UnifiedMedia>
           <UnifiedMedia id="982"  >
            <AMFile id="983" start="1914" duration="104" scalar="1/1" mediaStart="2895/1" mediaDuration="104/1" trackNumber="1" src="4" channelNumber="0,1" >
             <Parameters>
              <InterpolatingParam id="984" interp="linr"  time="0/1" value="1" leadInLength="0/1"  name="volume"/>
              <Parameter id="985"  name="captions"/>
             </Parameters>
             <Attributes>
              <Attribute id="986" value="" name="ident"/>
              <Attribute id="987" value="44100" name="sampleRate"/>
              <Attribute id="988" value="16" name="bitDepth"/>
              <Attribute id="989" value="1" name="gain"/>
              <Attribute id="990" value="0" name="mixToMono"/>
             </Attributes>
            </AMFile>
            <ScreenVMFile id="991" start="1914" duration="104" scalar="1/1" mediaStart="2895/1" mediaDuration="104/1" trackNumber="0" src="4" >
             <Transformer>
              <VectorParam id="992"  name="translation">
               <InterpolatingParam id="993" interp="linr"  time="-9999999/1" value="0" leadInLength="0/1"  />
               <InterpolatingParam id="994" interp="linr"  time="-9999999/1" value="0" leadInLength="0/1"  />
               <InterpolatingParam id="995" interp="linr"  time="-9999999/1" value="0" leadInLength="0/1"  />
              </VectorParam>
              <VectorParam id="996"  name="rotation">
               <InterpolatingParam id="997" interp="linr"  time="-9999999/1" value="0" leadInLength="0/1"  />
               <InterpolatingParam id="998" interp="linr"  time="-9999999/1" value="0" leadInLength="0/1"  />
               <InterpolatingParam id="999" interp="linr"  time="-9999999/1" value="0" leadInLength="0/1"  />
              </VectorParam>
              <VectorParam id="1000"  name="shear">
               <InterpolatingParam id="1001" interp="linr"  time="-9999999/1" value="0" leadInLength="0/1"  />
               <InterpolatingParam id="1002" interp="linr"  time="-9999999/1" value="0" leadInLength="0/1"  />
               <InterpolatingParam id="1003" interp="linr"  time="-9999999/1" value="0" leadInLength="0/1"  />
              </VectorParam>
              <VectorParam id="1004"  name="scale">
               <InterpolatingParam id="1005" interp="linr"  time="-9999999/1" value="1" leadInLength="0/1"  />
               <InterpolatingParam id="1006" interp="linr"  time="-9999999/1" value="1" leadInLength="0/1"  />
               <InterpolatingParam id="1007" interp="linr"  time="-9999999/1" value="1" leadInLength="0/1"  />
              </VectorParam>
              <VectorParam id="1008"  name="anchor">
               <InterpolatingParam id="1009" interp="linr"  time="0/1" value="0" leadInLength="0/1"  />
               <InterpolatingParam id="1010" interp="linr"  time="0/1" value="0" leadInLength="0/1"  />
               <InterpolatingParam id="1011" interp="linr"  time="0/1" value="0" leadInLength="0/1"  />
              </VectorParam>
             </Transformer>
             <Parameters>
              <VectorParam id="1012"  name="sourceCrop">
               <InterpolatingParam id="1013" interp="linr"  time="0/1" value="0" leadInLength="0/1"  />
               <InterpolatingParam id="1014" interp="linr"  time="0/1" value="0" leadInLength="0/1"  />
               <InterpolatingParam id="1015" interp="linr"  time="0/1" value="0" leadInLength="0/1"  />
               <InterpolatingParam id="1016" interp="linr"  time="0/1" value="0" leadInLength="0/1"  />
              </VectorParam>
              <VectorParam id="1017"  name="geometryCrop">
               <InterpolatingParam id="1018" interp="linr"  time="-9999999/1" value="0" leadInLength="0/1"  />
               <InterpolatingParam id="1019" interp="linr"  time="-9999999/1" value="0" leadInLength="0/1"  />
               <InterpolatingParam id="1020" interp="linr"  time="-9999999/1" value="0" leadInLength="0/1"  />
               <InterpolatingParam id="1021" interp="linr"  time="-9999999/1" value="0" leadInLength="0/1"  />
              </VectorParam>
              <InterpolatingParam id="1022" interp="linr"  time="-9999999/1" value="1" leadInLength="0/1"  name="opacity"/>
              <InterpolatingParam id="1023" interp="linr"  time="0/1" value="0" leadInLength="0/1"  name="cursorOpacity"/>
              <InterpolatingParam id="1024" interp="linr"  time="0/1" value="0" leadInLength="0/1"  name="cursorScale"/>
             </Parameters>
             <Attributes>
              <Attribute id="1025" value="" name="ident"/>
             </Attributes>
             <ExtraData>
              <Entry key="ZoomPanBin">
               <ZoomPanBin id="1026"  >
                <ZoomPanKeyframes>
                 <ZoomPanKeyframe id="1027" timeRangeEnd="-9999999/1" timeRangeDuration="0/1" interpolaterName=""  />
                </ZoomPanKeyframes>
               </ZoomPanBin>
              </Entry>
              <Entry key="CursorEffectBin">
               <CursorEffectBin id="1028"  >
                <CursorEffectKeyframes>
                </CursorEffectKeyframes>
               </CursorEffectBin>
              </Entry>
             </ExtraData>
            </ScreenVMFile>
            <MetaData>
             <entry key="AutoAppliedSmartFocus" val="False"/>
             <entry key="WinSubProjectDisplayName" val=""/>
            </MetaData>
           </UnifiedMedia>
           <UnifiedMedia id="1029"  >
            <AMFile id="1030" start="2018" duration="40" scalar="1/1" mediaStart="3039/1" mediaDuration="40/1" trackNumber="1" src="4" channelNumber="0,1" >
             <Parameters>
              <InterpolatingParam id="1031" interp="linr"  time="0/1" value="1" leadInLength="0/1"  name="volume"/>
              <Parameter id="1032"  name="captions"/>
             </Parameters>
             <Attributes>
              <Attribute id="1033" value="" name="ident"/>
              <Attribute id="1034" value="44100" name="sampleRate"/>
              <Attribute id="1035" value="16" name="bitDepth"/>
              <Attribute id="1036" value="1" name="gain"/>
              <Attribute id="1037" value="0" name="mixToMono"/>
             </Attributes>
            </AMFile>
            <ScreenVMFile id="1038" start="2018" duration="40" scalar="1/1" mediaStart="3039/1" mediaDuration="40/1" trackNumber="0" src="4" >
             <Transformer>
              <VectorParam id="1039"  name="translation">
               <InterpolatingParam id="1040" interp="linr"  time="-9999999/1" value="0" leadInLength="0/1"  />
               <InterpolatingParam id="1041" interp="linr"  time="-9999999/1" value="0" leadInLength="0/1"  />
               <InterpolatingParam id="1042" interp="linr"  time="-9999999/1" value="0" leadInLength="0/1"  />
              </VectorParam>
              <VectorParam id="1043"  name="rotation">
               <InterpolatingParam id="1044" interp="linr"  time="-9999999/1" value="0" leadInLength="0/1"  />
               <InterpolatingParam id="1045" interp="linr"  time="-9999999/1" value="0" leadInLength="0/1"  />
               <InterpolatingParam id="1046" interp="linr"  time="-9999999/1" value="0" leadInLength="0/1"  />
              </VectorParam>
              <VectorParam id="1047"  name="shear">
               <InterpolatingParam id="1048" interp="linr"  time="-9999999/1" value="0" leadInLength="0/1"  />
               <InterpolatingParam id="1049" interp="linr"  time="-9999999/1" value="0" leadInLength="0/1"  />
               <InterpolatingParam id="1050" interp="linr"  time="-9999999/1" value="0" leadInLength="0/1"  />
              </VectorParam>
              <VectorParam id="1051"  name="scale">
               <InterpolatingParam id="1052" interp="linr"  time="-9999999/1" value="1" leadInLength="0/1"  />
               <InterpolatingParam id="1053" interp="linr"  time="-9999999/1" value="1" leadInLength="0/1"  />
               <InterpolatingParam id="1054" interp="linr"  time="-9999999/1" value="1" leadInLength="0/1"  />
              </VectorParam>
              <VectorParam id="1055"  name="anchor">
               <InterpolatingParam id="1056" interp="linr"  time="0/1" value="0" leadInLength="0/1"  />
               <InterpolatingParam id="1057" interp="linr"  time="0/1" value="0" leadInLength="0/1"  />
               <InterpolatingParam id="1058" interp="linr"  time="0/1" value="0" leadInLength="0/1"  />
              </VectorParam>
             </Transformer>
             <Parameters>
              <VectorParam id="1059"  name="sourceCrop">
               <InterpolatingParam id="1060" interp="linr"  time="0/1" value="0" leadInLength="0/1"  />
               <InterpolatingParam id="1061" interp="linr"  time="0/1" value="0" leadInLength="0/1"  />
               <InterpolatingParam id="1062" interp="linr"  time="0/1" value="0" leadInLength="0/1"  />
               <InterpolatingParam id="1063" interp="linr"  time="0/1" value="0" leadInLength="0/1"  />
              </VectorParam>
              <VectorParam id="1064"  name="geometryCrop">
               <InterpolatingParam id="1065" interp="linr"  time="-9999999/1" value="0" leadInLength="0/1"  />
               <InterpolatingParam id="1066" interp="linr"  time="-9999999/1" value="0" leadInLength="0/1"  />
               <InterpolatingParam id="1067" interp="linr"  time="-9999999/1" value="0" leadInLength="0/1"  />
               <InterpolatingParam id="1068" interp="linr"  time="-9999999/1" value="0" leadInLength="0/1"  />
              </VectorParam>
              <InterpolatingParam id="1069" interp="linr"  time="-9999999/1" value="1" leadInLength="0/1"  name="opacity"/>
              <InterpolatingParam id="1070" interp="linr"  time="0/1" value="0" leadInLength="0/1"  name="cursorOpacity"/>
              <InterpolatingParam id="1071" interp="linr"  time="0/1" value="0" leadInLength="0/1"  name="cursorScale"/>
             </Parameters>
             <Attributes>
              <Attribute id="1072" value="" name="ident"/>
             </Attributes>
             <ExtraData>
              <Entry key="ZoomPanBin">
               <ZoomPanBin id="1073"  >
                <ZoomPanKeyframes>
                 <ZoomPanKeyframe id="1074" timeRangeEnd="-9999999/1" timeRangeDuration="0/1" interpolaterName=""  />
                </ZoomPanKeyframes>
               </ZoomPanBin>
              </Entry>
              <Entry key="CursorEffectBin">
               <CursorEffectBin id="1075"  >
                <CursorEffectKeyframes>
                </CursorEffectKeyframes>
               </CursorEffectBin>
              </Entry>
             </ExtraData>
            </ScreenVMFile>
            <MetaData>
             <entry key="AutoAppliedSmartFocus" val="False"/>
             <entry key="WinSubProjectDisplayName" val=""/>
            </MetaData>
           </UnifiedMedia>
           <UnifiedMedia id="1076"  >
            <AMFile id="1077" start="2058" duration="205" scalar="1/1" mediaStart="3110/1" mediaDuration="205/1" trackNumber="1" src="4" channelNumber="0,1" >
             <Parameters>
              <InterpolatingParam id="1078" interp="linr"  time="0/1" value="1" leadInLength="0/1"  name="volume"/>
              <Parameter id="1079"  name="captions"/>
             </Parameters>
             <Attributes>
              <Attribute id="1080" value="" name="ident"/>
              <Attribute id="1081" value="44100" name="sampleRate"/>
              <Attribute id="1082" value="16" name="bitDepth"/>
              <Attribute id="1083" value="1" name="gain"/>
              <Attribute id="1084" value="0" name="mixToMono"/>
             </Attributes>
            </AMFile>
            <ScreenVMFile id="1085" start="2058" duration="205" scalar="1/1" mediaStart="3110/1" mediaDuration="205/1" trackNumber="0" src="4" >
             <Transformer>
              <VectorParam id="1086"  name="translation">
               <InterpolatingParam id="1087" interp="linr"  time="-9999999/1" value="0" leadInLength="0/1"  />
               <InterpolatingParam id="1088" interp="linr"  time="-9999999/1" value="0" leadInLength="0/1"  />
               <InterpolatingParam id="1089" interp="linr"  time="-9999999/1" value="0" leadInLength="0/1"  />
              </VectorParam>
              <VectorParam id="1090"  name="rotation">
               <InterpolatingParam id="1091" interp="linr"  time="-9999999/1" value="0" leadInLength="0/1"  />
               <InterpolatingParam id="1092" interp="linr"  time="-9999999/1" value="0" leadInLength="0/1"  />
               <InterpolatingParam id="1093" interp="linr"  time="-9999999/1" value="0" leadInLength="0/1"  />
              </VectorParam>
              <VectorParam id="1094"  name="shear">
               <InterpolatingParam id="1095" interp="linr"  time="-9999999/1" value="0" leadInLength="0/1"  />
               <InterpolatingParam id="1096" interp="linr"  time="-9999999/1" value="0" leadInLength="0/1"  />
               <InterpolatingParam id="1097" interp="linr"  time="-9999999/1" value="0" leadInLength="0/1"  />
              </VectorParam>
              <VectorParam id="1098"  name="scale">
               <InterpolatingParam id="1099" interp="linr"  time="-9999999/1" value="1" leadInLength="0/1"  />
               <InterpolatingParam id="1100" interp="linr"  time="-9999999/1" value="1" leadInLength="0/1"  />
               <InterpolatingParam id="1101" interp="linr"  time="-9999999/1" value="1" leadInLength="0/1"  />
              </VectorParam>
              <VectorParam id="1102"  name="anchor">
               <InterpolatingParam id="1103" interp="linr"  time="0/1" value="0" leadInLength="0/1"  />
               <InterpolatingParam id="1104" interp="linr"  time="0/1" value="0" leadInLength="0/1"  />
               <InterpolatingParam id="1105" interp="linr"  time="0/1" value="0" leadInLength="0/1"  />
              </VectorParam>
             </Transformer>
             <Parameters>
              <VectorParam id="1106"  name="sourceCrop">
               <InterpolatingParam id="1107" interp="linr"  time="0/1" value="0" leadInLength="0/1"  />
               <InterpolatingParam id="1108" interp="linr"  time="0/1" value="0" leadInLength="0/1"  />
               <InterpolatingParam id="1109" interp="linr"  time="0/1" value="0" leadInLength="0/1"  />
               <InterpolatingParam id="1110" interp="linr"  time="0/1" value="0" leadInLength="0/1"  />
              </VectorParam>
              <VectorParam id="1111"  name="geometryCrop">
               <InterpolatingParam id="1112" interp="linr"  time="-9999999/1" value="0" leadInLength="0/1"  />
               <InterpolatingParam id="1113" interp="linr"  time="-9999999/1" value="0" leadInLength="0/1"  />
               <InterpolatingParam id="1114" interp="linr"  time="-9999999/1" value="0" leadInLength="0/1"  />
               <InterpolatingParam id="1115" interp="linr"  time="-9999999/1" value="0" leadInLength="0/1"  />
              </VectorParam>
              <InterpolatingParam id="1116" interp="linr"  time="-9999999/1" value="1" leadInLength="0/1"  name="opacity"/>
              <InterpolatingParam id="1117" interp="linr"  time="0/1" value="0" leadInLength="0/1"  name="cursorOpacity"/>
              <InterpolatingParam id="1118" interp="linr"  time="0/1" value="0" leadInLength="0/1"  name="cursorScale"/>
             </Parameters>
             <Attributes>
              <Attribute id="1119" value="" name="ident"/>
             </Attributes>
             <ExtraData>
              <Entry key="ZoomPanBin">
               <ZoomPanBin id="1120"  >
                <ZoomPanKeyframes>
                 <ZoomPanKeyframe id="1121" timeRangeEnd="-9999999/1" timeRangeDuration="0/1" interpolaterName=""  />
                </ZoomPanKeyframes>
               </ZoomPanBin>
              </Entry>
              <Entry key="CursorEffectBin">
               <CursorEffectBin id="1122"  >
                <CursorEffectKeyframes>
                </CursorEffectKeyframes>
               </CursorEffectBin>
              </Entry>
             </ExtraData>
            </ScreenVMFile>
            <MetaData>
             <entry key="AutoAppliedSmartFocus" val="False"/>
             <entry key="WinSubProjectDisplayName" val=""/>
            </MetaData>
           </UnifiedMedia>
           <UnifiedMedia id="1123"  >
            <AMFile id="1124" start="2263" duration="626" scalar="1/1" mediaStart="5144/1" mediaDuration="626/1" trackNumber="1" src="4" channelNumber="0,1" >
             <Parameters>
              <InterpolatingParam id="1125" interp="linr"  time="0/1" value="1" leadInLength="0/1"  name="volume"/>
              <Parameter id="1126"  name="captions"/>
             </Parameters>
             <Attributes>
              <Attribute id="1127" value="" name="ident"/>
              <Attribute id="1128" value="44100" name="sampleRate"/>
              <Attribute id="1129" value="16" name="bitDepth"/>
              <Attribute id="1130" value="1" name="gain"/>
              <Attribute id="1131" value="0" name="mixToMono"/>
             </Attributes>
            </AMFile>
            <ScreenVMFile id="1132" start="2263" duration="626" scalar="1/1" mediaStart="5144/1" mediaDuration="626/1" trackNumber="0" src="4" >
             <Transformer>
              <VectorParam id="1133"  name="translation">
               <InterpolatingParam id="1134" interp="linr"  time="-9999999/1" value="0" leadInLength="0/1"  />
               <InterpolatingParam id="1135" interp="linr"  time="-9999999/1" value="0" leadInLength="0/1"  />
               <InterpolatingParam id="1136" interp="linr"  time="-9999999/1" value="0" leadInLength="0/1"  />
              </VectorParam>
              <VectorParam id="1137"  name="rotation">
               <InterpolatingParam id="1138" interp="linr"  time="-9999999/1" value="0" leadInLength="0/1"  />
               <InterpolatingParam id="1139" interp="linr"  time="-9999999/1" value="0" leadInLength="0/1"  />
               <InterpolatingParam id="1140" interp="linr"  time="-9999999/1" value="0" leadInLength="0/1"  />
              </VectorParam>
              <VectorParam id="1141"  name="shear">
               <InterpolatingParam id="1142" interp="linr"  time="-9999999/1" value="0" leadInLength="0/1"  />
               <InterpolatingParam id="1143" interp="linr"  time="-9999999/1" value="0" leadInLength="0/1"  />
               <InterpolatingParam id="1144" interp="linr"  time="-9999999/1" value="0" leadInLength="0/1"  />
              </VectorParam>
              <VectorParam id="1145"  name="scale">
               <InterpolatingParam id="1146" interp="linr"  time="-9999999/1" value="1" leadInLength="0/1"  />
               <InterpolatingParam id="1147" interp="linr"  time="-9999999/1" value="1" leadInLength="0/1"  />
               <InterpolatingParam id="1148" interp="linr"  time="-9999999/1" value="1" leadInLength="0/1"  />
              </VectorParam>
              <VectorParam id="1149"  name="anchor">
               <InterpolatingParam id="1150" interp="linr"  time="0/1" value="0" leadInLength="0/1"  />
               <InterpolatingParam id="1151" interp="linr"  time="0/1" value="0" leadInLength="0/1"  />
               <InterpolatingParam id="1152" interp="linr"  time="0/1" value="0" leadInLength="0/1"  />
              </VectorParam>
             </Transformer>
             <Parameters>
              <VectorParam id="1153"  name="sourceCrop">
               <InterpolatingParam id="1154" interp="linr"  time="0/1" value="0" leadInLength="0/1"  />
               <InterpolatingParam id="1155" interp="linr"  time="0/1" value="0" leadInLength="0/1"  />
               <InterpolatingParam id="1156" interp="linr"  time="0/1" value="0" leadInLength="0/1"  />
               <InterpolatingParam id="1157" interp="linr"  time="0/1" value="0" leadInLength="0/1"  />
              </VectorParam>
              <VectorParam id="1158"  name="geometryCrop">
               <InterpolatingParam id="1159" interp="linr"  time="-9999999/1" value="0" leadInLength="0/1"  />
               <InterpolatingParam id="1160" interp="linr"  time="-9999999/1" value="0" leadInLength="0/1"  />
               <InterpolatingParam id="1161" interp="linr"  time="-9999999/1" value="0" leadInLength="0/1"  />
               <InterpolatingParam id="1162" interp="linr"  time="-9999999/1" value="0" leadInLength="0/1"  />
              </VectorParam>
              <InterpolatingParam id="1163" interp="linr"  time="-9999999/1" value="1" leadInLength="0/1"  name="opacity"/>
              <InterpolatingParam id="1164" interp="linr"  time="0/1" value="0" leadInLength="0/1"  name="cursorOpacity"/>
              <InterpolatingParam id="1165" interp="linr"  time="0/1" value="0" leadInLength="0/1"  name="cursorScale"/>
             </Parameters>
             <Attributes>
              <Attribute id="1166" value="" name="ident"/>
             </Attributes>
             <ExtraData>
              <Entry key="ZoomPanBin">
               <ZoomPanBin id="1167"  >
                <ZoomPanKeyframes>
                 <ZoomPanKeyframe id="1168" timeRangeEnd="-9999999/1" timeRangeDuration="0/1" interpolaterName=""  />
                </ZoomPanKeyframes>
               </ZoomPanBin>
              </Entry>
              <Entry key="CursorEffectBin">
               <CursorEffectBin id="1169"  >
                <CursorEffectKeyframes>
                </CursorEffectKeyframes>
               </CursorEffectBin>
              </Entry>
             </ExtraData>
            </ScreenVMFile>
            <MetaData>
             <entry key="AutoAppliedSmartFocus" val="False"/>
             <entry key="WinSubProjectDisplayName" val=""/>
            </MetaData>
           </UnifiedMedia>
           <UnifiedMedia id="1170"  >
            <AMFile id="1171" start="2889" duration="295" scalar="1/1" mediaStart="5904/1" mediaDuration="295/1" trackNumber="1" src="4" channelNumber="0,1" >
             <Parameters>
              <InterpolatingParam id="1172" interp="linr"  time="0/1" value="1" leadInLength="0/1"  name="volume"/>
              <Parameter id="1173"  name="captions"/>
             </Parameters>
             <Attributes>
              <Attribute id="1174" value="" name="ident"/>
              <Attribute id="1175" value="44100" name="sampleRate"/>
              <Attribute id="1176" value="16" name="bitDepth"/>
              <Attribute id="1177" value="1" name="gain"/>
              <Attribute id="1178" value="0" name="mixToMono"/>
             </Attributes>
            </AMFile>
            <ScreenVMFile id="1179" start="2889" duration="295" scalar="1/1" mediaStart="5904/1" mediaDuration="295/1" trackNumber="0" src="4" >
             <Transformer>
              <VectorParam id="1180"  name="translation">
               <InterpolatingParam id="1181" interp="linr"  time="-9999999/1" value="0" leadInLength="0/1"  />
               <InterpolatingParam id="1182" interp="linr"  time="-9999999/1" value="0" leadInLength="0/1"  />
               <InterpolatingParam id="1183" interp="linr"  time="-9999999/1" value="0" leadInLength="0/1"  />
              </VectorParam>
              <VectorParam id="1184"  name="rotation">
               <InterpolatingParam id="1185" interp="linr"  time="-9999999/1" value="0" leadInLength="0/1"  />
               <InterpolatingParam id="1186" interp="linr"  time="-9999999/1" value="0" leadInLength="0/1"  />
               <InterpolatingParam id="1187" interp="linr"  time="-9999999/1" value="0" leadInLength="0/1"  />
              </VectorParam>
              <VectorParam id="1188"  name="shear">
               <InterpolatingParam id="1189" interp="linr"  time="-9999999/1" value="0" leadInLength="0/1"  />
               <InterpolatingParam id="1190" interp="linr"  time="-9999999/1" value="0" leadInLength="0/1"  />
               <InterpolatingParam id="1191" interp="linr"  time="-9999999/1" value="0" leadInLength="0/1"  />
              </VectorParam>
              <VectorParam id="1192"  name="scale">
               <InterpolatingParam id="1193" interp="linr"  time="-9999999/1" value="1" leadInLength="0/1"  />
               <InterpolatingParam id="1194" interp="linr"  time="-9999999/1" value="1" leadInLength="0/1"  />
               <InterpolatingParam id="1195" interp="linr"  time="-9999999/1" value="1" leadInLength="0/1"  />
              </VectorParam>
              <VectorParam id="1196"  name="anchor">
               <InterpolatingParam id="1197" interp="linr"  time="0/1" value="0" leadInLength="0/1"  />
               <InterpolatingParam id="1198" interp="linr"  time="0/1" value="0" leadInLength="0/1"  />
               <InterpolatingParam id="1199" interp="linr"  time="0/1" value="0" leadInLength="0/1"  />
              </VectorParam>
             </Transformer>
             <Parameters>
              <VectorParam id="1200"  name="sourceCrop">
               <InterpolatingParam id="1201" interp="linr"  time="0/1" value="0" leadInLength="0/1"  />
               <InterpolatingParam id="1202" interp="linr"  time="0/1" value="0" leadInLength="0/1"  />
               <InterpolatingParam id="1203" interp="linr"  time="0/1" value="0" leadInLength="0/1"  />
               <InterpolatingParam id="1204" interp="linr"  time="0/1" value="0" leadInLength="0/1"  />
              </VectorParam>
              <VectorParam id="1205"  name="geometryCrop">
               <InterpolatingParam id="1206" interp="linr"  time="-9999999/1" value="0" leadInLength="0/1"  />
               <InterpolatingParam id="1207" interp="linr"  time="-9999999/1" value="0" leadInLength="0/1"  />
               <InterpolatingParam id="1208" interp="linr"  time="-9999999/1" value="0" leadInLength="0/1"  />
               <InterpolatingParam id="1209" interp="linr"  time="-9999999/1" value="0" leadInLength="0/1"  />
              </VectorParam>
              <InterpolatingParam id="1210" interp="linr"  time="-9999999/1" value="1" leadInLength="0/1"  name="opacity"/>
              <InterpolatingParam id="1211" interp="linr"  time="0/1" value="0" leadInLength="0/1"  name="cursorOpacity"/>
              <InterpolatingParam id="1212" interp="linr"  time="0/1" value="0" leadInLength="0/1"  name="cursorScale"/>
             </Parameters>
             <Attributes>
              <Attribute id="1213" value="" name="ident"/>
             </Attributes>
             <ExtraData>
              <Entry key="ZoomPanBin">
               <ZoomPanBin id="1214"  >
                <ZoomPanKeyframes>
                 <ZoomPanKeyframe id="1215" timeRangeEnd="-9999999/1" timeRangeDuration="0/1" interpolaterName=""  />
                </ZoomPanKeyframes>
               </ZoomPanBin>
              </Entry>
              <Entry key="CursorEffectBin">
               <CursorEffectBin id="1216"  >
                <CursorEffectKeyframes>
                </CursorEffectKeyframes>
               </CursorEffectBin>
              </Entry>
             </ExtraData>
            </ScreenVMFile>
            <MetaData>
             <entry key="AutoAppliedSmartFocus" val="False"/>
             <entry key="WinSubProjectDisplayName" val=""/>
            </MetaData>
           </UnifiedMedia>
           <UnifiedMedia id="1217"  >
            <AMFile id="1218" start="3184" duration="216" scalar="1/1" mediaStart="6256/1" mediaDuration="216/1" trackNumber="1" src="4" channelNumber="0,1" >
             <Parameters>
              <InterpolatingParam id="1219" interp="linr"  time="0/1" value="1" leadInLength="0/1"  name="volume"/>
              <Parameter id="1220"  name="captions"/>
             </Parameters>
             <Attributes>
              <Attribute id="1221" value="" name="ident"/>
              <Attribute id="1222" value="44100" name="sampleRate"/>
              <Attribute id="1223" value="16" name="bitDepth"/>
              <Attribute id="1224" value="1" name="gain"/>
              <Attribute id="1225" value="0" name="mixToMono"/>
             </Attributes>
            </AMFile>
            <ScreenVMFile id="1226" start="3184" duration="216" scalar="1/1" mediaStart="6256/1" mediaDuration="216/1" trackNumber="0" src="4" >
             <Transformer>
              <VectorParam id="1227"  name="translation">
               <InterpolatingParam id="1228" interp="linr"  time="-9999999/1" value="0" leadInLength="0/1"  />
               <InterpolatingParam id="1229" interp="linr"  time="-9999999/1" value="0" leadInLength="0/1"  />
               <InterpolatingParam id="1230" interp="linr"  time="-9999999/1" value="0" leadInLength="0/1"  />
              </VectorParam>
              <VectorParam id="1231"  name="rotation">
               <InterpolatingParam id="1232" interp="linr"  time="-9999999/1" value="0" leadInLength="0/1"  />
               <InterpolatingParam id="1233" interp="linr"  time="-9999999/1" value="0" leadInLength="0/1"  />
               <InterpolatingParam id="1234" interp="linr"  time="-9999999/1" value="0" leadInLength="0/1"  />
              </VectorParam>
              <VectorParam id="1235"  name="shear">
               <InterpolatingParam id="1236" interp="linr"  time="-9999999/1" value="0" leadInLength="0/1"  />
               <InterpolatingParam id="1237" interp="linr"  time="-9999999/1" value="0" leadInLength="0/1"  />
               <InterpolatingParam id="1238" interp="linr"  time="-9999999/1" value="0" leadInLength="0/1"  />
              </VectorParam>
              <VectorParam id="1239"  name="scale">
               <InterpolatingParam id="1240" interp="linr"  time="-9999999/1" value="1" leadInLength="0/1"  />
               <InterpolatingParam id="1241" interp="linr"  time="-9999999/1" value="1" leadInLength="0/1"  />
               <InterpolatingParam id="1242" interp="linr"  time="-9999999/1" value="1" leadInLength="0/1"  />
              </VectorParam>
              <VectorParam id="1243"  name="anchor">
               <InterpolatingParam id="1244" interp="linr"  time="0/1" value="0" leadInLength="0/1"  />
               <InterpolatingParam id="1245" interp="linr"  time="0/1" value="0" leadInLength="0/1"  />
               <InterpolatingParam id="1246" interp="linr"  time="0/1" value="0" leadInLength="0/1"  />
              </VectorParam>
             </Transformer>
             <Parameters>
              <VectorParam id="1247"  name="sourceCrop">
               <InterpolatingParam id="1248" interp="linr"  time="0/1" value="0" leadInLength="0/1"  />
               <InterpolatingParam id="1249" interp="linr"  time="0/1" value="0" leadInLength="0/1"  />
               <InterpolatingParam id="1250" interp="linr"  time="0/1" value="0" leadInLength="0/1"  />
               <InterpolatingParam id="1251" interp="linr"  time="0/1" value="0" leadInLength="0/1"  />
              </VectorParam>
              <VectorParam id="1252"  name="geometryCrop">
               <InterpolatingParam id="1253" interp="linr"  time="-9999999/1" value="0" leadInLength="0/1"  />
               <InterpolatingParam id="1254" interp="linr"  time="-9999999/1" value="0" leadInLength="0/1"  />
               <InterpolatingParam id="1255" interp="linr"  time="-9999999/1" value="0" leadInLength="0/1"  />
               <InterpolatingParam id="1256" interp="linr"  time="-9999999/1" value="0" leadInLength="0/1"  />
              </VectorParam>
              <InterpolatingParam id="1257" interp="linr"  time="-9999999/1" value="1" leadInLength="0/1"  name="opacity"/>
              <InterpolatingParam id="1258" interp="linr"  time="0/1" value="0" leadInLength="0/1"  name="cursorOpacity"/>
              <InterpolatingParam id="1259" interp="linr"  time="0/1" value="0" leadInLength="0/1"  name="cursorScale"/>
             </Parameters>
             <Attributes>
              <Attribute id="1260" value="" name="ident"/>
             </Attributes>
             <ExtraData>
              <Entry key="ZoomPanBin">
               <ZoomPanBin id="1261"  >
                <ZoomPanKeyframes>
                 <ZoomPanKeyframe id="1262" timeRangeEnd="-9999999/1" timeRangeDuration="0/1" interpolaterName=""  />
                </ZoomPanKeyframes>
               </ZoomPanBin>
              </Entry>
              <Entry key="CursorEffectBin">
               <CursorEffectBin id="1263"  >
                <CursorEffectKeyframes>
                </CursorEffectKeyframes>
               </CursorEffectBin>
              </Entry>
             </ExtraData>
            </ScreenVMFile>
            <MetaData>
             <entry key="AutoAppliedSmartFocus" val="False"/>
             <entry key="WinSubProjectDisplayName" val=""/>
            </MetaData>
           </UnifiedMedia>
           <UnifiedMedia id="1264"  >
            <AMFile id="1265" start="3400" duration="40" scalar="1/1" mediaStart="6717/1" mediaDuration="40/1" trackNumber="1" src="4" channelNumber="0,1" >
             <Parameters>
              <InterpolatingParam id="1266" interp="linr"  time="0/1" value="1" leadInLength="0/1"  name="volume"/>
              <Parameter id="1267"  name="captions"/>
             </Parameters>
             <Attributes>
              <Attribute id="1268" value="" name="ident"/>
              <Attribute id="1269" value="44100" name="sampleRate"/>
              <Attribute id="1270" value="16" name="bitDepth"/>
              <Attribute id="1271" value="1" name="gain"/>
              <Attribute id="1272" value="0" name="mixToMono"/>
             </Attributes>
            </AMFile>
            <ScreenVMFile id="1273" start="3400" duration="40" scalar="1/1" mediaStart="6717/1" mediaDuration="40/1" trackNumber="0" src="4" >
             <Transformer>
              <VectorParam id="1274"  name="translation">
               <InterpolatingParam id="1275" interp="linr"  time="-9999999/1" value="0" leadInLength="0/1"  />
               <InterpolatingParam id="1276" interp="linr"  time="-9999999/1" value="0" leadInLength="0/1"  />
               <InterpolatingParam id="1277" interp="linr"  time="-9999999/1" value="0" leadInLength="0/1"  />
              </VectorParam>
              <VectorParam id="1278"  name="rotation">
               <InterpolatingParam id="1279" interp="linr"  time="-9999999/1" value="0" leadInLength="0/1"  />
               <InterpolatingParam id="1280" interp="linr"  time="-9999999/1" value="0" leadInLength="0/1"  />
               <InterpolatingParam id="1281" interp="linr"  time="-9999999/1" value="0" leadInLength="0/1"  />
              </VectorParam>
              <VectorParam id="1282"  name="shear">
               <InterpolatingParam id="1283" interp="linr"  time="-9999999/1" value="0" leadInLength="0/1"  />
               <InterpolatingParam id="1284" interp="linr"  time="-9999999/1" value="0" leadInLength="0/1"  />
               <InterpolatingParam id="1285" interp="linr"  time="-9999999/1" value="0" leadInLength="0/1"  />
              </VectorParam>
              <VectorParam id="1286"  name="scale">
               <InterpolatingParam id="1287" interp="linr"  time="-9999999/1" value="1" leadInLength="0/1"  />
               <InterpolatingParam id="1288" interp="linr"  time="-9999999/1" value="1" leadInLength="0/1"  />
               <InterpolatingParam id="1289" interp="linr"  time="-9999999/1" value="1" leadInLength="0/1"  />
              </VectorParam>
              <VectorParam id="1290"  name="anchor">
               <InterpolatingParam id="1291" interp="linr"  time="0/1" value="0" leadInLength="0/1"  />
               <InterpolatingParam id="1292" interp="linr"  time="0/1" value="0" leadInLength="0/1"  />
               <InterpolatingParam id="1293" interp="linr"  time="0/1" value="0" leadInLength="0/1"  />
              </VectorParam>
             </Transformer>
             <Parameters>
              <VectorParam id="1294"  name="sourceCrop">
               <InterpolatingParam id="1295" interp="linr"  time="0/1" value="0" leadInLength="0/1"  />
               <InterpolatingParam id="1296" interp="linr"  time="0/1" value="0" leadInLength="0/1"  />
               <InterpolatingParam id="1297" interp="linr"  time="0/1" value="0" leadInLength="0/1"  />
               <InterpolatingParam id="1298" interp="linr"  time="0/1" value="0" leadInLength="0/1"  />
              </VectorParam>
              <VectorParam id="1299"  name="geometryCrop">
               <InterpolatingParam id="1300" interp="linr"  time="-9999999/1" value="0" leadInLength="0/1"  />
               <InterpolatingParam id="1301" interp="linr"  time="-9999999/1" value="0" leadInLength="0/1"  />
               <InterpolatingParam id="1302" interp="linr"  time="-9999999/1" value="0" leadInLength="0/1"  />
               <InterpolatingParam id="1303" interp="linr"  time="-9999999/1" value="0" leadInLength="0/1"  />
              </VectorParam>
              <InterpolatingParam id="1304" interp="linr"  time="-9999999/1" value="1" leadInLength="0/1"  name="opacity"/>
              <InterpolatingParam id="1305" interp="linr"  time="0/1" value="0" leadInLength="0/1"  name="cursorOpacity"/>
              <InterpolatingParam id="1306" interp="linr"  time="0/1" value="0" leadInLength="0/1"  name="cursorScale"/>
             </Parameters>
             <Attributes>
              <Attribute id="1307" value="" name="ident"/>
             </Attributes>
             <ExtraData>
              <Entry key="ZoomPanBin">
               <ZoomPanBin id="1308"  >
                <ZoomPanKeyframes>
                 <ZoomPanKeyframe id="1309" timeRangeEnd="-9999999/1" timeRangeDuration="0/1" interpolaterName=""  />
                </ZoomPanKeyframes>
               </ZoomPanBin>
              </Entry>
              <Entry key="CursorEffectBin">
               <CursorEffectBin id="1310"  >
                <CursorEffectKeyframes>
                </CursorEffectKeyframes>
               </CursorEffectBin>
              </Entry>
             </ExtraData>
            </ScreenVMFile>
            <MetaData>
             <entry key="AutoAppliedSmartFocus" val="False"/>
             <entry key="WinSubProjectDisplayName" val=""/>
            </MetaData>
           </UnifiedMedia>
           <UnifiedMedia id="1311"  >
            <AMFile id="1312" start="3440" duration="179" scalar="1/1" mediaStart="6783/1" mediaDuration="179/1" trackNumber="1" src="4" channelNumber="0,1" >
             <Parameters>
              <InterpolatingParam id="1313" interp="linr"  time="0/1" value="1" leadInLength="0/1"  name="volume"/>
              <Parameter id="1314"  name="captions"/>
             </Parameters>
             <Attributes>
              <Attribute id="1315" value="" name="ident"/>
              <Attribute id="1316" value="44100" name="sampleRate"/>
              <Attribute id="1317" value="16" name="bitDepth"/>
              <Attribute id="1318" value="1" name="gain"/>
              <Attribute id="1319" value="0" name="mixToMono"/>
             </Attributes>
            </AMFile>
            <ScreenVMFile id="1320" start="3440" duration="179" scalar="1/1" mediaStart="6783/1" mediaDuration="179/1" trackNumber="0" src="4" >
             <Transformer>
              <VectorParam id="1321"  name="translation">
               <InterpolatingParam id="1322" interp="linr"  time="-9999999/1" value="0" leadInLength="0/1"  />
               <InterpolatingParam id="1323" interp="linr"  time="-9999999/1" value="0" leadInLength="0/1"  />
               <InterpolatingParam id="1324" interp="linr"  time="-9999999/1" value="0" leadInLength="0/1"  />
              </VectorParam>
              <VectorParam id="1325"  name="rotation">
               <InterpolatingParam id="1326" interp="linr"  time="-9999999/1" value="0" leadInLength="0/1"  />
               <InterpolatingParam id="1327" interp="linr"  time="-9999999/1" value="0" leadInLength="0/1"  />
               <InterpolatingParam id="1328" interp="linr"  time="-9999999/1" value="0" leadInLength="0/1"  />
              </VectorParam>
              <VectorParam id="1329"  name="shear">
               <InterpolatingParam id="1330" interp="linr"  time="-9999999/1" value="0" leadInLength="0/1"  />
               <InterpolatingParam id="1331" interp="linr"  time="-9999999/1" value="0" leadInLength="0/1"  />
               <InterpolatingParam id="1332" interp="linr"  time="-9999999/1" value="0" leadInLength="0/1"  />
              </VectorParam>
              <VectorParam id="1333"  name="scale">
               <InterpolatingParam id="1334" interp="linr"  time="-9999999/1" value="1" leadInLength="0/1"  />
               <InterpolatingParam id="1335" interp="linr"  time="-9999999/1" value="1" leadInLength="0/1"  />
               <InterpolatingParam id="1336" interp="linr"  time="-9999999/1" value="1" leadInLength="0/1"  />
              </VectorParam>
              <VectorParam id="1337"  name="anchor">
               <InterpolatingParam id="1338" interp="linr"  time="0/1" value="0" leadInLength="0/1"  />
               <InterpolatingParam id="1339" interp="linr"  time="0/1" value="0" leadInLength="0/1"  />
               <InterpolatingParam id="1340" interp="linr"  time="0/1" value="0" leadInLength="0/1"  />
              </VectorParam>
             </Transformer>
             <Parameters>
              <VectorParam id="1341"  name="sourceCrop">
               <InterpolatingParam id="1342" interp="linr"  time="0/1" value="0" leadInLength="0/1"  />
               <InterpolatingParam id="1343" interp="linr"  time="0/1" value="0" leadInLength="0/1"  />
               <InterpolatingParam id="1344" interp="linr"  time="0/1" value="0" leadInLength="0/1"  />
               <InterpolatingParam id="1345" interp="linr"  time="0/1" value="0" leadInLength="0/1"  />
              </VectorParam>
              <VectorParam id="1346"  name="geometryCrop">
               <InterpolatingParam id="1347" interp="linr"  time="-9999999/1" value="0" leadInLength="0/1"  />
               <InterpolatingParam id="1348" interp="linr"  time="-9999999/1" value="0" leadInLength="0/1"  />
               <InterpolatingParam id="1349" interp="linr"  time="-9999999/1" value="0" leadInLength="0/1"  />
               <InterpolatingParam id="1350" interp="linr"  time="-9999999/1" value="0" leadInLength="0/1"  />
              </VectorParam>
              <InterpolatingParam id="1351" interp="linr"  time="-9999999/1" value="1" leadInLength="0/1"  name="opacity"/>
              <InterpolatingParam id="1352" interp="linr"  time="0/1" value="0" leadInLength="0/1"  name="cursorOpacity"/>
              <InterpolatingParam id="1353" interp="linr"  time="0/1" value="0" leadInLength="0/1"  name="cursorScale"/>
             </Parameters>
             <Attributes>
              <Attribute id="1354" value="" name="ident"/>
             </Attributes>
             <ExtraData>
              <Entry key="ZoomPanBin">
               <ZoomPanBin id="1355"  >
                <ZoomPanKeyframes>
                 <ZoomPanKeyframe id="1356" timeRangeEnd="-9999999/1" timeRangeDuration="0/1" interpolaterName=""  />
                </ZoomPanKeyframes>
               </ZoomPanBin>
              </Entry>
              <Entry key="CursorEffectBin">
               <CursorEffectBin id="1357"  >
                <CursorEffectKeyframes>
                </CursorEffectKeyframes>
               </CursorEffectBin>
              </Entry>
             </ExtraData>
            </ScreenVMFile>
            <MetaData>
             <entry key="AutoAppliedSmartFocus" val="False"/>
             <entry key="WinSubProjectDisplayName" val=""/>
            </MetaData>
           </UnifiedMedia>
           <UnifiedMedia id="1358"  >
            <AMFile id="1359" start="3619" duration="218" scalar="1/1" mediaStart="7004/1" mediaDuration="218/1" trackNumber="1" src="4" channelNumber="0,1" >
             <Parameters>
              <InterpolatingParam id="1360" interp="linr"  time="0/1" value="1" leadInLength="0/1"  name="volume"/>
              <Parameter id="1361"  name="captions"/>
             </Parameters>
             <Attributes>
              <Attribute id="1362" value="" name="ident"/>
              <Attribute id="1363" value="44100" name="sampleRate"/>
              <Attribute id="1364" value="16" name="bitDepth"/>
              <Attribute id="1365" value="1" name="gain"/>
              <Attribute id="1366" value="0" name="mixToMono"/>
             </Attributes>
            </AMFile>
            <ScreenVMFile id="1367" start="3619" duration="218" scalar="1/1" mediaStart="7004/1" mediaDuration="218/1" trackNumber="0" src="4" >
             <Transformer>
              <VectorParam id="1368"  name="translation">
               <InterpolatingParam id="1369" interp="linr"  time="-9999999/1" value="0" leadInLength="0/1"  />
               <InterpolatingParam id="1370" interp="linr"  time="-9999999/1" value="0" leadInLength="0/1"  />
               <InterpolatingParam id="1371" interp="linr"  time="-9999999/1" value="0" leadInLength="0/1"  />
              </VectorParam>
              <VectorParam id="1372"  name="rotation">
               <InterpolatingParam id="1373" interp="linr"  time="-9999999/1" value="0" leadInLength="0/1"  />
               <InterpolatingParam id="1374" interp="linr"  time="-9999999/1" value="0" leadInLength="0/1"  />
               <InterpolatingParam id="1375" interp="linr"  time="-9999999/1" value="0" leadInLength="0/1"  />
              </VectorParam>
              <VectorParam id="1376"  name="shear">
               <InterpolatingParam id="1377" interp="linr"  time="-9999999/1" value="0" leadInLength="0/1"  />
               <InterpolatingParam id="1378" interp="linr"  time="-9999999/1" value="0" leadInLength="0/1"  />
               <InterpolatingParam id="1379" interp="linr"  time="-9999999/1" value="0" leadInLength="0/1"  />
              </VectorParam>
              <VectorParam id="1380"  name="scale">
               <InterpolatingParam id="1381" interp="linr"  time="-9999999/1" value="1" leadInLength="0/1"  />
               <InterpolatingParam id="1382" interp="linr"  time="-9999999/1" value="1" leadInLength="0/1"  />
               <InterpolatingParam id="1383" interp="linr"  time="-9999999/1" value="1" leadInLength="0/1"  />
              </VectorParam>
              <VectorParam id="1384"  name="anchor">
               <InterpolatingParam id="1385" interp="linr"  time="0/1" value="0" leadInLength="0/1"  />
               <InterpolatingParam id="1386" interp="linr"  time="0/1" value="0" leadInLength="0/1"  />
               <InterpolatingParam id="1387" interp="linr"  time="0/1" value="0" leadInLength="0/1"  />
              </VectorParam>
             </Transformer>
             <Parameters>
              <VectorParam id="1388"  name="sourceCrop">
               <InterpolatingParam id="1389" interp="linr"  time="0/1" value="0" leadInLength="0/1"  />
               <InterpolatingParam id="1390" interp="linr"  time="0/1" value="0" leadInLength="0/1"  />
               <InterpolatingParam id="1391" interp="linr"  time="0/1" value="0" leadInLength="0/1"  />
               <InterpolatingParam id="1392" interp="linr"  time="0/1" value="0" leadInLength="0/1"  />
              </VectorParam>
              <VectorParam id="1393"  name="geometryCrop">
               <InterpolatingParam id="1394" interp="linr"  time="-9999999/1" value="0" leadInLength="0/1"  />
               <InterpolatingParam id="1395" interp="linr"  time="-9999999/1" value="0" leadInLength="0/1"  />
               <InterpolatingParam id="1396" interp="linr"  time="-9999999/1" value="0" leadInLength="0/1"  />
               <InterpolatingParam id="1397" interp="linr"  time="-9999999/1" value="0" leadInLength="0/1"  />
              </VectorParam>
              <InterpolatingParam id="1398" interp="linr"  time="-9999999/1" value="1" leadInLength="0/1"  name="opacity"/>
              <InterpolatingParam id="1399" interp="linr"  time="0/1" value="0" leadInLength="0/1"  name="cursorOpacity"/>
              <InterpolatingParam id="1400" interp="linr"  time="0/1" value="0" leadInLength="0/1"  name="cursorScale"/>
             </Parameters>
             <Attributes>
              <Attribute id="1401" value="" name="ident"/>
             </Attributes>
             <ExtraData>
              <Entry key="ZoomPanBin">
               <ZoomPanBin id="1402"  >
                <ZoomPanKeyframes>
                 <ZoomPanKeyframe id="1403" timeRangeEnd="-9999999/1" timeRangeDuration="0/1" interpolaterName=""  />
                </ZoomPanKeyframes>
               </ZoomPanBin>
              </Entry>
              <Entry key="CursorEffectBin">
               <CursorEffectBin id="1404"  >
                <CursorEffectKeyframes>
                </CursorEffectKeyframes>
               </CursorEffectBin>
              </Entry>
             </ExtraData>
            </ScreenVMFile>
            <MetaData>
             <entry key="AutoAppliedSmartFocus" val="False"/>
             <entry key="WinSubProjectDisplayName" val=""/>
            </MetaData>
           </UnifiedMedia>
           <UnifiedMedia id="1405"  >
            <AMFile id="1406" start="3837" duration="34" scalar="1/1" mediaStart="7238/1" mediaDuration="34/1" trackNumber="1" src="4" channelNumber="0,1" >
             <Parameters>
              <InterpolatingParam id="1407" interp="linr"  time="0/1" value="1" leadInLength="0/1"  name="volume"/>
              <Parameter id="1408"  name="captions"/>
             </Parameters>
             <Attributes>
              <Attribute id="1409" value="" name="ident"/>
              <Attribute id="1410" value="44100" name="sampleRate"/>
              <Attribute id="1411" value="16" name="bitDepth"/>
              <Attribute id="1412" value="1" name="gain"/>
              <Attribute id="1413" value="0" name="mixToMono"/>
             </Attributes>
            </AMFile>
            <ScreenVMFile id="1414" start="3837" duration="34" scalar="1/1" mediaStart="7238/1" mediaDuration="34/1" trackNumber="0" src="4" >
             <Transformer>
              <VectorParam id="1415"  name="translation">
               <InterpolatingParam id="1416" interp="linr"  time="-9999999/1" value="0" leadInLength="0/1"  />
               <InterpolatingParam id="1417" interp="linr"  time="-9999999/1" value="0" leadInLength="0/1"  />
               <InterpolatingParam id="1418" interp="linr"  time="-9999999/1" value="0" leadInLength="0/1"  />
              </VectorParam>
              <VectorParam id="1419"  name="rotation">
               <InterpolatingParam id="1420" interp="linr"  time="-9999999/1" value="0" leadInLength="0/1"  />
               <InterpolatingParam id="1421" interp="linr"  time="-9999999/1" value="0" leadInLength="0/1"  />
               <InterpolatingParam id="1422" interp="linr"  time="-9999999/1" value="0" leadInLength="0/1"  />
              </VectorParam>
              <VectorParam id="1423"  name="shear">
               <InterpolatingParam id="1424" interp="linr"  time="-9999999/1" value="0" leadInLength="0/1"  />
               <InterpolatingParam id="1425" interp="linr"  time="-9999999/1" value="0" leadInLength="0/1"  />
               <InterpolatingParam id="1426" interp="linr"  time="-9999999/1" value="0" leadInLength="0/1"  />
              </VectorParam>
              <VectorParam id="1427"  name="scale">
               <InterpolatingParam id="1428" interp="linr"  time="-9999999/1" value="1" leadInLength="0/1"  />
               <InterpolatingParam id="1429" interp="linr"  time="-9999999/1" value="1" leadInLength="0/1"  />
               <InterpolatingParam id="1430" interp="linr"  time="-9999999/1" value="1" leadInLength="0/1"  />
              </VectorParam>
              <VectorParam id="1431"  name="anchor">
               <InterpolatingParam id="1432" interp="linr"  time="0/1" value="0" leadInLength="0/1"  />
               <InterpolatingParam id="1433" interp="linr"  time="0/1" value="0" leadInLength="0/1"  />
               <InterpolatingParam id="1434" interp="linr"  time="0/1" value="0" leadInLength="0/1"  />
              </VectorParam>
             </Transformer>
             <Parameters>
              <VectorParam id="1435"  name="sourceCrop">
               <InterpolatingParam id="1436" interp="linr"  time="0/1" value="0" leadInLength="0/1"  />
               <InterpolatingParam id="1437" interp="linr"  time="0/1" value="0" leadInLength="0/1"  />
               <InterpolatingParam id="1438" interp="linr"  time="0/1" value="0" leadInLength="0/1"  />
               <InterpolatingParam id="1439" interp="linr"  time="0/1" value="0" leadInLength="0/1"  />
              </VectorParam>
              <VectorParam id="1440"  name="geometryCrop">
               <InterpolatingParam id="1441" interp="linr"  time="-9999999/1" value="0" leadInLength="0/1"  />
               <InterpolatingParam id="1442" interp="linr"  time="-9999999/1" value="0" leadInLength="0/1"  />
               <InterpolatingParam id="1443" interp="linr"  time="-9999999/1" value="0" leadInLength="0/1"  />
               <InterpolatingParam id="1444" interp="linr"  time="-9999999/1" value="0" leadInLength="0/1"  />
              </VectorParam>
              <InterpolatingParam id="1445" interp="linr"  time="-9999999/1" value="1" leadInLength="0/1"  name="opacity"/>
              <InterpolatingParam id="1446" interp="linr"  time="0/1" value="0" leadInLength="0/1"  name="cursorOpacity"/>
              <InterpolatingParam id="1447" interp="linr"  time="0/1" value="0" leadInLength="0/1"  name="cursorScale"/>
             </Parameters>
             <Attributes>
              <Attribute id="1448" value="" name="ident"/>
             </Attributes>
             <ExtraData>
              <Entry key="ZoomPanBin">
               <ZoomPanBin id="1449"  >
                <ZoomPanKeyframes>
                 <ZoomPanKeyframe id="1450" timeRangeEnd="-9999999/1" timeRangeDuration="0/1" interpolaterName=""  />
                </ZoomPanKeyframes>
               </ZoomPanBin>
              </Entry>
              <Entry key="CursorEffectBin">
               <CursorEffectBin id="1451"  >
                <CursorEffectKeyframes>
                </CursorEffectKeyframes>
               </CursorEffectBin>
              </Entry>
             </ExtraData>
            </ScreenVMFile>
            <MetaData>
             <entry key="AutoAppliedSmartFocus" val="False"/>
             <entry key="WinSubProjectDisplayName" val=""/>
            </MetaData>
           </UnifiedMedia>
           <UnifiedMedia id="1452"  >
            <AMFile id="1453" start="3871" duration="141" scalar="1/1" mediaStart="7285/1" mediaDuration="141/1" trackNumber="1" src="4" channelNumber="0,1" >
             <Parameters>
              <InterpolatingParam id="1454" interp="linr"  time="0/1" value="1" leadInLength="0/1"  name="volume"/>
              <Parameter id="1455"  name="captions"/>
             </Parameters>
             <Attributes>
              <Attribute id="1456" value="" name="ident"/>
              <Attribute id="1457" value="44100" name="sampleRate"/>
              <Attribute id="1458" value="16" name="bitDepth"/>
              <Attribute id="1459" value="1" name="gain"/>
              <Attribute id="1460" value="0" name="mixToMono"/>
             </Attributes>
            </AMFile>
            <ScreenVMFile id="1461" start="3871" duration="141" scalar="1/1" mediaStart="7285/1" mediaDuration="141/1" trackNumber="0" src="4" >
             <Transformer>
              <VectorParam id="1462"  name="translation">
               <InterpolatingParam id="1463" interp="linr"  time="-9999999/1" value="0" leadInLength="0/1"  />
               <InterpolatingParam id="1464" interp="linr"  time="-9999999/1" value="0" leadInLength="0/1"  />
               <InterpolatingParam id="1465" interp="linr"  time="-9999999/1" value="0" leadInLength="0/1"  />
              </VectorParam>
              <VectorParam id="1466"  name="rotation">
               <InterpolatingParam id="1467" interp="linr"  time="-9999999/1" value="0" leadInLength="0/1"  />
               <InterpolatingParam id="1468" interp="linr"  time="-9999999/1" value="0" leadInLength="0/1"  />
               <InterpolatingParam id="1469" interp="linr"  time="-9999999/1" value="0" leadInLength="0/1"  />
              </VectorParam>
              <VectorParam id="1470"  name="shear">
               <InterpolatingParam id="1471" interp="linr"  time="-9999999/1" value="0" leadInLength="0/1"  />
               <InterpolatingParam id="1472" interp="linr"  time="-9999999/1" value="0" leadInLength="0/1"  />
               <InterpolatingParam id="1473" interp="linr"  time="-9999999/1" value="0" leadInLength="0/1"  />
              </VectorParam>
              <VectorParam id="1474"  name="scale">
               <InterpolatingParam id="1475" interp="linr"  time="-9999999/1" value="1" leadInLength="0/1"  />
               <InterpolatingParam id="1476" interp="linr"  time="-9999999/1" value="1" leadInLength="0/1"  />
               <InterpolatingParam id="1477" interp="linr"  time="-9999999/1" value="1" leadInLength="0/1"  />
              </VectorParam>
              <VectorParam id="1478"  name="anchor">
               <InterpolatingParam id="1479" interp="linr"  time="0/1" value="0" leadInLength="0/1"  />
               <InterpolatingParam id="1480" interp="linr"  time="0/1" value="0" leadInLength="0/1"  />
               <InterpolatingParam id="1481" interp="linr"  time="0/1" value="0" leadInLength="0/1"  />
              </VectorParam>
             </Transformer>
             <Parameters>
              <VectorParam id="1482"  name="sourceCrop">
               <InterpolatingParam id="1483" interp="linr"  time="0/1" value="0" leadInLength="0/1"  />
               <InterpolatingParam id="1484" interp="linr"  time="0/1" value="0" leadInLength="0/1"  />
               <InterpolatingParam id="1485" interp="linr"  time="0/1" value="0" leadInLength="0/1"  />
               <InterpolatingParam id="1486" interp="linr"  time="0/1" value="0" leadInLength="0/1"  />
              </VectorParam>
              <VectorParam id="1487"  name="geometryCrop">
               <InterpolatingParam id="1488" interp="linr"  time="-9999999/1" value="0" leadInLength="0/1"  />
               <InterpolatingParam id="1489" interp="linr"  time="-9999999/1" value="0" leadInLength="0/1"  />
               <InterpolatingParam id="1490" interp="linr"  time="-9999999/1" value="0" leadInLength="0/1"  />
               <InterpolatingParam id="1491" interp="linr"  time="-9999999/1" value="0" leadInLength="0/1"  />
              </VectorParam>
              <InterpolatingParam id="1492" interp="linr"  time="-9999999/1" value="1" leadInLength="0/1"  name="opacity"/>
              <InterpolatingParam id="1493" interp="linr"  time="0/1" value="0" leadInLength="0/1"  name="cursorOpacity"/>
              <InterpolatingParam id="1494" interp="linr"  time="0/1" value="0" leadInLength="0/1"  name="cursorScale"/>
             </Parameters>
             <Attributes>
              <Attribute id="1495" value="" name="ident"/>
             </Attributes>
             <ExtraData>
              <Entry key="ZoomPanBin">
               <ZoomPanBin id="1496"  >
                <ZoomPanKeyframes>
                 <ZoomPanKeyframe id="1497" timeRangeEnd="-9999999/1" timeRangeDuration="0/1" interpolaterName=""  />
                </ZoomPanKeyframes>
               </ZoomPanBin>
              </Entry>
              <Entry key="CursorEffectBin">
               <CursorEffectBin id="1498"  >
                <CursorEffectKeyframes>
                </CursorEffectKeyframes>
               </CursorEffectBin>
              </Entry>
             </ExtraData>
            </ScreenVMFile>
            <MetaData>
             <entry key="AutoAppliedSmartFocus" val="False"/>
             <entry key="WinSubProjectDisplayName" val=""/>
            </MetaData>
           </UnifiedMedia>
           <UnifiedMedia id="1499"  >
            <AMFile id="1500" start="4012" duration="25" scalar="1/1" mediaStart="7936/1" mediaDuration="25/1" trackNumber="1" src="4" channelNumber="0,1" >
             <Parameters>
              <InterpolatingParam id="1501" interp="linr"  time="0/1" value="1" leadInLength="0/1"  name="volume"/>
              <Parameter id="1502"  name="captions"/>
             </Parameters>
             <Attributes>
              <Attribute id="1503" value="" name="ident"/>
              <Attribute id="1504" value="44100" name="sampleRate"/>
              <Attribute id="1505" value="16" name="bitDepth"/>
              <Attribute id="1506" value="1" name="gain"/>
              <Attribute id="1507" value="0" name="mixToMono"/>
             </Attributes>
            </AMFile>
            <ScreenVMFile id="1508" start="4012" duration="25" scalar="1/1" mediaStart="7936/1" mediaDuration="25/1" trackNumber="0" src="4" >
             <Transformer>
              <VectorParam id="1509"  name="translation">
               <InterpolatingParam id="1510" interp="linr"  time="-9999999/1" value="0" leadInLength="0/1"  />
               <InterpolatingParam id="1511" interp="linr"  time="-9999999/1" value="0" leadInLength="0/1"  />
               <InterpolatingParam id="1512" interp="linr"  time="-9999999/1" value="0" leadInLength="0/1"  />
              </VectorParam>
              <VectorParam id="1513"  name="rotation">
               <InterpolatingParam id="1514" interp="linr"  time="-9999999/1" value="0" leadInLength="0/1"  />
               <InterpolatingParam id="1515" interp="linr"  time="-9999999/1" value="0" leadInLength="0/1"  />
               <InterpolatingParam id="1516" interp="linr"  time="-9999999/1" value="0" leadInLength="0/1"  />
              </VectorParam>
              <VectorParam id="1517"  name="shear">
               <InterpolatingParam id="1518" interp="linr"  time="-9999999/1" value="0" leadInLength="0/1"  />
               <InterpolatingParam id="1519" interp="linr"  time="-9999999/1" value="0" leadInLength="0/1"  />
               <InterpolatingParam id="1520" interp="linr"  time="-9999999/1" value="0" leadInLength="0/1"  />
              </VectorParam>
              <VectorParam id="1521"  name="scale">
               <InterpolatingParam id="1522" interp="linr"  time="-9999999/1" value="1" leadInLength="0/1"  />
               <InterpolatingParam id="1523" interp="linr"  time="-9999999/1" value="1" leadInLength="0/1"  />
               <InterpolatingParam id="1524" interp="linr"  time="-9999999/1" value="1" leadInLength="0/1"  />
              </VectorParam>
              <VectorParam id="1525"  name="anchor">
               <InterpolatingParam id="1526" interp="linr"  time="0/1" value="0" leadInLength="0/1"  />
               <InterpolatingParam id="1527" interp="linr"  time="0/1" value="0" leadInLength="0/1"  />
               <InterpolatingParam id="1528" interp="linr"  time="0/1" value="0" leadInLength="0/1"  />
              </VectorParam>
             </Transformer>
             <Parameters>
              <VectorParam id="1529"  name="sourceCrop">
               <InterpolatingParam id="1530" interp="linr"  time="0/1" value="0" leadInLength="0/1"  />
               <InterpolatingParam id="1531" interp="linr"  time="0/1" value="0" leadInLength="0/1"  />
               <InterpolatingParam id="1532" interp="linr"  time="0/1" value="0" leadInLength="0/1"  />
               <InterpolatingParam id="1533" interp="linr"  time="0/1" value="0" leadInLength="0/1"  />
              </VectorParam>
              <VectorParam id="1534"  name="geometryCrop">
               <InterpolatingParam id="1535" interp="linr"  time="-9999999/1" value="0" leadInLength="0/1"  />
               <InterpolatingParam id="1536" interp="linr"  time="-9999999/1" value="0" leadInLength="0/1"  />
               <InterpolatingParam id="1537" interp="linr"  time="-9999999/1" value="0" leadInLength="0/1"  />
               <InterpolatingParam id="1538" interp="linr"  time="-9999999/1" value="0" leadInLength="0/1"  />
              </VectorParam>
              <InterpolatingParam id="1539" interp="linr"  time="-9999999/1" value="1" leadInLength="0/1"  name="opacity"/>
              <InterpolatingParam id="1540" interp="linr"  time="0/1" value="0" leadInLength="0/1"  name="cursorOpacity"/>
              <InterpolatingParam id="1541" interp="linr"  time="0/1" value="0" leadInLength="0/1"  name="cursorScale"/>
             </Parameters>
             <Attributes>
              <Attribute id="1542" value="" name="ident"/>
             </Attributes>
             <ExtraData>
              <Entry key="ZoomPanBin">
               <ZoomPanBin id="1543"  >
                <ZoomPanKeyframes>
                 <ZoomPanKeyframe id="1544" timeRangeEnd="-9999999/1" timeRangeDuration="0/1" interpolaterName=""  />
                </ZoomPanKeyframes>
               </ZoomPanBin>
              </Entry>
              <Entry key="CursorEffectBin">
               <CursorEffectBin id="1545"  >
                <CursorEffectKeyframes>
                </CursorEffectKeyframes>
               </CursorEffectBin>
              </Entry>
             </ExtraData>
            </ScreenVMFile>
            <MetaData>
             <entry key="AutoAppliedSmartFocus" val="False"/>
             <entry key="WinSubProjectDisplayName" val=""/>
            </MetaData>
           </UnifiedMedia>
           <UnifiedMedia id="1546"  >
            <AMFile id="1547" start="4037" duration="34" scalar="1/1" mediaStart="7983/1" mediaDuration="34/1" trackNumber="1" src="4" channelNumber="0,1" >
             <Parameters>
              <InterpolatingParam id="1548" interp="linr"  time="0/1" value="1" leadInLength="0/1"  name="volume"/>
              <Parameter id="1549"  name="captions"/>
             </Parameters>
             <Attributes>
              <Attribute id="1550" value="" name="ident"/>
              <Attribute id="1551" value="44100" name="sampleRate"/>
              <Attribute id="1552" value="16" name="bitDepth"/>
              <Attribute id="1553" value="1" name="gain"/>
              <Attribute id="1554" value="0" name="mixToMono"/>
             </Attributes>
            </AMFile>
            <ScreenVMFile id="1555" start="4037" duration="34" scalar="1/1" mediaStart="7983/1" mediaDuration="34/1" trackNumber="0" src="4" >
             <Transformer>
              <VectorParam id="1556"  name="translation">
               <InterpolatingParam id="1557" interp="linr"  time="-9999999/1" value="0" leadInLength="0/1"  />
               <InterpolatingParam id="1558" interp="linr"  time="-9999999/1" value="0" leadInLength="0/1"  />
               <InterpolatingParam id="1559" interp="linr"  time="-9999999/1" value="0" leadInLength="0/1"  />
              </VectorParam>
              <VectorParam id="1560"  name="rotation">
               <InterpolatingParam id="1561" interp="linr"  time="-9999999/1" value="0" leadInLength="0/1"  />
               <InterpolatingParam id="1562" interp="linr"  time="-9999999/1" value="0" leadInLength="0/1"  />
               <InterpolatingParam id="1563" interp="linr"  time="-9999999/1" value="0" leadInLength="0/1"  />
              </VectorParam>
              <VectorParam id="1564"  name="shear">
               <InterpolatingParam id="1565" interp="linr"  time="-9999999/1" value="0" leadInLength="0/1"  />
               <InterpolatingParam id="1566" interp="linr"  time="-9999999/1" value="0" leadInLength="0/1"  />
               <InterpolatingParam id="1567" interp="linr"  time="-9999999/1" value="0" leadInLength="0/1"  />
              </VectorParam>
              <VectorParam id="1568"  name="scale">
               <InterpolatingParam id="1569" interp="linr"  time="-9999999/1" value="1" leadInLength="0/1"  />
               <InterpolatingParam id="1570" interp="linr"  time="-9999999/1" value="1" leadInLength="0/1"  />
               <InterpolatingParam id="1571" interp="linr"  time="-9999999/1" value="1" leadInLength="0/1"  />
              </VectorParam>
              <VectorParam id="1572"  name="anchor">
               <InterpolatingParam id="1573" interp="linr"  time="0/1" value="0" leadInLength="0/1"  />
               <InterpolatingParam id="1574" interp="linr"  time="0/1" value="0" leadInLength="0/1"  />
               <InterpolatingParam id="1575" interp="linr"  time="0/1" value="0" leadInLength="0/1"  />
              </VectorParam>
             </Transformer>
             <Parameters>
              <VectorParam id="1576"  name="sourceCrop">
               <InterpolatingParam id="1577" interp="linr"  time="0/1" value="0" leadInLength="0/1"  />
               <InterpolatingParam id="1578" interp="linr"  time="0/1" value="0" leadInLength="0/1"  />
               <InterpolatingParam id="1579" interp="linr"  time="0/1" value="0" leadInLength="0/1"  />
               <InterpolatingParam id="1580" interp="linr"  time="0/1" value="0" leadInLength="0/1"  />
              </VectorParam>
              <VectorParam id="1581"  name="geometryCrop">
               <InterpolatingParam id="1582" interp="linr"  time="-9999999/1" value="0" leadInLength="0/1"  />
               <InterpolatingParam id="1583" interp="linr"  time="-9999999/1" value="0" leadInLength="0/1"  />
               <InterpolatingParam id="1584" interp="linr"  time="-9999999/1" value="0" leadInLength="0/1"  />
               <InterpolatingParam id="1585" interp="linr"  time="-9999999/1" value="0" leadInLength="0/1"  />
              </VectorParam>
              <InterpolatingParam id="1586" interp="linr"  time="-9999999/1" value="1" leadInLength="0/1"  name="opacity"/>
              <InterpolatingParam id="1587" interp="linr"  time="0/1" value="0" leadInLength="0/1"  name="cursorOpacity"/>
              <InterpolatingParam id="1588" interp="linr"  time="0/1" value="0" leadInLength="0/1"  name="cursorScale"/>
             </Parameters>
             <Attributes>
              <Attribute id="1589" value="" name="ident"/>
             </Attributes>
             <ExtraData>
              <Entry key="ZoomPanBin">
               <ZoomPanBin id="1590"  >
                <ZoomPanKeyframes>
                 <ZoomPanKeyframe id="1591" timeRangeEnd="-9999999/1" timeRangeDuration="0/1" interpolaterName=""  />
                </ZoomPanKeyframes>
               </ZoomPanBin>
              </Entry>
              <Entry key="CursorEffectBin">
               <CursorEffectBin id="1592"  >
                <CursorEffectKeyframes>
                </CursorEffectKeyframes>
               </CursorEffectBin>
              </Entry>
             </ExtraData>
            </ScreenVMFile>
            <MetaData>
             <entry key="AutoAppliedSmartFocus" val="False"/>
             <entry key="WinSubProjectDisplayName" val=""/>
            </MetaData>
           </UnifiedMedia>
           <UnifiedMedia id="1593"  >
            <AMFile id="1594" start="4071" duration="249" scalar="1/1" mediaStart="8059/1" mediaDuration="249/1" trackNumber="1" src="4" channelNumber="0,1" >
             <Parameters>
              <InterpolatingParam id="1595" interp="linr"  time="0/1" value="1" leadInLength="0/1"  name="volume"/>
              <Parameter id="1596"  name="captions"/>
             </Parameters>
             <Attributes>
              <Attribute id="1597" value="" name="ident"/>
              <Attribute id="1598" value="44100" name="sampleRate"/>
              <Attribute id="1599" value="16" name="bitDepth"/>
              <Attribute id="1600" value="1" name="gain"/>
              <Attribute id="1601" value="0" name="mixToMono"/>
             </Attributes>
            </AMFile>
            <ScreenVMFile id="1602" start="4071" duration="249" scalar="1/1" mediaStart="8059/1" mediaDuration="249/1" trackNumber="0" src="4" >
             <Transformer>
              <VectorParam id="1603"  name="translation">
               <InterpolatingParam id="1604" interp="linr"  time="-9999999/1" value="0" leadInLength="0/1"  />
               <InterpolatingParam id="1605" interp="linr"  time="-9999999/1" value="0" leadInLength="0/1"  />
               <InterpolatingParam id="1606" interp="linr"  time="-9999999/1" value="0" leadInLength="0/1"  />
              </VectorParam>
              <VectorParam id="1607"  name="rotation">
               <InterpolatingParam id="1608" interp="linr"  time="-9999999/1" value="0" leadInLength="0/1"  />
               <InterpolatingParam id="1609" interp="linr"  time="-9999999/1" value="0" leadInLength="0/1"  />
               <InterpolatingParam id="1610" interp="linr"  time="-9999999/1" value="0" leadInLength="0/1"  />
              </VectorParam>
              <VectorParam id="1611"  name="shear">
               <InterpolatingParam id="1612" interp="linr"  time="-9999999/1" value="0" leadInLength="0/1"  />
               <InterpolatingParam id="1613" interp="linr"  time="-9999999/1" value="0" leadInLength="0/1"  />
               <InterpolatingParam id="1614" interp="linr"  time="-9999999/1" value="0" leadInLength="0/1"  />
              </VectorParam>
              <VectorParam id="1615"  name="scale">
               <InterpolatingParam id="1616" interp="linr"  time="-9999999/1" value="1" leadInLength="0/1"  />
               <InterpolatingParam id="1617" interp="linr"  time="-9999999/1" value="1" leadInLength="0/1"  />
               <InterpolatingParam id="1618" interp="linr"  time="-9999999/1" value="1" leadInLength="0/1"  />
              </VectorParam>
              <VectorParam id="1619"  name="anchor">
               <InterpolatingParam id="1620" interp="linr"  time="0/1" value="0" leadInLength="0/1"  />
               <InterpolatingParam id="1621" interp="linr"  time="0/1" value="0" leadInLength="0/1"  />
               <InterpolatingParam id="1622" interp="linr"  time="0/1" value="0" leadInLength="0/1"  />
              </VectorParam>
             </Transformer>
             <Parameters>
              <VectorParam id="1623"  name="sourceCrop">
               <InterpolatingParam id="1624" interp="linr"  time="0/1" value="0" leadInLength="0/1"  />
               <InterpolatingParam id="1625" interp="linr"  time="0/1" value="0" leadInLength="0/1"  />
               <InterpolatingParam id="1626" interp="linr"  time="0/1" value="0" leadInLength="0/1"  />
               <InterpolatingParam id="1627" interp="linr"  time="0/1" value="0" leadInLength="0/1"  />
              </VectorParam>
              <VectorParam id="1628"  name="geometryCrop">
               <InterpolatingParam id="1629" interp="linr"  time="-9999999/1" value="0" leadInLength="0/1"  />
               <InterpolatingParam id="1630" interp="linr"  time="-9999999/1" value="0" leadInLength="0/1"  />
               <InterpolatingParam id="1631" interp="linr"  time="-9999999/1" value="0" leadInLength="0/1"  />
               <InterpolatingParam id="1632" interp="linr"  time="-9999999/1" value="0" leadInLength="0/1"  />
              </VectorParam>
              <InterpolatingParam id="1633" interp="linr"  time="-9999999/1" value="1" leadInLength="0/1"  name="opacity"/>
              <InterpolatingParam id="1634" interp="linr"  time="0/1" value="0" leadInLength="0/1"  name="cursorOpacity"/>
              <InterpolatingParam id="1635" interp="linr"  time="0/1" value="0" leadInLength="0/1"  name="cursorScale"/>
             </Parameters>
             <Attributes>
              <Attribute id="1636" value="" name="ident"/>
             </Attributes>
             <ExtraData>
              <Entry key="ZoomPanBin">
               <ZoomPanBin id="1637"  >
                <ZoomPanKeyframes>
                 <ZoomPanKeyframe id="1638" timeRangeEnd="-9999999/1" timeRangeDuration="0/1" interpolaterName=""  />
                </ZoomPanKeyframes>
               </ZoomPanBin>
              </Entry>
              <Entry key="CursorEffectBin">
               <CursorEffectBin id="1639"  >
                <CursorEffectKeyframes>
                </CursorEffectKeyframes>
               </CursorEffectBin>
              </Entry>
             </ExtraData>
            </ScreenVMFile>
            <MetaData>
             <entry key="AutoAppliedSmartFocus" val="False"/>
             <entry key="WinSubProjectDisplayName" val=""/>
            </MetaData>
           </UnifiedMedia>
           <UnifiedMedia id="1640"  >
            <AMFile id="1641" start="4320" duration="239" scalar="1/1" mediaStart="8761/1" mediaDuration="239/1" trackNumber="1" src="4" channelNumber="0,1" >
             <Parameters>
              <InterpolatingParam id="1642" interp="linr"  time="0/1" value="1" leadInLength="0/1"  name="volume"/>
              <Parameter id="1643"  name="captions"/>
             </Parameters>
             <Attributes>
              <Attribute id="1644" value="" name="ident"/>
              <Attribute id="1645" value="44100" name="sampleRate"/>
              <Attribute id="1646" value="16" name="bitDepth"/>
              <Attribute id="1647" value="1" name="gain"/>
              <Attribute id="1648" value="0" name="mixToMono"/>
             </Attributes>
            </AMFile>
            <ScreenVMFile id="1649" start="4320" duration="239" scalar="1/1" mediaStart="8761/1" mediaDuration="239/1" trackNumber="0" src="4" >
             <Transformer>
              <VectorParam id="1650"  name="translation">
               <InterpolatingParam id="1651" interp="linr"  time="-9999999/1" value="0" leadInLength="0/1"  />
               <InterpolatingParam id="1652" interp="linr"  time="-9999999/1" value="0" leadInLength="0/1"  />
               <InterpolatingParam id="1653" interp="linr"  time="-9999999/1" value="0" leadInLength="0/1"  />
              </VectorParam>
              <VectorParam id="1654"  name="rotation">
               <InterpolatingParam id="1655" interp="linr"  time="-9999999/1" value="0" leadInLength="0/1"  />
               <InterpolatingParam id="1656" interp="linr"  time="-9999999/1" value="0" leadInLength="0/1"  />
               <InterpolatingParam id="1657" interp="linr"  time="-9999999/1" value="0" leadInLength="0/1"  />
              </VectorParam>
              <VectorParam id="1658"  name="shear">
               <InterpolatingParam id="1659" interp="linr"  time="-9999999/1" value="0" leadInLength="0/1"  />
               <InterpolatingParam id="1660" interp="linr"  time="-9999999/1" value="0" leadInLength="0/1"  />
               <InterpolatingParam id="1661" interp="linr"  time="-9999999/1" value="0" leadInLength="0/1"  />
              </VectorParam>
              <VectorParam id="1662"  name="scale">
               <InterpolatingParam id="1663" interp="linr"  time="-9999999/1" value="1" leadInLength="0/1"  />
               <InterpolatingParam id="1664" interp="linr"  time="-9999999/1" value="1" leadInLength="0/1"  />
               <InterpolatingParam id="1665" interp="linr"  time="-9999999/1" value="1" leadInLength="0/1"  />
              </VectorParam>
              <VectorParam id="1666"  name="anchor">
               <InterpolatingParam id="1667" interp="linr"  time="0/1" value="0" leadInLength="0/1"  />
               <InterpolatingParam id="1668" interp="linr"  time="0/1" value="0" leadInLength="0/1"  />
               <InterpolatingParam id="1669" interp="linr"  time="0/1" value="0" leadInLength="0/1"  />
              </VectorParam>
             </Transformer>
             <Parameters>
              <VectorParam id="1670"  name="sourceCrop">
               <InterpolatingParam id="1671" interp="linr"  time="0/1" value="0" leadInLength="0/1"  />
               <InterpolatingParam id="1672" interp="linr"  time="0/1" value="0" leadInLength="0/1"  />
               <InterpolatingParam id="1673" interp="linr"  time="0/1" value="0" leadInLength="0/1"  />
               <InterpolatingParam id="1674" interp="linr"  time="0/1" value="0" leadInLength="0/1"  />
              </VectorParam>
              <VectorParam id="1675"  name="geometryCrop">
               <InterpolatingParam id="1676" interp="linr"  time="-9999999/1" value="0" leadInLength="0/1"  />
               <InterpolatingParam id="1677" interp="linr"  time="-9999999/1" value="0" leadInLength="0/1"  />
               <InterpolatingParam id="1678" interp="linr"  time="-9999999/1" value="0" leadInLength="0/1"  />
               <InterpolatingParam id="1679" interp="linr"  time="-9999999/1" value="0" leadInLength="0/1"  />
              </VectorParam>
              <InterpolatingParam id="1680" interp="linr"  time="-9999999/1" value="1" leadInLength="0/1"  name="opacity"/>
              <InterpolatingParam id="1681" interp="linr"  time="0/1" value="0" leadInLength="0/1"  name="cursorOpacity"/>
              <InterpolatingParam id="1682" interp="linr"  time="0/1" value="0" leadInLength="0/1"  name="cursorScale"/>
             </Parameters>
             <Attributes>
              <Attribute id="1683" value="" name="ident"/>
             </Attributes>
             <ExtraData>
              <Entry key="ZoomPanBin">
               <ZoomPanBin id="1684"  >
                <ZoomPanKeyframes>
                 <ZoomPanKeyframe id="1685" timeRangeEnd="-9999999/1" timeRangeDuration="0/1" interpolaterName=""  />
                </ZoomPanKeyframes>
               </ZoomPanBin>
              </Entry>
              <Entry key="CursorEffectBin">
               <CursorEffectBin id="1686"  >
                <CursorEffectKeyframes>
                </CursorEffectKeyframes>
               </CursorEffectBin>
              </Entry>
             </ExtraData>
            </ScreenVMFile>
            <MetaData>
             <entry key="AutoAppliedSmartFocus" val="False"/>
             <entry key="WinSubProjectDisplayName" val=""/>
            </MetaData>
           </UnifiedMedia>
           <UnifiedMedia id="1687"  >
            <AMFile id="1688" start="4559" duration="118" scalar="1/1" mediaStart="9032/1" mediaDuration="118/1" trackNumber="1" src="4" channelNumber="0,1" >
             <Parameters>
              <InterpolatingParam id="1689" interp="linr"  time="0/1" value="1" leadInLength="0/1"  name="volume"/>
              <Parameter id="1690"  name="captions"/>
             </Parameters>
             <Attributes>
              <Attribute id="1691" value="" name="ident"/>
              <Attribute id="1692" value="44100" name="sampleRate"/>
              <Attribute id="1693" value="16" name="bitDepth"/>
              <Attribute id="1694" value="1" name="gain"/>
              <Attribute id="1695" value="0" name="mixToMono"/>
             </Attributes>
            </AMFile>
            <ScreenVMFile id="1696" start="4559" duration="118" scalar="1/1" mediaStart="9032/1" mediaDuration="118/1" trackNumber="0" src="4" >
             <Transformer>
              <VectorParam id="1697"  name="translation">
               <InterpolatingParam id="1698" interp="linr"  time="-9999999/1" value="0" leadInLength="0/1"  />
               <InterpolatingParam id="1699" interp="linr"  time="-9999999/1" value="0" leadInLength="0/1"  />
               <InterpolatingParam id="1700" interp="linr"  time="-9999999/1" value="0" leadInLength="0/1"  />
              </VectorParam>
              <VectorParam id="1701"  name="rotation">
               <InterpolatingParam id="1702" interp="linr"  time="-9999999/1" value="0" leadInLength="0/1"  />
               <InterpolatingParam id="1703" interp="linr"  time="-9999999/1" value="0" leadInLength="0/1"  />
               <InterpolatingParam id="1704" interp="linr"  time="-9999999/1" value="0" leadInLength="0/1"  />
              </VectorParam>
              <VectorParam id="1705"  name="shear">
               <InterpolatingParam id="1706" interp="linr"  time="-9999999/1" value="0" leadInLength="0/1"  />
               <InterpolatingParam id="1707" interp="linr"  time="-9999999/1" value="0" leadInLength="0/1"  />
               <InterpolatingParam id="1708" interp="linr"  time="-9999999/1" value="0" leadInLength="0/1"  />
              </VectorParam>
              <VectorParam id="1709"  name="scale">
               <InterpolatingParam id="1710" interp="linr"  time="-9999999/1" value="1" leadInLength="0/1"  />
               <InterpolatingParam id="1711" interp="linr"  time="-9999999/1" value="1" leadInLength="0/1"  />
               <InterpolatingParam id="1712" interp="linr"  time="-9999999/1" value="1" leadInLength="0/1"  />
              </VectorParam>
              <VectorParam id="1713"  name="anchor">
               <InterpolatingParam id="1714" interp="linr"  time="0/1" value="0" leadInLength="0/1"  />
               <InterpolatingParam id="1715" interp="linr"  time="0/1" value="0" leadInLength="0/1"  />
               <InterpolatingParam id="1716" interp="linr"  time="0/1" value="0" leadInLength="0/1"  />
              </VectorParam>
             </Transformer>
             <Parameters>
              <VectorParam id="1717"  name="sourceCrop">
               <InterpolatingParam id="1718" interp="linr"  time="0/1" value="0" leadInLength="0/1"  />
               <InterpolatingParam id="1719" interp="linr"  time="0/1" value="0" leadInLength="0/1"  />
               <InterpolatingParam id="1720" interp="linr"  time="0/1" value="0" leadInLength="0/1"  />
               <InterpolatingParam id="1721" interp="linr"  time="0/1" value="0" leadInLength="0/1"  />
              </VectorParam>
              <VectorParam id="1722"  name="geometryCrop">
               <InterpolatingParam id="1723" interp="linr"  time="-9999999/1" value="0" leadInLength="0/1"  />
               <InterpolatingParam id="1724" interp="linr"  time="-9999999/1" value="0" leadInLength="0/1"  />
               <InterpolatingParam id="1725" interp="linr"  time="-9999999/1" value="0" leadInLength="0/1"  />
               <InterpolatingParam id="1726" interp="linr"  time="-9999999/1" value="0" leadInLength="0/1"  />
              </VectorParam>
              <InterpolatingParam id="1727" interp="linr"  time="-9999999/1" value="1" leadInLength="0/1"  name="opacity"/>
              <InterpolatingParam id="1728" interp="linr"  time="0/1" value="0" leadInLength="0/1"  name="cursorOpacity"/>
              <InterpolatingParam id="1729" interp="linr"  time="0/1" value="0" leadInLength="0/1"  name="cursorScale"/>
             </Parameters>
             <Attributes>
              <Attribute id="1730" value="" name="ident"/>
             </Attributes>
             <ExtraData>
              <Entry key="ZoomPanBin">
               <ZoomPanBin id="1731"  >
                <ZoomPanKeyframes>
                 <ZoomPanKeyframe id="1732" timeRangeEnd="-9999999/1" timeRangeDuration="0/1" interpolaterName=""  />
                </ZoomPanKeyframes>
               </ZoomPanBin>
              </Entry>
              <Entry key="CursorEffectBin">
               <CursorEffectBin id="1733"  >
                <CursorEffectKeyframes>
                </CursorEffectKeyframes>
               </CursorEffectBin>
              </Entry>
             </ExtraData>
            </ScreenVMFile>
            <MetaData>
             <entry key="AutoAppliedSmartFocus" val="False"/>
             <entry key="WinSubProjectDisplayName" val=""/>
            </MetaData>
           </UnifiedMedia>
           <UnifiedMedia id="1734"  >
            <AMFile id="1735" start="4677" duration="69" scalar="1/1" mediaStart="9231/1" mediaDuration="69/1" trackNumber="1" src="4" channelNumber="0,1" >
             <Parameters>
              <InterpolatingParam id="1736" interp="linr"  time="0/1" value="1" leadInLength="0/1"  name="volume"/>
              <Parameter id="1737"  name="captions"/>
             </Parameters>
             <Attributes>
              <Attribute id="1738" value="" name="ident"/>
              <Attribute id="1739" value="44100" name="sampleRate"/>
              <Attribute id="1740" value="16" name="bitDepth"/>
              <Attribute id="1741" value="1" name="gain"/>
              <Attribute id="1742" value="0" name="mixToMono"/>
             </Attributes>
            </AMFile>
            <ScreenVMFile id="1743" start="4677" duration="69" scalar="1/1" mediaStart="9231/1" mediaDuration="69/1" trackNumber="0" src="4" >
             <Transformer>
              <VectorParam id="1744"  name="translation">
               <InterpolatingParam id="1745" interp="linr"  time="-9999999/1" value="0" leadInLength="0/1"  />
               <InterpolatingParam id="1746" interp="linr"  time="-9999999/1" value="0" leadInLength="0/1"  />
               <InterpolatingParam id="1747" interp="linr"  time="-9999999/1" value="0" leadInLength="0/1"  />
              </VectorParam>
              <VectorParam id="1748"  name="rotation">
               <InterpolatingParam id="1749" interp="linr"  time="-9999999/1" value="0" leadInLength="0/1"  />
               <InterpolatingParam id="1750" interp="linr"  time="-9999999/1" value="0" leadInLength="0/1"  />
               <InterpolatingParam id="1751" interp="linr"  time="-9999999/1" value="0" leadInLength="0/1"  />
              </VectorParam>
              <VectorParam id="1752"  name="shear">
               <InterpolatingParam id="1753" interp="linr"  time="-9999999/1" value="0" leadInLength="0/1"  />
               <InterpolatingParam id="1754" interp="linr"  time="-9999999/1" value="0" leadInLength="0/1"  />
               <InterpolatingParam id="1755" interp="linr"  time="-9999999/1" value="0" leadInLength="0/1"  />
              </VectorParam>
              <VectorParam id="1756"  name="scale">
               <InterpolatingParam id="1757" interp="linr"  time="-9999999/1" value="1" leadInLength="0/1"  />
               <InterpolatingParam id="1758" interp="linr"  time="-9999999/1" value="1" leadInLength="0/1"  />
               <InterpolatingParam id="1759" interp="linr"  time="-9999999/1" value="1" leadInLength="0/1"  />
              </VectorParam>
              <VectorParam id="1760"  name="anchor">
               <InterpolatingParam id="1761" interp="linr"  time="0/1" value="0" leadInLength="0/1"  />
               <InterpolatingParam id="1762" interp="linr"  time="0/1" value="0" leadInLength="0/1"  />
               <InterpolatingParam id="1763" interp="linr"  time="0/1" value="0" leadInLength="0/1"  />
              </VectorParam>
             </Transformer>
             <Parameters>
              <VectorParam id="1764"  name="sourceCrop">
               <InterpolatingParam id="1765" interp="linr"  time="0/1" value="0" leadInLength="0/1"  />
               <InterpolatingParam id="1766" interp="linr"  time="0/1" value="0" leadInLength="0/1"  />
               <InterpolatingParam id="1767" interp="linr"  time="0/1" value="0" leadInLength="0/1"  />
               <InterpolatingParam id="1768" interp="linr"  time="0/1" value="0" leadInLength="0/1"  />
              </VectorParam>
              <VectorParam id="1769"  name="geometryCrop">
               <InterpolatingParam id="1770" interp="linr"  time="-9999999/1" value="0" leadInLength="0/1"  />
               <InterpolatingParam id="1771" interp="linr"  time="-9999999/1" value="0" leadInLength="0/1"  />
               <InterpolatingParam id="1772" interp="linr"  time="-9999999/1" value="0" leadInLength="0/1"  />
               <InterpolatingParam id="1773" interp="linr"  time="-9999999/1" value="0" leadInLength="0/1"  />
              </VectorParam>
              <InterpolatingParam id="1774" interp="linr"  time="-9999999/1" value="1" leadInLength="0/1"  name="opacity"/>
              <InterpolatingParam id="1775" interp="linr"  time="0/1" value="0" leadInLength="0/1"  name="cursorOpacity"/>
              <InterpolatingParam id="1776" interp="linr"  time="0/1" value="0" leadInLength="0/1"  name="cursorScale"/>
             </Parameters>
             <Attributes>
              <Attribute id="1777" value="" name="ident"/>
             </Attributes>
             <ExtraData>
              <Entry key="ZoomPanBin">
               <ZoomPanBin id="1778"  >
                <ZoomPanKeyframes>
                 <ZoomPanKeyframe id="1779" timeRangeEnd="-9999999/1" timeRangeDuration="0/1" interpolaterName=""  />
                </ZoomPanKeyframes>
               </ZoomPanBin>
              </Entry>
              <Entry key="CursorEffectBin">
               <CursorEffectBin id="1780"  >
                <CursorEffectKeyframes>
                </CursorEffectKeyframes>
               </CursorEffectBin>
              </Entry>
             </ExtraData>
            </ScreenVMFile>
            <MetaData>
             <entry key="AutoAppliedSmartFocus" val="False"/>
             <entry key="WinSubProjectDisplayName" val=""/>
            </MetaData>
           </UnifiedMedia>
           <UnifiedMedia id="1781"  >
            <AMFile id="1782" start="4746" duration="40" scalar="1/1" mediaStart="9311/1" mediaDuration="40/1" trackNumber="1" src="4" channelNumber="0,1" >
             <Parameters>
              <InterpolatingParam id="1783" interp="linr"  time="0/1" value="1" leadInLength="0/1"  name="volume"/>
              <Parameter id="1784"  name="captions"/>
             </Parameters>
             <Attributes>
              <Attribute id="1785" value="" name="ident"/>
              <Attribute id="1786" value="44100" name="sampleRate"/>
              <Attribute id="1787" value="16" name="bitDepth"/>
              <Attribute id="1788" value="1" name="gain"/>
              <Attribute id="1789" value="0" name="mixToMono"/>
             </Attributes>
            </AMFile>
            <ScreenVMFile id="1790" start="4746" duration="40" scalar="1/1" mediaStart="9311/1" mediaDuration="40/1" trackNumber="0" src="4" >
             <Transformer>
              <VectorParam id="1791"  name="translation">
               <InterpolatingParam id="1792" interp="linr"  time="-9999999/1" value="0" leadInLength="0/1"  />
               <InterpolatingParam id="1793" interp="linr"  time="-9999999/1" value="0" leadInLength="0/1"  />
               <InterpolatingParam id="1794" interp="linr"  time="-9999999/1" value="0" leadInLength="0/1"  />
              </VectorParam>
              <VectorParam id="1795"  name="rotation">
               <InterpolatingParam id="1796" interp="linr"  time="-9999999/1" value="0" leadInLength="0/1"  />
               <InterpolatingParam id="1797" interp="linr"  time="-9999999/1" value="0" leadInLength="0/1"  />
               <InterpolatingParam id="1798" interp="linr"  time="-9999999/1" value="0" leadInLength="0/1"  />
              </VectorParam>
              <VectorParam id="1799"  name="shear">
               <InterpolatingParam id="1800" interp="linr"  time="-9999999/1" value="0" leadInLength="0/1"  />
               <InterpolatingParam id="1801" interp="linr"  time="-9999999/1" value="0" leadInLength="0/1"  />
               <InterpolatingParam id="1802" interp="linr"  time="-9999999/1" value="0" leadInLength="0/1"  />
              </VectorParam>
              <VectorParam id="1803"  name="scale">
               <InterpolatingParam id="1804" interp="linr"  time="-9999999/1" value="1" leadInLength="0/1"  />
               <InterpolatingParam id="1805" interp="linr"  time="-9999999/1" value="1" leadInLength="0/1"  />
               <InterpolatingParam id="1806" interp="linr"  time="-9999999/1" value="1" leadInLength="0/1"  />
              </VectorParam>
              <VectorParam id="1807"  name="anchor">
               <InterpolatingParam id="1808" interp="linr"  time="0/1" value="0" leadInLength="0/1"  />
               <InterpolatingParam id="1809" interp="linr"  time="0/1" value="0" leadInLength="0/1"  />
               <InterpolatingParam id="1810" interp="linr"  time="0/1" value="0" leadInLength="0/1"  />
              </VectorParam>
             </Transformer>
             <Parameters>
              <VectorParam id="1811"  name="sourceCrop">
               <InterpolatingParam id="1812" interp="linr"  time="0/1" value="0" leadInLength="0/1"  />
               <InterpolatingParam id="1813" interp="linr"  time="0/1" value="0" leadInLength="0/1"  />
               <InterpolatingParam id="1814" interp="linr"  time="0/1" value="0" leadInLength="0/1"  />
               <InterpolatingParam id="1815" interp="linr"  time="0/1" value="0" leadInLength="0/1"  />
              </VectorParam>
              <VectorParam id="1816"  name="geometryCrop">
               <InterpolatingParam id="1817" interp="linr"  time="-9999999/1" value="0" leadInLength="0/1"  />
               <InterpolatingParam id="1818" interp="linr"  time="-9999999/1" value="0" leadInLength="0/1"  />
               <InterpolatingParam id="1819" interp="linr"  time="-9999999/1" value="0" leadInLength="0/1"  />
               <InterpolatingParam id="1820" interp="linr"  time="-9999999/1" value="0" leadInLength="0/1"  />
              </VectorParam>
              <InterpolatingParam id="1821" interp="linr"  time="-9999999/1" value="1" leadInLength="0/1"  name="opacity"/>
              <InterpolatingParam id="1822" interp="linr"  time="0/1" value="0" leadInLength="0/1"  name="cursorOpacity"/>
              <InterpolatingParam id="1823" interp="linr"  time="0/1" value="0" leadInLength="0/1"  name="cursorScale"/>
             </Parameters>
             <Attributes>
              <Attribute id="1824" value="" name="ident"/>
             </Attributes>
             <ExtraData>
              <Entry key="ZoomPanBin">
               <ZoomPanBin id="1825"  >
                <ZoomPanKeyframes>
                 <ZoomPanKeyframe id="1826" timeRangeEnd="-9999999/1" timeRangeDuration="0/1" interpolaterName=""  />
                </ZoomPanKeyframes>
               </ZoomPanBin>
              </Entry>
              <Entry key="CursorEffectBin">
               <CursorEffectBin id="1827"  >
                <CursorEffectKeyframes>
                </CursorEffectKeyframes>
               </CursorEffectBin>
              </Entry>
             </ExtraData>
            </ScreenVMFile>
            <MetaData>
             <entry key="AutoAppliedSmartFocus" val="False"/>
             <entry key="WinSubProjectDisplayName" val=""/>
            </MetaData>
           </UnifiedMedia>
           <UnifiedMedia id="1828"  >
            <AMFile id="1829" start="4786" duration="126" scalar="1/1" mediaStart="9378/1" mediaDuration="126/1" trackNumber="1" src="4" channelNumber="0,1" >
             <Parameters>
              <InterpolatingParam id="1830" interp="linr"  time="0/1" value="1" leadInLength="0/1"  name="volume"/>
              <Parameter id="1831"  name="captions"/>
             </Parameters>
             <Attributes>
              <Attribute id="1832" value="" name="ident"/>
              <Attribute id="1833" value="44100" name="sampleRate"/>
              <Attribute id="1834" value="16" name="bitDepth"/>
              <Attribute id="1835" value="1" name="gain"/>
              <Attribute id="1836" value="0" name="mixToMono"/>
             </Attributes>
            </AMFile>
            <ScreenVMFile id="1837" start="4786" duration="126" scalar="1/1" mediaStart="9378/1" mediaDuration="126/1" trackNumber="0" src="4" >
             <Transformer>
              <VectorParam id="1838"  name="translation">
               <InterpolatingParam id="1839" interp="linr"  time="-9999999/1" value="0" leadInLength="0/1"  />
               <InterpolatingParam id="1840" interp="linr"  time="-9999999/1" value="0" leadInLength="0/1"  />
               <InterpolatingParam id="1841" interp="linr"  time="-9999999/1" value="0" leadInLength="0/1"  />
              </VectorParam>
              <VectorParam id="1842"  name="rotation">
               <InterpolatingParam id="1843" interp="linr"  time="-9999999/1" value="0" leadInLength="0/1"  />
               <InterpolatingParam id="1844" interp="linr"  time="-9999999/1" value="0" leadInLength="0/1"  />
               <InterpolatingParam id="1845" interp="linr"  time="-9999999/1" value="0" leadInLength="0/1"  />
              </VectorParam>
              <VectorParam id="1846"  name="shear">
               <InterpolatingParam id="1847" interp="linr"  time="-9999999/1" value="0" leadInLength="0/1"  />
               <InterpolatingParam id="1848" interp="linr"  time="-9999999/1" value="0" leadInLength="0/1"  />
               <InterpolatingParam id="1849" interp="linr"  time="-9999999/1" value="0" leadInLength="0/1"  />
              </VectorParam>
              <VectorParam id="1850"  name="scale">
               <InterpolatingParam id="1851" interp="linr"  time="-9999999/1" value="1" leadInLength="0/1"  />
               <InterpolatingParam id="1852" interp="linr"  time="-9999999/1" value="1" leadInLength="0/1"  />
               <InterpolatingParam id="1853" interp="linr"  time="-9999999/1" value="1" leadInLength="0/1"  />
              </VectorParam>
              <VectorParam id="1854"  name="anchor">
               <InterpolatingParam id="1855" interp="linr"  time="0/1" value="0" leadInLength="0/1"  />
               <InterpolatingParam id="1856" interp="linr"  time="0/1" value="0" leadInLength="0/1"  />
               <InterpolatingParam id="1857" interp="linr"  time="0/1" value="0" leadInLength="0/1"  />
              </VectorParam>
             </Transformer>
             <Parameters>
              <VectorParam id="1858"  name="sourceCrop">
               <InterpolatingParam id="1859" interp="linr"  time="0/1" value="0" leadInLength="0/1"  />
               <InterpolatingParam id="1860" interp="linr"  time="0/1" value="0" leadInLength="0/1"  />
               <InterpolatingParam id="1861" interp="linr"  time="0/1" value="0" leadInLength="0/1"  />
               <InterpolatingParam id="1862" interp="linr"  time="0/1" value="0" leadInLength="0/1"  />
              </VectorParam>
              <VectorParam id="1863"  name="geometryCrop">
               <InterpolatingParam id="1864" interp="linr"  time="-9999999/1" value="0" leadInLength="0/1"  />
               <InterpolatingParam id="1865" interp="linr"  time="-9999999/1" value="0" leadInLength="0/1"  />
               <InterpolatingParam id="1866" interp="linr"  time="-9999999/1" value="0" leadInLength="0/1"  />
               <InterpolatingParam id="1867" interp="linr"  time="-9999999/1" value="0" leadInLength="0/1"  />
              </VectorParam>
              <InterpolatingParam id="1868" interp="linr"  time="-9999999/1" value="1" leadInLength="0/1"  name="opacity"/>
              <InterpolatingParam id="1869" interp="linr"  time="0/1" value="0" leadInLength="0/1"  name="cursorOpacity"/>
              <InterpolatingParam id="1870" interp="linr"  time="0/1" value="0" leadInLength="0/1"  name="cursorScale"/>
             </Parameters>
             <Attributes>
              <Attribute id="1871" value="" name="ident"/>
             </Attributes>
             <ExtraData>
              <Entry key="ZoomPanBin">
               <ZoomPanBin id="1872"  >
                <ZoomPanKeyframes>
                 <ZoomPanKeyframe id="1873" timeRangeEnd="-9999999/1" timeRangeDuration="0/1" interpolaterName=""  />
                </ZoomPanKeyframes>
               </ZoomPanBin>
              </Entry>
              <Entry key="CursorEffectBin">
               <CursorEffectBin id="1874"  >
                <CursorEffectKeyframes>
                </CursorEffectKeyframes>
               </CursorEffectBin>
              </Entry>
             </ExtraData>
            </ScreenVMFile>
            <MetaData>
             <entry key="AutoAppliedSmartFocus" val="False"/>
             <entry key="WinSubProjectDisplayName" val=""/>
            </MetaData>
           </UnifiedMedia>
           <UnifiedMedia id="1875"  >
            <AMFile id="1876" start="4912" duration="294" scalar="1/1" mediaStart="9880/1" mediaDuration="294/1" trackNumber="1" src="4" channelNumber="0,1" >
             <Parameters>
              <InterpolatingParam id="1877" interp="linr"  time="0/1" value="1" leadInLength="0/1"  name="volume"/>
              <Parameter id="1878"  name="captions"/>
             </Parameters>
             <Attributes>
              <Attribute id="1879" value="" name="ident"/>
              <Attribute id="1880" value="44100" name="sampleRate"/>
              <Attribute id="1881" value="16" name="bitDepth"/>
              <Attribute id="1882" value="1" name="gain"/>
              <Attribute id="1883" value="0" name="mixToMono"/>
             </Attributes>
            </AMFile>
            <ScreenVMFile id="1884" start="4912" duration="294" scalar="1/1" mediaStart="9880/1" mediaDuration="294/1" trackNumber="0" src="4" >
             <Transformer>
              <VectorParam id="1885"  name="translation">
               <InterpolatingParam id="1886" interp="linr"  time="-9999999/1" value="0" leadInLength="0/1"  />
               <InterpolatingParam id="1887" interp="linr"  time="-9999999/1" value="0" leadInLength="0/1"  />
               <InterpolatingParam id="1888" interp="linr"  time="-9999999/1" value="0" leadInLength="0/1"  />
              </VectorParam>
              <VectorParam id="1889"  name="rotation">
               <InterpolatingParam id="1890" interp="linr"  time="-9999999/1" value="0" leadInLength="0/1"  />
               <InterpolatingParam id="1891" interp="linr"  time="-9999999/1" value="0" leadInLength="0/1"  />
               <InterpolatingParam id="1892" interp="linr"  time="-9999999/1" value="0" leadInLength="0/1"  />
              </VectorParam>
              <VectorParam id="1893"  name="shear">
               <InterpolatingParam id="1894" interp="linr"  time="-9999999/1" value="0" leadInLength="0/1"  />
               <InterpolatingParam id="1895" interp="linr"  time="-9999999/1" value="0" leadInLength="0/1"  />
               <InterpolatingParam id="1896" interp="linr"  time="-9999999/1" value="0" leadInLength="0/1"  />
              </VectorParam>
              <VectorParam id="1897"  name="scale">
               <InterpolatingParam id="1898" interp="linr"  time="-9999999/1" value="1" leadInLength="0/1"  />
               <InterpolatingParam id="1899" interp="linr"  time="-9999999/1" value="1" leadInLength="0/1"  />
               <InterpolatingParam id="1900" interp="linr"  time="-9999999/1" value="1" leadInLength="0/1"  />
              </VectorParam>
              <VectorParam id="1901"  name="anchor">
               <InterpolatingParam id="1902" interp="linr"  time="0/1" value="0" leadInLength="0/1"  />
               <InterpolatingParam id="1903" interp="linr"  time="0/1" value="0" leadInLength="0/1"  />
               <InterpolatingParam id="1904" interp="linr"  time="0/1" value="0" leadInLength="0/1"  />
              </VectorParam>
             </Transformer>
             <Parameters>
              <VectorParam id="1905"  name="sourceCrop">
               <InterpolatingParam id="1906" interp="linr"  time="0/1" value="0" leadInLength="0/1"  />
               <InterpolatingParam id="1907" interp="linr"  time="0/1" value="0" leadInLength="0/1"  />
               <InterpolatingParam id="1908" interp="linr"  time="0/1" value="0" leadInLength="0/1"  />
               <InterpolatingParam id="1909" interp="linr"  time="0/1" value="0" leadInLength="0/1"  />
              </VectorParam>
              <VectorParam id="1910"  name="geometryCrop">
               <InterpolatingParam id="1911" interp="linr"  time="-9999999/1" value="0" leadInLength="0/1"  />
               <InterpolatingParam id="1912" interp="linr"  time="-9999999/1" value="0" leadInLength="0/1"  />
               <InterpolatingParam id="1913" interp="linr"  time="-9999999/1" value="0" leadInLength="0/1"  />
               <InterpolatingParam id="1914" interp="linr"  time="-9999999/1" value="0" leadInLength="0/1"  />
              </VectorParam>
              <InterpolatingParam id="1915" interp="linr"  time="-9999999/1" value="1" leadInLength="0/1"  name="opacity"/>
              <InterpolatingParam id="1916" interp="linr"  time="0/1" value="0" leadInLength="0/1"  name="cursorOpacity"/>
              <InterpolatingParam id="1917" interp="linr"  time="0/1" value="0" leadInLength="0/1"  name="cursorScale"/>
             </Parameters>
             <Attributes>
              <Attribute id="1918" value="" name="ident"/>
             </Attributes>
             <ExtraData>
              <Entry key="ZoomPanBin">
               <ZoomPanBin id="1919"  >
                <ZoomPanKeyframes>
                 <ZoomPanKeyframe id="1920" timeRangeEnd="-9999999/1" timeRangeDuration="0/1" interpolaterName=""  />
                </ZoomPanKeyframes>
               </ZoomPanBin>
              </Entry>
              <Entry key="CursorEffectBin">
               <CursorEffectBin id="1921"  >
                <CursorEffectKeyframes>
                </CursorEffectKeyframes>
               </CursorEffectBin>
              </Entry>
             </ExtraData>
            </ScreenVMFile>
            <MetaData>
             <entry key="AutoAppliedSmartFocus" val="False"/>
             <entry key="WinSubProjectDisplayName" val=""/>
            </MetaData>
           </UnifiedMedia>
           <UnifiedMedia id="1922"  >
            <AMFile id="1923" start="5206" duration="351" scalar="1/1" mediaStart="10815/1" mediaDuration="351/1" trackNumber="1" src="4" channelNumber="0,1" >
             <Parameters>
              <InterpolatingParam id="1924" interp="linr"  time="0/1" value="1" leadInLength="0/1"  name="volume"/>
              <Parameter id="1925"  name="captions"/>
             </Parameters>
             <Attributes>
              <Attribute id="1926" value="" name="ident"/>
              <Attribute id="1927" value="44100" name="sampleRate"/>
              <Attribute id="1928" value="16" name="bitDepth"/>
              <Attribute id="1929" value="1" name="gain"/>
              <Attribute id="1930" value="0" name="mixToMono"/>
             </Attributes>
            </AMFile>
            <ScreenVMFile id="1931" start="5206" duration="351" scalar="1/1" mediaStart="10815/1" mediaDuration="351/1" trackNumber="0" src="4" >
             <Transformer>
              <VectorParam id="1932"  name="translation">
               <InterpolatingParam id="1933" interp="linr"  time="-9999999/1" value="0" leadInLength="0/1"  />
               <InterpolatingParam id="1934" interp="linr"  time="-9999999/1" value="0" leadInLength="0/1"  />
               <InterpolatingParam id="1935" interp="linr"  time="-9999999/1" value="0" leadInLength="0/1"  />
              </VectorParam>
              <VectorParam id="1936"  name="rotation">
               <InterpolatingParam id="1937" interp="linr"  time="-9999999/1" value="0" leadInLength="0/1"  />
               <InterpolatingParam id="1938" interp="linr"  time="-9999999/1" value="0" leadInLength="0/1"  />
               <InterpolatingParam id="1939" interp="linr"  time="-9999999/1" value="0" leadInLength="0/1"  />
              </VectorParam>
              <VectorParam id="1940"  name="shear">
               <InterpolatingParam id="1941" interp="linr"  time="-9999999/1" value="0" leadInLength="0/1"  />
               <InterpolatingParam id="1942" interp="linr"  time="-9999999/1" value="0" leadInLength="0/1"  />
               <InterpolatingParam id="1943" interp="linr"  time="-9999999/1" value="0" leadInLength="0/1"  />
              </VectorParam>
              <VectorParam id="1944"  name="scale">
               <InterpolatingParam id="1945" interp="linr"  time="-9999999/1" value="1" leadInLength="0/1"  />
               <InterpolatingParam id="1946" interp="linr"  time="-9999999/1" value="1" leadInLength="0/1"  />
               <InterpolatingParam id="1947" interp="linr"  time="-9999999/1" value="1" leadInLength="0/1"  />
              </VectorParam>
              <VectorParam id="1948"  name="anchor">
               <InterpolatingParam id="1949" interp="linr"  time="0/1" value="0" leadInLength="0/1"  />
               <InterpolatingParam id="1950" interp="linr"  time="0/1" value="0" leadInLength="0/1"  />
               <InterpolatingParam id="1951" interp="linr"  time="0/1" value="0" leadInLength="0/1"  />
              </VectorParam>
             </Transformer>
             <Parameters>
              <VectorParam id="1952"  name="sourceCrop">
               <InterpolatingParam id="1953" interp="linr"  time="0/1" value="0" leadInLength="0/1"  />
               <InterpolatingParam id="1954" interp="linr"  time="0/1" value="0" leadInLength="0/1"  />
               <InterpolatingParam id="1955" interp="linr"  time="0/1" value="0" leadInLength="0/1"  />
               <InterpolatingParam id="1956" interp="linr"  time="0/1" value="0" leadInLength="0/1"  />
              </VectorParam>
              <VectorParam id="1957"  name="geometryCrop">
               <InterpolatingParam id="1958" interp="linr"  time="-9999999/1" value="0" leadInLength="0/1"  />
               <InterpolatingParam id="1959" interp="linr"  time="-9999999/1" value="0" leadInLength="0/1"  />
               <InterpolatingParam id="1960" interp="linr"  time="-9999999/1" value="0" leadInLength="0/1"  />
               <InterpolatingParam id="1961" interp="linr"  time="-9999999/1" value="0" leadInLength="0/1"  />
              </VectorParam>
              <InterpolatingParam id="1962" interp="linr"  time="-9999999/1" value="1" leadInLength="0/1"  name="opacity"/>
              <InterpolatingParam id="1963" interp="linr"  time="0/1" value="0" leadInLength="0/1"  name="cursorOpacity"/>
              <InterpolatingParam id="1964" interp="linr"  time="0/1" value="0" leadInLength="0/1"  name="cursorScale"/>
             </Parameters>
             <Attributes>
              <Attribute id="1965" value="" name="ident"/>
             </Attributes>
             <ExtraData>
              <Entry key="ZoomPanBin">
               <ZoomPanBin id="1966"  >
                <ZoomPanKeyframes>
                 <ZoomPanKeyframe id="1967" timeRangeEnd="-9999999/1" timeRangeDuration="0/1" interpolaterName=""  />
                </ZoomPanKeyframes>
               </ZoomPanBin>
              </Entry>
              <Entry key="CursorEffectBin">
               <CursorEffectBin id="1968"  >
                <CursorEffectKeyframes>
                </CursorEffectKeyframes>
               </CursorEffectBin>
              </Entry>
             </ExtraData>
            </ScreenVMFile>
            <MetaData>
             <entry key="AutoAppliedSmartFocus" val="False"/>
             <entry key="WinSubProjectDisplayName" val=""/>
            </MetaData>
           </UnifiedMedia>
           <UnifiedMedia id="1969"  >
            <AMFile id="1970" start="5557" duration="72" scalar="1/1" mediaStart="11229/1" mediaDuration="72/1" trackNumber="1" src="4" channelNumber="0,1" >
             <Parameters>
              <InterpolatingParam id="1971" interp="linr"  time="0/1" value="1" leadInLength="0/1"  name="volume"/>
              <Parameter id="1972"  name="captions"/>
             </Parameters>
             <Attributes>
              <Attribute id="1973" value="" name="ident"/>
              <Attribute id="1974" value="44100" name="sampleRate"/>
              <Attribute id="1975" value="16" name="bitDepth"/>
              <Attribute id="1976" value="1" name="gain"/>
              <Attribute id="1977" value="0" name="mixToMono"/>
             </Attributes>
            </AMFile>
            <ScreenVMFile id="1978" start="5557" duration="72" scalar="1/1" mediaStart="11229/1" mediaDuration="72/1" trackNumber="0" src="4" >
             <Transformer>
              <VectorParam id="1979"  name="translation">
               <InterpolatingParam id="1980" interp="linr"  time="-9999999/1" value="0" leadInLength="0/1"  />
               <InterpolatingParam id="1981" interp="linr"  time="-9999999/1" value="0" leadInLength="0/1"  />
               <InterpolatingParam id="1982" interp="linr"  time="-9999999/1" value="0" leadInLength="0/1"  />
              </VectorParam>
              <VectorParam id="1983"  name="rotation">
               <InterpolatingParam id="1984" interp="linr"  time="-9999999/1" value="0" leadInLength="0/1"  />
               <InterpolatingParam id="1985" interp="linr"  time="-9999999/1" value="0" leadInLength="0/1"  />
               <InterpolatingParam id="1986" interp="linr"  time="-9999999/1" value="0" leadInLength="0/1"  />
              </VectorParam>
              <VectorParam id="1987"  name="shear">
               <InterpolatingParam id="1988" interp="linr"  time="-9999999/1" value="0" leadInLength="0/1"  />
               <InterpolatingParam id="1989" interp="linr"  time="-9999999/1" value="0" leadInLength="0/1"  />
               <InterpolatingParam id="1990" interp="linr"  time="-9999999/1" value="0" leadInLength="0/1"  />
              </VectorParam>
              <VectorParam id="1991"  name="scale">
               <InterpolatingParam id="1992" interp="linr"  time="-9999999/1" value="1" leadInLength="0/1"  />
               <InterpolatingParam id="1993" interp="linr"  time="-9999999/1" value="1" leadInLength="0/1"  />
               <InterpolatingParam id="1994" interp="linr"  time="-9999999/1" value="1" leadInLength="0/1"  />
              </VectorParam>
              <VectorParam id="1995"  name="anchor">
               <InterpolatingParam id="1996" interp="linr"  time="0/1" value="0" leadInLength="0/1"  />
               <InterpolatingParam id="1997" interp="linr"  time="0/1" value="0" leadInLength="0/1"  />
               <InterpolatingParam id="1998" interp="linr"  time="0/1" value="0" leadInLength="0/1"  />
              </VectorParam>
             </Transformer>
             <Parameters>
              <VectorParam id="1999"  name="sourceCrop">
               <InterpolatingParam id="2000" interp="linr"  time="0/1" value="0" leadInLength="0/1"  />
               <InterpolatingParam id="2001" interp="linr"  time="0/1" value="0" leadInLength="0/1"  />
               <InterpolatingParam id="2002" interp="linr"  time="0/1" value="0" leadInLength="0/1"  />
               <InterpolatingParam id="2003" interp="linr"  time="0/1" value="0" leadInLength="0/1"  />
              </VectorParam>
              <VectorParam id="2004"  name="geometryCrop">
               <InterpolatingParam id="2005" interp="linr"  time="-9999999/1" value="0" leadInLength="0/1"  />
               <InterpolatingParam id="2006" interp="linr"  time="-9999999/1" value="0" leadInLength="0/1"  />
               <InterpolatingParam id="2007" interp="linr"  time="-9999999/1" value="0" leadInLength="0/1"  />
               <InterpolatingParam id="2008" interp="linr"  time="-9999999/1" value="0" leadInLength="0/1"  />
              </VectorParam>
              <InterpolatingParam id="2009" interp="linr"  time="-9999999/1" value="1" leadInLength="0/1"  name="opacity"/>
              <InterpolatingParam id="2010" interp="linr"  time="0/1" value="0" leadInLength="0/1"  name="cursorOpacity"/>
              <InterpolatingParam id="2011" interp="linr"  time="0/1" value="0" leadInLength="0/1"  name="cursorScale"/>
             </Parameters>
             <Attributes>
              <Attribute id="2012" value="" name="ident"/>
             </Attributes>
             <ExtraData>
              <Entry key="ZoomPanBin">
               <ZoomPanBin id="2013"  >
                <ZoomPanKeyframes>
                 <ZoomPanKeyframe id="2014" timeRangeEnd="-9999999/1" timeRangeDuration="0/1" interpolaterName=""  />
                </ZoomPanKeyframes>
               </ZoomPanBin>
              </Entry>
              <Entry key="CursorEffectBin">
               <CursorEffectBin id="2015"  >
                <CursorEffectKeyframes>
                </CursorEffectKeyframes>
               </CursorEffectBin>
              </Entry>
             </ExtraData>
            </ScreenVMFile>
            <MetaData>
             <entry key="AutoAppliedSmartFocus" val="False"/>
             <entry key="WinSubProjectDisplayName" val=""/>
            </MetaData>
           </UnifiedMedia>
           <UnifiedMedia id="2016"  >
            <AMFile id="2017" start="5629" duration="64" scalar="1/1" mediaStart="11404/1" mediaDuration="64/1" trackNumber="1" src="4" channelNumber="0,1" >
             <Parameters>
              <InterpolatingParam id="2018" interp="linr"  time="0/1" value="1" leadInLength="0/1"  name="volume"/>
              <Parameter id="2019"  name="captions"/>
             </Parameters>
             <Attributes>
              <Attribute id="2020" value="" name="ident"/>
              <Attribute id="2021" value="44100" name="sampleRate"/>
              <Attribute id="2022" value="16" name="bitDepth"/>
              <Attribute id="2023" value="1" name="gain"/>
              <Attribute id="2024" value="0" name="mixToMono"/>
             </Attributes>
            </AMFile>
            <ScreenVMFile id="2025" start="5629" duration="64" scalar="1/1" mediaStart="11404/1" mediaDuration="64/1" trackNumber="0" src="4" >
             <Transformer>
              <VectorParam id="2026"  name="translation">
               <InterpolatingParam id="2027" interp="linr"  time="-9999999/1" value="0" leadInLength="0/1"  />
               <InterpolatingParam id="2028" interp="linr"  time="-9999999/1" value="0" leadInLength="0/1"  />
               <InterpolatingParam id="2029" interp="linr"  time="-9999999/1" value="0" leadInLength="0/1"  />
              </VectorParam>
              <VectorParam id="2030"  name="rotation">
               <InterpolatingParam id="2031" interp="linr"  time="-9999999/1" value="0" leadInLength="0/1"  />
               <InterpolatingParam id="2032" interp="linr"  time="-9999999/1" value="0" leadInLength="0/1"  />
               <InterpolatingParam id="2033" interp="linr"  time="-9999999/1" value="0" leadInLength="0/1"  />
              </VectorParam>
              <VectorParam id="2034"  name="shear">
               <InterpolatingParam id="2035" interp="linr"  time="-9999999/1" value="0" leadInLength="0/1"  />
               <InterpolatingParam id="2036" interp="linr"  time="-9999999/1" value="0" leadInLength="0/1"  />
               <InterpolatingParam id="2037" interp="linr"  time="-9999999/1" value="0" leadInLength="0/1"  />
              </VectorParam>
              <VectorParam id="2038"  name="scale">
               <InterpolatingParam id="2039" interp="linr"  time="-9999999/1" value="1" leadInLength="0/1"  />
               <InterpolatingParam id="2040" interp="linr"  time="-9999999/1" value="1" leadInLength="0/1"  />
               <InterpolatingParam id="2041" interp="linr"  time="-9999999/1" value="1" leadInLength="0/1"  />
              </VectorParam>
              <VectorParam id="2042"  name="anchor">
               <InterpolatingParam id="2043" interp="linr"  time="0/1" value="0" leadInLength="0/1"  />
               <InterpolatingParam id="2044" interp="linr"  time="0/1" value="0" leadInLength="0/1"  />
               <InterpolatingParam id="2045" interp="linr"  time="0/1" value="0" leadInLength="0/1"  />
              </VectorParam>
             </Transformer>
             <Parameters>
              <VectorParam id="2046"  name="sourceCrop">
               <InterpolatingParam id="2047" interp="linr"  time="0/1" value="0" leadInLength="0/1"  />
               <InterpolatingParam id="2048" interp="linr"  time="0/1" value="0" leadInLength="0/1"  />
               <InterpolatingParam id="2049" interp="linr"  time="0/1" value="0" leadInLength="0/1"  />
               <InterpolatingParam id="2050" interp="linr"  time="0/1" value="0" leadInLength="0/1"  />
              </VectorParam>
              <VectorParam id="2051"  name="geometryCrop">
               <InterpolatingParam id="2052" interp="linr"  time="-9999999/1" value="0" leadInLength="0/1"  />
               <InterpolatingParam id="2053" interp="linr"  time="-9999999/1" value="0" leadInLength="0/1"  />
               <InterpolatingParam id="2054" interp="linr"  time="-9999999/1" value="0" leadInLength="0/1"  />
               <InterpolatingParam id="2055" interp="linr"  time="-9999999/1" value="0" leadInLength="0/1"  />
              </VectorParam>
              <InterpolatingParam id="2056" interp="linr"  time="-9999999/1" value="1" leadInLength="0/1"  name="opacity"/>
              <InterpolatingParam id="2057" interp="linr"  time="0/1" value="0" leadInLength="0/1"  name="cursorOpacity"/>
              <InterpolatingParam id="2058" interp="linr"  time="0/1" value="0" leadInLength="0/1"  name="cursorScale"/>
             </Parameters>
             <Attributes>
              <Attribute id="2059" value="" name="ident"/>
             </Attributes>
             <ExtraData>
              <Entry key="ZoomPanBin">
               <ZoomPanBin id="2060"  >
                <ZoomPanKeyframes>
                 <ZoomPanKeyframe id="2061" timeRangeEnd="-9999999/1" timeRangeDuration="0/1" interpolaterName=""  />
                </ZoomPanKeyframes>
               </ZoomPanBin>
              </Entry>
              <Entry key="CursorEffectBin">
               <CursorEffectBin id="2062"  >
                <CursorEffectKeyframes>
                </CursorEffectKeyframes>
               </CursorEffectBin>
              </Entry>
             </ExtraData>
            </ScreenVMFile>
            <MetaData>
             <entry key="AutoAppliedSmartFocus" val="False"/>
             <entry key="WinSubProjectDisplayName" val=""/>
            </MetaData>
           </UnifiedMedia>
           <UnifiedMedia id="2063"  >
            <AMFile id="2064" start="5693" duration="111" scalar="1/1" mediaStart="11485/1" mediaDuration="111/1" trackNumber="1" src="4" channelNumber="0,1" >
             <Parameters>
              <InterpolatingParam id="2065" interp="linr"  time="0/1" value="1" leadInLength="0/1"  name="volume"/>
              <Parameter id="2066"  name="captions"/>
             </Parameters>
             <Attributes>
              <Attribute id="2067" value="" name="ident"/>
              <Attribute id="2068" value="44100" name="sampleRate"/>
              <Attribute id="2069" value="16" name="bitDepth"/>
              <Attribute id="2070" value="1" name="gain"/>
              <Attribute id="2071" value="0" name="mixToMono"/>
             </Attributes>
            </AMFile>
            <ScreenVMFile id="2072" start="5693" duration="111" scalar="1/1" mediaStart="11485/1" mediaDuration="111/1" trackNumber="0" src="4" >
             <Transformer>
              <VectorParam id="2073"  name="translation">
               <InterpolatingParam id="2074" interp="linr"  time="-9999999/1" value="0" leadInLength="0/1"  />
               <InterpolatingParam id="2075" interp="linr"  time="-9999999/1" value="0" leadInLength="0/1"  />
               <InterpolatingParam id="2076" interp="linr"  time="-9999999/1" value="0" leadInLength="0/1"  />
              </VectorParam>
              <VectorParam id="2077"  name="rotation">
               <InterpolatingParam id="2078" interp="linr"  time="-9999999/1" value="0" leadInLength="0/1"  />
               <InterpolatingParam id="2079" interp="linr"  time="-9999999/1" value="0" leadInLength="0/1"  />
               <InterpolatingParam id="2080" interp="linr"  time="-9999999/1" value="0" leadInLength="0/1"  />
              </VectorParam>
              <VectorParam id="2081"  name="shear">
               <InterpolatingParam id="2082" interp="linr"  time="-9999999/1" value="0" leadInLength="0/1"  />
               <InterpolatingParam id="2083" interp="linr"  time="-9999999/1" value="0" leadInLength="0/1"  />
               <InterpolatingParam id="2084" interp="linr"  time="-9999999/1" value="0" leadInLength="0/1"  />
              </VectorParam>
              <VectorParam id="2085"  name="scale">
               <InterpolatingParam id="2086" interp="linr"  time="-9999999/1" value="1" leadInLength="0/1"  />
               <InterpolatingParam id="2087" interp="linr"  time="-9999999/1" value="1" leadInLength="0/1"  />
               <InterpolatingParam id="2088" interp="linr"  time="-9999999/1" value="1" leadInLength="0/1"  />
              </VectorParam>
              <VectorParam id="2089"  name="anchor">
               <InterpolatingParam id="2090" interp="linr"  time="0/1" value="0" leadInLength="0/1"  />
               <InterpolatingParam id="2091" interp="linr"  time="0/1" value="0" leadInLength="0/1"  />
               <InterpolatingParam id="2092" interp="linr"  time="0/1" value="0" leadInLength="0/1"  />
              </VectorParam>
             </Transformer>
             <Parameters>
              <VectorParam id="2093"  name="sourceCrop">
               <InterpolatingParam id="2094" interp="linr"  time="0/1" value="0" leadInLength="0/1"  />
               <InterpolatingParam id="2095" interp="linr"  time="0/1" value="0" leadInLength="0/1"  />
               <InterpolatingParam id="2096" interp="linr"  time="0/1" value="0" leadInLength="0/1"  />
               <InterpolatingParam id="2097" interp="linr"  time="0/1" value="0" leadInLength="0/1"  />
              </VectorParam>
              <VectorParam id="2098"  name="geometryCrop">
               <InterpolatingParam id="2099" interp="linr"  time="-9999999/1" value="0" leadInLength="0/1"  />
               <InterpolatingParam id="2100" interp="linr"  time="-9999999/1" value="0" leadInLength="0/1"  />
               <InterpolatingParam id="2101" interp="linr"  time="-9999999/1" value="0" leadInLength="0/1"  />
               <InterpolatingParam id="2102" interp="linr"  time="-9999999/1" value="0" leadInLength="0/1"  />
              </VectorParam>
              <InterpolatingParam id="2103" interp="linr"  time="-9999999/1" value="1" leadInLength="0/1"  name="opacity"/>
              <InterpolatingParam id="2104" interp="linr"  time="0/1" value="0" leadInLength="0/1"  name="cursorOpacity"/>
              <InterpolatingParam id="2105" interp="linr"  time="0/1" value="0" leadInLength="0/1"  name="cursorScale"/>
             </Parameters>
             <Attributes>
              <Attribute id="2106" value="" name="ident"/>
             </Attributes>
             <ExtraData>
              <Entry key="ZoomPanBin">
               <ZoomPanBin id="2107"  >
                <ZoomPanKeyframes>
                 <ZoomPanKeyframe id="2108" timeRangeEnd="-9999999/1" timeRangeDuration="0/1" interpolaterName=""  />
                </ZoomPanKeyframes>
               </ZoomPanBin>
              </Entry>
              <Entry key="CursorEffectBin">
               <CursorEffectBin id="2109"  >
                <CursorEffectKeyframes>
                </CursorEffectKeyframes>
               </CursorEffectBin>
              </Entry>
             </ExtraData>
            </ScreenVMFile>
            <MetaData>
             <entry key="AutoAppliedSmartFocus" val="False"/>
             <entry key="WinSubProjectDisplayName" val=""/>
            </MetaData>
           </UnifiedMedia>
          </Medias>
         </GenericTrack>
        </StitchedMedia>
       </Medias>
      </GenericTrack>
      <GenericTrack id="2110"  >
       <Attributes>
        <Attribute id="2111" value="" name="ident"/>
        <Attribute id="2112" value="0" name="audioMuted"/>
        <Attribute id="2113" value="0" name="videoHidden"/>
       </Attributes>
       <MetaData>
        <entry key="IsLocked" val="False"/>
        <entry key="WinTrackHeight" val="62"/>
       </MetaData>
       <Medias>
        <Caption id="2114" start="0" duration="5683" scalar="1/1" mediaStart="0/1" mediaDuration="5683/1" maxMediaDuration="9.22337e+018"  allowTrimOut="1"  >
         <Parameters>
          <Parameter id="2115"  name="captionData">
           <Keyframes>
           <Keyframe id="2116"  time="-9999999/1" value="{67,FgdcMetaEditor is program to create metadata &#xa;for geographic data. ,0}" leadInLength="0/1"  />
           <Keyframe id="2117"  time="197/1" value="{102,It helps ensure that the metadata complies with &#xa;the Content Standard for Digital Geospatial &#xa;Metadata,0}" leadInLength="0/1"  />
           <Keyframe id="2118"  time="404/1" value="{49,by the Federal Geographic Data Committee &#xa;(FGDC).,0}" leadInLength="0/1"  />
           <Keyframe id="2119"  time="551/1" value="{101,The left part of the program is a tree control &#xa;containing the possible elements in a metadata &#xa;file.,0}" leadInLength="0/1"  />
           <Keyframe id="2120"  time="770/1" value="{112,Composite elements have a small arrow next to &#xa;them that can be clicked to show or hide sub-&#xa;items beneath them.,0}" leadInLength="0/1"  />
           <Keyframe id="2121"  time="1033/1" value="{54,Each item has a check box or radio button next to &#xa;it.,0}" leadInLength="0/1"  />
           <Keyframe id="2122"  time="1228/1" value="{53,Checked items will be included in the metadata &#xa;file.,0}" leadInLength="0/1"  />
           <Keyframe id="2123"  time="1331/1" value="{140,When you select an item, the area to the right will &#xa;display a description of the item along with &#xa;controls you can use to specify the item.,0}" leadInLength="0/1"  />
           <Keyframe id="2124"  time="1613/1" value="{107,However, for compound items, there is only a &#xa;description; you have to specify the sub-items &#xa;individually.,0}" leadInLength="0/1"  />
           <Keyframe id="2125"  time="1830/1" value="{110,A useful reference is the “Content Standard for &#xa;Digital Geospatial Metadata Workbook” which is &#xa;available,0}" leadInLength="0/1"  />
           <Keyframe id="2126"  time="2070/1" value="{84,on the fgdc.gov web page. &#xa;https://www.fgdc.gov/metadata/metadata-&#xa;publications-list,0}" leadInLength="0/1"  />
           <Keyframe id="2127"  time="2197/1" value="{150,One of the useful parts of the workbook is the &#xa;color coding it uses for mandatory items, optional &#xa;items, and items that are mandatory if applicable.,0}" leadInLength="0/1"  />
           <Keyframe id="2128"  time="2569/1" value="{20,Yellow is mandatory.,0}" leadInLength="0/1"  />
           <Keyframe id="2129"  time="2632/1" value="{33,Green is mandatory if applicable.,0}" leadInLength="0/1"  />
           <Keyframe id="2130"  time="2738/1" value="{17,Blue is optional.,0}" leadInLength="0/1"  />
           <Keyframe id="2131"  time="2821/1" value="{50,FgdcMetaEditor uses the same color coding &#xa;scheme.,0}" leadInLength="0/1"  />
           <Keyframe id="2132"  time="2959/1" value="{145,When you select an item, the background color of &#xa;the description indicates whether the item is &#xa;mandatory, mandatory if applicable, or optional.,0}" leadInLength="0/1"  />
           <Keyframe id="2133"  time="3314/1" value="{113,The descriptions for the items come from the &#xa;workbook and are supplemented with information &#xa;from other sources.,0}" leadInLength="0/1"  />
           <Keyframe id="2134"  time="3542/1" value="{73,Color is used in the tree control to indicate items &#xa;that need attention.,0}" leadInLength="0/1"  />
           <Keyframe id="2135"  time="3734/1" value="{70,Blue indicates a required item for which no value &#xa;has been specified.,0}" leadInLength="0/1"  />
           <Keyframe id="2136"  time="3932/1" value="{99,Yellow indicates  a choice must be made among &#xa;several required items but no choice has been &#xa;made.,0}" leadInLength="0/1"  />
           <Keyframe id="2137"  time="4246/1" value="{68,Red indicates that an invalid value has been &#xa;specified for an item.,0}" leadInLength="0/1"  />
           <Keyframe id="2138"  time="4484/1" value="{43,There can be multiple copies of some items.,0}" leadInLength="0/1"  />
           <Keyframe id="2139"  time="4601/1" value="{50,Such items have a blue plus sign in front of them.,0}" leadInLength="0/1"  />
           <Keyframe id="2140"  time="4702/1" value="{70,You can click the blue plus sign to create another &#xa;copy of the item. ,0}" leadInLength="0/1"  />
           <Keyframe id="2141"  time="4838/1" value="{95,You can also select an item and click the &#xa;“Duplicate” button at the bottom of the program.,0}" leadInLength="0/1"  />
           <Keyframe id="2142"  time="5130/1" value="{151,Other buttons at the bottom of the page allow you &#xa;to collapse or expand all the nodes in the tree &#xa;control or to expand just the nodes that are used. ,0}" leadInLength="0/1"  />
           <Keyframe id="2143"  time="5472/1" value="{84,You can also search the metadata or use the &#xa;Geospatial metadata validation service.,0}" leadInLength="0/1"  />
           </Keyframes>
          </Parameter>
          <Parameter id="2144"  name="toc"/>
          <Parameter id="2145"  name="quiz"/>
         </Parameters>
         <Attributes>
         </Attributes>
         <MetaData>
          <entry key="WinSubProjectDisplayName" val=""/>
         </MetaData>
        </Caption>
       </Medias>
      </GenericTrack>
      <GenericTrack id="2146"  >
       <Attributes>
        <Attribute id="2147" value="" name="ident"/>
        <Attribute id="2148" value="0" name="audioMuted"/>
        <Attribute id="2149" value="0" name="videoHidden"/>
       </Attributes>
       <MetaData>
        <entry key="IsLocked" val="False"/>
        <entry key="WinTrackHeight" val="62"/>
       </MetaData>
       <Medias>
       </Medias>
      </GenericTrack>
     </Tracks>
    </GenericMixer>
   <CaptionAttributes id="2150"  >
    <Attribute id="2151" value="1" name="captionsEnabled"/>
    <Attribute id="2152" value="Arial" name="captionsFontName"/>
    <Attribute id="2153" value="20" name="captionsFontSize"/>
    <Attribute id="2154" value="(0,0,0,255)" name="captionsBackgroundColor"/>
    <Attribute id="2155" value="(255,255,255,255)" name="captionsForegroundColor"/>
    <Attribute id="2156" value="en" name="lang"/>
    <Attribute id="2157" value="0" name="captionsAlignment"/>
    <Attribute id="2158" value="1" name="captionsDefaultFontSize"/>
    <Attribute id="2159" value="0.5" name="captionsOpacity"/>
    <Attribute id="2160" value="1" name="captionsBackgroundEnabled"/>
    <Attribute id="2161" value="1" name="captionsBackgroundOnlyAroundText"/>
   </CaptionAttributes>
   <Parameters>
    <VectorParam id="2162"  name="eyePosition">
     <InterpolatingParam id="2163" interp="linr"  time="0/1" value="0" leadInLength="0/1"  />
     <InterpolatingParam id="2164" interp="linr"  time="0/1" value="0" leadInLength="0/1"  />
     <InterpolatingParam id="2165" interp="linr"  time="0/1" value="3000" leadInLength="0/1"  />
    </VectorParam>
    <VectorParam id="2166"  name="eyeLookAtPosition">
     <InterpolatingParam id="2167" interp="linr"  time="0/1" value="0" leadInLength="0/1"  />
     <InterpolatingParam id="2168" interp="linr"  time="0/1" value="0" leadInLength="0/1"  />
     <InterpolatingParam id="2169" interp="linr"  time="0/1" value="0" leadInLength="0/1"  />
    </VectorParam>
    <VectorParam id="2170"  name="eyeUpVector">
     <InterpolatingParam id="2171" interp="linr"  time="0/1" value="0" leadInLength="0/1"  />
     <InterpolatingParam id="2172" interp="linr"  time="0/1" value="1" leadInLength="0/1"  />
     <InterpolatingParam id="2173" interp="linr"  time="0/1" value="0" leadInLength="0/1"  />
    </VectorParam>
    <InterpolatingParam id="2174" interp="linr"  time="0/1" value="0.199337304" leadInLength="0/1"  name="fov"/>
    <InterpolatingParam id="2175" interp="linr"  time="0/1" value="1.5" leadInLength="0/1"  name="nearClipDistance"/>
    <InterpolatingParam id="2176" interp="linr"  time="0/1" value="6000" leadInLength="0/1"  name="farClipDistance"/>
   </Parameters>
  </Timeline>
 </Project>
</GoProject>
</CSMLData>

</Project_Data>
