<?xml version="1.0"?>
<Project_Data Version="8.00">
<Project_Settings>
<ProfileName></ProfileName>
<ProjectWidth>800</ProjectWidth>
<ProjectHeight>600</ProjectHeight>
<IsCustomProject>1</IsCustomProject>
<SavedProjectSettings>1</SavedProjectSettings>
<LastFlashTemplate>-1</LastFlashTemplate>
</Project_Settings>


<AutoSaveFile>C:\Users\rbwinst-pr\AppData\Local\TechSmith\Camtasia Studio\8.0\Auto-Saves\ModelArchiver283533.autosave.camproj</AutoSaveFile>

<ProjectID>C09C7E1C-DF3A-4DF4-AFBB-3D50D8221765</ProjectID>

<PowerPointProject>0</PowerPointProject>

<PowerPointFilename></PowerPointFilename>


<Project_Notes>
</Project_Notes>

<Project_MetaData>
<Project_MetaData_Object>
<FieldArrayKey>8</FieldArrayKey>
<Value>ModelArchiver</Value>
</Project_MetaData_Object>
<Project_MetaData_Object>
<FieldArrayKey>13</FieldArrayKey>
<Value>2018-02-28 03:25:13 PM</Value>
</Project_MetaData_Object>
<Project_MetaData_Object>
<FieldArrayKey>16</FieldArrayKey>
<Value>ENU</Value>
</Project_MetaData_Object>
<Project_MetaData_Object>
<FieldArrayKey>11</FieldArrayKey>
<Value>groundwater, model, archive</Value>
</Project_MetaData_Object>
<Project_MetaData_Object>
<FieldArrayKey>12</FieldArrayKey>
<Value>This video provides an overview of creating archives of groundwater model archives using ModelArchiver.</Value>
</Project_MetaData_Object>
<Project_MetaData_Object>
<FieldArrayKey>21</FieldArrayKey>
<Value>No</Value>
</Project_MetaData_Object>
<Project_MetaData_Object>
<FieldArrayKey>22</FieldArrayKey>
<Value>Clean</Value>
</Project_MetaData_Object>
<Project_MetaData_Object>
<FieldArrayKey>24</FieldArrayKey>
<Value>Natural Sciences</Value>
</Project_MetaData_Object>
</Project_MetaData>

<CSMLData>
<GoProject id="1" version="3.0" >
 <Project id="2" editRate="30/1" version="3.0" >
  <Author></Author>
  <Comment></Comment>
  <System></System>
  <SourceBin id="3"  >
    <Source id="4" src="C:\Colab\GWModelTools\ModelArchiver\Videos\ModelArchiver.trec" lastMod="20180228T205321" rect="(0,0,800,600)" >
      <SourceTrack range="(0,35352)" type="0" editRate="30/1" trackRect="(0,0,800,600)" sampleRate="0/1" bitDepth="0" numChannels="0" filename="ModelArchiver.trec!Strack0.tsc2" metaData="ModelArchiver.trec;" />
      <SourceTrack range="(0,51973120)" type="2" editRate="44100/1" trackRect="(0,0,0,0)" sampleRate="44100/1" bitDepth="16" numChannels="2" filename="ModelArchiver.trec!Maudio1.mp4" metaData="" />
      <SourceTrack range="(0,51951616)" type="2" editRate="44100/1" trackRect="(0,0,0,0)" sampleRate="44100/1" bitDepth="16" numChannels="2" filename="ModelArchiver.trec!$audio2.mp4" metaData="" />
    </Source>
    <Source id="5" src="C:\Colab\GWModelTools\ModelArchiver\Videos\ModelArchiverPart2.trec" lastMod="20180228T210647" rect="(0,0,800,600)" >
      <SourceTrack range="(0,1789)" type="0" editRate="30/1" trackRect="(0,0,800,600)" sampleRate="0/1" bitDepth="0" numChannels="0" filename="ModelArchiverPart2.trec!Strack0.tsc2" metaData="ModelArchiverPart2.trec;" />
      <SourceTrack range="(0,2625536)" type="2" editRate="44100/1" trackRect="(0,0,0,0)" sampleRate="44100/1" bitDepth="16" numChannels="2" filename="ModelArchiverPart2.trec!Maudio1.mp4" metaData="" />
      <SourceTrack range="(0,2603008)" type="2" editRate="44100/1" trackRect="(0,0,0,0)" sampleRate="44100/1" bitDepth="16" numChannels="2" filename="ModelArchiverPart2.trec!$audio2.mp4" metaData="" />
    </Source>
    <Source id="6" src="C:\Colab\GWModelTools\ModelArchiver\Videos\model.wav" lastMod="20180228T220703" rect="(0,0,0,0)" >
      <SourceTrack range="(0,39666667)" type="2" editRate="10000000/1" trackRect="(0,0,0,0)" sampleRate="16000/1" bitDepth="16" numChannels="1" filename="" metaData="" />
    </Source>
  </SourceBin>
  <Timeline id="7"  >
   <Attributes>
    <Attribute id="8" value="800" name="width"/>
    <Attribute id="9" value="600" name="height"/>
    <Attribute id="10" value="(0,0,0,255)" name="backgroundColor"/>
   </Attributes>
    <GenericMixer id="11"  name="Unified Mixer">
     <MetaData>
      <entry key="MixerType" val="TimelineMixer"/>
     </MetaData>
     <Tracks>
      <GenericTrack id="12"  >
       <Attributes>
        <Attribute id="13" value="" name="ident"/>
        <Attribute id="14" value="0" name="audioMuted"/>
        <Attribute id="15" value="0" name="videoHidden"/>
       </Attributes>
       <MetaData>
        <entry key="IsLocked" val="False"/>
        <entry key="WinTrackHeight" val="62"/>
       </MetaData>
       <Medias>
        <StitchedMedia id="16" start="0" duration="14657" scalar="1/1" mediaStart="82/1" mediaDuration="14657/1" minMediaStart="0/1" >
         <Transformer>
          <VectorParam id="17"  name="translation">
           <InterpolatingParam id="18" interp="linr"  time="0/1" value="0" leadInLength="0/1"  />
           <InterpolatingParam id="19" interp="linr"  time="0/1" value="0" leadInLength="0/1"  />
           <InterpolatingParam id="20" interp="linr"  time="0/1" value="0" leadInLength="0/1"  />
          </VectorParam>
          <VectorParam id="21"  name="rotation">
           <InterpolatingParam id="22" interp="linr"  time="0/1" value="0" leadInLength="0/1"  />
           <InterpolatingParam id="23" interp="linr"  time="0/1" value="0" leadInLength="0/1"  />
           <InterpolatingParam id="24" interp="linr"  time="0/1" value="0" leadInLength="0/1"  />
          </VectorParam>
          <VectorParam id="25"  name="shear">
           <InterpolatingParam id="26" interp="linr"  time="0/1" value="0" leadInLength="0/1"  />
           <InterpolatingParam id="27" interp="linr"  time="0/1" value="0" leadInLength="0/1"  />
           <InterpolatingParam id="28" interp="linr"  time="0/1" value="0" leadInLength="0/1"  />
          </VectorParam>
          <VectorParam id="29"  name="scale">
           <InterpolatingParam id="30" interp="linr"  time="0/1" value="1" leadInLength="0/1"  />
           <InterpolatingParam id="31" interp="linr"  time="0/1" value="1" leadInLength="0/1"  />
           <InterpolatingParam id="32" interp="linr"  time="0/1" value="1" leadInLength="0/1"  />
          </VectorParam>
          <VectorParam id="33"  name="anchor">
           <InterpolatingParam id="34" interp="linr"  time="0/1" value="0" leadInLength="0/1"  />
           <InterpolatingParam id="35" interp="linr"  time="0/1" value="0" leadInLength="0/1"  />
           <InterpolatingParam id="36" interp="linr"  time="0/1" value="0" leadInLength="0/1"  />
          </VectorParam>
         </Transformer>
         <Parameters>
          <InterpolatingParam id="37" interp="linr"  time="0/1" value="1" leadInLength="0/1"  name="cursorOpacity"/>
          <InterpolatingParam id="38" interp="linr"  time="0/1" value="1" leadInLength="0/1"  name="cursorScale"/>
          <InterpolatingParam id="39" interp="linr"  name="volume">
           <Keyframes>
           <Keyframe id="40"  time="0/1" value="1" leadInLength="0/1"  />
           <Keyframe id="41"  time="9421/1" value="1" leadInLength="0/1"  />
           <Keyframe id="42"  time="9422/1" value="0" leadInLength="0/1"  />
           <Keyframe id="43"  time="9439/1" value="0" leadInLength="0/1"  />
           <Keyframe id="44"  time="9440/1" value="1" leadInLength="0/1"  />
           </Keyframes>
          </InterpolatingParam>
          <Parameter id="45"  name="captions"/>
         </Parameters>
         <Attributes>
          <Attribute id="46" value="" name="ident"/>
          <Attribute id="47" value="0" name="mixToMono"/>
         </Attributes>
         <MetaData>
          <entry key="WinSubProjectDisplayName" val=""/>
         </MetaData>
         <ExtraData>
          <Entry key="ZoomPanBin">
           <ZoomPanBin id="48"  >
            <ZoomPanKeyframes>
            </ZoomPanKeyframes>
           </ZoomPanBin>
          </Entry>
          <Entry key="CursorEffectBin">
           <CursorEffectBin id="49"  >
            <CursorEffectKeyframes>
            </CursorEffectKeyframes>
           </CursorEffectBin>
          </Entry>
         </ExtraData>
         <GenericTrack id="50"  >
          <Attributes>
           <Attribute id="51" value="" name="ident"/>
           <Attribute id="52" value="0" name="audioMuted"/>
           <Attribute id="53" value="0" name="videoHidden"/>
          </Attributes>
          <MetaData>
           <entry key="IsLocked" val="False"/>
           <entry key="WinTrackHeight" val="0"/>
          </MetaData>
          <Medias>
           <AMFile id="54" start="0" duration="408" scalar="1/1" mediaStart="0/1" mediaDuration="408/1" trackNumber="2" src="4" channelNumber="0,1" >
            <Parameters>
             <InterpolatingParam id="55" interp="linr"  time="0/1" value="1" leadInLength="0/1"  name="volume"/>
             <Parameter id="56"  name="captions"/>
            </Parameters>
            <Attributes>
             <Attribute id="57" value="" name="ident"/>
             <Attribute id="58" value="44100" name="sampleRate"/>
             <Attribute id="59" value="16" name="bitDepth"/>
             <Attribute id="60" value="1" name="gain"/>
             <Attribute id="61" value="0" name="mixToMono"/>
            </Attributes>
            <MetaData>
             <entry key="WinSubProjectDisplayName" val=""/>
            </MetaData>
           </AMFile>
           <AMFile id="62" start="408" duration="1023" scalar="1/1" mediaStart="420/1" mediaDuration="1023/1" trackNumber="2" src="4" channelNumber="0,1" >
            <Parameters>
             <InterpolatingParam id="63" interp="linr"  time="0/1" value="1" leadInLength="0/1"  name="volume"/>
             <Parameter id="64"  name="captions"/>
            </Parameters>
            <Attributes>
             <Attribute id="65" value="" name="ident"/>
             <Attribute id="66" value="44100" name="sampleRate"/>
             <Attribute id="67" value="16" name="bitDepth"/>
             <Attribute id="68" value="1" name="gain"/>
             <Attribute id="69" value="0" name="mixToMono"/>
            </Attributes>
            <MetaData>
             <entry key="WinSubProjectDisplayName" val=""/>
            </MetaData>
           </AMFile>
           <AMFile id="70" start="1431" duration="816" scalar="1/1" mediaStart="1511/1" mediaDuration="816/1" trackNumber="2" src="4" channelNumber="0,1" >
            <Parameters>
             <InterpolatingParam id="71" interp="linr"  time="0/1" value="1" leadInLength="0/1"  name="volume"/>
             <Parameter id="72"  name="captions"/>
            </Parameters>
            <Attributes>
             <Attribute id="73" value="" name="ident"/>
             <Attribute id="74" value="44100" name="sampleRate"/>
             <Attribute id="75" value="16" name="bitDepth"/>
             <Attribute id="76" value="1" name="gain"/>
             <Attribute id="77" value="0" name="mixToMono"/>
            </Attributes>
            <MetaData>
             <entry key="WinSubProjectDisplayName" val=""/>
            </MetaData>
           </AMFile>
           <AMFile id="78" start="2247" duration="646" scalar="1/1" mediaStart="2566/1" mediaDuration="646/1" trackNumber="2" src="4" channelNumber="0,1" >
            <Parameters>
             <InterpolatingParam id="79" interp="linr"  time="0/1" value="1" leadInLength="0/1"  name="volume"/>
             <Parameter id="80"  name="captions"/>
            </Parameters>
            <Attributes>
             <Attribute id="81" value="" name="ident"/>
             <Attribute id="82" value="44100" name="sampleRate"/>
             <Attribute id="83" value="16" name="bitDepth"/>
             <Attribute id="84" value="1" name="gain"/>
             <Attribute id="85" value="0" name="mixToMono"/>
            </Attributes>
            <MetaData>
             <entry key="WinSubProjectDisplayName" val=""/>
            </MetaData>
           </AMFile>
           <AMFile id="86" start="2893" duration="66" scalar="1/1" mediaStart="3434/1" mediaDuration="66/1" trackNumber="2" src="4" channelNumber="0,1" >
            <Parameters>
             <InterpolatingParam id="87" interp="linr"  time="0/1" value="1" leadInLength="0/1"  name="volume"/>
             <Parameter id="88"  name="captions"/>
            </Parameters>
            <Attributes>
             <Attribute id="89" value="" name="ident"/>
             <Attribute id="90" value="44100" name="sampleRate"/>
             <Attribute id="91" value="16" name="bitDepth"/>
             <Attribute id="92" value="1" name="gain"/>
             <Attribute id="93" value="0" name="mixToMono"/>
            </Attributes>
            <MetaData>
             <entry key="WinSubProjectDisplayName" val=""/>
            </MetaData>
           </AMFile>
           <AMFile id="94" start="2959" duration="193" scalar="1/1" mediaStart="3538/1" mediaDuration="193/1" trackNumber="2" src="4" channelNumber="0,1" >
            <Parameters>
             <InterpolatingParam id="95" interp="linr"  time="0/1" value="1" leadInLength="0/1"  name="volume"/>
             <Parameter id="96"  name="captions"/>
            </Parameters>
            <Attributes>
             <Attribute id="97" value="" name="ident"/>
             <Attribute id="98" value="44100" name="sampleRate"/>
             <Attribute id="99" value="16" name="bitDepth"/>
             <Attribute id="100" value="1" name="gain"/>
             <Attribute id="101" value="0" name="mixToMono"/>
            </Attributes>
            <MetaData>
             <entry key="WinSubProjectDisplayName" val=""/>
            </MetaData>
           </AMFile>
           <AMFile id="102" start="3152" duration="78" scalar="1/1" mediaStart="3833/1" mediaDuration="78/1" trackNumber="2" src="4" channelNumber="0,1" >
            <Parameters>
             <InterpolatingParam id="103" interp="linr"  time="0/1" value="1" leadInLength="0/1"  name="volume"/>
             <Parameter id="104"  name="captions"/>
            </Parameters>
            <Attributes>
             <Attribute id="105" value="" name="ident"/>
             <Attribute id="106" value="44100" name="sampleRate"/>
             <Attribute id="107" value="16" name="bitDepth"/>
             <Attribute id="108" value="1" name="gain"/>
             <Attribute id="109" value="0" name="mixToMono"/>
            </Attributes>
            <MetaData>
             <entry key="WinSubProjectDisplayName" val=""/>
            </MetaData>
           </AMFile>
           <AMFile id="110" start="3230" duration="431" scalar="1/1" mediaStart="3983/1" mediaDuration="431/1" trackNumber="2" src="4" channelNumber="0,1" >
            <Parameters>
             <InterpolatingParam id="111" interp="linr"  time="0/1" value="1" leadInLength="0/1"  name="volume"/>
             <Parameter id="112"  name="captions"/>
            </Parameters>
            <Attributes>
             <Attribute id="113" value="" name="ident"/>
             <Attribute id="114" value="44100" name="sampleRate"/>
             <Attribute id="115" value="16" name="bitDepth"/>
             <Attribute id="116" value="1" name="gain"/>
             <Attribute id="117" value="0" name="mixToMono"/>
            </Attributes>
            <MetaData>
             <entry key="WinSubProjectDisplayName" val=""/>
            </MetaData>
           </AMFile>
           <AMFile id="118" start="3661" duration="168" scalar="1/1" mediaStart="4501/1" mediaDuration="168/1" trackNumber="2" src="4" channelNumber="0,1" >
            <Parameters>
             <InterpolatingParam id="119" interp="linr"  time="0/1" value="1" leadInLength="0/1"  name="volume"/>
             <Parameter id="120"  name="captions"/>
            </Parameters>
            <Attributes>
             <Attribute id="121" value="" name="ident"/>
             <Attribute id="122" value="44100" name="sampleRate"/>
             <Attribute id="123" value="16" name="bitDepth"/>
             <Attribute id="124" value="1" name="gain"/>
             <Attribute id="125" value="0" name="mixToMono"/>
            </Attributes>
            <MetaData>
             <entry key="WinSubProjectDisplayName" val=""/>
            </MetaData>
           </AMFile>
           <AMFile id="126" start="3829" duration="254" scalar="1/1" mediaStart="5673/1" mediaDuration="254/1" trackNumber="2" src="4" channelNumber="0,1" >
            <Parameters>
             <InterpolatingParam id="127" interp="linr"  time="0/1" value="1" leadInLength="0/1"  name="volume"/>
             <Parameter id="128"  name="captions"/>
            </Parameters>
            <Attributes>
             <Attribute id="129" value="" name="ident"/>
             <Attribute id="130" value="44100" name="sampleRate"/>
             <Attribute id="131" value="16" name="bitDepth"/>
             <Attribute id="132" value="1" name="gain"/>
             <Attribute id="133" value="0" name="mixToMono"/>
            </Attributes>
            <MetaData>
             <entry key="WinSubProjectDisplayName" val=""/>
            </MetaData>
           </AMFile>
           <AMFile id="134" start="4083" duration="271" scalar="1/1" mediaStart="6224/1" mediaDuration="271/1" trackNumber="2" src="4" channelNumber="0,1" >
            <Parameters>
             <InterpolatingParam id="135" interp="linr"  time="0/1" value="1" leadInLength="0/1"  name="volume"/>
             <Parameter id="136"  name="captions"/>
            </Parameters>
            <Attributes>
             <Attribute id="137" value="" name="ident"/>
             <Attribute id="138" value="44100" name="sampleRate"/>
             <Attribute id="139" value="16" name="bitDepth"/>
             <Attribute id="140" value="1" name="gain"/>
             <Attribute id="141" value="0" name="mixToMono"/>
            </Attributes>
            <MetaData>
             <entry key="WinSubProjectDisplayName" val=""/>
            </MetaData>
           </AMFile>
           <AMFile id="142" start="4354" duration="94" scalar="1/1" mediaStart="6512/1" mediaDuration="94/1" trackNumber="2" src="4" channelNumber="0,1" >
            <Parameters>
             <InterpolatingParam id="143" interp="linr"  time="0/1" value="1" leadInLength="0/1"  name="volume"/>
             <Parameter id="144"  name="captions"/>
            </Parameters>
            <Attributes>
             <Attribute id="145" value="" name="ident"/>
             <Attribute id="146" value="44100" name="sampleRate"/>
             <Attribute id="147" value="16" name="bitDepth"/>
             <Attribute id="148" value="1" name="gain"/>
             <Attribute id="149" value="0" name="mixToMono"/>
            </Attributes>
            <MetaData>
             <entry key="WinSubProjectDisplayName" val=""/>
            </MetaData>
           </AMFile>
           <AMFile id="150" start="4448" duration="21" scalar="1/1" mediaStart="6635/1" mediaDuration="21/1" trackNumber="2" src="4" channelNumber="0,1" >
            <Parameters>
             <InterpolatingParam id="151" interp="linr"  time="0/1" value="1" leadInLength="0/1"  name="volume"/>
             <Parameter id="152"  name="captions"/>
            </Parameters>
            <Attributes>
             <Attribute id="153" value="" name="ident"/>
             <Attribute id="154" value="44100" name="sampleRate"/>
             <Attribute id="155" value="16" name="bitDepth"/>
             <Attribute id="156" value="1" name="gain"/>
             <Attribute id="157" value="0" name="mixToMono"/>
            </Attributes>
            <MetaData>
             <entry key="WinSubProjectDisplayName" val=""/>
            </MetaData>
           </AMFile>
           <AMFile id="158" start="4469" duration="3" scalar="1/1" mediaStart="6671/1" mediaDuration="3/1" trackNumber="2" src="4" channelNumber="0,1" >
            <Parameters>
             <InterpolatingParam id="159" interp="linr"  time="0/1" value="1" leadInLength="0/1"  name="volume"/>
             <Parameter id="160"  name="captions"/>
            </Parameters>
            <Attributes>
             <Attribute id="161" value="" name="ident"/>
             <Attribute id="162" value="44100" name="sampleRate"/>
             <Attribute id="163" value="16" name="bitDepth"/>
             <Attribute id="164" value="1" name="gain"/>
             <Attribute id="165" value="0" name="mixToMono"/>
            </Attributes>
            <MetaData>
             <entry key="WinSubProjectDisplayName" val=""/>
            </MetaData>
           </AMFile>
           <AMFile id="166" start="4472" duration="56" scalar="1/1" mediaStart="6693/1" mediaDuration="56/1" trackNumber="2" src="4" channelNumber="0,1" >
            <Parameters>
             <InterpolatingParam id="167" interp="linr"  time="0/1" value="1" leadInLength="0/1"  name="volume"/>
             <Parameter id="168"  name="captions"/>
            </Parameters>
            <Attributes>
             <Attribute id="169" value="" name="ident"/>
             <Attribute id="170" value="44100" name="sampleRate"/>
             <Attribute id="171" value="16" name="bitDepth"/>
             <Attribute id="172" value="1" name="gain"/>
             <Attribute id="173" value="0" name="mixToMono"/>
            </Attributes>
            <MetaData>
             <entry key="WinSubProjectDisplayName" val=""/>
            </MetaData>
           </AMFile>
           <AMFile id="174" start="4528" duration="80" scalar="1/1" mediaStart="7038/1" mediaDuration="80/1" trackNumber="2" src="4" channelNumber="0,1" >
            <Parameters>
             <InterpolatingParam id="175" interp="linr"  time="0/1" value="1" leadInLength="0/1"  name="volume"/>
             <Parameter id="176"  name="captions"/>
            </Parameters>
            <Attributes>
             <Attribute id="177" value="" name="ident"/>
             <Attribute id="178" value="44100" name="sampleRate"/>
             <Attribute id="179" value="16" name="bitDepth"/>
             <Attribute id="180" value="1" name="gain"/>
             <Attribute id="181" value="0" name="mixToMono"/>
            </Attributes>
            <MetaData>
             <entry key="WinSubProjectDisplayName" val=""/>
            </MetaData>
           </AMFile>
           <AMFile id="182" start="4608" duration="484" scalar="1/1" mediaStart="7292/1" mediaDuration="484/1" trackNumber="2" src="4" channelNumber="0,1" >
            <Parameters>
             <InterpolatingParam id="183" interp="linr"  time="0/1" value="1" leadInLength="0/1"  name="volume"/>
             <Parameter id="184"  name="captions"/>
            </Parameters>
            <Attributes>
             <Attribute id="185" value="" name="ident"/>
             <Attribute id="186" value="44100" name="sampleRate"/>
             <Attribute id="187" value="16" name="bitDepth"/>
             <Attribute id="188" value="1" name="gain"/>
             <Attribute id="189" value="0" name="mixToMono"/>
            </Attributes>
            <MetaData>
             <entry key="WinSubProjectDisplayName" val=""/>
            </MetaData>
           </AMFile>
           <AMFile id="190" start="5092" duration="84" scalar="1/1" mediaStart="7828/1" mediaDuration="84/1" trackNumber="2" src="4" channelNumber="0,1" >
            <Parameters>
             <InterpolatingParam id="191" interp="linr"  time="0/1" value="1" leadInLength="0/1"  name="volume"/>
             <Parameter id="192"  name="captions"/>
            </Parameters>
            <Attributes>
             <Attribute id="193" value="" name="ident"/>
             <Attribute id="194" value="44100" name="sampleRate"/>
             <Attribute id="195" value="16" name="bitDepth"/>
             <Attribute id="196" value="1" name="gain"/>
             <Attribute id="197" value="0" name="mixToMono"/>
            </Attributes>
            <MetaData>
             <entry key="WinSubProjectDisplayName" val=""/>
            </MetaData>
           </AMFile>
           <AMFile id="198" start="5176" duration="36" scalar="1/1" mediaStart="7946/1" mediaDuration="36/1" trackNumber="2" src="4" channelNumber="0,1" >
            <Parameters>
             <InterpolatingParam id="199" interp="linr"  time="0/1" value="1" leadInLength="0/1"  name="volume"/>
             <Parameter id="200"  name="captions"/>
            </Parameters>
            <Attributes>
             <Attribute id="201" value="" name="ident"/>
             <Attribute id="202" value="44100" name="sampleRate"/>
             <Attribute id="203" value="16" name="bitDepth"/>
             <Attribute id="204" value="1" name="gain"/>
             <Attribute id="205" value="0" name="mixToMono"/>
            </Attributes>
            <MetaData>
             <entry key="WinSubProjectDisplayName" val=""/>
            </MetaData>
           </AMFile>
           <AMFile id="206" start="5212" duration="74" scalar="1/1" mediaStart="8033/1" mediaDuration="74/1" trackNumber="2" src="4" channelNumber="0,1" >
            <Parameters>
             <InterpolatingParam id="207" interp="linr"  time="0/1" value="1" leadInLength="0/1"  name="volume"/>
             <Parameter id="208"  name="captions"/>
            </Parameters>
            <Attributes>
             <Attribute id="209" value="" name="ident"/>
             <Attribute id="210" value="44100" name="sampleRate"/>
             <Attribute id="211" value="16" name="bitDepth"/>
             <Attribute id="212" value="1" name="gain"/>
             <Attribute id="213" value="0" name="mixToMono"/>
            </Attributes>
            <MetaData>
             <entry key="WinSubProjectDisplayName" val=""/>
            </MetaData>
           </AMFile>
           <AMFile id="214" start="5286" duration="81" scalar="1/1" mediaStart="8119/1" mediaDuration="81/1" trackNumber="2" src="4" channelNumber="0,1" >
            <Parameters>
             <InterpolatingParam id="215" interp="linr"  time="0/1" value="1" leadInLength="0/1"  name="volume"/>
             <Parameter id="216"  name="captions"/>
            </Parameters>
            <Attributes>
             <Attribute id="217" value="" name="ident"/>
             <Attribute id="218" value="44100" name="sampleRate"/>
             <Attribute id="219" value="16" name="bitDepth"/>
             <Attribute id="220" value="1" name="gain"/>
             <Attribute id="221" value="0" name="mixToMono"/>
            </Attributes>
            <MetaData>
             <entry key="WinSubProjectDisplayName" val=""/>
            </MetaData>
           </AMFile>
           <AMFile id="222" start="5367" duration="379" scalar="1/1" mediaStart="8430/1" mediaDuration="379/1" trackNumber="2" src="4" channelNumber="0,1" >
            <Parameters>
             <InterpolatingParam id="223" interp="linr"  time="0/1" value="1" leadInLength="0/1"  name="volume"/>
             <Parameter id="224"  name="captions"/>
            </Parameters>
            <Attributes>
             <Attribute id="225" value="" name="ident"/>
             <Attribute id="226" value="44100" name="sampleRate"/>
             <Attribute id="227" value="16" name="bitDepth"/>
             <Attribute id="228" value="1" name="gain"/>
             <Attribute id="229" value="0" name="mixToMono"/>
            </Attributes>
            <MetaData>
             <entry key="WinSubProjectDisplayName" val=""/>
            </MetaData>
           </AMFile>
           <AMFile id="230" start="5746" duration="90" scalar="1/1" mediaStart="9085/1" mediaDuration="90/1" trackNumber="2" src="4" channelNumber="0,1" >
            <Parameters>
             <InterpolatingParam id="231" interp="linr"  time="0/1" value="1" leadInLength="0/1"  name="volume"/>
             <Parameter id="232"  name="captions"/>
            </Parameters>
            <Attributes>
             <Attribute id="233" value="" name="ident"/>
             <Attribute id="234" value="44100" name="sampleRate"/>
             <Attribute id="235" value="16" name="bitDepth"/>
             <Attribute id="236" value="1" name="gain"/>
             <Attribute id="237" value="0" name="mixToMono"/>
            </Attributes>
            <MetaData>
             <entry key="WinSubProjectDisplayName" val=""/>
            </MetaData>
           </AMFile>
           <AMFile id="238" start="5836" duration="322" scalar="1/1" mediaStart="9425/1" mediaDuration="322/1" trackNumber="2" src="4" channelNumber="0,1" >
            <Parameters>
             <InterpolatingParam id="239" interp="linr"  time="0/1" value="1" leadInLength="0/1"  name="volume"/>
             <Parameter id="240"  name="captions"/>
            </Parameters>
            <Attributes>
             <Attribute id="241" value="" name="ident"/>
             <Attribute id="242" value="44100" name="sampleRate"/>
             <Attribute id="243" value="16" name="bitDepth"/>
             <Attribute id="244" value="1" name="gain"/>
             <Attribute id="245" value="0" name="mixToMono"/>
            </Attributes>
            <MetaData>
             <entry key="WinSubProjectDisplayName" val=""/>
            </MetaData>
           </AMFile>
           <AMFile id="246" start="6158" duration="670" scalar="1/1" mediaStart="9866/1" mediaDuration="670/1" trackNumber="2" src="4" channelNumber="0,1" >
            <Parameters>
             <InterpolatingParam id="247" interp="linr"  time="0/1" value="1" leadInLength="0/1"  name="volume"/>
             <Parameter id="248"  name="captions"/>
            </Parameters>
            <Attributes>
             <Attribute id="249" value="" name="ident"/>
             <Attribute id="250" value="44100" name="sampleRate"/>
             <Attribute id="251" value="16" name="bitDepth"/>
             <Attribute id="252" value="1" name="gain"/>
             <Attribute id="253" value="0" name="mixToMono"/>
            </Attributes>
            <MetaData>
             <entry key="WinSubProjectDisplayName" val=""/>
            </MetaData>
           </AMFile>
           <AMFile id="254" start="6828" duration="60" scalar="1/1" mediaStart="10753/1" mediaDuration="60/1" trackNumber="2" src="4" channelNumber="0,1" >
            <Parameters>
             <InterpolatingParam id="255" interp="linr"  time="0/1" value="1" leadInLength="0/1"  name="volume"/>
             <Parameter id="256"  name="captions"/>
            </Parameters>
            <Attributes>
             <Attribute id="257" value="" name="ident"/>
             <Attribute id="258" value="44100" name="sampleRate"/>
             <Attribute id="259" value="16" name="bitDepth"/>
             <Attribute id="260" value="1" name="gain"/>
             <Attribute id="261" value="0" name="mixToMono"/>
            </Attributes>
            <MetaData>
             <entry key="WinSubProjectDisplayName" val=""/>
            </MetaData>
           </AMFile>
           <AMFile id="262" start="6888" duration="353" scalar="1/1" mediaStart="10842/1" mediaDuration="353/1" trackNumber="2" src="4" channelNumber="0,1" >
            <Parameters>
             <InterpolatingParam id="263" interp="linr"  time="0/1" value="1" leadInLength="0/1"  name="volume"/>
             <Parameter id="264"  name="captions"/>
            </Parameters>
            <Attributes>
             <Attribute id="265" value="" name="ident"/>
             <Attribute id="266" value="44100" name="sampleRate"/>
             <Attribute id="267" value="16" name="bitDepth"/>
             <Attribute id="268" value="1" name="gain"/>
             <Attribute id="269" value="0" name="mixToMono"/>
            </Attributes>
            <MetaData>
             <entry key="WinSubProjectDisplayName" val=""/>
            </MetaData>
           </AMFile>
           <AMFile id="270" start="7241" duration="447" scalar="1/1" mediaStart="12209/1" mediaDuration="447/1" trackNumber="2" src="4" channelNumber="0,1" >
            <Parameters>
             <InterpolatingParam id="271" interp="linr"  time="0/1" value="1" leadInLength="0/1"  name="volume"/>
             <Parameter id="272"  name="captions"/>
            </Parameters>
            <Attributes>
             <Attribute id="273" value="" name="ident"/>
             <Attribute id="274" value="44100" name="sampleRate"/>
             <Attribute id="275" value="16" name="bitDepth"/>
             <Attribute id="276" value="1" name="gain"/>
             <Attribute id="277" value="0" name="mixToMono"/>
            </Attributes>
            <MetaData>
             <entry key="WinSubProjectDisplayName" val=""/>
            </MetaData>
           </AMFile>
           <AMFile id="278" start="7688" duration="410" scalar="1/1" mediaStart="12746/1" mediaDuration="410/1" trackNumber="2" src="4" channelNumber="0,1" >
            <Parameters>
             <InterpolatingParam id="279" interp="linr"  time="0/1" value="1" leadInLength="0/1"  name="volume"/>
             <Parameter id="280"  name="captions"/>
            </Parameters>
            <Attributes>
             <Attribute id="281" value="" name="ident"/>
             <Attribute id="282" value="44100" name="sampleRate"/>
             <Attribute id="283" value="16" name="bitDepth"/>
             <Attribute id="284" value="1" name="gain"/>
             <Attribute id="285" value="0" name="mixToMono"/>
            </Attributes>
            <MetaData>
             <entry key="WinSubProjectDisplayName" val=""/>
            </MetaData>
           </AMFile>
           <AMFile id="286" start="8098" duration="117" scalar="1/1" mediaStart="13234/1" mediaDuration="117/1" trackNumber="2" src="4" channelNumber="0,1" >
            <Parameters>
             <InterpolatingParam id="287" interp="linr"  time="0/1" value="1" leadInLength="0/1"  name="volume"/>
             <Parameter id="288"  name="captions"/>
            </Parameters>
            <Attributes>
             <Attribute id="289" value="" name="ident"/>
             <Attribute id="290" value="44100" name="sampleRate"/>
             <Attribute id="291" value="16" name="bitDepth"/>
             <Attribute id="292" value="1" name="gain"/>
             <Attribute id="293" value="0" name="mixToMono"/>
            </Attributes>
            <MetaData>
             <entry key="WinSubProjectDisplayName" val=""/>
            </MetaData>
           </AMFile>
           <AMFile id="294" start="8215" duration="316" scalar="1/1" mediaStart="13506/1" mediaDuration="316/1" trackNumber="2" src="4" channelNumber="0,1" >
            <Parameters>
             <InterpolatingParam id="295" interp="linr"  time="0/1" value="1" leadInLength="0/1"  name="volume"/>
             <Parameter id="296"  name="captions"/>
            </Parameters>
            <Attributes>
             <Attribute id="297" value="" name="ident"/>
             <Attribute id="298" value="44100" name="sampleRate"/>
             <Attribute id="299" value="16" name="bitDepth"/>
             <Attribute id="300" value="1" name="gain"/>
             <Attribute id="301" value="0" name="mixToMono"/>
            </Attributes>
            <MetaData>
             <entry key="WinSubProjectDisplayName" val=""/>
            </MetaData>
           </AMFile>
           <AMFile id="302" start="8531" duration="270" scalar="1/1" mediaStart="14304/1" mediaDuration="270/1" trackNumber="2" src="4" channelNumber="0,1" >
            <Parameters>
             <InterpolatingParam id="303" interp="linr"  time="0/1" value="1" leadInLength="0/1"  name="volume"/>
             <Parameter id="304"  name="captions"/>
            </Parameters>
            <Attributes>
             <Attribute id="305" value="" name="ident"/>
             <Attribute id="306" value="44100" name="sampleRate"/>
             <Attribute id="307" value="16" name="bitDepth"/>
             <Attribute id="308" value="1" name="gain"/>
             <Attribute id="309" value="0" name="mixToMono"/>
            </Attributes>
            <MetaData>
             <entry key="WinSubProjectDisplayName" val=""/>
            </MetaData>
           </AMFile>
           <AMFile id="310" start="8801" duration="269" scalar="1/1" mediaStart="14939/1" mediaDuration="269/1" trackNumber="2" src="4" channelNumber="0,1" >
            <Parameters>
             <InterpolatingParam id="311" interp="linr"  time="0/1" value="1" leadInLength="0/1"  name="volume"/>
             <Parameter id="312"  name="captions"/>
            </Parameters>
            <Attributes>
             <Attribute id="313" value="" name="ident"/>
             <Attribute id="314" value="44100" name="sampleRate"/>
             <Attribute id="315" value="16" name="bitDepth"/>
             <Attribute id="316" value="1" name="gain"/>
             <Attribute id="317" value="0" name="mixToMono"/>
            </Attributes>
            <MetaData>
             <entry key="WinSubProjectDisplayName" val=""/>
            </MetaData>
           </AMFile>
           <AMFile id="318" start="9070" duration="143" scalar="1/1" mediaStart="15295/1" mediaDuration="143/1" trackNumber="2" src="4" channelNumber="0,1" >
            <Parameters>
             <InterpolatingParam id="319" interp="linr"  time="0/1" value="1" leadInLength="0/1"  name="volume"/>
             <Parameter id="320"  name="captions"/>
            </Parameters>
            <Attributes>
             <Attribute id="321" value="" name="ident"/>
             <Attribute id="322" value="44100" name="sampleRate"/>
             <Attribute id="323" value="16" name="bitDepth"/>
             <Attribute id="324" value="1" name="gain"/>
             <Attribute id="325" value="0" name="mixToMono"/>
            </Attributes>
            <MetaData>
             <entry key="WinSubProjectDisplayName" val=""/>
            </MetaData>
           </AMFile>
           <AMFile id="326" start="9213" duration="138" scalar="1/1" mediaStart="15497/1" mediaDuration="138/1" trackNumber="2" src="4" channelNumber="0,1" >
            <Parameters>
             <InterpolatingParam id="327" interp="linr"  time="0/1" value="1" leadInLength="0/1"  name="volume"/>
             <Parameter id="328"  name="captions"/>
            </Parameters>
            <Attributes>
             <Attribute id="329" value="" name="ident"/>
             <Attribute id="330" value="44100" name="sampleRate"/>
             <Attribute id="331" value="16" name="bitDepth"/>
             <Attribute id="332" value="1" name="gain"/>
             <Attribute id="333" value="0" name="mixToMono"/>
            </Attributes>
            <MetaData>
             <entry key="WinSubProjectDisplayName" val=""/>
            </MetaData>
           </AMFile>
           <AMFile id="334" start="9351" duration="92" scalar="1/1" mediaStart="15905/1" mediaDuration="92/1" trackNumber="2" src="4" channelNumber="0,1" >
            <Parameters>
             <InterpolatingParam id="335" interp="linr"  time="0/1" value="1" leadInLength="0/1"  name="volume"/>
             <Parameter id="336"  name="captions"/>
            </Parameters>
            <Attributes>
             <Attribute id="337" value="" name="ident"/>
             <Attribute id="338" value="44100" name="sampleRate"/>
             <Attribute id="339" value="16" name="bitDepth"/>
             <Attribute id="340" value="1" name="gain"/>
             <Attribute id="341" value="0" name="mixToMono"/>
            </Attributes>
            <MetaData>
             <entry key="WinSubProjectDisplayName" val=""/>
            </MetaData>
           </AMFile>
           <AMFile id="342" start="9443" duration="391" scalar="1/1" mediaStart="16063/1" mediaDuration="391/1" trackNumber="2" src="4" channelNumber="0,1" >
            <Parameters>
             <InterpolatingParam id="343" interp="linr"  time="0/1" value="1" leadInLength="0/1"  name="volume"/>
             <Parameter id="344"  name="captions"/>
            </Parameters>
            <Attributes>
             <Attribute id="345" value="" name="ident"/>
             <Attribute id="346" value="44100" name="sampleRate"/>
             <Attribute id="347" value="16" name="bitDepth"/>
             <Attribute id="348" value="1" name="gain"/>
             <Attribute id="349" value="0" name="mixToMono"/>
            </Attributes>
            <MetaData>
             <entry key="WinSubProjectDisplayName" val=""/>
            </MetaData>
           </AMFile>
           <AMFile id="350" start="9834" duration="74" scalar="1/1" mediaStart="16547/1" mediaDuration="74/1" trackNumber="2" src="4" channelNumber="0,1" >
            <Parameters>
             <InterpolatingParam id="351" interp="linr"  time="0/1" value="1" leadInLength="0/1"  name="volume"/>
             <Parameter id="352"  name="captions"/>
            </Parameters>
            <Attributes>
             <Attribute id="353" value="" name="ident"/>
             <Attribute id="354" value="44100" name="sampleRate"/>
             <Attribute id="355" value="16" name="bitDepth"/>
             <Attribute id="356" value="1" name="gain"/>
             <Attribute id="357" value="0" name="mixToMono"/>
            </Attributes>
            <MetaData>
             <entry key="WinSubProjectDisplayName" val=""/>
            </MetaData>
           </AMFile>
           <AMFile id="358" start="9908" duration="249" scalar="1/1" mediaStart="17036/1" mediaDuration="249/1" trackNumber="2" src="4" channelNumber="0,1" >
            <Parameters>
             <InterpolatingParam id="359" interp="linr"  time="0/1" value="1" leadInLength="0/1"  name="volume"/>
             <Parameter id="360"  name="captions"/>
            </Parameters>
            <Attributes>
             <Attribute id="361" value="" name="ident"/>
             <Attribute id="362" value="44100" name="sampleRate"/>
             <Attribute id="363" value="16" name="bitDepth"/>
             <Attribute id="364" value="1" name="gain"/>
             <Attribute id="365" value="0" name="mixToMono"/>
            </Attributes>
            <MetaData>
             <entry key="WinSubProjectDisplayName" val=""/>
            </MetaData>
           </AMFile>
           <AMFile id="366" start="10157" duration="438" scalar="1/1" mediaStart="17573/1" mediaDuration="438/1" trackNumber="2" src="4" channelNumber="0,1" >
            <Parameters>
             <InterpolatingParam id="367" interp="linr"  time="0/1" value="1" leadInLength="0/1"  name="volume"/>
             <Parameter id="368"  name="captions"/>
            </Parameters>
            <Attributes>
             <Attribute id="369" value="" name="ident"/>
             <Attribute id="370" value="44100" name="sampleRate"/>
             <Attribute id="371" value="16" name="bitDepth"/>
             <Attribute id="372" value="1" name="gain"/>
             <Attribute id="373" value="0" name="mixToMono"/>
            </Attributes>
            <MetaData>
             <entry key="WinSubProjectDisplayName" val=""/>
            </MetaData>
           </AMFile>
           <AMFile id="374" start="10595" duration="167" scalar="1/1" mediaStart="18231/1" mediaDuration="167/1" trackNumber="2" src="4" channelNumber="0,1" >
            <Parameters>
             <InterpolatingParam id="375" interp="linr"  time="0/1" value="1" leadInLength="0/1"  name="volume"/>
             <Parameter id="376"  name="captions"/>
            </Parameters>
            <Attributes>
             <Attribute id="377" value="" name="ident"/>
             <Attribute id="378" value="44100" name="sampleRate"/>
             <Attribute id="379" value="16" name="bitDepth"/>
             <Attribute id="380" value="1" name="gain"/>
             <Attribute id="381" value="0" name="mixToMono"/>
            </Attributes>
            <MetaData>
             <entry key="WinSubProjectDisplayName" val=""/>
            </MetaData>
           </AMFile>
           <AMFile id="382" start="10762" duration="41" scalar="1/1" mediaStart="18434/1" mediaDuration="41/1" trackNumber="2" src="4" channelNumber="0,1" >
            <Parameters>
             <InterpolatingParam id="383" interp="linr"  time="0/1" value="1" leadInLength="0/1"  name="volume"/>
             <Parameter id="384"  name="captions"/>
            </Parameters>
            <Attributes>
             <Attribute id="385" value="" name="ident"/>
             <Attribute id="386" value="44100" name="sampleRate"/>
             <Attribute id="387" value="16" name="bitDepth"/>
             <Attribute id="388" value="1" name="gain"/>
             <Attribute id="389" value="0" name="mixToMono"/>
            </Attributes>
            <MetaData>
             <entry key="WinSubProjectDisplayName" val=""/>
            </MetaData>
           </AMFile>
           <AMFile id="390" start="10803" duration="199" scalar="1/1" mediaStart="18489/1" mediaDuration="199/1" trackNumber="2" src="4" channelNumber="0,1" >
            <Parameters>
             <InterpolatingParam id="391" interp="linr"  time="0/1" value="1" leadInLength="0/1"  name="volume"/>
             <Parameter id="392"  name="captions"/>
            </Parameters>
            <Attributes>
             <Attribute id="393" value="" name="ident"/>
             <Attribute id="394" value="44100" name="sampleRate"/>
             <Attribute id="395" value="16" name="bitDepth"/>
             <Attribute id="396" value="1" name="gain"/>
             <Attribute id="397" value="0" name="mixToMono"/>
            </Attributes>
            <MetaData>
             <entry key="WinSubProjectDisplayName" val=""/>
            </MetaData>
           </AMFile>
           <AMFile id="398" start="11002" duration="273" scalar="1/1" mediaStart="19241/1" mediaDuration="273/1" trackNumber="2" src="4" channelNumber="0,1" >
            <Parameters>
             <InterpolatingParam id="399" interp="linr"  time="0/1" value="1" leadInLength="0/1"  name="volume"/>
             <Parameter id="400"  name="captions"/>
            </Parameters>
            <Attributes>
             <Attribute id="401" value="" name="ident"/>
             <Attribute id="402" value="44100" name="sampleRate"/>
             <Attribute id="403" value="16" name="bitDepth"/>
             <Attribute id="404" value="1" name="gain"/>
             <Attribute id="405" value="0" name="mixToMono"/>
            </Attributes>
            <MetaData>
             <entry key="WinSubProjectDisplayName" val=""/>
            </MetaData>
           </AMFile>
           <AMFile id="406" start="11275" duration="394" scalar="1/1" mediaStart="19749/1" mediaDuration="394/1" trackNumber="2" src="4" channelNumber="0,1" >
            <Parameters>
             <InterpolatingParam id="407" interp="linr"  time="0/1" value="1" leadInLength="0/1"  name="volume"/>
             <Parameter id="408"  name="captions"/>
            </Parameters>
            <Attributes>
             <Attribute id="409" value="" name="ident"/>
             <Attribute id="410" value="44100" name="sampleRate"/>
             <Attribute id="411" value="16" name="bitDepth"/>
             <Attribute id="412" value="1" name="gain"/>
             <Attribute id="413" value="0" name="mixToMono"/>
            </Attributes>
            <MetaData>
             <entry key="WinSubProjectDisplayName" val=""/>
            </MetaData>
           </AMFile>
           <AMFile id="414" start="11669" duration="163" scalar="1/1" mediaStart="20280/1" mediaDuration="163/1" trackNumber="2" src="4" channelNumber="0,1" >
            <Parameters>
             <InterpolatingParam id="415" interp="linr"  time="0/1" value="1" leadInLength="0/1"  name="volume"/>
             <Parameter id="416"  name="captions"/>
            </Parameters>
            <Attributes>
             <Attribute id="417" value="" name="ident"/>
             <Attribute id="418" value="44100" name="sampleRate"/>
             <Attribute id="419" value="16" name="bitDepth"/>
             <Attribute id="420" value="1" name="gain"/>
             <Attribute id="421" value="0" name="mixToMono"/>
            </Attributes>
            <MetaData>
             <entry key="WinSubProjectDisplayName" val=""/>
            </MetaData>
           </AMFile>
           <AMFile id="422" start="11832" duration="272" scalar="1/1" mediaStart="22491/1" mediaDuration="272/1" trackNumber="2" src="4" channelNumber="0,1" >
            <Parameters>
             <InterpolatingParam id="423" interp="linr"  time="0/1" value="1" leadInLength="0/1"  name="volume"/>
             <Parameter id="424"  name="captions"/>
            </Parameters>
            <Attributes>
             <Attribute id="425" value="" name="ident"/>
             <Attribute id="426" value="44100" name="sampleRate"/>
             <Attribute id="427" value="16" name="bitDepth"/>
             <Attribute id="428" value="1" name="gain"/>
             <Attribute id="429" value="0" name="mixToMono"/>
            </Attributes>
            <MetaData>
             <entry key="WinSubProjectDisplayName" val=""/>
            </MetaData>
           </AMFile>
           <AMFile id="430" start="12104" duration="372" scalar="1/1" mediaStart="22972/1" mediaDuration="372/1" trackNumber="2" src="4" channelNumber="0,1" >
            <Parameters>
             <InterpolatingParam id="431" interp="linr"  time="0/1" value="1" leadInLength="0/1"  name="volume"/>
             <Parameter id="432"  name="captions"/>
            </Parameters>
            <Attributes>
             <Attribute id="433" value="" name="ident"/>
             <Attribute id="434" value="44100" name="sampleRate"/>
             <Attribute id="435" value="16" name="bitDepth"/>
             <Attribute id="436" value="1" name="gain"/>
             <Attribute id="437" value="0" name="mixToMono"/>
            </Attributes>
            <MetaData>
             <entry key="WinSubProjectDisplayName" val=""/>
            </MetaData>
           </AMFile>
           <AMFile id="438" start="12476" duration="288" scalar="1/1" mediaStart="31660/1" mediaDuration="288/1" trackNumber="2" src="4" channelNumber="0,1" >
            <Parameters>
             <InterpolatingParam id="439" interp="linr"  time="0/1" value="1" leadInLength="0/1"  name="volume"/>
             <Parameter id="440"  name="captions"/>
            </Parameters>
            <Attributes>
             <Attribute id="441" value="" name="ident"/>
             <Attribute id="442" value="44100" name="sampleRate"/>
             <Attribute id="443" value="16" name="bitDepth"/>
             <Attribute id="444" value="1" name="gain"/>
             <Attribute id="445" value="0" name="mixToMono"/>
            </Attributes>
            <MetaData>
             <entry key="WinSubProjectDisplayName" val=""/>
            </MetaData>
           </AMFile>
           <AMFile id="446" start="12764" duration="1377" scalar="1/1" mediaStart="32326/1" mediaDuration="1377/1" trackNumber="2" src="4" channelNumber="0,1" >
            <Parameters>
             <InterpolatingParam id="447" interp="linr"  time="0/1" value="1" leadInLength="0/1"  name="volume"/>
             <Parameter id="448"  name="captions"/>
            </Parameters>
            <Attributes>
             <Attribute id="449" value="" name="ident"/>
             <Attribute id="450" value="44100" name="sampleRate"/>
             <Attribute id="451" value="16" name="bitDepth"/>
             <Attribute id="452" value="1" name="gain"/>
             <Attribute id="453" value="0" name="mixToMono"/>
            </Attributes>
            <MetaData>
             <entry key="WinSubProjectDisplayName" val=""/>
            </MetaData>
           </AMFile>
           <AMFile id="454" start="14141" duration="63" scalar="1/1" mediaStart="33796/1" mediaDuration="63/1" trackNumber="2" src="4" channelNumber="0,1" >
            <Parameters>
             <InterpolatingParam id="455" interp="linr"  time="0/1" value="1" leadInLength="0/1"  name="volume"/>
             <Parameter id="456"  name="captions"/>
            </Parameters>
            <Attributes>
             <Attribute id="457" value="" name="ident"/>
             <Attribute id="458" value="44100" name="sampleRate"/>
             <Attribute id="459" value="16" name="bitDepth"/>
             <Attribute id="460" value="1" name="gain"/>
             <Attribute id="461" value="0" name="mixToMono"/>
            </Attributes>
            <MetaData>
             <entry key="WinSubProjectDisplayName" val=""/>
            </MetaData>
           </AMFile>
           <AMFile id="462" start="14204" duration="68" scalar="1/1" mediaStart="33894/1" mediaDuration="68/1" trackNumber="2" src="4" channelNumber="0,1" >
            <Parameters>
             <InterpolatingParam id="463" interp="linr"  time="0/1" value="1" leadInLength="0/1"  name="volume"/>
             <Parameter id="464"  name="captions"/>
            </Parameters>
            <Attributes>
             <Attribute id="465" value="" name="ident"/>
             <Attribute id="466" value="44100" name="sampleRate"/>
             <Attribute id="467" value="16" name="bitDepth"/>
             <Attribute id="468" value="1" name="gain"/>
             <Attribute id="469" value="0" name="mixToMono"/>
            </Attributes>
            <MetaData>
             <entry key="WinSubProjectDisplayName" val=""/>
            </MetaData>
           </AMFile>
           <AMFile id="470" start="14272" duration="26" scalar="1/1" mediaStart="33995/1" mediaDuration="26/1" trackNumber="2" src="4" channelNumber="0,1" >
            <Parameters>
             <InterpolatingParam id="471" interp="linr"  time="0/1" value="1" leadInLength="0/1"  name="volume"/>
             <Parameter id="472"  name="captions"/>
            </Parameters>
            <Attributes>
             <Attribute id="473" value="" name="ident"/>
             <Attribute id="474" value="44100" name="sampleRate"/>
             <Attribute id="475" value="16" name="bitDepth"/>
             <Attribute id="476" value="1" name="gain"/>
             <Attribute id="477" value="0" name="mixToMono"/>
            </Attributes>
            <MetaData>
             <entry key="WinSubProjectDisplayName" val=""/>
            </MetaData>
           </AMFile>
           <AMFile id="478" start="14298" duration="26" scalar="1/1" mediaStart="34048/1" mediaDuration="26/1" trackNumber="2" src="4" channelNumber="0,1" >
            <Parameters>
             <InterpolatingParam id="479" interp="linr"  time="0/1" value="1" leadInLength="0/1"  name="volume"/>
             <Parameter id="480"  name="captions"/>
            </Parameters>
            <Attributes>
             <Attribute id="481" value="" name="ident"/>
             <Attribute id="482" value="44100" name="sampleRate"/>
             <Attribute id="483" value="16" name="bitDepth"/>
             <Attribute id="484" value="1" name="gain"/>
             <Attribute id="485" value="0" name="mixToMono"/>
            </Attributes>
            <MetaData>
             <entry key="WinSubProjectDisplayName" val=""/>
            </MetaData>
           </AMFile>
           <AMFile id="486" start="14324" duration="87" scalar="1/1" mediaStart="34091/1" mediaDuration="87/1" trackNumber="2" src="4" channelNumber="0,1" >
            <Parameters>
             <InterpolatingParam id="487" interp="linr"  time="0/1" value="1" leadInLength="0/1"  name="volume"/>
             <Parameter id="488"  name="captions"/>
            </Parameters>
            <Attributes>
             <Attribute id="489" value="" name="ident"/>
             <Attribute id="490" value="44100" name="sampleRate"/>
             <Attribute id="491" value="16" name="bitDepth"/>
             <Attribute id="492" value="1" name="gain"/>
             <Attribute id="493" value="0" name="mixToMono"/>
            </Attributes>
            <MetaData>
             <entry key="WinSubProjectDisplayName" val=""/>
            </MetaData>
           </AMFile>
           <AMFile id="494" start="14411" duration="58" scalar="1/1" mediaStart="34192/1" mediaDuration="58/1" trackNumber="2" src="4" channelNumber="0,1" >
            <Parameters>
             <InterpolatingParam id="495" interp="linr"  time="0/1" value="1" leadInLength="0/1"  name="volume"/>
             <Parameter id="496"  name="captions"/>
            </Parameters>
            <Attributes>
             <Attribute id="497" value="" name="ident"/>
             <Attribute id="498" value="44100" name="sampleRate"/>
             <Attribute id="499" value="16" name="bitDepth"/>
             <Attribute id="500" value="1" name="gain"/>
             <Attribute id="501" value="0" name="mixToMono"/>
            </Attributes>
            <MetaData>
             <entry key="WinSubProjectDisplayName" val=""/>
            </MetaData>
           </AMFile>
           <AMFile id="502" start="14469" duration="22" scalar="1/1" mediaStart="34282/1" mediaDuration="22/1" trackNumber="2" src="4" channelNumber="0,1" >
            <Parameters>
             <InterpolatingParam id="503" interp="linr"  time="0/1" value="1" leadInLength="0/1"  name="volume"/>
             <Parameter id="504"  name="captions"/>
            </Parameters>
            <Attributes>
             <Attribute id="505" value="" name="ident"/>
             <Attribute id="506" value="44100" name="sampleRate"/>
             <Attribute id="507" value="16" name="bitDepth"/>
             <Attribute id="508" value="1" name="gain"/>
             <Attribute id="509" value="0" name="mixToMono"/>
            </Attributes>
            <MetaData>
             <entry key="WinSubProjectDisplayName" val=""/>
            </MetaData>
           </AMFile>
           <AMFile id="510" start="14491" duration="20" scalar="1/1" mediaStart="34339/1" mediaDuration="20/1" trackNumber="2" src="4" channelNumber="0,1" >
            <Parameters>
             <InterpolatingParam id="511" interp="linr"  time="0/1" value="1" leadInLength="0/1"  name="volume"/>
             <Parameter id="512"  name="captions"/>
            </Parameters>
            <Attributes>
             <Attribute id="513" value="" name="ident"/>
             <Attribute id="514" value="44100" name="sampleRate"/>
             <Attribute id="515" value="16" name="bitDepth"/>
             <Attribute id="516" value="1" name="gain"/>
             <Attribute id="517" value="0" name="mixToMono"/>
            </Attributes>
            <MetaData>
             <entry key="WinSubProjectDisplayName" val=""/>
            </MetaData>
           </AMFile>
           <AMFile id="518" start="14511" duration="30" scalar="1/1" mediaStart="34464/1" mediaDuration="30/1" trackNumber="2" src="4" channelNumber="0,1" >
            <Parameters>
             <InterpolatingParam id="519" interp="linr"  time="0/1" value="1" leadInLength="0/1"  name="volume"/>
             <Parameter id="520"  name="captions"/>
            </Parameters>
            <Attributes>
             <Attribute id="521" value="" name="ident"/>
             <Attribute id="522" value="44100" name="sampleRate"/>
             <Attribute id="523" value="16" name="bitDepth"/>
             <Attribute id="524" value="1" name="gain"/>
             <Attribute id="525" value="0" name="mixToMono"/>
            </Attributes>
            <MetaData>
             <entry key="WinSubProjectDisplayName" val=""/>
            </MetaData>
           </AMFile>
           <AMFile id="526" start="14541" duration="99" scalar="1/1" mediaStart="34610/1" mediaDuration="99/1" trackNumber="2" src="4" channelNumber="0,1" >
            <Parameters>
             <InterpolatingParam id="527" interp="linr"  time="0/1" value="1" leadInLength="0/1"  name="volume"/>
             <Parameter id="528"  name="captions"/>
            </Parameters>
            <Attributes>
             <Attribute id="529" value="" name="ident"/>
             <Attribute id="530" value="44100" name="sampleRate"/>
             <Attribute id="531" value="16" name="bitDepth"/>
             <Attribute id="532" value="1" name="gain"/>
             <Attribute id="533" value="0" name="mixToMono"/>
            </Attributes>
            <MetaData>
             <entry key="WinSubProjectDisplayName" val=""/>
            </MetaData>
           </AMFile>
           <AMFile id="534" start="14640" duration="29" scalar="1/1" mediaStart="34722/1" mediaDuration="29/1" trackNumber="2" src="4" channelNumber="0,1" >
            <Parameters>
             <InterpolatingParam id="535" interp="linr"  time="0/1" value="1" leadInLength="0/1"  name="volume"/>
             <Parameter id="536"  name="captions"/>
            </Parameters>
            <Attributes>
             <Attribute id="537" value="" name="ident"/>
             <Attribute id="538" value="44100" name="sampleRate"/>
             <Attribute id="539" value="16" name="bitDepth"/>
             <Attribute id="540" value="1" name="gain"/>
             <Attribute id="541" value="0" name="mixToMono"/>
            </Attributes>
            <MetaData>
             <entry key="WinSubProjectDisplayName" val=""/>
            </MetaData>
           </AMFile>
           <AMFile id="542" start="14669" duration="473" scalar="1/1" mediaStart="34868/1" mediaDuration="473/1" trackNumber="2" src="4" channelNumber="0,1" >
            <Parameters>
             <InterpolatingParam id="543" interp="linr"  time="0/1" value="1" leadInLength="0/1"  name="volume"/>
             <Parameter id="544"  name="captions"/>
            </Parameters>
            <Attributes>
             <Attribute id="545" value="" name="ident"/>
             <Attribute id="546" value="44100" name="sampleRate"/>
             <Attribute id="547" value="16" name="bitDepth"/>
             <Attribute id="548" value="1" name="gain"/>
             <Attribute id="549" value="0" name="mixToMono"/>
            </Attributes>
            <MetaData>
             <entry key="WinSubProjectDisplayName" val=""/>
            </MetaData>
           </AMFile>
          </Medias>
         </GenericTrack>
        </StitchedMedia>
       </Medias>
      </GenericTrack>
      <GenericTrack id="550"  >
       <Attributes>
        <Attribute id="551" value="" name="ident"/>
        <Attribute id="552" value="0" name="audioMuted"/>
        <Attribute id="553" value="0" name="videoHidden"/>
       </Attributes>
       <MetaData>
        <entry key="IsLocked" val="False"/>
        <entry key="WinTrackHeight" val="62"/>
       </MetaData>
       <Medias>
        <StitchedMedia id="554" start="0" duration="14657" scalar="1/1" mediaStart="82/1" mediaDuration="14657/1" minMediaStart="0/1" >
         <Transformer>
          <VectorParam id="555"  name="translation">
           <InterpolatingParam id="556" interp="linr"  time="-9999999/1" value="0" leadInLength="0/1"  />
           <InterpolatingParam id="557" interp="linr"  time="-9999999/1" value="9.0949470177292824e-013" leadInLength="0/1"  />
           <InterpolatingParam id="558" interp="linr"  time="-9999999/1" value="0" leadInLength="0/1"  />
          </VectorParam>
          <VectorParam id="559"  name="rotation">
           <InterpolatingParam id="560" interp="linr"  time="-9999999/1" value="0" leadInLength="0/1"  />
           <InterpolatingParam id="561" interp="linr"  time="-9999999/1" value="0" leadInLength="0/1"  />
           <InterpolatingParam id="562" interp="linr"  time="-9999999/1" value="0" leadInLength="0/1"  />
          </VectorParam>
          <VectorParam id="563"  name="shear">
           <InterpolatingParam id="564" interp="linr"  time="-9999999/1" value="0" leadInLength="0/1"  />
           <InterpolatingParam id="565" interp="linr"  time="-9999999/1" value="0" leadInLength="0/1"  />
           <InterpolatingParam id="566" interp="linr"  time="-9999999/1" value="0" leadInLength="0/1"  />
          </VectorParam>
          <VectorParam id="567"  name="scale">
           <InterpolatingParam id="568" interp="linr"  time="-9999999/1" value="1" leadInLength="0/1"  />
           <InterpolatingParam id="569" interp="linr"  time="-9999999/1" value="1" leadInLength="0/1"  />
           <InterpolatingParam id="570" interp="linr"  time="-9999999/1" value="1" leadInLength="0/1"  />
          </VectorParam>
          <VectorParam id="571"  name="anchor">
           <InterpolatingParam id="572" interp="linr"  time="0/1" value="0" leadInLength="0/1"  />
           <InterpolatingParam id="573" interp="linr"  time="0/1" value="0" leadInLength="0/1"  />
           <InterpolatingParam id="574" interp="linr"  time="0/1" value="0" leadInLength="0/1"  />
          </VectorParam>
         </Transformer>
         <Parameters>
          <VectorParam id="575"  name="sourceCrop">
           <InterpolatingParam id="576" interp="linr"  time="0/1" value="0" leadInLength="0/1"  />
           <InterpolatingParam id="577" interp="linr"  time="0/1" value="0" leadInLength="0/1"  />
           <InterpolatingParam id="578" interp="linr"  time="0/1" value="0" leadInLength="0/1"  />
           <InterpolatingParam id="579" interp="linr"  time="0/1" value="0" leadInLength="0/1"  />
          </VectorParam>
          <VectorParam id="580"  name="geometryCrop">
           <InterpolatingParam id="581" interp="linr"  time="-9999999/1" value="0" leadInLength="0/1"  />
           <InterpolatingParam id="582" interp="linr"  time="-9999999/1" value="0" leadInLength="0/1"  />
           <InterpolatingParam id="583" interp="linr"  time="-9999999/1" value="0" leadInLength="0/1"  />
           <InterpolatingParam id="584" interp="linr"  time="-9999999/1" value="0" leadInLength="0/1"  />
          </VectorParam>
          <InterpolatingParam id="585" interp="linr"  time="-9999999/1" value="1" leadInLength="0/1"  name="opacity"/>
          <InterpolatingParam id="586" interp="linr"  time="0/1" value="1" leadInLength="0/1"  name="cursorOpacity"/>
          <InterpolatingParam id="587" interp="linr"  time="0/1" value="1" leadInLength="0/1"  name="cursorScale"/>
          <InterpolatingParam id="588" interp="linr"  name="volume">
           <Keyframes>
           <Keyframe id="589"  time="0/1" value="1" leadInLength="0/1"  />
           <Keyframe id="590"  time="9421/1" value="1" leadInLength="0/1"  />
           <Keyframe id="591"  time="9422/1" value="0" leadInLength="0/1"  />
           <Keyframe id="592"  time="9439/1" value="0" leadInLength="0/1"  />
           <Keyframe id="593"  time="9440/1" value="1" leadInLength="0/1"  />
           </Keyframes>
          </InterpolatingParam>
          <Parameter id="594"  name="captions"/>
         </Parameters>
         <Effects>
          <GenericEffect id="595" name = "CursorBaseEffectName" >
           <Parameters>
           <InterpolatingParam id="596" interp="linr"  time="-9999999/1" value="1" leadInLength="0/1"   name="cursorSize"/>
           <InterpolatingParam id="597" interp="linr"  time="-9999999/1" value="0" leadInLength="0/1"   name="highlightBlurRadius"/>
           <InterpolatingParam id="598" interp="linr"  time="-9999999/1" value="0" leadInLength="0/1"   name="highlightColorBlue"/>
           <InterpolatingParam id="599" interp="linr"  time="-9999999/1" value="255" leadInLength="0/1"   name="highlightColorGreen"/>
           <InterpolatingParam id="600" interp="linr"  time="-9999999/1" value="255" leadInLength="0/1"   name="highlightColorRed"/>
           <InterpolatingParam id="601" interp="linr"  time="-9999999/1" value="5" leadInLength="0/1"   name="highlightFeatherSize"/>
           <InterpolatingParam id="602" interp="linr"  time="-9999999/1" value="2" leadInLength="0/1"   name="highlightMagnification"/>
           <InterpolatingParam id="603" interp="linr"  time="-9999999/1" value="1" leadInLength="0/1"   name="highlightOpacity"/>
           <InterpolatingParam id="604" interp="linr"  time="-9999999/1" value="45" leadInLength="0/1"   name="highlightSize"/>
           <Parameter id="605"   name="highlightType">
            <Keyframes>
            <Keyframe id="606"  time="-9999999/1" value="0" leadInLength="0/1"  />
            </Keyframes>
           </Parameter>
           <InterpolatingParam id="607" interp="linr"  time="-9999999/1" value="0" leadInLength="0/1"   name="leftClickColorBlue"/>
           <InterpolatingParam id="608" interp="linr"  time="-9999999/1" value="0" leadInLength="0/1"   name="leftClickColorGreen"/>
           <InterpolatingParam id="609" interp="linr"  time="-9999999/1" value="255" leadInLength="0/1"   name="leftClickColorRed"/>
           <InterpolatingParam id="610" interp="linr"  time="-9999999/1" value="0.80000000000000004" leadInLength="0/1"   name="leftClickDuration"/>
           <InterpolatingParam id="611" interp="linr"  time="-9999999/1" value="20" leadInLength="0/1"   name="leftClickSize"/>
           <Parameter id="612"   name="leftClickSoundFilename">
            <Keyframes>
            <Keyframe id="613"  time="-9999999/1" value="" leadInLength="0/1"  />
            </Keyframes>
           </Parameter>
           <InterpolatingParam id="614" interp="linr"  time="-9999999/1" value="1" leadInLength="0/1"   name="leftClickSoundVolume"/>
           <Parameter id="615"   name="leftClickType">
            <Keyframes>
            <Keyframe id="616"  time="-9999999/1" value="0" leadInLength="0/1"  />
            </Keyframes>
           </Parameter>
           <InterpolatingParam id="617" interp="linr"  time="-9999999/1" value="1" leadInLength="0/1"   name="opacity"/>
           <InterpolatingParam id="618" interp="linr"  time="-9999999/1" value="255" leadInLength="0/1"   name="rightClickColorBlue"/>
           <InterpolatingParam id="619" interp="linr"  time="-9999999/1" value="0" leadInLength="0/1"   name="rightClickColorGreen"/>
           <InterpolatingParam id="620" interp="linr"  time="-9999999/1" value="0" leadInLength="0/1"   name="rightClickColorRed"/>
           <InterpolatingParam id="621" interp="linr"  time="-9999999/1" value="0.80000000000000004" leadInLength="0/1"   name="rightClickDuration"/>
           <InterpolatingParam id="622" interp="linr"  time="-9999999/1" value="20" leadInLength="0/1"   name="rightClickSize"/>
           <Parameter id="623"   name="rightClickSoundFilename">
            <Keyframes>
            <Keyframe id="624"  time="-9999999/1" value="" leadInLength="0/1"  />
            </Keyframes>
           </Parameter>
           <InterpolatingParam id="625" interp="linr"  time="-9999999/1" value="1" leadInLength="0/1"   name="rightClickSoundVolume"/>
           <Parameter id="626"   name="rightClickType">
            <Keyframes>
            <Keyframe id="627"  time="-9999999/1" value="0" leadInLength="0/1"  />
            </Keyframes>
           </Parameter>
           </Parameters>
           <MetaData>
            <entry key="effectIndex" val="0"/>
           </MetaData>
          </GenericEffect>
         </Effects>
         <Attributes>
          <Attribute id="628" value="" name="ident"/>
          <Attribute id="629" value="0" name="mixToMono"/>
         </Attributes>
         <MetaData>
          <entry key="AutoAppliedSmartFocus" val="False"/>
          <entry key="WinSubProjectDisplayName" val=""/>
         </MetaData>
         <ExtraData>
          <Entry key="ZoomPanBin">
           <ZoomPanBin id="630"  >
            <ZoomPanKeyframes>
             <ZoomPanKeyframe id="631" timeRangeEnd="-9999999/1" timeRangeDuration="0/1" interpolaterName=""  />
            </ZoomPanKeyframes>
           </ZoomPanBin>
          </Entry>
          <Entry key="CursorEffectBin">
           <CursorEffectBin id="632"  >
            <CursorEffectKeyframes>
             <CursorEffectKeyframe id="633" timeRangeEnd="-9999999/1" timeRangeDuration="0/1" interpolaterName=""  />
            </CursorEffectKeyframes>
           </CursorEffectBin>
          </Entry>
         </ExtraData>
         <GenericTrack id="634"  >
          <Attributes>
           <Attribute id="635" value="" name="ident"/>
           <Attribute id="636" value="0" name="audioMuted"/>
           <Attribute id="637" value="0" name="videoHidden"/>
          </Attributes>
          <MetaData>
           <entry key="IsLocked" val="False"/>
           <entry key="WinTrackHeight" val="0"/>
          </MetaData>
          <Medias>
           <UnifiedMedia id="638"  >
            <AMFile id="639" start="0" duration="408" scalar="1/1" mediaStart="0/1" mediaDuration="408/1" trackNumber="1" src="4" channelNumber="0,1" >
             <Parameters>
              <InterpolatingParam id="640" interp="linr"  time="0/1" value="1" leadInLength="0/1"  name="volume"/>
              <Parameter id="641"  name="captions"/>
             </Parameters>
             <Attributes>
              <Attribute id="642" value="" name="ident"/>
              <Attribute id="643" value="44100" name="sampleRate"/>
              <Attribute id="644" value="16" name="bitDepth"/>
              <Attribute id="645" value="1" name="gain"/>
              <Attribute id="646" value="0" name="mixToMono"/>
             </Attributes>
            </AMFile>
            <ScreenVMFile id="647" start="0" duration="408" scalar="1/1" mediaStart="0/1" mediaDuration="408/1" trackNumber="0" src="4" >
             <Transformer>
              <VectorParam id="648"  name="translation">
               <InterpolatingParam id="649" interp="linr"  time="-9999999/1" value="0" leadInLength="0/1"  />
               <InterpolatingParam id="650" interp="linr"  time="-9999999/1" value="0" leadInLength="0/1"  />
               <InterpolatingParam id="651" interp="linr"  time="-9999999/1" value="0" leadInLength="0/1"  />
              </VectorParam>
              <VectorParam id="652"  name="rotation">
               <InterpolatingParam id="653" interp="linr"  time="-9999999/1" value="0" leadInLength="0/1"  />
               <InterpolatingParam id="654" interp="linr"  time="-9999999/1" value="0" leadInLength="0/1"  />
               <InterpolatingParam id="655" interp="linr"  time="-9999999/1" value="0" leadInLength="0/1"  />
              </VectorParam>
              <VectorParam id="656"  name="shear">
               <InterpolatingParam id="657" interp="linr"  time="-9999999/1" value="0" leadInLength="0/1"  />
               <InterpolatingParam id="658" interp="linr"  time="-9999999/1" value="0" leadInLength="0/1"  />
               <InterpolatingParam id="659" interp="linr"  time="-9999999/1" value="0" leadInLength="0/1"  />
              </VectorParam>
              <VectorParam id="660"  name="scale">
               <InterpolatingParam id="661" interp="linr"  time="-9999999/1" value="1" leadInLength="0/1"  />
               <InterpolatingParam id="662" interp="linr"  time="-9999999/1" value="1" leadInLength="0/1"  />
               <InterpolatingParam id="663" interp="linr"  time="-9999999/1" value="1" leadInLength="0/1"  />
              </VectorParam>
              <VectorParam id="664"  name="anchor">
               <InterpolatingParam id="665" interp="linr"  time="0/1" value="0" leadInLength="0/1"  />
               <InterpolatingParam id="666" interp="linr"  time="0/1" value="0" leadInLength="0/1"  />
               <InterpolatingParam id="667" interp="linr"  time="0/1" value="0" leadInLength="0/1"  />
              </VectorParam>
             </Transformer>
             <Parameters>
              <VectorParam id="668"  name="sourceCrop">
               <InterpolatingParam id="669" interp="linr"  time="0/1" value="0" leadInLength="0/1"  />
               <InterpolatingParam id="670" interp="linr"  time="0/1" value="0" leadInLength="0/1"  />
               <InterpolatingParam id="671" interp="linr"  time="0/1" value="0" leadInLength="0/1"  />
               <InterpolatingParam id="672" interp="linr"  time="0/1" value="0" leadInLength="0/1"  />
              </VectorParam>
              <VectorParam id="673"  name="geometryCrop">
               <InterpolatingParam id="674" interp="linr"  time="-9999999/1" value="0" leadInLength="0/1"  />
               <InterpolatingParam id="675" interp="linr"  time="-9999999/1" value="0" leadInLength="0/1"  />
               <InterpolatingParam id="676" interp="linr"  time="-9999999/1" value="0" leadInLength="0/1"  />
               <InterpolatingParam id="677" interp="linr"  time="-9999999/1" value="0" leadInLength="0/1"  />
              </VectorParam>
              <InterpolatingParam id="678" interp="linr"  time="-9999999/1" value="1" leadInLength="0/1"  name="opacity"/>
              <InterpolatingParam id="679" interp="linr"  time="0/1" value="0" leadInLength="0/1"  name="cursorOpacity"/>
              <InterpolatingParam id="680" interp="linr"  time="0/1" value="0" leadInLength="0/1"  name="cursorScale"/>
             </Parameters>
             <Attributes>
              <Attribute id="681" value="" name="ident"/>
             </Attributes>
             <ExtraData>
              <Entry key="ZoomPanBin">
               <ZoomPanBin id="682"  >
                <ZoomPanKeyframes>
                 <ZoomPanKeyframe id="683" timeRangeEnd="-9999999/1" timeRangeDuration="0/1" interpolaterName=""  />
                </ZoomPanKeyframes>
               </ZoomPanBin>
              </Entry>
              <Entry key="CursorEffectBin">
               <CursorEffectBin id="684"  >
                <CursorEffectKeyframes>
                </CursorEffectKeyframes>
               </CursorEffectBin>
              </Entry>
             </ExtraData>
            </ScreenVMFile>
            <MetaData>
             <entry key="AutoAppliedSmartFocus" val="False"/>
             <entry key="WinSubProjectDisplayName" val=""/>
            </MetaData>
           </UnifiedMedia>
           <UnifiedMedia id="685"  >
            <AMFile id="686" start="408" duration="1023" scalar="1/1" mediaStart="420/1" mediaDuration="1023/1" trackNumber="1" src="4" channelNumber="0,1" >
             <Parameters>
              <InterpolatingParam id="687" interp="linr"  time="0/1" value="1" leadInLength="0/1"  name="volume"/>
              <Parameter id="688"  name="captions"/>
             </Parameters>
             <Attributes>
              <Attribute id="689" value="" name="ident"/>
              <Attribute id="690" value="44100" name="sampleRate"/>
              <Attribute id="691" value="16" name="bitDepth"/>
              <Attribute id="692" value="1" name="gain"/>
              <Attribute id="693" value="0" name="mixToMono"/>
             </Attributes>
            </AMFile>
            <ScreenVMFile id="694" start="408" duration="1023" scalar="1/1" mediaStart="420/1" mediaDuration="1023/1" trackNumber="0" src="4" >
             <Transformer>
              <VectorParam id="695"  name="translation">
               <InterpolatingParam id="696" interp="linr"  time="-9999999/1" value="0" leadInLength="0/1"  />
               <InterpolatingParam id="697" interp="linr"  time="-9999999/1" value="0" leadInLength="0/1"  />
               <InterpolatingParam id="698" interp="linr"  time="-9999999/1" value="0" leadInLength="0/1"  />
              </VectorParam>
              <VectorParam id="699"  name="rotation">
               <InterpolatingParam id="700" interp="linr"  time="-9999999/1" value="0" leadInLength="0/1"  />
               <InterpolatingParam id="701" interp="linr"  time="-9999999/1" value="0" leadInLength="0/1"  />
               <InterpolatingParam id="702" interp="linr"  time="-9999999/1" value="0" leadInLength="0/1"  />
              </VectorParam>
              <VectorParam id="703"  name="shear">
               <InterpolatingParam id="704" interp="linr"  time="-9999999/1" value="0" leadInLength="0/1"  />
               <InterpolatingParam id="705" interp="linr"  time="-9999999/1" value="0" leadInLength="0/1"  />
               <InterpolatingParam id="706" interp="linr"  time="-9999999/1" value="0" leadInLength="0/1"  />
              </VectorParam>
              <VectorParam id="707"  name="scale">
               <InterpolatingParam id="708" interp="linr"  time="-9999999/1" value="1" leadInLength="0/1"  />
               <InterpolatingParam id="709" interp="linr"  time="-9999999/1" value="1" leadInLength="0/1"  />
               <InterpolatingParam id="710" interp="linr"  time="-9999999/1" value="1" leadInLength="0/1"  />
              </VectorParam>
              <VectorParam id="711"  name="anchor">
               <InterpolatingParam id="712" interp="linr"  time="0/1" value="0" leadInLength="0/1"  />
               <InterpolatingParam id="713" interp="linr"  time="0/1" value="0" leadInLength="0/1"  />
               <InterpolatingParam id="714" interp="linr"  time="0/1" value="0" leadInLength="0/1"  />
              </VectorParam>
             </Transformer>
             <Parameters>
              <VectorParam id="715"  name="sourceCrop">
               <InterpolatingParam id="716" interp="linr"  time="0/1" value="0" leadInLength="0/1"  />
               <InterpolatingParam id="717" interp="linr"  time="0/1" value="0" leadInLength="0/1"  />
               <InterpolatingParam id="718" interp="linr"  time="0/1" value="0" leadInLength="0/1"  />
               <InterpolatingParam id="719" interp="linr"  time="0/1" value="0" leadInLength="0/1"  />
              </VectorParam>
              <VectorParam id="720"  name="geometryCrop">
               <InterpolatingParam id="721" interp="linr"  time="-9999999/1" value="0" leadInLength="0/1"  />
               <InterpolatingParam id="722" interp="linr"  time="-9999999/1" value="0" leadInLength="0/1"  />
               <InterpolatingParam id="723" interp="linr"  time="-9999999/1" value="0" leadInLength="0/1"  />
               <InterpolatingParam id="724" interp="linr"  time="-9999999/1" value="0" leadInLength="0/1"  />
              </VectorParam>
              <InterpolatingParam id="725" interp="linr"  time="-9999999/1" value="1" leadInLength="0/1"  name="opacity"/>
              <InterpolatingParam id="726" interp="linr"  time="0/1" value="0" leadInLength="0/1"  name="cursorOpacity"/>
              <InterpolatingParam id="727" interp="linr"  time="0/1" value="0" leadInLength="0/1"  name="cursorScale"/>
             </Parameters>
             <Attributes>
              <Attribute id="728" value="" name="ident"/>
             </Attributes>
             <ExtraData>
              <Entry key="ZoomPanBin">
               <ZoomPanBin id="729"  >
                <ZoomPanKeyframes>
                 <ZoomPanKeyframe id="730" timeRangeEnd="-9999999/1" timeRangeDuration="0/1" interpolaterName=""  />
                </ZoomPanKeyframes>
               </ZoomPanBin>
              </Entry>
              <Entry key="CursorEffectBin">
               <CursorEffectBin id="731"  >
                <CursorEffectKeyframes>
                </CursorEffectKeyframes>
               </CursorEffectBin>
              </Entry>
             </ExtraData>
            </ScreenVMFile>
            <MetaData>
             <entry key="AutoAppliedSmartFocus" val="False"/>
             <entry key="WinSubProjectDisplayName" val=""/>
            </MetaData>
           </UnifiedMedia>
           <UnifiedMedia id="732"  >
            <AMFile id="733" start="1431" duration="816" scalar="1/1" mediaStart="1511/1" mediaDuration="816/1" trackNumber="1" src="4" channelNumber="0,1" >
             <Parameters>
              <InterpolatingParam id="734" interp="linr"  time="0/1" value="1" leadInLength="0/1"  name="volume"/>
              <Parameter id="735"  name="captions"/>
             </Parameters>
             <Attributes>
              <Attribute id="736" value="" name="ident"/>
              <Attribute id="737" value="44100" name="sampleRate"/>
              <Attribute id="738" value="16" name="bitDepth"/>
              <Attribute id="739" value="1" name="gain"/>
              <Attribute id="740" value="0" name="mixToMono"/>
             </Attributes>
            </AMFile>
            <ScreenVMFile id="741" start="1431" duration="816" scalar="1/1" mediaStart="1511/1" mediaDuration="816/1" trackNumber="0" src="4" >
             <Transformer>
              <VectorParam id="742"  name="translation">
               <InterpolatingParam id="743" interp="linr"  time="-9999999/1" value="0" leadInLength="0/1"  />
               <InterpolatingParam id="744" interp="linr"  time="-9999999/1" value="0" leadInLength="0/1"  />
               <InterpolatingParam id="745" interp="linr"  time="-9999999/1" value="0" leadInLength="0/1"  />
              </VectorParam>
              <VectorParam id="746"  name="rotation">
               <InterpolatingParam id="747" interp="linr"  time="-9999999/1" value="0" leadInLength="0/1"  />
               <InterpolatingParam id="748" interp="linr"  time="-9999999/1" value="0" leadInLength="0/1"  />
               <InterpolatingParam id="749" interp="linr"  time="-9999999/1" value="0" leadInLength="0/1"  />
              </VectorParam>
              <VectorParam id="750"  name="shear">
               <InterpolatingParam id="751" interp="linr"  time="-9999999/1" value="0" leadInLength="0/1"  />
               <InterpolatingParam id="752" interp="linr"  time="-9999999/1" value="0" leadInLength="0/1"  />
               <InterpolatingParam id="753" interp="linr"  time="-9999999/1" value="0" leadInLength="0/1"  />
              </VectorParam>
              <VectorParam id="754"  name="scale">
               <InterpolatingParam id="755" interp="linr"  time="-9999999/1" value="1" leadInLength="0/1"  />
               <InterpolatingParam id="756" interp="linr"  time="-9999999/1" value="1" leadInLength="0/1"  />
               <InterpolatingParam id="757" interp="linr"  time="-9999999/1" value="1" leadInLength="0/1"  />
              </VectorParam>
              <VectorParam id="758"  name="anchor">
               <InterpolatingParam id="759" interp="linr"  time="0/1" value="0" leadInLength="0/1"  />
               <InterpolatingParam id="760" interp="linr"  time="0/1" value="0" leadInLength="0/1"  />
               <InterpolatingParam id="761" interp="linr"  time="0/1" value="0" leadInLength="0/1"  />
              </VectorParam>
             </Transformer>
             <Parameters>
              <VectorParam id="762"  name="sourceCrop">
               <InterpolatingParam id="763" interp="linr"  time="0/1" value="0" leadInLength="0/1"  />
               <InterpolatingParam id="764" interp="linr"  time="0/1" value="0" leadInLength="0/1"  />
               <InterpolatingParam id="765" interp="linr"  time="0/1" value="0" leadInLength="0/1"  />
               <InterpolatingParam id="766" interp="linr"  time="0/1" value="0" leadInLength="0/1"  />
              </VectorParam>
              <VectorParam id="767"  name="geometryCrop">
               <InterpolatingParam id="768" interp="linr"  time="-9999999/1" value="0" leadInLength="0/1"  />
               <InterpolatingParam id="769" interp="linr"  time="-9999999/1" value="0" leadInLength="0/1"  />
               <InterpolatingParam id="770" interp="linr"  time="-9999999/1" value="0" leadInLength="0/1"  />
               <InterpolatingParam id="771" interp="linr"  time="-9999999/1" value="0" leadInLength="0/1"  />
              </VectorParam>
              <InterpolatingParam id="772" interp="linr"  time="-9999999/1" value="1" leadInLength="0/1"  name="opacity"/>
              <InterpolatingParam id="773" interp="linr"  time="0/1" value="0" leadInLength="0/1"  name="cursorOpacity"/>
              <InterpolatingParam id="774" interp="linr"  time="0/1" value="0" leadInLength="0/1"  name="cursorScale"/>
             </Parameters>
             <Attributes>
              <Attribute id="775" value="" name="ident"/>
             </Attributes>
             <ExtraData>
              <Entry key="ZoomPanBin">
               <ZoomPanBin id="776"  >
                <ZoomPanKeyframes>
                 <ZoomPanKeyframe id="777" timeRangeEnd="-9999999/1" timeRangeDuration="0/1" interpolaterName=""  />
                </ZoomPanKeyframes>
               </ZoomPanBin>
              </Entry>
              <Entry key="CursorEffectBin">
               <CursorEffectBin id="778"  >
                <CursorEffectKeyframes>
                </CursorEffectKeyframes>
               </CursorEffectBin>
              </Entry>
             </ExtraData>
            </ScreenVMFile>
            <MetaData>
             <entry key="AutoAppliedSmartFocus" val="False"/>
             <entry key="WinSubProjectDisplayName" val=""/>
            </MetaData>
           </UnifiedMedia>
           <UnifiedMedia id="779"  >
            <AMFile id="780" start="2247" duration="646" scalar="1/1" mediaStart="2566/1" mediaDuration="646/1" trackNumber="1" src="4" channelNumber="0,1" >
             <Parameters>
              <InterpolatingParam id="781" interp="linr"  time="0/1" value="1" leadInLength="0/1"  name="volume"/>
              <Parameter id="782"  name="captions"/>
             </Parameters>
             <Attributes>
              <Attribute id="783" value="" name="ident"/>
              <Attribute id="784" value="44100" name="sampleRate"/>
              <Attribute id="785" value="16" name="bitDepth"/>
              <Attribute id="786" value="1" name="gain"/>
              <Attribute id="787" value="0" name="mixToMono"/>
             </Attributes>
            </AMFile>
            <ScreenVMFile id="788" start="2247" duration="646" scalar="1/1" mediaStart="2566/1" mediaDuration="646/1" trackNumber="0" src="4" >
             <Transformer>
              <VectorParam id="789"  name="translation">
               <InterpolatingParam id="790" interp="linr"  time="-9999999/1" value="0" leadInLength="0/1"  />
               <InterpolatingParam id="791" interp="linr"  time="-9999999/1" value="0" leadInLength="0/1"  />
               <InterpolatingParam id="792" interp="linr"  time="-9999999/1" value="0" leadInLength="0/1"  />
              </VectorParam>
              <VectorParam id="793"  name="rotation">
               <InterpolatingParam id="794" interp="linr"  time="-9999999/1" value="0" leadInLength="0/1"  />
               <InterpolatingParam id="795" interp="linr"  time="-9999999/1" value="0" leadInLength="0/1"  />
               <InterpolatingParam id="796" interp="linr"  time="-9999999/1" value="0" leadInLength="0/1"  />
              </VectorParam>
              <VectorParam id="797"  name="shear">
               <InterpolatingParam id="798" interp="linr"  time="-9999999/1" value="0" leadInLength="0/1"  />
               <InterpolatingParam id="799" interp="linr"  time="-9999999/1" value="0" leadInLength="0/1"  />
               <InterpolatingParam id="800" interp="linr"  time="-9999999/1" value="0" leadInLength="0/1"  />
              </VectorParam>
              <VectorParam id="801"  name="scale">
               <InterpolatingParam id="802" interp="linr"  time="-9999999/1" value="1" leadInLength="0/1"  />
               <InterpolatingParam id="803" interp="linr"  time="-9999999/1" value="1" leadInLength="0/1"  />
               <InterpolatingParam id="804" interp="linr"  time="-9999999/1" value="1" leadInLength="0/1"  />
              </VectorParam>
              <VectorParam id="805"  name="anchor">
               <InterpolatingParam id="806" interp="linr"  time="0/1" value="0" leadInLength="0/1"  />
               <InterpolatingParam id="807" interp="linr"  time="0/1" value="0" leadInLength="0/1"  />
               <InterpolatingParam id="808" interp="linr"  time="0/1" value="0" leadInLength="0/1"  />
              </VectorParam>
             </Transformer>
             <Parameters>
              <VectorParam id="809"  name="sourceCrop">
               <InterpolatingParam id="810" interp="linr"  time="0/1" value="0" leadInLength="0/1"  />
               <InterpolatingParam id="811" interp="linr"  time="0/1" value="0" leadInLength="0/1"  />
               <InterpolatingParam id="812" interp="linr"  time="0/1" value="0" leadInLength="0/1"  />
               <InterpolatingParam id="813" interp="linr"  time="0/1" value="0" leadInLength="0/1"  />
              </VectorParam>
              <VectorParam id="814"  name="geometryCrop">
               <InterpolatingParam id="815" interp="linr"  time="-9999999/1" value="0" leadInLength="0/1"  />
               <InterpolatingParam id="816" interp="linr"  time="-9999999/1" value="0" leadInLength="0/1"  />
               <InterpolatingParam id="817" interp="linr"  time="-9999999/1" value="0" leadInLength="0/1"  />
               <InterpolatingParam id="818" interp="linr"  time="-9999999/1" value="0" leadInLength="0/1"  />
              </VectorParam>
              <InterpolatingParam id="819" interp="linr"  time="-9999999/1" value="1" leadInLength="0/1"  name="opacity"/>
              <InterpolatingParam id="820" interp="linr"  time="0/1" value="0" leadInLength="0/1"  name="cursorOpacity"/>
              <InterpolatingParam id="821" interp="linr"  time="0/1" value="0" leadInLength="0/1"  name="cursorScale"/>
             </Parameters>
             <Attributes>
              <Attribute id="822" value="" name="ident"/>
             </Attributes>
             <ExtraData>
              <Entry key="ZoomPanBin">
               <ZoomPanBin id="823"  >
                <ZoomPanKeyframes>
                 <ZoomPanKeyframe id="824" timeRangeEnd="-9999999/1" timeRangeDuration="0/1" interpolaterName=""  />
                </ZoomPanKeyframes>
               </ZoomPanBin>
              </Entry>
              <Entry key="CursorEffectBin">
               <CursorEffectBin id="825"  >
                <CursorEffectKeyframes>
                </CursorEffectKeyframes>
               </CursorEffectBin>
              </Entry>
             </ExtraData>
            </ScreenVMFile>
            <MetaData>
             <entry key="AutoAppliedSmartFocus" val="False"/>
             <entry key="WinSubProjectDisplayName" val=""/>
            </MetaData>
           </UnifiedMedia>
           <UnifiedMedia id="826"  >
            <AMFile id="827" start="2893" duration="66" scalar="1/1" mediaStart="3434/1" mediaDuration="66/1" trackNumber="1" src="4" channelNumber="0,1" >
             <Parameters>
              <InterpolatingParam id="828" interp="linr"  time="0/1" value="1" leadInLength="0/1"  name="volume"/>
              <Parameter id="829"  name="captions"/>
             </Parameters>
             <Attributes>
              <Attribute id="830" value="" name="ident"/>
              <Attribute id="831" value="44100" name="sampleRate"/>
              <Attribute id="832" value="16" name="bitDepth"/>
              <Attribute id="833" value="1" name="gain"/>
              <Attribute id="834" value="0" name="mixToMono"/>
             </Attributes>
            </AMFile>
            <ScreenVMFile id="835" start="2893" duration="66" scalar="1/1" mediaStart="3434/1" mediaDuration="66/1" trackNumber="0" src="4" >
             <Transformer>
              <VectorParam id="836"  name="translation">
               <InterpolatingParam id="837" interp="linr"  time="-9999999/1" value="0" leadInLength="0/1"  />
               <InterpolatingParam id="838" interp="linr"  time="-9999999/1" value="0" leadInLength="0/1"  />
               <InterpolatingParam id="839" interp="linr"  time="-9999999/1" value="0" leadInLength="0/1"  />
              </VectorParam>
              <VectorParam id="840"  name="rotation">
               <InterpolatingParam id="841" interp="linr"  time="-9999999/1" value="0" leadInLength="0/1"  />
               <InterpolatingParam id="842" interp="linr"  time="-9999999/1" value="0" leadInLength="0/1"  />
               <InterpolatingParam id="843" interp="linr"  time="-9999999/1" value="0" leadInLength="0/1"  />
              </VectorParam>
              <VectorParam id="844"  name="shear">
               <InterpolatingParam id="845" interp="linr"  time="-9999999/1" value="0" leadInLength="0/1"  />
               <InterpolatingParam id="846" interp="linr"  time="-9999999/1" value="0" leadInLength="0/1"  />
               <InterpolatingParam id="847" interp="linr"  time="-9999999/1" value="0" leadInLength="0/1"  />
              </VectorParam>
              <VectorParam id="848"  name="scale">
               <InterpolatingParam id="849" interp="linr"  time="-9999999/1" value="1" leadInLength="0/1"  />
               <InterpolatingParam id="850" interp="linr"  time="-9999999/1" value="1" leadInLength="0/1"  />
               <InterpolatingParam id="851" interp="linr"  time="-9999999/1" value="1" leadInLength="0/1"  />
              </VectorParam>
              <VectorParam id="852"  name="anchor">
               <InterpolatingParam id="853" interp="linr"  time="0/1" value="0" leadInLength="0/1"  />
               <InterpolatingParam id="854" interp="linr"  time="0/1" value="0" leadInLength="0/1"  />
               <InterpolatingParam id="855" interp="linr"  time="0/1" value="0" leadInLength="0/1"  />
              </VectorParam>
             </Transformer>
             <Parameters>
              <VectorParam id="856"  name="sourceCrop">
               <InterpolatingParam id="857" interp="linr"  time="0/1" value="0" leadInLength="0/1"  />
               <InterpolatingParam id="858" interp="linr"  time="0/1" value="0" leadInLength="0/1"  />
               <InterpolatingParam id="859" interp="linr"  time="0/1" value="0" leadInLength="0/1"  />
               <InterpolatingParam id="860" interp="linr"  time="0/1" value="0" leadInLength="0/1"  />
              </VectorParam>
              <VectorParam id="861"  name="geometryCrop">
               <InterpolatingParam id="862" interp="linr"  time="-9999999/1" value="0" leadInLength="0/1"  />
               <InterpolatingParam id="863" interp="linr"  time="-9999999/1" value="0" leadInLength="0/1"  />
               <InterpolatingParam id="864" interp="linr"  time="-9999999/1" value="0" leadInLength="0/1"  />
               <InterpolatingParam id="865" interp="linr"  time="-9999999/1" value="0" leadInLength="0/1"  />
              </VectorParam>
              <InterpolatingParam id="866" interp="linr"  time="-9999999/1" value="1" leadInLength="0/1"  name="opacity"/>
              <InterpolatingParam id="867" interp="linr"  time="0/1" value="0" leadInLength="0/1"  name="cursorOpacity"/>
              <InterpolatingParam id="868" interp="linr"  time="0/1" value="0" leadInLength="0/1"  name="cursorScale"/>
             </Parameters>
             <Attributes>
              <Attribute id="869" value="" name="ident"/>
             </Attributes>
             <ExtraData>
              <Entry key="ZoomPanBin">
               <ZoomPanBin id="870"  >
                <ZoomPanKeyframes>
                 <ZoomPanKeyframe id="871" timeRangeEnd="-9999999/1" timeRangeDuration="0/1" interpolaterName=""  />
                </ZoomPanKeyframes>
               </ZoomPanBin>
              </Entry>
              <Entry key="CursorEffectBin">
               <CursorEffectBin id="872"  >
                <CursorEffectKeyframes>
                </CursorEffectKeyframes>
               </CursorEffectBin>
              </Entry>
             </ExtraData>
            </ScreenVMFile>
            <MetaData>
             <entry key="AutoAppliedSmartFocus" val="False"/>
             <entry key="WinSubProjectDisplayName" val=""/>
            </MetaData>
           </UnifiedMedia>
           <UnifiedMedia id="873"  >
            <AMFile id="874" start="2959" duration="193" scalar="1/1" mediaStart="3538/1" mediaDuration="193/1" trackNumber="1" src="4" channelNumber="0,1" >
             <Parameters>
              <InterpolatingParam id="875" interp="linr"  time="0/1" value="1" leadInLength="0/1"  name="volume"/>
              <Parameter id="876"  name="captions"/>
             </Parameters>
             <Attributes>
              <Attribute id="877" value="" name="ident"/>
              <Attribute id="878" value="44100" name="sampleRate"/>
              <Attribute id="879" value="16" name="bitDepth"/>
              <Attribute id="880" value="1" name="gain"/>
              <Attribute id="881" value="0" name="mixToMono"/>
             </Attributes>
            </AMFile>
            <ScreenVMFile id="882" start="2959" duration="193" scalar="1/1" mediaStart="3538/1" mediaDuration="193/1" trackNumber="0" src="4" >
             <Transformer>
              <VectorParam id="883"  name="translation">
               <InterpolatingParam id="884" interp="linr"  time="-9999999/1" value="0" leadInLength="0/1"  />
               <InterpolatingParam id="885" interp="linr"  time="-9999999/1" value="0" leadInLength="0/1"  />
               <InterpolatingParam id="886" interp="linr"  time="-9999999/1" value="0" leadInLength="0/1"  />
              </VectorParam>
              <VectorParam id="887"  name="rotation">
               <InterpolatingParam id="888" interp="linr"  time="-9999999/1" value="0" leadInLength="0/1"  />
               <InterpolatingParam id="889" interp="linr"  time="-9999999/1" value="0" leadInLength="0/1"  />
               <InterpolatingParam id="890" interp="linr"  time="-9999999/1" value="0" leadInLength="0/1"  />
              </VectorParam>
              <VectorParam id="891"  name="shear">
               <InterpolatingParam id="892" interp="linr"  time="-9999999/1" value="0" leadInLength="0/1"  />
               <InterpolatingParam id="893" interp="linr"  time="-9999999/1" value="0" leadInLength="0/1"  />
               <InterpolatingParam id="894" interp="linr"  time="-9999999/1" value="0" leadInLength="0/1"  />
              </VectorParam>
              <VectorParam id="895"  name="scale">
               <InterpolatingParam id="896" interp="linr"  time="-9999999/1" value="1" leadInLength="0/1"  />
               <InterpolatingParam id="897" interp="linr"  time="-9999999/1" value="1" leadInLength="0/1"  />
               <InterpolatingParam id="898" interp="linr"  time="-9999999/1" value="1" leadInLength="0/1"  />
              </VectorParam>
              <VectorParam id="899"  name="anchor">
               <InterpolatingParam id="900" interp="linr"  time="0/1" value="0" leadInLength="0/1"  />
               <InterpolatingParam id="901" interp="linr"  time="0/1" value="0" leadInLength="0/1"  />
               <InterpolatingParam id="902" interp="linr"  time="0/1" value="0" leadInLength="0/1"  />
              </VectorParam>
             </Transformer>
             <Parameters>
              <VectorParam id="903"  name="sourceCrop">
               <InterpolatingParam id="904" interp="linr"  time="0/1" value="0" leadInLength="0/1"  />
               <InterpolatingParam id="905" interp="linr"  time="0/1" value="0" leadInLength="0/1"  />
               <InterpolatingParam id="906" interp="linr"  time="0/1" value="0" leadInLength="0/1"  />
               <InterpolatingParam id="907" interp="linr"  time="0/1" value="0" leadInLength="0/1"  />
              </VectorParam>
              <VectorParam id="908"  name="geometryCrop">
               <InterpolatingParam id="909" interp="linr"  time="-9999999/1" value="0" leadInLength="0/1"  />
               <InterpolatingParam id="910" interp="linr"  time="-9999999/1" value="0" leadInLength="0/1"  />
               <InterpolatingParam id="911" interp="linr"  time="-9999999/1" value="0" leadInLength="0/1"  />
               <InterpolatingParam id="912" interp="linr"  time="-9999999/1" value="0" leadInLength="0/1"  />
              </VectorParam>
              <InterpolatingParam id="913" interp="linr"  time="-9999999/1" value="1" leadInLength="0/1"  name="opacity"/>
              <InterpolatingParam id="914" interp="linr"  time="0/1" value="0" leadInLength="0/1"  name="cursorOpacity"/>
              <InterpolatingParam id="915" interp="linr"  time="0/1" value="0" leadInLength="0/1"  name="cursorScale"/>
             </Parameters>
             <Attributes>
              <Attribute id="916" value="" name="ident"/>
             </Attributes>
             <ExtraData>
              <Entry key="ZoomPanBin">
               <ZoomPanBin id="917"  >
                <ZoomPanKeyframes>
                 <ZoomPanKeyframe id="918" timeRangeEnd="-9999999/1" timeRangeDuration="0/1" interpolaterName=""  />
                </ZoomPanKeyframes>
               </ZoomPanBin>
              </Entry>
              <Entry key="CursorEffectBin">
               <CursorEffectBin id="919"  >
                <CursorEffectKeyframes>
                </CursorEffectKeyframes>
               </CursorEffectBin>
              </Entry>
             </ExtraData>
            </ScreenVMFile>
            <MetaData>
             <entry key="AutoAppliedSmartFocus" val="False"/>
             <entry key="WinSubProjectDisplayName" val=""/>
            </MetaData>
           </UnifiedMedia>
           <UnifiedMedia id="920"  >
            <AMFile id="921" start="3152" duration="78" scalar="1/1" mediaStart="3833/1" mediaDuration="78/1" trackNumber="1" src="4" channelNumber="0,1" >
             <Parameters>
              <InterpolatingParam id="922" interp="linr"  time="0/1" value="1" leadInLength="0/1"  name="volume"/>
              <Parameter id="923"  name="captions"/>
             </Parameters>
             <Attributes>
              <Attribute id="924" value="" name="ident"/>
              <Attribute id="925" value="44100" name="sampleRate"/>
              <Attribute id="926" value="16" name="bitDepth"/>
              <Attribute id="927" value="1" name="gain"/>
              <Attribute id="928" value="0" name="mixToMono"/>
             </Attributes>
            </AMFile>
            <ScreenVMFile id="929" start="3152" duration="78" scalar="1/1" mediaStart="3833/1" mediaDuration="78/1" trackNumber="0" src="4" >
             <Transformer>
              <VectorParam id="930"  name="translation">
               <InterpolatingParam id="931" interp="linr"  time="-9999999/1" value="0" leadInLength="0/1"  />
               <InterpolatingParam id="932" interp="linr"  time="-9999999/1" value="0" leadInLength="0/1"  />
               <InterpolatingParam id="933" interp="linr"  time="-9999999/1" value="0" leadInLength="0/1"  />
              </VectorParam>
              <VectorParam id="934"  name="rotation">
               <InterpolatingParam id="935" interp="linr"  time="-9999999/1" value="0" leadInLength="0/1"  />
               <InterpolatingParam id="936" interp="linr"  time="-9999999/1" value="0" leadInLength="0/1"  />
               <InterpolatingParam id="937" interp="linr"  time="-9999999/1" value="0" leadInLength="0/1"  />
              </VectorParam>
              <VectorParam id="938"  name="shear">
               <InterpolatingParam id="939" interp="linr"  time="-9999999/1" value="0" leadInLength="0/1"  />
               <InterpolatingParam id="940" interp="linr"  time="-9999999/1" value="0" leadInLength="0/1"  />
               <InterpolatingParam id="941" interp="linr"  time="-9999999/1" value="0" leadInLength="0/1"  />
              </VectorParam>
              <VectorParam id="942"  name="scale">
               <InterpolatingParam id="943" interp="linr"  time="-9999999/1" value="1" leadInLength="0/1"  />
               <InterpolatingParam id="944" interp="linr"  time="-9999999/1" value="1" leadInLength="0/1"  />
               <InterpolatingParam id="945" interp="linr"  time="-9999999/1" value="1" leadInLength="0/1"  />
              </VectorParam>
              <VectorParam id="946"  name="anchor">
               <InterpolatingParam id="947" interp="linr"  time="0/1" value="0" leadInLength="0/1"  />
               <InterpolatingParam id="948" interp="linr"  time="0/1" value="0" leadInLength="0/1"  />
               <InterpolatingParam id="949" interp="linr"  time="0/1" value="0" leadInLength="0/1"  />
              </VectorParam>
             </Transformer>
             <Parameters>
              <VectorParam id="950"  name="sourceCrop">
               <InterpolatingParam id="951" interp="linr"  time="0/1" value="0" leadInLength="0/1"  />
               <InterpolatingParam id="952" interp="linr"  time="0/1" value="0" leadInLength="0/1"  />
               <InterpolatingParam id="953" interp="linr"  time="0/1" value="0" leadInLength="0/1"  />
               <InterpolatingParam id="954" interp="linr"  time="0/1" value="0" leadInLength="0/1"  />
              </VectorParam>
              <VectorParam id="955"  name="geometryCrop">
               <InterpolatingParam id="956" interp="linr"  time="-9999999/1" value="0" leadInLength="0/1"  />
               <InterpolatingParam id="957" interp="linr"  time="-9999999/1" value="0" leadInLength="0/1"  />
               <InterpolatingParam id="958" interp="linr"  time="-9999999/1" value="0" leadInLength="0/1"  />
               <InterpolatingParam id="959" interp="linr"  time="-9999999/1" value="0" leadInLength="0/1"  />
              </VectorParam>
              <InterpolatingParam id="960" interp="linr"  time="-9999999/1" value="1" leadInLength="0/1"  name="opacity"/>
              <InterpolatingParam id="961" interp="linr"  time="0/1" value="0" leadInLength="0/1"  name="cursorOpacity"/>
              <InterpolatingParam id="962" interp="linr"  time="0/1" value="0" leadInLength="0/1"  name="cursorScale"/>
             </Parameters>
             <Attributes>
              <Attribute id="963" value="" name="ident"/>
             </Attributes>
             <ExtraData>
              <Entry key="ZoomPanBin">
               <ZoomPanBin id="964"  >
                <ZoomPanKeyframes>
                 <ZoomPanKeyframe id="965" timeRangeEnd="-9999999/1" timeRangeDuration="0/1" interpolaterName=""  />
                </ZoomPanKeyframes>
               </ZoomPanBin>
              </Entry>
              <Entry key="CursorEffectBin">
               <CursorEffectBin id="966"  >
                <CursorEffectKeyframes>
                </CursorEffectKeyframes>
               </CursorEffectBin>
              </Entry>
             </ExtraData>
            </ScreenVMFile>
            <MetaData>
             <entry key="AutoAppliedSmartFocus" val="False"/>
             <entry key="WinSubProjectDisplayName" val=""/>
            </MetaData>
           </UnifiedMedia>
           <UnifiedMedia id="967"  >
            <AMFile id="968" start="3230" duration="431" scalar="1/1" mediaStart="3983/1" mediaDuration="431/1" trackNumber="1" src="4" channelNumber="0,1" >
             <Parameters>
              <InterpolatingParam id="969" interp="linr"  time="0/1" value="1" leadInLength="0/1"  name="volume"/>
              <Parameter id="970"  name="captions"/>
             </Parameters>
             <Attributes>
              <Attribute id="971" value="" name="ident"/>
              <Attribute id="972" value="44100" name="sampleRate"/>
              <Attribute id="973" value="16" name="bitDepth"/>
              <Attribute id="974" value="1" name="gain"/>
              <Attribute id="975" value="0" name="mixToMono"/>
             </Attributes>
            </AMFile>
            <ScreenVMFile id="976" start="3230" duration="431" scalar="1/1" mediaStart="3983/1" mediaDuration="431/1" trackNumber="0" src="4" >
             <Transformer>
              <VectorParam id="977"  name="translation">
               <InterpolatingParam id="978" interp="linr"  time="-9999999/1" value="0" leadInLength="0/1"  />
               <InterpolatingParam id="979" interp="linr"  time="-9999999/1" value="0" leadInLength="0/1"  />
               <InterpolatingParam id="980" interp="linr"  time="-9999999/1" value="0" leadInLength="0/1"  />
              </VectorParam>
              <VectorParam id="981"  name="rotation">
               <InterpolatingParam id="982" interp="linr"  time="-9999999/1" value="0" leadInLength="0/1"  />
               <InterpolatingParam id="983" interp="linr"  time="-9999999/1" value="0" leadInLength="0/1"  />
               <InterpolatingParam id="984" interp="linr"  time="-9999999/1" value="0" leadInLength="0/1"  />
              </VectorParam>
              <VectorParam id="985"  name="shear">
               <InterpolatingParam id="986" interp="linr"  time="-9999999/1" value="0" leadInLength="0/1"  />
               <InterpolatingParam id="987" interp="linr"  time="-9999999/1" value="0" leadInLength="0/1"  />
               <InterpolatingParam id="988" interp="linr"  time="-9999999/1" value="0" leadInLength="0/1"  />
              </VectorParam>
              <VectorParam id="989"  name="scale">
               <InterpolatingParam id="990" interp="linr"  time="-9999999/1" value="1" leadInLength="0/1"  />
               <InterpolatingParam id="991" interp="linr"  time="-9999999/1" value="1" leadInLength="0/1"  />
               <InterpolatingParam id="992" interp="linr"  time="-9999999/1" value="1" leadInLength="0/1"  />
              </VectorParam>
              <VectorParam id="993"  name="anchor">
               <InterpolatingParam id="994" interp="linr"  time="0/1" value="0" leadInLength="0/1"  />
               <InterpolatingParam id="995" interp="linr"  time="0/1" value="0" leadInLength="0/1"  />
               <InterpolatingParam id="996" interp="linr"  time="0/1" value="0" leadInLength="0/1"  />
              </VectorParam>
             </Transformer>
             <Parameters>
              <VectorParam id="997"  name="sourceCrop">
               <InterpolatingParam id="998" interp="linr"  time="0/1" value="0" leadInLength="0/1"  />
               <InterpolatingParam id="999" interp="linr"  time="0/1" value="0" leadInLength="0/1"  />
               <InterpolatingParam id="1000" interp="linr"  time="0/1" value="0" leadInLength="0/1"  />
               <InterpolatingParam id="1001" interp="linr"  time="0/1" value="0" leadInLength="0/1"  />
              </VectorParam>
              <VectorParam id="1002"  name="geometryCrop">
               <InterpolatingParam id="1003" interp="linr"  time="-9999999/1" value="0" leadInLength="0/1"  />
               <InterpolatingParam id="1004" interp="linr"  time="-9999999/1" value="0" leadInLength="0/1"  />
               <InterpolatingParam id="1005" interp="linr"  time="-9999999/1" value="0" leadInLength="0/1"  />
               <InterpolatingParam id="1006" interp="linr"  time="-9999999/1" value="0" leadInLength="0/1"  />
              </VectorParam>
              <InterpolatingParam id="1007" interp="linr"  time="-9999999/1" value="1" leadInLength="0/1"  name="opacity"/>
              <InterpolatingParam id="1008" interp="linr"  time="0/1" value="0" leadInLength="0/1"  name="cursorOpacity"/>
              <InterpolatingParam id="1009" interp="linr"  time="0/1" value="0" leadInLength="0/1"  name="cursorScale"/>
             </Parameters>
             <Attributes>
              <Attribute id="1010" value="" name="ident"/>
             </Attributes>
             <ExtraData>
              <Entry key="ZoomPanBin">
               <ZoomPanBin id="1011"  >
                <ZoomPanKeyframes>
                 <ZoomPanKeyframe id="1012" timeRangeEnd="-9999999/1" timeRangeDuration="0/1" interpolaterName=""  />
                </ZoomPanKeyframes>
               </ZoomPanBin>
              </Entry>
              <Entry key="CursorEffectBin">
               <CursorEffectBin id="1013"  >
                <CursorEffectKeyframes>
                </CursorEffectKeyframes>
               </CursorEffectBin>
              </Entry>
             </ExtraData>
            </ScreenVMFile>
            <MetaData>
             <entry key="AutoAppliedSmartFocus" val="False"/>
             <entry key="WinSubProjectDisplayName" val=""/>
            </MetaData>
           </UnifiedMedia>
           <UnifiedMedia id="1014"  >
            <AMFile id="1015" start="3661" duration="168" scalar="1/1" mediaStart="4501/1" mediaDuration="168/1" trackNumber="1" src="4" channelNumber="0,1" >
             <Parameters>
              <InterpolatingParam id="1016" interp="linr"  time="0/1" value="1" leadInLength="0/1"  name="volume"/>
              <Parameter id="1017"  name="captions"/>
             </Parameters>
             <Attributes>
              <Attribute id="1018" value="" name="ident"/>
              <Attribute id="1019" value="44100" name="sampleRate"/>
              <Attribute id="1020" value="16" name="bitDepth"/>
              <Attribute id="1021" value="1" name="gain"/>
              <Attribute id="1022" value="0" name="mixToMono"/>
             </Attributes>
            </AMFile>
            <ScreenVMFile id="1023" start="3661" duration="168" scalar="1/1" mediaStart="4501/1" mediaDuration="168/1" trackNumber="0" src="4" >
             <Transformer>
              <VectorParam id="1024"  name="translation">
               <InterpolatingParam id="1025" interp="linr"  time="-9999999/1" value="0" leadInLength="0/1"  />
               <InterpolatingParam id="1026" interp="linr"  time="-9999999/1" value="0" leadInLength="0/1"  />
               <InterpolatingParam id="1027" interp="linr"  time="-9999999/1" value="0" leadInLength="0/1"  />
              </VectorParam>
              <VectorParam id="1028"  name="rotation">
               <InterpolatingParam id="1029" interp="linr"  time="-9999999/1" value="0" leadInLength="0/1"  />
               <InterpolatingParam id="1030" interp="linr"  time="-9999999/1" value="0" leadInLength="0/1"  />
               <InterpolatingParam id="1031" interp="linr"  time="-9999999/1" value="0" leadInLength="0/1"  />
              </VectorParam>
              <VectorParam id="1032"  name="shear">
               <InterpolatingParam id="1033" interp="linr"  time="-9999999/1" value="0" leadInLength="0/1"  />
               <InterpolatingParam id="1034" interp="linr"  time="-9999999/1" value="0" leadInLength="0/1"  />
               <InterpolatingParam id="1035" interp="linr"  time="-9999999/1" value="0" leadInLength="0/1"  />
              </VectorParam>
              <VectorParam id="1036"  name="scale">
               <InterpolatingParam id="1037" interp="linr"  time="-9999999/1" value="1" leadInLength="0/1"  />
               <InterpolatingParam id="1038" interp="linr"  time="-9999999/1" value="1" leadInLength="0/1"  />
               <InterpolatingParam id="1039" interp="linr"  time="-9999999/1" value="1" leadInLength="0/1"  />
              </VectorParam>
              <VectorParam id="1040"  name="anchor">
               <InterpolatingParam id="1041" interp="linr"  time="0/1" value="0" leadInLength="0/1"  />
               <InterpolatingParam id="1042" interp="linr"  time="0/1" value="0" leadInLength="0/1"  />
               <InterpolatingParam id="1043" interp="linr"  time="0/1" value="0" leadInLength="0/1"  />
              </VectorParam>
             </Transformer>
             <Parameters>
              <VectorParam id="1044"  name="sourceCrop">
               <InterpolatingParam id="1045" interp="linr"  time="0/1" value="0" leadInLength="0/1"  />
               <InterpolatingParam id="1046" interp="linr"  time="0/1" value="0" leadInLength="0/1"  />
               <InterpolatingParam id="1047" interp="linr"  time="0/1" value="0" leadInLength="0/1"  />
               <InterpolatingParam id="1048" interp="linr"  time="0/1" value="0" leadInLength="0/1"  />
              </VectorParam>
              <VectorParam id="1049"  name="geometryCrop">
               <InterpolatingParam id="1050" interp="linr"  time="-9999999/1" value="0" leadInLength="0/1"  />
               <InterpolatingParam id="1051" interp="linr"  time="-9999999/1" value="0" leadInLength="0/1"  />
               <InterpolatingParam id="1052" interp="linr"  time="-9999999/1" value="0" leadInLength="0/1"  />
               <InterpolatingParam id="1053" interp="linr"  time="-9999999/1" value="0" leadInLength="0/1"  />
              </VectorParam>
              <InterpolatingParam id="1054" interp="linr"  time="-9999999/1" value="1" leadInLength="0/1"  name="opacity"/>
              <InterpolatingParam id="1055" interp="linr"  time="0/1" value="0" leadInLength="0/1"  name="cursorOpacity"/>
              <InterpolatingParam id="1056" interp="linr"  time="0/1" value="0" leadInLength="0/1"  name="cursorScale"/>
             </Parameters>
             <Attributes>
              <Attribute id="1057" value="" name="ident"/>
             </Attributes>
             <ExtraData>
              <Entry key="ZoomPanBin">
               <ZoomPanBin id="1058"  >
                <ZoomPanKeyframes>
                 <ZoomPanKeyframe id="1059" timeRangeEnd="-9999999/1" timeRangeDuration="0/1" interpolaterName=""  />
                </ZoomPanKeyframes>
               </ZoomPanBin>
              </Entry>
              <Entry key="CursorEffectBin">
               <CursorEffectBin id="1060"  >
                <CursorEffectKeyframes>
                </CursorEffectKeyframes>
               </CursorEffectBin>
              </Entry>
             </ExtraData>
            </ScreenVMFile>
            <MetaData>
             <entry key="AutoAppliedSmartFocus" val="False"/>
             <entry key="WinSubProjectDisplayName" val=""/>
            </MetaData>
           </UnifiedMedia>
           <UnifiedMedia id="1061"  >
            <AMFile id="1062" start="3829" duration="254" scalar="1/1" mediaStart="5673/1" mediaDuration="254/1" trackNumber="1" src="4" channelNumber="0,1" >
             <Parameters>
              <InterpolatingParam id="1063" interp="linr"  time="0/1" value="1" leadInLength="0/1"  name="volume"/>
              <Parameter id="1064"  name="captions"/>
             </Parameters>
             <Attributes>
              <Attribute id="1065" value="" name="ident"/>
              <Attribute id="1066" value="44100" name="sampleRate"/>
              <Attribute id="1067" value="16" name="bitDepth"/>
              <Attribute id="1068" value="1" name="gain"/>
              <Attribute id="1069" value="0" name="mixToMono"/>
             </Attributes>
            </AMFile>
            <ScreenVMFile id="1070" start="3829" duration="254" scalar="1/1" mediaStart="5673/1" mediaDuration="254/1" trackNumber="0" src="4" >
             <Transformer>
              <VectorParam id="1071"  name="translation">
               <InterpolatingParam id="1072" interp="linr"  time="-9999999/1" value="0" leadInLength="0/1"  />
               <InterpolatingParam id="1073" interp="linr"  time="-9999999/1" value="0" leadInLength="0/1"  />
               <InterpolatingParam id="1074" interp="linr"  time="-9999999/1" value="0" leadInLength="0/1"  />
              </VectorParam>
              <VectorParam id="1075"  name="rotation">
               <InterpolatingParam id="1076" interp="linr"  time="-9999999/1" value="0" leadInLength="0/1"  />
               <InterpolatingParam id="1077" interp="linr"  time="-9999999/1" value="0" leadInLength="0/1"  />
               <InterpolatingParam id="1078" interp="linr"  time="-9999999/1" value="0" leadInLength="0/1"  />
              </VectorParam>
              <VectorParam id="1079"  name="shear">
               <InterpolatingParam id="1080" interp="linr"  time="-9999999/1" value="0" leadInLength="0/1"  />
               <InterpolatingParam id="1081" interp="linr"  time="-9999999/1" value="0" leadInLength="0/1"  />
               <InterpolatingParam id="1082" interp="linr"  time="-9999999/1" value="0" leadInLength="0/1"  />
              </VectorParam>
              <VectorParam id="1083"  name="scale">
               <InterpolatingParam id="1084" interp="linr"  time="-9999999/1" value="1" leadInLength="0/1"  />
               <InterpolatingParam id="1085" interp="linr"  time="-9999999/1" value="1" leadInLength="0/1"  />
               <InterpolatingParam id="1086" interp="linr"  time="-9999999/1" value="1" leadInLength="0/1"  />
              </VectorParam>
              <VectorParam id="1087"  name="anchor">
               <InterpolatingParam id="1088" interp="linr"  time="0/1" value="0" leadInLength="0/1"  />
               <InterpolatingParam id="1089" interp="linr"  time="0/1" value="0" leadInLength="0/1"  />
               <InterpolatingParam id="1090" interp="linr"  time="0/1" value="0" leadInLength="0/1"  />
              </VectorParam>
             </Transformer>
             <Parameters>
              <VectorParam id="1091"  name="sourceCrop">
               <InterpolatingParam id="1092" interp="linr"  time="0/1" value="0" leadInLength="0/1"  />
               <InterpolatingParam id="1093" interp="linr"  time="0/1" value="0" leadInLength="0/1"  />
               <InterpolatingParam id="1094" interp="linr"  time="0/1" value="0" leadInLength="0/1"  />
               <InterpolatingParam id="1095" interp="linr"  time="0/1" value="0" leadInLength="0/1"  />
              </VectorParam>
              <VectorParam id="1096"  name="geometryCrop">
               <InterpolatingParam id="1097" interp="linr"  time="-9999999/1" value="0" leadInLength="0/1"  />
               <InterpolatingParam id="1098" interp="linr"  time="-9999999/1" value="0" leadInLength="0/1"  />
               <InterpolatingParam id="1099" interp="linr"  time="-9999999/1" value="0" leadInLength="0/1"  />
               <InterpolatingParam id="1100" interp="linr"  time="-9999999/1" value="0" leadInLength="0/1"  />
              </VectorParam>
              <InterpolatingParam id="1101" interp="linr"  time="-9999999/1" value="1" leadInLength="0/1"  name="opacity"/>
              <InterpolatingParam id="1102" interp="linr"  time="0/1" value="0" leadInLength="0/1"  name="cursorOpacity"/>
              <InterpolatingParam id="1103" interp="linr"  time="0/1" value="0" leadInLength="0/1"  name="cursorScale"/>
             </Parameters>
             <Attributes>
              <Attribute id="1104" value="" name="ident"/>
             </Attributes>
             <ExtraData>
              <Entry key="ZoomPanBin">
               <ZoomPanBin id="1105"  >
                <ZoomPanKeyframes>
                 <ZoomPanKeyframe id="1106" timeRangeEnd="-9999999/1" timeRangeDuration="0/1" interpolaterName=""  />
                </ZoomPanKeyframes>
               </ZoomPanBin>
              </Entry>
              <Entry key="CursorEffectBin">
               <CursorEffectBin id="1107"  >
                <CursorEffectKeyframes>
                </CursorEffectKeyframes>
               </CursorEffectBin>
              </Entry>
             </ExtraData>
            </ScreenVMFile>
            <MetaData>
             <entry key="AutoAppliedSmartFocus" val="False"/>
             <entry key="WinSubProjectDisplayName" val=""/>
            </MetaData>
           </UnifiedMedia>
           <UnifiedMedia id="1108"  >
            <AMFile id="1109" start="4083" duration="271" scalar="1/1" mediaStart="6224/1" mediaDuration="271/1" trackNumber="1" src="4" channelNumber="0,1" >
             <Parameters>
              <InterpolatingParam id="1110" interp="linr"  time="0/1" value="1" leadInLength="0/1"  name="volume"/>
              <Parameter id="1111"  name="captions"/>
             </Parameters>
             <Attributes>
              <Attribute id="1112" value="" name="ident"/>
              <Attribute id="1113" value="44100" name="sampleRate"/>
              <Attribute id="1114" value="16" name="bitDepth"/>
              <Attribute id="1115" value="1" name="gain"/>
              <Attribute id="1116" value="0" name="mixToMono"/>
             </Attributes>
            </AMFile>
            <ScreenVMFile id="1117" start="4083" duration="271" scalar="1/1" mediaStart="6224/1" mediaDuration="271/1" trackNumber="0" src="4" >
             <Transformer>
              <VectorParam id="1118"  name="translation">
               <InterpolatingParam id="1119" interp="linr"  time="-9999999/1" value="0" leadInLength="0/1"  />
               <InterpolatingParam id="1120" interp="linr"  time="-9999999/1" value="0" leadInLength="0/1"  />
               <InterpolatingParam id="1121" interp="linr"  time="-9999999/1" value="0" leadInLength="0/1"  />
              </VectorParam>
              <VectorParam id="1122"  name="rotation">
               <InterpolatingParam id="1123" interp="linr"  time="-9999999/1" value="0" leadInLength="0/1"  />
               <InterpolatingParam id="1124" interp="linr"  time="-9999999/1" value="0" leadInLength="0/1"  />
               <InterpolatingParam id="1125" interp="linr"  time="-9999999/1" value="0" leadInLength="0/1"  />
              </VectorParam>
              <VectorParam id="1126"  name="shear">
               <InterpolatingParam id="1127" interp="linr"  time="-9999999/1" value="0" leadInLength="0/1"  />
               <InterpolatingParam id="1128" interp="linr"  time="-9999999/1" value="0" leadInLength="0/1"  />
               <InterpolatingParam id="1129" interp="linr"  time="-9999999/1" value="0" leadInLength="0/1"  />
              </VectorParam>
              <VectorParam id="1130"  name="scale">
               <InterpolatingParam id="1131" interp="linr"  time="-9999999/1" value="1" leadInLength="0/1"  />
               <InterpolatingParam id="1132" interp="linr"  time="-9999999/1" value="1" leadInLength="0/1"  />
               <InterpolatingParam id="1133" interp="linr"  time="-9999999/1" value="1" leadInLength="0/1"  />
              </VectorParam>
              <VectorParam id="1134"  name="anchor">
               <InterpolatingParam id="1135" interp="linr"  time="0/1" value="0" leadInLength="0/1"  />
               <InterpolatingParam id="1136" interp="linr"  time="0/1" value="0" leadInLength="0/1"  />
               <InterpolatingParam id="1137" interp="linr"  time="0/1" value="0" leadInLength="0/1"  />
              </VectorParam>
             </Transformer>
             <Parameters>
              <VectorParam id="1138"  name="sourceCrop">
               <InterpolatingParam id="1139" interp="linr"  time="0/1" value="0" leadInLength="0/1"  />
               <InterpolatingParam id="1140" interp="linr"  time="0/1" value="0" leadInLength="0/1"  />
               <InterpolatingParam id="1141" interp="linr"  time="0/1" value="0" leadInLength="0/1"  />
               <InterpolatingParam id="1142" interp="linr"  time="0/1" value="0" leadInLength="0/1"  />
              </VectorParam>
              <VectorParam id="1143"  name="geometryCrop">
               <InterpolatingParam id="1144" interp="linr"  time="-9999999/1" value="0" leadInLength="0/1"  />
               <InterpolatingParam id="1145" interp="linr"  time="-9999999/1" value="0" leadInLength="0/1"  />
               <InterpolatingParam id="1146" interp="linr"  time="-9999999/1" value="0" leadInLength="0/1"  />
               <InterpolatingParam id="1147" interp="linr"  time="-9999999/1" value="0" leadInLength="0/1"  />
              </VectorParam>
              <InterpolatingParam id="1148" interp="linr"  time="-9999999/1" value="1" leadInLength="0/1"  name="opacity"/>
              <InterpolatingParam id="1149" interp="linr"  time="0/1" value="0" leadInLength="0/1"  name="cursorOpacity"/>
              <InterpolatingParam id="1150" interp="linr"  time="0/1" value="0" leadInLength="0/1"  name="cursorScale"/>
             </Parameters>
             <Attributes>
              <Attribute id="1151" value="" name="ident"/>
             </Attributes>
             <ExtraData>
              <Entry key="ZoomPanBin">
               <ZoomPanBin id="1152"  >
                <ZoomPanKeyframes>
                 <ZoomPanKeyframe id="1153" timeRangeEnd="-9999999/1" timeRangeDuration="0/1" interpolaterName=""  />
                </ZoomPanKeyframes>
               </ZoomPanBin>
              </Entry>
              <Entry key="CursorEffectBin">
               <CursorEffectBin id="1154"  >
                <CursorEffectKeyframes>
                </CursorEffectKeyframes>
               </CursorEffectBin>
              </Entry>
             </ExtraData>
            </ScreenVMFile>
            <MetaData>
             <entry key="AutoAppliedSmartFocus" val="False"/>
             <entry key="WinSubProjectDisplayName" val=""/>
            </MetaData>
           </UnifiedMedia>
           <UnifiedMedia id="1155"  >
            <AMFile id="1156" start="4354" duration="94" scalar="1/1" mediaStart="6512/1" mediaDuration="94/1" trackNumber="1" src="4" channelNumber="0,1" >
             <Parameters>
              <InterpolatingParam id="1157" interp="linr"  time="0/1" value="1" leadInLength="0/1"  name="volume"/>
              <Parameter id="1158"  name="captions"/>
             </Parameters>
             <Attributes>
              <Attribute id="1159" value="" name="ident"/>
              <Attribute id="1160" value="44100" name="sampleRate"/>
              <Attribute id="1161" value="16" name="bitDepth"/>
              <Attribute id="1162" value="1" name="gain"/>
              <Attribute id="1163" value="0" name="mixToMono"/>
             </Attributes>
            </AMFile>
            <ScreenVMFile id="1164" start="4354" duration="94" scalar="1/1" mediaStart="6512/1" mediaDuration="94/1" trackNumber="0" src="4" >
             <Transformer>
              <VectorParam id="1165"  name="translation">
               <InterpolatingParam id="1166" interp="linr"  time="-9999999/1" value="0" leadInLength="0/1"  />
               <InterpolatingParam id="1167" interp="linr"  time="-9999999/1" value="0" leadInLength="0/1"  />
               <InterpolatingParam id="1168" interp="linr"  time="-9999999/1" value="0" leadInLength="0/1"  />
              </VectorParam>
              <VectorParam id="1169"  name="rotation">
               <InterpolatingParam id="1170" interp="linr"  time="-9999999/1" value="0" leadInLength="0/1"  />
               <InterpolatingParam id="1171" interp="linr"  time="-9999999/1" value="0" leadInLength="0/1"  />
               <InterpolatingParam id="1172" interp="linr"  time="-9999999/1" value="0" leadInLength="0/1"  />
              </VectorParam>
              <VectorParam id="1173"  name="shear">
               <InterpolatingParam id="1174" interp="linr"  time="-9999999/1" value="0" leadInLength="0/1"  />
               <InterpolatingParam id="1175" interp="linr"  time="-9999999/1" value="0" leadInLength="0/1"  />
               <InterpolatingParam id="1176" interp="linr"  time="-9999999/1" value="0" leadInLength="0/1"  />
              </VectorParam>
              <VectorParam id="1177"  name="scale">
               <InterpolatingParam id="1178" interp="linr"  time="-9999999/1" value="1" leadInLength="0/1"  />
               <InterpolatingParam id="1179" interp="linr"  time="-9999999/1" value="1" leadInLength="0/1"  />
               <InterpolatingParam id="1180" interp="linr"  time="-9999999/1" value="1" leadInLength="0/1"  />
              </VectorParam>
              <VectorParam id="1181"  name="anchor">
               <InterpolatingParam id="1182" interp="linr"  time="0/1" value="0" leadInLength="0/1"  />
               <InterpolatingParam id="1183" interp="linr"  time="0/1" value="0" leadInLength="0/1"  />
               <InterpolatingParam id="1184" interp="linr"  time="0/1" value="0" leadInLength="0/1"  />
              </VectorParam>
             </Transformer>
             <Parameters>
              <VectorParam id="1185"  name="sourceCrop">
               <InterpolatingParam id="1186" interp="linr"  time="0/1" value="0" leadInLength="0/1"  />
               <InterpolatingParam id="1187" interp="linr"  time="0/1" value="0" leadInLength="0/1"  />
               <InterpolatingParam id="1188" interp="linr"  time="0/1" value="0" leadInLength="0/1"  />
               <InterpolatingParam id="1189" interp="linr"  time="0/1" value="0" leadInLength="0/1"  />
              </VectorParam>
              <VectorParam id="1190"  name="geometryCrop">
               <InterpolatingParam id="1191" interp="linr"  time="-9999999/1" value="0" leadInLength="0/1"  />
               <InterpolatingParam id="1192" interp="linr"  time="-9999999/1" value="0" leadInLength="0/1"  />
               <InterpolatingParam id="1193" interp="linr"  time="-9999999/1" value="0" leadInLength="0/1"  />
               <InterpolatingParam id="1194" interp="linr"  time="-9999999/1" value="0" leadInLength="0/1"  />
              </VectorParam>
              <InterpolatingParam id="1195" interp="linr"  time="-9999999/1" value="1" leadInLength="0/1"  name="opacity"/>
              <InterpolatingParam id="1196" interp="linr"  time="0/1" value="0" leadInLength="0/1"  name="cursorOpacity"/>
              <InterpolatingParam id="1197" interp="linr"  time="0/1" value="0" leadInLength="0/1"  name="cursorScale"/>
             </Parameters>
             <Attributes>
              <Attribute id="1198" value="" name="ident"/>
             </Attributes>
             <ExtraData>
              <Entry key="ZoomPanBin">
               <ZoomPanBin id="1199"  >
                <ZoomPanKeyframes>
                 <ZoomPanKeyframe id="1200" timeRangeEnd="-9999999/1" timeRangeDuration="0/1" interpolaterName=""  />
                </ZoomPanKeyframes>
               </ZoomPanBin>
              </Entry>
              <Entry key="CursorEffectBin">
               <CursorEffectBin id="1201"  >
                <CursorEffectKeyframes>
                </CursorEffectKeyframes>
               </CursorEffectBin>
              </Entry>
             </ExtraData>
            </ScreenVMFile>
            <MetaData>
             <entry key="AutoAppliedSmartFocus" val="False"/>
             <entry key="WinSubProjectDisplayName" val=""/>
            </MetaData>
           </UnifiedMedia>
           <UnifiedMedia id="1202"  >
            <AMFile id="1203" start="4448" duration="21" scalar="1/1" mediaStart="6635/1" mediaDuration="21/1" trackNumber="1" src="4" channelNumber="0,1" >
             <Parameters>
              <InterpolatingParam id="1204" interp="linr"  time="0/1" value="1" leadInLength="0/1"  name="volume"/>
              <Parameter id="1205"  name="captions"/>
             </Parameters>
             <Attributes>
              <Attribute id="1206" value="" name="ident"/>
              <Attribute id="1207" value="44100" name="sampleRate"/>
              <Attribute id="1208" value="16" name="bitDepth"/>
              <Attribute id="1209" value="1" name="gain"/>
              <Attribute id="1210" value="0" name="mixToMono"/>
             </Attributes>
            </AMFile>
            <ScreenVMFile id="1211" start="4448" duration="21" scalar="1/1" mediaStart="6635/1" mediaDuration="21/1" trackNumber="0" src="4" >
             <Transformer>
              <VectorParam id="1212"  name="translation">
               <InterpolatingParam id="1213" interp="linr"  time="-9999999/1" value="0" leadInLength="0/1"  />
               <InterpolatingParam id="1214" interp="linr"  time="-9999999/1" value="0" leadInLength="0/1"  />
               <InterpolatingParam id="1215" interp="linr"  time="-9999999/1" value="0" leadInLength="0/1"  />
              </VectorParam>
              <VectorParam id="1216"  name="rotation">
               <InterpolatingParam id="1217" interp="linr"  time="-9999999/1" value="0" leadInLength="0/1"  />
               <InterpolatingParam id="1218" interp="linr"  time="-9999999/1" value="0" leadInLength="0/1"  />
               <InterpolatingParam id="1219" interp="linr"  time="-9999999/1" value="0" leadInLength="0/1"  />
              </VectorParam>
              <VectorParam id="1220"  name="shear">
               <InterpolatingParam id="1221" interp="linr"  time="-9999999/1" value="0" leadInLength="0/1"  />
               <InterpolatingParam id="1222" interp="linr"  time="-9999999/1" value="0" leadInLength="0/1"  />
               <InterpolatingParam id="1223" interp="linr"  time="-9999999/1" value="0" leadInLength="0/1"  />
              </VectorParam>
              <VectorParam id="1224"  name="scale">
               <InterpolatingParam id="1225" interp="linr"  time="-9999999/1" value="1" leadInLength="0/1"  />
               <InterpolatingParam id="1226" interp="linr"  time="-9999999/1" value="1" leadInLength="0/1"  />
               <InterpolatingParam id="1227" interp="linr"  time="-9999999/1" value="1" leadInLength="0/1"  />
              </VectorParam>
              <VectorParam id="1228"  name="anchor">
               <InterpolatingParam id="1229" interp="linr"  time="0/1" value="0" leadInLength="0/1"  />
               <InterpolatingParam id="1230" interp="linr"  time="0/1" value="0" leadInLength="0/1"  />
               <InterpolatingParam id="1231" interp="linr"  time="0/1" value="0" leadInLength="0/1"  />
              </VectorParam>
             </Transformer>
             <Parameters>
              <VectorParam id="1232"  name="sourceCrop">
               <InterpolatingParam id="1233" interp="linr"  time="0/1" value="0" leadInLength="0/1"  />
               <InterpolatingParam id="1234" interp="linr"  time="0/1" value="0" leadInLength="0/1"  />
               <InterpolatingParam id="1235" interp="linr"  time="0/1" value="0" leadInLength="0/1"  />
               <InterpolatingParam id="1236" interp="linr"  time="0/1" value="0" leadInLength="0/1"  />
              </VectorParam>
              <VectorParam id="1237"  name="geometryCrop">
               <InterpolatingParam id="1238" interp="linr"  time="-9999999/1" value="0" leadInLength="0/1"  />
               <InterpolatingParam id="1239" interp="linr"  time="-9999999/1" value="0" leadInLength="0/1"  />
               <InterpolatingParam id="1240" interp="linr"  time="-9999999/1" value="0" leadInLength="0/1"  />
               <InterpolatingParam id="1241" interp="linr"  time="-9999999/1" value="0" leadInLength="0/1"  />
              </VectorParam>
              <InterpolatingParam id="1242" interp="linr"  time="-9999999/1" value="1" leadInLength="0/1"  name="opacity"/>
              <InterpolatingParam id="1243" interp="linr"  time="0/1" value="0" leadInLength="0/1"  name="cursorOpacity"/>
              <InterpolatingParam id="1244" interp="linr"  time="0/1" value="0" leadInLength="0/1"  name="cursorScale"/>
             </Parameters>
             <Attributes>
              <Attribute id="1245" value="" name="ident"/>
             </Attributes>
             <ExtraData>
              <Entry key="ZoomPanBin">
               <ZoomPanBin id="1246"  >
                <ZoomPanKeyframes>
                 <ZoomPanKeyframe id="1247" timeRangeEnd="-9999999/1" timeRangeDuration="0/1" interpolaterName=""  />
                </ZoomPanKeyframes>
               </ZoomPanBin>
              </Entry>
              <Entry key="CursorEffectBin">
               <CursorEffectBin id="1248"  >
                <CursorEffectKeyframes>
                </CursorEffectKeyframes>
               </CursorEffectBin>
              </Entry>
             </ExtraData>
            </ScreenVMFile>
            <MetaData>
             <entry key="AutoAppliedSmartFocus" val="False"/>
             <entry key="WinSubProjectDisplayName" val=""/>
            </MetaData>
           </UnifiedMedia>
           <UnifiedMedia id="1249"  >
            <AMFile id="1250" start="4469" duration="3" scalar="1/1" mediaStart="6671/1" mediaDuration="3/1" trackNumber="1" src="4" channelNumber="0,1" >
             <Parameters>
              <InterpolatingParam id="1251" interp="linr"  time="0/1" value="1" leadInLength="0/1"  name="volume"/>
              <Parameter id="1252"  name="captions"/>
             </Parameters>
             <Attributes>
              <Attribute id="1253" value="" name="ident"/>
              <Attribute id="1254" value="44100" name="sampleRate"/>
              <Attribute id="1255" value="16" name="bitDepth"/>
              <Attribute id="1256" value="1" name="gain"/>
              <Attribute id="1257" value="0" name="mixToMono"/>
             </Attributes>
            </AMFile>
            <ScreenVMFile id="1258" start="4469" duration="3" scalar="1/1" mediaStart="6671/1" mediaDuration="3/1" trackNumber="0" src="4" >
             <Transformer>
              <VectorParam id="1259"  name="translation">
               <InterpolatingParam id="1260" interp="linr"  time="-9999999/1" value="0" leadInLength="0/1"  />
               <InterpolatingParam id="1261" interp="linr"  time="-9999999/1" value="0" leadInLength="0/1"  />
               <InterpolatingParam id="1262" interp="linr"  time="-9999999/1" value="0" leadInLength="0/1"  />
              </VectorParam>
              <VectorParam id="1263"  name="rotation">
               <InterpolatingParam id="1264" interp="linr"  time="-9999999/1" value="0" leadInLength="0/1"  />
               <InterpolatingParam id="1265" interp="linr"  time="-9999999/1" value="0" leadInLength="0/1"  />
               <InterpolatingParam id="1266" interp="linr"  time="-9999999/1" value="0" leadInLength="0/1"  />
              </VectorParam>
              <VectorParam id="1267"  name="shear">
               <InterpolatingParam id="1268" interp="linr"  time="-9999999/1" value="0" leadInLength="0/1"  />
               <InterpolatingParam id="1269" interp="linr"  time="-9999999/1" value="0" leadInLength="0/1"  />
               <InterpolatingParam id="1270" interp="linr"  time="-9999999/1" value="0" leadInLength="0/1"  />
              </VectorParam>
              <VectorParam id="1271"  name="scale">
               <InterpolatingParam id="1272" interp="linr"  time="-9999999/1" value="1" leadInLength="0/1"  />
               <InterpolatingParam id="1273" interp="linr"  time="-9999999/1" value="1" leadInLength="0/1"  />
               <InterpolatingParam id="1274" interp="linr"  time="-9999999/1" value="1" leadInLength="0/1"  />
              </VectorParam>
              <VectorParam id="1275"  name="anchor">
               <InterpolatingParam id="1276" interp="linr"  time="0/1" value="0" leadInLength="0/1"  />
               <InterpolatingParam id="1277" interp="linr"  time="0/1" value="0" leadInLength="0/1"  />
               <InterpolatingParam id="1278" interp="linr"  time="0/1" value="0" leadInLength="0/1"  />
              </VectorParam>
             </Transformer>
             <Parameters>
              <VectorParam id="1279"  name="sourceCrop">
               <InterpolatingParam id="1280" interp="linr"  time="0/1" value="0" leadInLength="0/1"  />
               <InterpolatingParam id="1281" interp="linr"  time="0/1" value="0" leadInLength="0/1"  />
               <InterpolatingParam id="1282" interp="linr"  time="0/1" value="0" leadInLength="0/1"  />
               <InterpolatingParam id="1283" interp="linr"  time="0/1" value="0" leadInLength="0/1"  />
              </VectorParam>
              <VectorParam id="1284"  name="geometryCrop">
               <InterpolatingParam id="1285" interp="linr"  time="-9999999/1" value="0" leadInLength="0/1"  />
               <InterpolatingParam id="1286" interp="linr"  time="-9999999/1" value="0" leadInLength="0/1"  />
               <InterpolatingParam id="1287" interp="linr"  time="-9999999/1" value="0" leadInLength="0/1"  />
               <InterpolatingParam id="1288" interp="linr"  time="-9999999/1" value="0" leadInLength="0/1"  />
              </VectorParam>
              <InterpolatingParam id="1289" interp="linr"  time="-9999999/1" value="1" leadInLength="0/1"  name="opacity"/>
              <InterpolatingParam id="1290" interp="linr"  time="0/1" value="0" leadInLength="0/1"  name="cursorOpacity"/>
              <InterpolatingParam id="1291" interp="linr"  time="0/1" value="0" leadInLength="0/1"  name="cursorScale"/>
             </Parameters>
             <Attributes>
              <Attribute id="1292" value="" name="ident"/>
             </Attributes>
             <ExtraData>
              <Entry key="ZoomPanBin">
               <ZoomPanBin id="1293"  >
                <ZoomPanKeyframes>
                 <ZoomPanKeyframe id="1294" timeRangeEnd="-9999999/1" timeRangeDuration="0/1" interpolaterName=""  />
                </ZoomPanKeyframes>
               </ZoomPanBin>
              </Entry>
              <Entry key="CursorEffectBin">
               <CursorEffectBin id="1295"  >
                <CursorEffectKeyframes>
                </CursorEffectKeyframes>
               </CursorEffectBin>
              </Entry>
             </ExtraData>
            </ScreenVMFile>
            <MetaData>
             <entry key="AutoAppliedSmartFocus" val="False"/>
             <entry key="WinSubProjectDisplayName" val=""/>
            </MetaData>
           </UnifiedMedia>
           <UnifiedMedia id="1296"  >
            <AMFile id="1297" start="4472" duration="56" scalar="1/1" mediaStart="6693/1" mediaDuration="56/1" trackNumber="1" src="4" channelNumber="0,1" >
             <Parameters>
              <InterpolatingParam id="1298" interp="linr"  time="0/1" value="1" leadInLength="0/1"  name="volume"/>
              <Parameter id="1299"  name="captions"/>
             </Parameters>
             <Attributes>
              <Attribute id="1300" value="" name="ident"/>
              <Attribute id="1301" value="44100" name="sampleRate"/>
              <Attribute id="1302" value="16" name="bitDepth"/>
              <Attribute id="1303" value="1" name="gain"/>
              <Attribute id="1304" value="0" name="mixToMono"/>
             </Attributes>
            </AMFile>
            <ScreenVMFile id="1305" start="4472" duration="56" scalar="1/1" mediaStart="6693/1" mediaDuration="56/1" trackNumber="0" src="4" >
             <Transformer>
              <VectorParam id="1306"  name="translation">
               <InterpolatingParam id="1307" interp="linr"  time="-9999999/1" value="0" leadInLength="0/1"  />
               <InterpolatingParam id="1308" interp="linr"  time="-9999999/1" value="0" leadInLength="0/1"  />
               <InterpolatingParam id="1309" interp="linr"  time="-9999999/1" value="0" leadInLength="0/1"  />
              </VectorParam>
              <VectorParam id="1310"  name="rotation">
               <InterpolatingParam id="1311" interp="linr"  time="-9999999/1" value="0" leadInLength="0/1"  />
               <InterpolatingParam id="1312" interp="linr"  time="-9999999/1" value="0" leadInLength="0/1"  />
               <InterpolatingParam id="1313" interp="linr"  time="-9999999/1" value="0" leadInLength="0/1"  />
              </VectorParam>
              <VectorParam id="1314"  name="shear">
               <InterpolatingParam id="1315" interp="linr"  time="-9999999/1" value="0" leadInLength="0/1"  />
               <InterpolatingParam id="1316" interp="linr"  time="-9999999/1" value="0" leadInLength="0/1"  />
               <InterpolatingParam id="1317" interp="linr"  time="-9999999/1" value="0" leadInLength="0/1"  />
              </VectorParam>
              <VectorParam id="1318"  name="scale">
               <InterpolatingParam id="1319" interp="linr"  time="-9999999/1" value="1" leadInLength="0/1"  />
               <InterpolatingParam id="1320" interp="linr"  time="-9999999/1" value="1" leadInLength="0/1"  />
               <InterpolatingParam id="1321" interp="linr"  time="-9999999/1" value="1" leadInLength="0/1"  />
              </VectorParam>
              <VectorParam id="1322"  name="anchor">
               <InterpolatingParam id="1323" interp="linr"  time="0/1" value="0" leadInLength="0/1"  />
               <InterpolatingParam id="1324" interp="linr"  time="0/1" value="0" leadInLength="0/1"  />
               <InterpolatingParam id="1325" interp="linr"  time="0/1" value="0" leadInLength="0/1"  />
              </VectorParam>
             </Transformer>
             <Parameters>
              <VectorParam id="1326"  name="sourceCrop">
               <InterpolatingParam id="1327" interp="linr"  time="0/1" value="0" leadInLength="0/1"  />
               <InterpolatingParam id="1328" interp="linr"  time="0/1" value="0" leadInLength="0/1"  />
               <InterpolatingParam id="1329" interp="linr"  time="0/1" value="0" leadInLength="0/1"  />
               <InterpolatingParam id="1330" interp="linr"  time="0/1" value="0" leadInLength="0/1"  />
              </VectorParam>
              <VectorParam id="1331"  name="geometryCrop">
               <InterpolatingParam id="1332" interp="linr"  time="-9999999/1" value="0" leadInLength="0/1"  />
               <InterpolatingParam id="1333" interp="linr"  time="-9999999/1" value="0" leadInLength="0/1"  />
               <InterpolatingParam id="1334" interp="linr"  time="-9999999/1" value="0" leadInLength="0/1"  />
               <InterpolatingParam id="1335" interp="linr"  time="-9999999/1" value="0" leadInLength="0/1"  />
              </VectorParam>
              <InterpolatingParam id="1336" interp="linr"  time="-9999999/1" value="1" leadInLength="0/1"  name="opacity"/>
              <InterpolatingParam id="1337" interp="linr"  time="0/1" value="0" leadInLength="0/1"  name="cursorOpacity"/>
              <InterpolatingParam id="1338" interp="linr"  time="0/1" value="0" leadInLength="0/1"  name="cursorScale"/>
             </Parameters>
             <Attributes>
              <Attribute id="1339" value="" name="ident"/>
             </Attributes>
             <ExtraData>
              <Entry key="ZoomPanBin">
               <ZoomPanBin id="1340"  >
                <ZoomPanKeyframes>
                 <ZoomPanKeyframe id="1341" timeRangeEnd="-9999999/1" timeRangeDuration="0/1" interpolaterName=""  />
                </ZoomPanKeyframes>
               </ZoomPanBin>
              </Entry>
              <Entry key="CursorEffectBin">
               <CursorEffectBin id="1342"  >
                <CursorEffectKeyframes>
                </CursorEffectKeyframes>
               </CursorEffectBin>
              </Entry>
             </ExtraData>
            </ScreenVMFile>
            <MetaData>
             <entry key="AutoAppliedSmartFocus" val="False"/>
             <entry key="WinSubProjectDisplayName" val=""/>
            </MetaData>
           </UnifiedMedia>
           <UnifiedMedia id="1343"  >
            <AMFile id="1344" start="4528" duration="80" scalar="1/1" mediaStart="7038/1" mediaDuration="80/1" trackNumber="1" src="4" channelNumber="0,1" >
             <Parameters>
              <InterpolatingParam id="1345" interp="linr"  time="0/1" value="1" leadInLength="0/1"  name="volume"/>
              <Parameter id="1346"  name="captions"/>
             </Parameters>
             <Attributes>
              <Attribute id="1347" value="" name="ident"/>
              <Attribute id="1348" value="44100" name="sampleRate"/>
              <Attribute id="1349" value="16" name="bitDepth"/>
              <Attribute id="1350" value="1" name="gain"/>
              <Attribute id="1351" value="0" name="mixToMono"/>
             </Attributes>
            </AMFile>
            <ScreenVMFile id="1352" start="4528" duration="80" scalar="1/1" mediaStart="7038/1" mediaDuration="80/1" trackNumber="0" src="4" >
             <Transformer>
              <VectorParam id="1353"  name="translation">
               <InterpolatingParam id="1354" interp="linr"  time="-9999999/1" value="0" leadInLength="0/1"  />
               <InterpolatingParam id="1355" interp="linr"  time="-9999999/1" value="0" leadInLength="0/1"  />
               <InterpolatingParam id="1356" interp="linr"  time="-9999999/1" value="0" leadInLength="0/1"  />
              </VectorParam>
              <VectorParam id="1357"  name="rotation">
               <InterpolatingParam id="1358" interp="linr"  time="-9999999/1" value="0" leadInLength="0/1"  />
               <InterpolatingParam id="1359" interp="linr"  time="-9999999/1" value="0" leadInLength="0/1"  />
               <InterpolatingParam id="1360" interp="linr"  time="-9999999/1" value="0" leadInLength="0/1"  />
              </VectorParam>
              <VectorParam id="1361"  name="shear">
               <InterpolatingParam id="1362" interp="linr"  time="-9999999/1" value="0" leadInLength="0/1"  />
               <InterpolatingParam id="1363" interp="linr"  time="-9999999/1" value="0" leadInLength="0/1"  />
               <InterpolatingParam id="1364" interp="linr"  time="-9999999/1" value="0" leadInLength="0/1"  />
              </VectorParam>
              <VectorParam id="1365"  name="scale">
               <InterpolatingParam id="1366" interp="linr"  time="-9999999/1" value="1" leadInLength="0/1"  />
               <InterpolatingParam id="1367" interp="linr"  time="-9999999/1" value="1" leadInLength="0/1"  />
               <InterpolatingParam id="1368" interp="linr"  time="-9999999/1" value="1" leadInLength="0/1"  />
              </VectorParam>
              <VectorParam id="1369"  name="anchor">
               <InterpolatingParam id="1370" interp="linr"  time="0/1" value="0" leadInLength="0/1"  />
               <InterpolatingParam id="1371" interp="linr"  time="0/1" value="0" leadInLength="0/1"  />
               <InterpolatingParam id="1372" interp="linr"  time="0/1" value="0" leadInLength="0/1"  />
              </VectorParam>
             </Transformer>
             <Parameters>
              <VectorParam id="1373"  name="sourceCrop">
               <InterpolatingParam id="1374" interp="linr"  time="0/1" value="0" leadInLength="0/1"  />
               <InterpolatingParam id="1375" interp="linr"  time="0/1" value="0" leadInLength="0/1"  />
               <InterpolatingParam id="1376" interp="linr"  time="0/1" value="0" leadInLength="0/1"  />
               <InterpolatingParam id="1377" interp="linr"  time="0/1" value="0" leadInLength="0/1"  />
              </VectorParam>
              <VectorParam id="1378"  name="geometryCrop">
               <InterpolatingParam id="1379" interp="linr"  time="-9999999/1" value="0" leadInLength="0/1"  />
               <InterpolatingParam id="1380" interp="linr"  time="-9999999/1" value="0" leadInLength="0/1"  />
               <InterpolatingParam id="1381" interp="linr"  time="-9999999/1" value="0" leadInLength="0/1"  />
               <InterpolatingParam id="1382" interp="linr"  time="-9999999/1" value="0" leadInLength="0/1"  />
              </VectorParam>
              <InterpolatingParam id="1383" interp="linr"  time="-9999999/1" value="1" leadInLength="0/1"  name="opacity"/>
              <InterpolatingParam id="1384" interp="linr"  time="0/1" value="0" leadInLength="0/1"  name="cursorOpacity"/>
              <InterpolatingParam id="1385" interp="linr"  time="0/1" value="0" leadInLength="0/1"  name="cursorScale"/>
             </Parameters>
             <Attributes>
              <Attribute id="1386" value="" name="ident"/>
             </Attributes>
             <ExtraData>
              <Entry key="ZoomPanBin">
               <ZoomPanBin id="1387"  >
                <ZoomPanKeyframes>
                 <ZoomPanKeyframe id="1388" timeRangeEnd="-9999999/1" timeRangeDuration="0/1" interpolaterName=""  />
                </ZoomPanKeyframes>
               </ZoomPanBin>
              </Entry>
              <Entry key="CursorEffectBin">
               <CursorEffectBin id="1389"  >
                <CursorEffectKeyframes>
                </CursorEffectKeyframes>
               </CursorEffectBin>
              </Entry>
             </ExtraData>
            </ScreenVMFile>
            <MetaData>
             <entry key="AutoAppliedSmartFocus" val="False"/>
             <entry key="WinSubProjectDisplayName" val=""/>
            </MetaData>
           </UnifiedMedia>
           <UnifiedMedia id="1390"  >
            <AMFile id="1391" start="4608" duration="484" scalar="1/1" mediaStart="7292/1" mediaDuration="484/1" trackNumber="1" src="4" channelNumber="0,1" >
             <Parameters>
              <InterpolatingParam id="1392" interp="linr"  time="0/1" value="1" leadInLength="0/1"  name="volume"/>
              <Parameter id="1393"  name="captions"/>
             </Parameters>
             <Attributes>
              <Attribute id="1394" value="" name="ident"/>
              <Attribute id="1395" value="44100" name="sampleRate"/>
              <Attribute id="1396" value="16" name="bitDepth"/>
              <Attribute id="1397" value="1" name="gain"/>
              <Attribute id="1398" value="0" name="mixToMono"/>
             </Attributes>
            </AMFile>
            <ScreenVMFile id="1399" start="4608" duration="484" scalar="1/1" mediaStart="7292/1" mediaDuration="484/1" trackNumber="0" src="4" >
             <Transformer>
              <VectorParam id="1400"  name="translation">
               <InterpolatingParam id="1401" interp="linr"  time="-9999999/1" value="0" leadInLength="0/1"  />
               <InterpolatingParam id="1402" interp="linr"  time="-9999999/1" value="0" leadInLength="0/1"  />
               <InterpolatingParam id="1403" interp="linr"  time="-9999999/1" value="0" leadInLength="0/1"  />
              </VectorParam>
              <VectorParam id="1404"  name="rotation">
               <InterpolatingParam id="1405" interp="linr"  time="-9999999/1" value="0" leadInLength="0/1"  />
               <InterpolatingParam id="1406" interp="linr"  time="-9999999/1" value="0" leadInLength="0/1"  />
               <InterpolatingParam id="1407" interp="linr"  time="-9999999/1" value="0" leadInLength="0/1"  />
              </VectorParam>
              <VectorParam id="1408"  name="shear">
               <InterpolatingParam id="1409" interp="linr"  time="-9999999/1" value="0" leadInLength="0/1"  />
               <InterpolatingParam id="1410" interp="linr"  time="-9999999/1" value="0" leadInLength="0/1"  />
               <InterpolatingParam id="1411" interp="linr"  time="-9999999/1" value="0" leadInLength="0/1"  />
              </VectorParam>
              <VectorParam id="1412"  name="scale">
               <InterpolatingParam id="1413" interp="linr"  time="-9999999/1" value="1" leadInLength="0/1"  />
               <InterpolatingParam id="1414" interp="linr"  time="-9999999/1" value="1" leadInLength="0/1"  />
               <InterpolatingParam id="1415" interp="linr"  time="-9999999/1" value="1" leadInLength="0/1"  />
              </VectorParam>
              <VectorParam id="1416"  name="anchor">
               <InterpolatingParam id="1417" interp="linr"  time="0/1" value="0" leadInLength="0/1"  />
               <InterpolatingParam id="1418" interp="linr"  time="0/1" value="0" leadInLength="0/1"  />
               <InterpolatingParam id="1419" interp="linr"  time="0/1" value="0" leadInLength="0/1"  />
              </VectorParam>
             </Transformer>
             <Parameters>
              <VectorParam id="1420"  name="sourceCrop">
               <InterpolatingParam id="1421" interp="linr"  time="0/1" value="0" leadInLength="0/1"  />
               <InterpolatingParam id="1422" interp="linr"  time="0/1" value="0" leadInLength="0/1"  />
               <InterpolatingParam id="1423" interp="linr"  time="0/1" value="0" leadInLength="0/1"  />
               <InterpolatingParam id="1424" interp="linr"  time="0/1" value="0" leadInLength="0/1"  />
              </VectorParam>
              <VectorParam id="1425"  name="geometryCrop">
               <InterpolatingParam id="1426" interp="linr"  time="-9999999/1" value="0" leadInLength="0/1"  />
               <InterpolatingParam id="1427" interp="linr"  time="-9999999/1" value="0" leadInLength="0/1"  />
               <InterpolatingParam id="1428" interp="linr"  time="-9999999/1" value="0" leadInLength="0/1"  />
               <InterpolatingParam id="1429" interp="linr"  time="-9999999/1" value="0" leadInLength="0/1"  />
              </VectorParam>
              <InterpolatingParam id="1430" interp="linr"  time="-9999999/1" value="1" leadInLength="0/1"  name="opacity"/>
              <InterpolatingParam id="1431" interp="linr"  time="0/1" value="0" leadInLength="0/1"  name="cursorOpacity"/>
              <InterpolatingParam id="1432" interp="linr"  time="0/1" value="0" leadInLength="0/1"  name="cursorScale"/>
             </Parameters>
             <Attributes>
              <Attribute id="1433" value="" name="ident"/>
             </Attributes>
             <ExtraData>
              <Entry key="ZoomPanBin">
               <ZoomPanBin id="1434"  >
                <ZoomPanKeyframes>
                 <ZoomPanKeyframe id="1435" timeRangeEnd="-9999999/1" timeRangeDuration="0/1" interpolaterName=""  />
                </ZoomPanKeyframes>
               </ZoomPanBin>
              </Entry>
              <Entry key="CursorEffectBin">
               <CursorEffectBin id="1436"  >
                <CursorEffectKeyframes>
                </CursorEffectKeyframes>
               </CursorEffectBin>
              </Entry>
             </ExtraData>
            </ScreenVMFile>
            <MetaData>
             <entry key="AutoAppliedSmartFocus" val="False"/>
             <entry key="WinSubProjectDisplayName" val=""/>
            </MetaData>
           </UnifiedMedia>
           <UnifiedMedia id="1437"  >
            <AMFile id="1438" start="5092" duration="84" scalar="1/1" mediaStart="7828/1" mediaDuration="84/1" trackNumber="1" src="4" channelNumber="0,1" >
             <Parameters>
              <InterpolatingParam id="1439" interp="linr"  time="0/1" value="1" leadInLength="0/1"  name="volume"/>
              <Parameter id="1440"  name="captions"/>
             </Parameters>
             <Attributes>
              <Attribute id="1441" value="" name="ident"/>
              <Attribute id="1442" value="44100" name="sampleRate"/>
              <Attribute id="1443" value="16" name="bitDepth"/>
              <Attribute id="1444" value="1" name="gain"/>
              <Attribute id="1445" value="0" name="mixToMono"/>
             </Attributes>
            </AMFile>
            <ScreenVMFile id="1446" start="5092" duration="84" scalar="1/1" mediaStart="7828/1" mediaDuration="84/1" trackNumber="0" src="4" >
             <Transformer>
              <VectorParam id="1447"  name="translation">
               <InterpolatingParam id="1448" interp="linr"  time="-9999999/1" value="0" leadInLength="0/1"  />
               <InterpolatingParam id="1449" interp="linr"  time="-9999999/1" value="0" leadInLength="0/1"  />
               <InterpolatingParam id="1450" interp="linr"  time="-9999999/1" value="0" leadInLength="0/1"  />
              </VectorParam>
              <VectorParam id="1451"  name="rotation">
               <InterpolatingParam id="1452" interp="linr"  time="-9999999/1" value="0" leadInLength="0/1"  />
               <InterpolatingParam id="1453" interp="linr"  time="-9999999/1" value="0" leadInLength="0/1"  />
               <InterpolatingParam id="1454" interp="linr"  time="-9999999/1" value="0" leadInLength="0/1"  />
              </VectorParam>
              <VectorParam id="1455"  name="shear">
               <InterpolatingParam id="1456" interp="linr"  time="-9999999/1" value="0" leadInLength="0/1"  />
               <InterpolatingParam id="1457" interp="linr"  time="-9999999/1" value="0" leadInLength="0/1"  />
               <InterpolatingParam id="1458" interp="linr"  time="-9999999/1" value="0" leadInLength="0/1"  />
              </VectorParam>
              <VectorParam id="1459"  name="scale">
               <InterpolatingParam id="1460" interp="linr"  time="-9999999/1" value="1" leadInLength="0/1"  />
               <InterpolatingParam id="1461" interp="linr"  time="-9999999/1" value="1" leadInLength="0/1"  />
               <InterpolatingParam id="1462" interp="linr"  time="-9999999/1" value="1" leadInLength="0/1"  />
              </VectorParam>
              <VectorParam id="1463"  name="anchor">
               <InterpolatingParam id="1464" interp="linr"  time="0/1" value="0" leadInLength="0/1"  />
               <InterpolatingParam id="1465" interp="linr"  time="0/1" value="0" leadInLength="0/1"  />
               <InterpolatingParam id="1466" interp="linr"  time="0/1" value="0" leadInLength="0/1"  />
              </VectorParam>
             </Transformer>
             <Parameters>
              <VectorParam id="1467"  name="sourceCrop">
               <InterpolatingParam id="1468" interp="linr"  time="0/1" value="0" leadInLength="0/1"  />
               <InterpolatingParam id="1469" interp="linr"  time="0/1" value="0" leadInLength="0/1"  />
               <InterpolatingParam id="1470" interp="linr"  time="0/1" value="0" leadInLength="0/1"  />
               <InterpolatingParam id="1471" interp="linr"  time="0/1" value="0" leadInLength="0/1"  />
              </VectorParam>
              <VectorParam id="1472"  name="geometryCrop">
               <InterpolatingParam id="1473" interp="linr"  time="-9999999/1" value="0" leadInLength="0/1"  />
               <InterpolatingParam id="1474" interp="linr"  time="-9999999/1" value="0" leadInLength="0/1"  />
               <InterpolatingParam id="1475" interp="linr"  time="-9999999/1" value="0" leadInLength="0/1"  />
               <InterpolatingParam id="1476" interp="linr"  time="-9999999/1" value="0" leadInLength="0/1"  />
              </VectorParam>
              <InterpolatingParam id="1477" interp="linr"  time="-9999999/1" value="1" leadInLength="0/1"  name="opacity"/>
              <InterpolatingParam id="1478" interp="linr"  time="0/1" value="0" leadInLength="0/1"  name="cursorOpacity"/>
              <InterpolatingParam id="1479" interp="linr"  time="0/1" value="0" leadInLength="0/1"  name="cursorScale"/>
             </Parameters>
             <Attributes>
              <Attribute id="1480" value="" name="ident"/>
             </Attributes>
             <ExtraData>
              <Entry key="ZoomPanBin">
               <ZoomPanBin id="1481"  >
                <ZoomPanKeyframes>
                 <ZoomPanKeyframe id="1482" timeRangeEnd="-9999999/1" timeRangeDuration="0/1" interpolaterName=""  />
                </ZoomPanKeyframes>
               </ZoomPanBin>
              </Entry>
              <Entry key="CursorEffectBin">
               <CursorEffectBin id="1483"  >
                <CursorEffectKeyframes>
                </CursorEffectKeyframes>
               </CursorEffectBin>
              </Entry>
             </ExtraData>
            </ScreenVMFile>
            <MetaData>
             <entry key="AutoAppliedSmartFocus" val="False"/>
             <entry key="WinSubProjectDisplayName" val=""/>
            </MetaData>
           </UnifiedMedia>
           <UnifiedMedia id="1484"  >
            <AMFile id="1485" start="5176" duration="36" scalar="1/1" mediaStart="7946/1" mediaDuration="36/1" trackNumber="1" src="4" channelNumber="0,1" >
             <Parameters>
              <InterpolatingParam id="1486" interp="linr"  time="0/1" value="1" leadInLength="0/1"  name="volume"/>
              <Parameter id="1487"  name="captions"/>
             </Parameters>
             <Attributes>
              <Attribute id="1488" value="" name="ident"/>
              <Attribute id="1489" value="44100" name="sampleRate"/>
              <Attribute id="1490" value="16" name="bitDepth"/>
              <Attribute id="1491" value="1" name="gain"/>
              <Attribute id="1492" value="0" name="mixToMono"/>
             </Attributes>
            </AMFile>
            <ScreenVMFile id="1493" start="5176" duration="36" scalar="1/1" mediaStart="7946/1" mediaDuration="36/1" trackNumber="0" src="4" >
             <Transformer>
              <VectorParam id="1494"  name="translation">
               <InterpolatingParam id="1495" interp="linr"  time="-9999999/1" value="0" leadInLength="0/1"  />
               <InterpolatingParam id="1496" interp="linr"  time="-9999999/1" value="0" leadInLength="0/1"  />
               <InterpolatingParam id="1497" interp="linr"  time="-9999999/1" value="0" leadInLength="0/1"  />
              </VectorParam>
              <VectorParam id="1498"  name="rotation">
               <InterpolatingParam id="1499" interp="linr"  time="-9999999/1" value="0" leadInLength="0/1"  />
               <InterpolatingParam id="1500" interp="linr"  time="-9999999/1" value="0" leadInLength="0/1"  />
               <InterpolatingParam id="1501" interp="linr"  time="-9999999/1" value="0" leadInLength="0/1"  />
              </VectorParam>
              <VectorParam id="1502"  name="shear">
               <InterpolatingParam id="1503" interp="linr"  time="-9999999/1" value="0" leadInLength="0/1"  />
               <InterpolatingParam id="1504" interp="linr"  time="-9999999/1" value="0" leadInLength="0/1"  />
               <InterpolatingParam id="1505" interp="linr"  time="-9999999/1" value="0" leadInLength="0/1"  />
              </VectorParam>
              <VectorParam id="1506"  name="scale">
               <InterpolatingParam id="1507" interp="linr"  time="-9999999/1" value="1" leadInLength="0/1"  />
               <InterpolatingParam id="1508" interp="linr"  time="-9999999/1" value="1" leadInLength="0/1"  />
               <InterpolatingParam id="1509" interp="linr"  time="-9999999/1" value="1" leadInLength="0/1"  />
              </VectorParam>
              <VectorParam id="1510"  name="anchor">
               <InterpolatingParam id="1511" interp="linr"  time="0/1" value="0" leadInLength="0/1"  />
               <InterpolatingParam id="1512" interp="linr"  time="0/1" value="0" leadInLength="0/1"  />
               <InterpolatingParam id="1513" interp="linr"  time="0/1" value="0" leadInLength="0/1"  />
              </VectorParam>
             </Transformer>
             <Parameters>
              <VectorParam id="1514"  name="sourceCrop">
               <InterpolatingParam id="1515" interp="linr"  time="0/1" value="0" leadInLength="0/1"  />
               <InterpolatingParam id="1516" interp="linr"  time="0/1" value="0" leadInLength="0/1"  />
               <InterpolatingParam id="1517" interp="linr"  time="0/1" value="0" leadInLength="0/1"  />
               <InterpolatingParam id="1518" interp="linr"  time="0/1" value="0" leadInLength="0/1"  />
              </VectorParam>
              <VectorParam id="1519"  name="geometryCrop">
               <InterpolatingParam id="1520" interp="linr"  time="-9999999/1" value="0" leadInLength="0/1"  />
               <InterpolatingParam id="1521" interp="linr"  time="-9999999/1" value="0" leadInLength="0/1"  />
               <InterpolatingParam id="1522" interp="linr"  time="-9999999/1" value="0" leadInLength="0/1"  />
               <InterpolatingParam id="1523" interp="linr"  time="-9999999/1" value="0" leadInLength="0/1"  />
              </VectorParam>
              <InterpolatingParam id="1524" interp="linr"  time="-9999999/1" value="1" leadInLength="0/1"  name="opacity"/>
              <InterpolatingParam id="1525" interp="linr"  time="0/1" value="0" leadInLength="0/1"  name="cursorOpacity"/>
              <InterpolatingParam id="1526" interp="linr"  time="0/1" value="0" leadInLength="0/1"  name="cursorScale"/>
             </Parameters>
             <Attributes>
              <Attribute id="1527" value="" name="ident"/>
             </Attributes>
             <ExtraData>
              <Entry key="ZoomPanBin">
               <ZoomPanBin id="1528"  >
                <ZoomPanKeyframes>
                 <ZoomPanKeyframe id="1529" timeRangeEnd="-9999999/1" timeRangeDuration="0/1" interpolaterName=""  />
                </ZoomPanKeyframes>
               </ZoomPanBin>
              </Entry>
              <Entry key="CursorEffectBin">
               <CursorEffectBin id="1530"  >
                <CursorEffectKeyframes>
                </CursorEffectKeyframes>
               </CursorEffectBin>
              </Entry>
             </ExtraData>
            </ScreenVMFile>
            <MetaData>
             <entry key="AutoAppliedSmartFocus" val="False"/>
             <entry key="WinSubProjectDisplayName" val=""/>
            </MetaData>
           </UnifiedMedia>
           <UnifiedMedia id="1531"  >
            <AMFile id="1532" start="5212" duration="74" scalar="1/1" mediaStart="8033/1" mediaDuration="74/1" trackNumber="1" src="4" channelNumber="0,1" >
             <Parameters>
              <InterpolatingParam id="1533" interp="linr"  time="0/1" value="1" leadInLength="0/1"  name="volume"/>
              <Parameter id="1534"  name="captions"/>
             </Parameters>
             <Attributes>
              <Attribute id="1535" value="" name="ident"/>
              <Attribute id="1536" value="44100" name="sampleRate"/>
              <Attribute id="1537" value="16" name="bitDepth"/>
              <Attribute id="1538" value="1" name="gain"/>
              <Attribute id="1539" value="0" name="mixToMono"/>
             </Attributes>
            </AMFile>
            <ScreenVMFile id="1540" start="5212" duration="74" scalar="1/1" mediaStart="8033/1" mediaDuration="74/1" trackNumber="0" src="4" >
             <Transformer>
              <VectorParam id="1541"  name="translation">
               <InterpolatingParam id="1542" interp="linr"  time="-9999999/1" value="0" leadInLength="0/1"  />
               <InterpolatingParam id="1543" interp="linr"  time="-9999999/1" value="0" leadInLength="0/1"  />
               <InterpolatingParam id="1544" interp="linr"  time="-9999999/1" value="0" leadInLength="0/1"  />
              </VectorParam>
              <VectorParam id="1545"  name="rotation">
               <InterpolatingParam id="1546" interp="linr"  time="-9999999/1" value="0" leadInLength="0/1"  />
               <InterpolatingParam id="1547" interp="linr"  time="-9999999/1" value="0" leadInLength="0/1"  />
               <InterpolatingParam id="1548" interp="linr"  time="-9999999/1" value="0" leadInLength="0/1"  />
              </VectorParam>
              <VectorParam id="1549"  name="shear">
               <InterpolatingParam id="1550" interp="linr"  time="-9999999/1" value="0" leadInLength="0/1"  />
               <InterpolatingParam id="1551" interp="linr"  time="-9999999/1" value="0" leadInLength="0/1"  />
               <InterpolatingParam id="1552" interp="linr"  time="-9999999/1" value="0" leadInLength="0/1"  />
              </VectorParam>
              <VectorParam id="1553"  name="scale">
               <InterpolatingParam id="1554" interp="linr"  time="-9999999/1" value="1" leadInLength="0/1"  />
               <InterpolatingParam id="1555" interp="linr"  time="-9999999/1" value="1" leadInLength="0/1"  />
               <InterpolatingParam id="1556" interp="linr"  time="-9999999/1" value="1" leadInLength="0/1"  />
              </VectorParam>
              <VectorParam id="1557"  name="anchor">
               <InterpolatingParam id="1558" interp="linr"  time="0/1" value="0" leadInLength="0/1"  />
               <InterpolatingParam id="1559" interp="linr"  time="0/1" value="0" leadInLength="0/1"  />
               <InterpolatingParam id="1560" interp="linr"  time="0/1" value="0" leadInLength="0/1"  />
              </VectorParam>
             </Transformer>
             <Parameters>
              <VectorParam id="1561"  name="sourceCrop">
               <InterpolatingParam id="1562" interp="linr"  time="0/1" value="0" leadInLength="0/1"  />
               <InterpolatingParam id="1563" interp="linr"  time="0/1" value="0" leadInLength="0/1"  />
               <InterpolatingParam id="1564" interp="linr"  time="0/1" value="0" leadInLength="0/1"  />
               <InterpolatingParam id="1565" interp="linr"  time="0/1" value="0" leadInLength="0/1"  />
              </VectorParam>
              <VectorParam id="1566"  name="geometryCrop">
               <InterpolatingParam id="1567" interp="linr"  time="-9999999/1" value="0" leadInLength="0/1"  />
               <InterpolatingParam id="1568" interp="linr"  time="-9999999/1" value="0" leadInLength="0/1"  />
               <InterpolatingParam id="1569" interp="linr"  time="-9999999/1" value="0" leadInLength="0/1"  />
               <InterpolatingParam id="1570" interp="linr"  time="-9999999/1" value="0" leadInLength="0/1"  />
              </VectorParam>
              <InterpolatingParam id="1571" interp="linr"  time="-9999999/1" value="1" leadInLength="0/1"  name="opacity"/>
              <InterpolatingParam id="1572" interp="linr"  time="0/1" value="0" leadInLength="0/1"  name="cursorOpacity"/>
              <InterpolatingParam id="1573" interp="linr"  time="0/1" value="0" leadInLength="0/1"  name="cursorScale"/>
             </Parameters>
             <Attributes>
              <Attribute id="1574" value="" name="ident"/>
             </Attributes>
             <ExtraData>
              <Entry key="ZoomPanBin">
               <ZoomPanBin id="1575"  >
                <ZoomPanKeyframes>
                 <ZoomPanKeyframe id="1576" timeRangeEnd="-9999999/1" timeRangeDuration="0/1" interpolaterName=""  />
                </ZoomPanKeyframes>
               </ZoomPanBin>
              </Entry>
              <Entry key="CursorEffectBin">
               <CursorEffectBin id="1577"  >
                <CursorEffectKeyframes>
                </CursorEffectKeyframes>
               </CursorEffectBin>
              </Entry>
             </ExtraData>
            </ScreenVMFile>
            <MetaData>
             <entry key="AutoAppliedSmartFocus" val="False"/>
             <entry key="WinSubProjectDisplayName" val=""/>
            </MetaData>
           </UnifiedMedia>
           <UnifiedMedia id="1578"  >
            <AMFile id="1579" start="5286" duration="81" scalar="1/1" mediaStart="8119/1" mediaDuration="81/1" trackNumber="1" src="4" channelNumber="0,1" >
             <Parameters>
              <InterpolatingParam id="1580" interp="linr"  time="0/1" value="1" leadInLength="0/1"  name="volume"/>
              <Parameter id="1581"  name="captions"/>
             </Parameters>
             <Attributes>
              <Attribute id="1582" value="" name="ident"/>
              <Attribute id="1583" value="44100" name="sampleRate"/>
              <Attribute id="1584" value="16" name="bitDepth"/>
              <Attribute id="1585" value="1" name="gain"/>
              <Attribute id="1586" value="0" name="mixToMono"/>
             </Attributes>
            </AMFile>
            <ScreenVMFile id="1587" start="5286" duration="81" scalar="1/1" mediaStart="8119/1" mediaDuration="81/1" trackNumber="0" src="4" >
             <Transformer>
              <VectorParam id="1588"  name="translation">
               <InterpolatingParam id="1589" interp="linr"  time="-9999999/1" value="0" leadInLength="0/1"  />
               <InterpolatingParam id="1590" interp="linr"  time="-9999999/1" value="0" leadInLength="0/1"  />
               <InterpolatingParam id="1591" interp="linr"  time="-9999999/1" value="0" leadInLength="0/1"  />
              </VectorParam>
              <VectorParam id="1592"  name="rotation">
               <InterpolatingParam id="1593" interp="linr"  time="-9999999/1" value="0" leadInLength="0/1"  />
               <InterpolatingParam id="1594" interp="linr"  time="-9999999/1" value="0" leadInLength="0/1"  />
               <InterpolatingParam id="1595" interp="linr"  time="-9999999/1" value="0" leadInLength="0/1"  />
              </VectorParam>
              <VectorParam id="1596"  name="shear">
               <InterpolatingParam id="1597" interp="linr"  time="-9999999/1" value="0" leadInLength="0/1"  />
               <InterpolatingParam id="1598" interp="linr"  time="-9999999/1" value="0" leadInLength="0/1"  />
               <InterpolatingParam id="1599" interp="linr"  time="-9999999/1" value="0" leadInLength="0/1"  />
              </VectorParam>
              <VectorParam id="1600"  name="scale">
               <InterpolatingParam id="1601" interp="linr"  time="-9999999/1" value="1" leadInLength="0/1"  />
               <InterpolatingParam id="1602" interp="linr"  time="-9999999/1" value="1" leadInLength="0/1"  />
               <InterpolatingParam id="1603" interp="linr"  time="-9999999/1" value="1" leadInLength="0/1"  />
              </VectorParam>
              <VectorParam id="1604"  name="anchor">
               <InterpolatingParam id="1605" interp="linr"  time="0/1" value="0" leadInLength="0/1"  />
               <InterpolatingParam id="1606" interp="linr"  time="0/1" value="0" leadInLength="0/1"  />
               <InterpolatingParam id="1607" interp="linr"  time="0/1" value="0" leadInLength="0/1"  />
              </VectorParam>
             </Transformer>
             <Parameters>
              <VectorParam id="1608"  name="sourceCrop">
               <InterpolatingParam id="1609" interp="linr"  time="0/1" value="0" leadInLength="0/1"  />
               <InterpolatingParam id="1610" interp="linr"  time="0/1" value="0" leadInLength="0/1"  />
               <InterpolatingParam id="1611" interp="linr"  time="0/1" value="0" leadInLength="0/1"  />
               <InterpolatingParam id="1612" interp="linr"  time="0/1" value="0" leadInLength="0/1"  />
              </VectorParam>
              <VectorParam id="1613"  name="geometryCrop">
               <InterpolatingParam id="1614" interp="linr"  time="-9999999/1" value="0" leadInLength="0/1"  />
               <InterpolatingParam id="1615" interp="linr"  time="-9999999/1" value="0" leadInLength="0/1"  />
               <InterpolatingParam id="1616" interp="linr"  time="-9999999/1" value="0" leadInLength="0/1"  />
               <InterpolatingParam id="1617" interp="linr"  time="-9999999/1" value="0" leadInLength="0/1"  />
              </VectorParam>
              <InterpolatingParam id="1618" interp="linr"  time="-9999999/1" value="1" leadInLength="0/1"  name="opacity"/>
              <InterpolatingParam id="1619" interp="linr"  time="0/1" value="0" leadInLength="0/1"  name="cursorOpacity"/>
              <InterpolatingParam id="1620" interp="linr"  time="0/1" value="0" leadInLength="0/1"  name="cursorScale"/>
             </Parameters>
             <Attributes>
              <Attribute id="1621" value="" name="ident"/>
             </Attributes>
             <ExtraData>
              <Entry key="ZoomPanBin">
               <ZoomPanBin id="1622"  >
                <ZoomPanKeyframes>
                 <ZoomPanKeyframe id="1623" timeRangeEnd="-9999999/1" timeRangeDuration="0/1" interpolaterName=""  />
                </ZoomPanKeyframes>
               </ZoomPanBin>
              </Entry>
              <Entry key="CursorEffectBin">
               <CursorEffectBin id="1624"  >
                <CursorEffectKeyframes>
                </CursorEffectKeyframes>
               </CursorEffectBin>
              </Entry>
             </ExtraData>
            </ScreenVMFile>
            <MetaData>
             <entry key="AutoAppliedSmartFocus" val="False"/>
             <entry key="WinSubProjectDisplayName" val=""/>
            </MetaData>
           </UnifiedMedia>
           <UnifiedMedia id="1625"  >
            <AMFile id="1626" start="5367" duration="379" scalar="1/1" mediaStart="8430/1" mediaDuration="379/1" trackNumber="1" src="4" channelNumber="0,1" >
             <Parameters>
              <InterpolatingParam id="1627" interp="linr"  time="0/1" value="1" leadInLength="0/1"  name="volume"/>
              <Parameter id="1628"  name="captions"/>
             </Parameters>
             <Attributes>
              <Attribute id="1629" value="" name="ident"/>
              <Attribute id="1630" value="44100" name="sampleRate"/>
              <Attribute id="1631" value="16" name="bitDepth"/>
              <Attribute id="1632" value="1" name="gain"/>
              <Attribute id="1633" value="0" name="mixToMono"/>
             </Attributes>
            </AMFile>
            <ScreenVMFile id="1634" start="5367" duration="379" scalar="1/1" mediaStart="8430/1" mediaDuration="379/1" trackNumber="0" src="4" >
             <Transformer>
              <VectorParam id="1635"  name="translation">
               <InterpolatingParam id="1636" interp="linr"  time="-9999999/1" value="0" leadInLength="0/1"  />
               <InterpolatingParam id="1637" interp="linr"  time="-9999999/1" value="0" leadInLength="0/1"  />
               <InterpolatingParam id="1638" interp="linr"  time="-9999999/1" value="0" leadInLength="0/1"  />
              </VectorParam>
              <VectorParam id="1639"  name="rotation">
               <InterpolatingParam id="1640" interp="linr"  time="-9999999/1" value="0" leadInLength="0/1"  />
               <InterpolatingParam id="1641" interp="linr"  time="-9999999/1" value="0" leadInLength="0/1"  />
               <InterpolatingParam id="1642" interp="linr"  time="-9999999/1" value="0" leadInLength="0/1"  />
              </VectorParam>
              <VectorParam id="1643"  name="shear">
               <InterpolatingParam id="1644" interp="linr"  time="-9999999/1" value="0" leadInLength="0/1"  />
               <InterpolatingParam id="1645" interp="linr"  time="-9999999/1" value="0" leadInLength="0/1"  />
               <InterpolatingParam id="1646" interp="linr"  time="-9999999/1" value="0" leadInLength="0/1"  />
              </VectorParam>
              <VectorParam id="1647"  name="scale">
               <InterpolatingParam id="1648" interp="linr"  time="-9999999/1" value="1" leadInLength="0/1"  />
               <InterpolatingParam id="1649" interp="linr"  time="-9999999/1" value="1" leadInLength="0/1"  />
               <InterpolatingParam id="1650" interp="linr"  time="-9999999/1" value="1" leadInLength="0/1"  />
              </VectorParam>
              <VectorParam id="1651"  name="anchor">
               <InterpolatingParam id="1652" interp="linr"  time="0/1" value="0" leadInLength="0/1"  />
               <InterpolatingParam id="1653" interp="linr"  time="0/1" value="0" leadInLength="0/1"  />
               <InterpolatingParam id="1654" interp="linr"  time="0/1" value="0" leadInLength="0/1"  />
              </VectorParam>
             </Transformer>
             <Parameters>
              <VectorParam id="1655"  name="sourceCrop">
               <InterpolatingParam id="1656" interp="linr"  time="0/1" value="0" leadInLength="0/1"  />
               <InterpolatingParam id="1657" interp="linr"  time="0/1" value="0" leadInLength="0/1"  />
               <InterpolatingParam id="1658" interp="linr"  time="0/1" value="0" leadInLength="0/1"  />
               <InterpolatingParam id="1659" interp="linr"  time="0/1" value="0" leadInLength="0/1"  />
              </VectorParam>
              <VectorParam id="1660"  name="geometryCrop">
               <InterpolatingParam id="1661" interp="linr"  time="-9999999/1" value="0" leadInLength="0/1"  />
               <InterpolatingParam id="1662" interp="linr"  time="-9999999/1" value="0" leadInLength="0/1"  />
               <InterpolatingParam id="1663" interp="linr"  time="-9999999/1" value="0" leadInLength="0/1"  />
               <InterpolatingParam id="1664" interp="linr"  time="-9999999/1" value="0" leadInLength="0/1"  />
              </VectorParam>
              <InterpolatingParam id="1665" interp="linr"  time="-9999999/1" value="1" leadInLength="0/1"  name="opacity"/>
              <InterpolatingParam id="1666" interp="linr"  time="0/1" value="0" leadInLength="0/1"  name="cursorOpacity"/>
              <InterpolatingParam id="1667" interp="linr"  time="0/1" value="0" leadInLength="0/1"  name="cursorScale"/>
             </Parameters>
             <Attributes>
              <Attribute id="1668" value="" name="ident"/>
             </Attributes>
             <ExtraData>
              <Entry key="ZoomPanBin">
               <ZoomPanBin id="1669"  >
                <ZoomPanKeyframes>
                 <ZoomPanKeyframe id="1670" timeRangeEnd="-9999999/1" timeRangeDuration="0/1" interpolaterName=""  />
                </ZoomPanKeyframes>
               </ZoomPanBin>
              </Entry>
              <Entry key="CursorEffectBin">
               <CursorEffectBin id="1671"  >
                <CursorEffectKeyframes>
                </CursorEffectKeyframes>
               </CursorEffectBin>
              </Entry>
             </ExtraData>
            </ScreenVMFile>
            <MetaData>
             <entry key="AutoAppliedSmartFocus" val="False"/>
             <entry key="WinSubProjectDisplayName" val=""/>
            </MetaData>
           </UnifiedMedia>
           <UnifiedMedia id="1672"  >
            <AMFile id="1673" start="5746" duration="90" scalar="1/1" mediaStart="9085/1" mediaDuration="90/1" trackNumber="1" src="4" channelNumber="0,1" >
             <Parameters>
              <InterpolatingParam id="1674" interp="linr"  time="0/1" value="1" leadInLength="0/1"  name="volume"/>
              <Parameter id="1675"  name="captions"/>
             </Parameters>
             <Attributes>
              <Attribute id="1676" value="" name="ident"/>
              <Attribute id="1677" value="44100" name="sampleRate"/>
              <Attribute id="1678" value="16" name="bitDepth"/>
              <Attribute id="1679" value="1" name="gain"/>
              <Attribute id="1680" value="0" name="mixToMono"/>
             </Attributes>
            </AMFile>
            <ScreenVMFile id="1681" start="5746" duration="90" scalar="1/1" mediaStart="9085/1" mediaDuration="90/1" trackNumber="0" src="4" >
             <Transformer>
              <VectorParam id="1682"  name="translation">
               <InterpolatingParam id="1683" interp="linr"  time="-9999999/1" value="0" leadInLength="0/1"  />
               <InterpolatingParam id="1684" interp="linr"  time="-9999999/1" value="0" leadInLength="0/1"  />
               <InterpolatingParam id="1685" interp="linr"  time="-9999999/1" value="0" leadInLength="0/1"  />
              </VectorParam>
              <VectorParam id="1686"  name="rotation">
               <InterpolatingParam id="1687" interp="linr"  time="-9999999/1" value="0" leadInLength="0/1"  />
               <InterpolatingParam id="1688" interp="linr"  time="-9999999/1" value="0" leadInLength="0/1"  />
               <InterpolatingParam id="1689" interp="linr"  time="-9999999/1" value="0" leadInLength="0/1"  />
              </VectorParam>
              <VectorParam id="1690"  name="shear">
               <InterpolatingParam id="1691" interp="linr"  time="-9999999/1" value="0" leadInLength="0/1"  />
               <InterpolatingParam id="1692" interp="linr"  time="-9999999/1" value="0" leadInLength="0/1"  />
               <InterpolatingParam id="1693" interp="linr"  time="-9999999/1" value="0" leadInLength="0/1"  />
              </VectorParam>
              <VectorParam id="1694"  name="scale">
               <InterpolatingParam id="1695" interp="linr"  time="-9999999/1" value="1" leadInLength="0/1"  />
               <InterpolatingParam id="1696" interp="linr"  time="-9999999/1" value="1" leadInLength="0/1"  />
               <InterpolatingParam id="1697" interp="linr"  time="-9999999/1" value="1" leadInLength="0/1"  />
              </VectorParam>
              <VectorParam id="1698"  name="anchor">
               <InterpolatingParam id="1699" interp="linr"  time="0/1" value="0" leadInLength="0/1"  />
               <InterpolatingParam id="1700" interp="linr"  time="0/1" value="0" leadInLength="0/1"  />
               <InterpolatingParam id="1701" interp="linr"  time="0/1" value="0" leadInLength="0/1"  />
              </VectorParam>
             </Transformer>
             <Parameters>
              <VectorParam id="1702"  name="sourceCrop">
               <InterpolatingParam id="1703" interp="linr"  time="0/1" value="0" leadInLength="0/1"  />
               <InterpolatingParam id="1704" interp="linr"  time="0/1" value="0" leadInLength="0/1"  />
               <InterpolatingParam id="1705" interp="linr"  time="0/1" value="0" leadInLength="0/1"  />
               <InterpolatingParam id="1706" interp="linr"  time="0/1" value="0" leadInLength="0/1"  />
              </VectorParam>
              <VectorParam id="1707"  name="geometryCrop">
               <InterpolatingParam id="1708" interp="linr"  time="-9999999/1" value="0" leadInLength="0/1"  />
               <InterpolatingParam id="1709" interp="linr"  time="-9999999/1" value="0" leadInLength="0/1"  />
               <InterpolatingParam id="1710" interp="linr"  time="-9999999/1" value="0" leadInLength="0/1"  />
               <InterpolatingParam id="1711" interp="linr"  time="-9999999/1" value="0" leadInLength="0/1"  />
              </VectorParam>
              <InterpolatingParam id="1712" interp="linr"  time="-9999999/1" value="1" leadInLength="0/1"  name="opacity"/>
              <InterpolatingParam id="1713" interp="linr"  time="0/1" value="0" leadInLength="0/1"  name="cursorOpacity"/>
              <InterpolatingParam id="1714" interp="linr"  time="0/1" value="0" leadInLength="0/1"  name="cursorScale"/>
             </Parameters>
             <Attributes>
              <Attribute id="1715" value="" name="ident"/>
             </Attributes>
             <ExtraData>
              <Entry key="ZoomPanBin">
               <ZoomPanBin id="1716"  >
                <ZoomPanKeyframes>
                 <ZoomPanKeyframe id="1717" timeRangeEnd="-9999999/1" timeRangeDuration="0/1" interpolaterName=""  />
                </ZoomPanKeyframes>
               </ZoomPanBin>
              </Entry>
              <Entry key="CursorEffectBin">
               <CursorEffectBin id="1718"  >
                <CursorEffectKeyframes>
                </CursorEffectKeyframes>
               </CursorEffectBin>
              </Entry>
             </ExtraData>
            </ScreenVMFile>
            <MetaData>
             <entry key="AutoAppliedSmartFocus" val="False"/>
             <entry key="WinSubProjectDisplayName" val=""/>
            </MetaData>
           </UnifiedMedia>
           <UnifiedMedia id="1719"  >
            <AMFile id="1720" start="5836" duration="322" scalar="1/1" mediaStart="9425/1" mediaDuration="322/1" trackNumber="1" src="4" channelNumber="0,1" >
             <Parameters>
              <InterpolatingParam id="1721" interp="linr"  time="0/1" value="1" leadInLength="0/1"  name="volume"/>
              <Parameter id="1722"  name="captions"/>
             </Parameters>
             <Attributes>
              <Attribute id="1723" value="" name="ident"/>
              <Attribute id="1724" value="44100" name="sampleRate"/>
              <Attribute id="1725" value="16" name="bitDepth"/>
              <Attribute id="1726" value="1" name="gain"/>
              <Attribute id="1727" value="0" name="mixToMono"/>
             </Attributes>
            </AMFile>
            <ScreenVMFile id="1728" start="5836" duration="322" scalar="1/1" mediaStart="9425/1" mediaDuration="322/1" trackNumber="0" src="4" >
             <Transformer>
              <VectorParam id="1729"  name="translation">
               <InterpolatingParam id="1730" interp="linr"  time="-9999999/1" value="0" leadInLength="0/1"  />
               <InterpolatingParam id="1731" interp="linr"  time="-9999999/1" value="0" leadInLength="0/1"  />
               <InterpolatingParam id="1732" interp="linr"  time="-9999999/1" value="0" leadInLength="0/1"  />
              </VectorParam>
              <VectorParam id="1733"  name="rotation">
               <InterpolatingParam id="1734" interp="linr"  time="-9999999/1" value="0" leadInLength="0/1"  />
               <InterpolatingParam id="1735" interp="linr"  time="-9999999/1" value="0" leadInLength="0/1"  />
               <InterpolatingParam id="1736" interp="linr"  time="-9999999/1" value="0" leadInLength="0/1"  />
              </VectorParam>
              <VectorParam id="1737"  name="shear">
               <InterpolatingParam id="1738" interp="linr"  time="-9999999/1" value="0" leadInLength="0/1"  />
               <InterpolatingParam id="1739" interp="linr"  time="-9999999/1" value="0" leadInLength="0/1"  />
               <InterpolatingParam id="1740" interp="linr"  time="-9999999/1" value="0" leadInLength="0/1"  />
              </VectorParam>
              <VectorParam id="1741"  name="scale">
               <InterpolatingParam id="1742" interp="linr"  time="-9999999/1" value="1" leadInLength="0/1"  />
               <InterpolatingParam id="1743" interp="linr"  time="-9999999/1" value="1" leadInLength="0/1"  />
               <InterpolatingParam id="1744" interp="linr"  time="-9999999/1" value="1" leadInLength="0/1"  />
              </VectorParam>
              <VectorParam id="1745"  name="anchor">
               <InterpolatingParam id="1746" interp="linr"  time="0/1" value="0" leadInLength="0/1"  />
               <InterpolatingParam id="1747" interp="linr"  time="0/1" value="0" leadInLength="0/1"  />
               <InterpolatingParam id="1748" interp="linr"  time="0/1" value="0" leadInLength="0/1"  />
              </VectorParam>
             </Transformer>
             <Parameters>
              <VectorParam id="1749"  name="sourceCrop">
               <InterpolatingParam id="1750" interp="linr"  time="0/1" value="0" leadInLength="0/1"  />
               <InterpolatingParam id="1751" interp="linr"  time="0/1" value="0" leadInLength="0/1"  />
               <InterpolatingParam id="1752" interp="linr"  time="0/1" value="0" leadInLength="0/1"  />
               <InterpolatingParam id="1753" interp="linr"  time="0/1" value="0" leadInLength="0/1"  />
              </VectorParam>
              <VectorParam id="1754"  name="geometryCrop">
               <InterpolatingParam id="1755" interp="linr"  time="-9999999/1" value="0" leadInLength="0/1"  />
               <InterpolatingParam id="1756" interp="linr"  time="-9999999/1" value="0" leadInLength="0/1"  />
               <InterpolatingParam id="1757" interp="linr"  time="-9999999/1" value="0" leadInLength="0/1"  />
               <InterpolatingParam id="1758" interp="linr"  time="-9999999/1" value="0" leadInLength="0/1"  />
              </VectorParam>
              <InterpolatingParam id="1759" interp="linr"  time="-9999999/1" value="1" leadInLength="0/1"  name="opacity"/>
              <InterpolatingParam id="1760" interp="linr"  time="0/1" value="0" leadInLength="0/1"  name="cursorOpacity"/>
              <InterpolatingParam id="1761" interp="linr"  time="0/1" value="0" leadInLength="0/1"  name="cursorScale"/>
             </Parameters>
             <Attributes>
              <Attribute id="1762" value="" name="ident"/>
             </Attributes>
             <ExtraData>
              <Entry key="ZoomPanBin">
               <ZoomPanBin id="1763"  >
                <ZoomPanKeyframes>
                 <ZoomPanKeyframe id="1764" timeRangeEnd="-9999999/1" timeRangeDuration="0/1" interpolaterName=""  />
                </ZoomPanKeyframes>
               </ZoomPanBin>
              </Entry>
              <Entry key="CursorEffectBin">
               <CursorEffectBin id="1765"  >
                <CursorEffectKeyframes>
                </CursorEffectKeyframes>
               </CursorEffectBin>
              </Entry>
             </ExtraData>
            </ScreenVMFile>
            <MetaData>
             <entry key="AutoAppliedSmartFocus" val="False"/>
             <entry key="WinSubProjectDisplayName" val=""/>
            </MetaData>
           </UnifiedMedia>
           <UnifiedMedia id="1766"  >
            <AMFile id="1767" start="6158" duration="670" scalar="1/1" mediaStart="9866/1" mediaDuration="670/1" trackNumber="1" src="4" channelNumber="0,1" >
             <Parameters>
              <InterpolatingParam id="1768" interp="linr"  time="0/1" value="1" leadInLength="0/1"  name="volume"/>
              <Parameter id="1769"  name="captions"/>
             </Parameters>
             <Attributes>
              <Attribute id="1770" value="" name="ident"/>
              <Attribute id="1771" value="44100" name="sampleRate"/>
              <Attribute id="1772" value="16" name="bitDepth"/>
              <Attribute id="1773" value="1" name="gain"/>
              <Attribute id="1774" value="0" name="mixToMono"/>
             </Attributes>
            </AMFile>
            <ScreenVMFile id="1775" start="6158" duration="670" scalar="1/1" mediaStart="9866/1" mediaDuration="670/1" trackNumber="0" src="4" >
             <Transformer>
              <VectorParam id="1776"  name="translation">
               <InterpolatingParam id="1777" interp="linr"  time="-9999999/1" value="0" leadInLength="0/1"  />
               <InterpolatingParam id="1778" interp="linr"  time="-9999999/1" value="0" leadInLength="0/1"  />
               <InterpolatingParam id="1779" interp="linr"  time="-9999999/1" value="0" leadInLength="0/1"  />
              </VectorParam>
              <VectorParam id="1780"  name="rotation">
               <InterpolatingParam id="1781" interp="linr"  time="-9999999/1" value="0" leadInLength="0/1"  />
               <InterpolatingParam id="1782" interp="linr"  time="-9999999/1" value="0" leadInLength="0/1"  />
               <InterpolatingParam id="1783" interp="linr"  time="-9999999/1" value="0" leadInLength="0/1"  />
              </VectorParam>
              <VectorParam id="1784"  name="shear">
               <InterpolatingParam id="1785" interp="linr"  time="-9999999/1" value="0" leadInLength="0/1"  />
               <InterpolatingParam id="1786" interp="linr"  time="-9999999/1" value="0" leadInLength="0/1"  />
               <InterpolatingParam id="1787" interp="linr"  time="-9999999/1" value="0" leadInLength="0/1"  />
              </VectorParam>
              <VectorParam id="1788"  name="scale">
               <InterpolatingParam id="1789" interp="linr"  time="-9999999/1" value="1" leadInLength="0/1"  />
               <InterpolatingParam id="1790" interp="linr"  time="-9999999/1" value="1" leadInLength="0/1"  />
               <InterpolatingParam id="1791" interp="linr"  time="-9999999/1" value="1" leadInLength="0/1"  />
              </VectorParam>
              <VectorParam id="1792"  name="anchor">
               <InterpolatingParam id="1793" interp="linr"  time="0/1" value="0" leadInLength="0/1"  />
               <InterpolatingParam id="1794" interp="linr"  time="0/1" value="0" leadInLength="0/1"  />
               <InterpolatingParam id="1795" interp="linr"  time="0/1" value="0" leadInLength="0/1"  />
              </VectorParam>
             </Transformer>
             <Parameters>
              <VectorParam id="1796"  name="sourceCrop">
               <InterpolatingParam id="1797" interp="linr"  time="0/1" value="0" leadInLength="0/1"  />
               <InterpolatingParam id="1798" interp="linr"  time="0/1" value="0" leadInLength="0/1"  />
               <InterpolatingParam id="1799" interp="linr"  time="0/1" value="0" leadInLength="0/1"  />
               <InterpolatingParam id="1800" interp="linr"  time="0/1" value="0" leadInLength="0/1"  />
              </VectorParam>
              <VectorParam id="1801"  name="geometryCrop">
               <InterpolatingParam id="1802" interp="linr"  time="-9999999/1" value="0" leadInLength="0/1"  />
               <InterpolatingParam id="1803" interp="linr"  time="-9999999/1" value="0" leadInLength="0/1"  />
               <InterpolatingParam id="1804" interp="linr"  time="-9999999/1" value="0" leadInLength="0/1"  />
               <InterpolatingParam id="1805" interp="linr"  time="-9999999/1" value="0" leadInLength="0/1"  />
              </VectorParam>
              <InterpolatingParam id="1806" interp="linr"  time="-9999999/1" value="1" leadInLength="0/1"  name="opacity"/>
              <InterpolatingParam id="1807" interp="linr"  time="0/1" value="0" leadInLength="0/1"  name="cursorOpacity"/>
              <InterpolatingParam id="1808" interp="linr"  time="0/1" value="0" leadInLength="0/1"  name="cursorScale"/>
             </Parameters>
             <Attributes>
              <Attribute id="1809" value="" name="ident"/>
             </Attributes>
             <ExtraData>
              <Entry key="ZoomPanBin">
               <ZoomPanBin id="1810"  >
                <ZoomPanKeyframes>
                 <ZoomPanKeyframe id="1811" timeRangeEnd="-9999999/1" timeRangeDuration="0/1" interpolaterName=""  />
                </ZoomPanKeyframes>
               </ZoomPanBin>
              </Entry>
              <Entry key="CursorEffectBin">
               <CursorEffectBin id="1812"  >
                <CursorEffectKeyframes>
                </CursorEffectKeyframes>
               </CursorEffectBin>
              </Entry>
             </ExtraData>
            </ScreenVMFile>
            <MetaData>
             <entry key="AutoAppliedSmartFocus" val="False"/>
             <entry key="WinSubProjectDisplayName" val=""/>
            </MetaData>
           </UnifiedMedia>
           <UnifiedMedia id="1813"  >
            <AMFile id="1814" start="6828" duration="60" scalar="1/1" mediaStart="10753/1" mediaDuration="60/1" trackNumber="1" src="4" channelNumber="0,1" >
             <Parameters>
              <InterpolatingParam id="1815" interp="linr"  time="0/1" value="1" leadInLength="0/1"  name="volume"/>
              <Parameter id="1816"  name="captions"/>
             </Parameters>
             <Attributes>
              <Attribute id="1817" value="" name="ident"/>
              <Attribute id="1818" value="44100" name="sampleRate"/>
              <Attribute id="1819" value="16" name="bitDepth"/>
              <Attribute id="1820" value="1" name="gain"/>
              <Attribute id="1821" value="0" name="mixToMono"/>
             </Attributes>
            </AMFile>
            <ScreenVMFile id="1822" start="6828" duration="60" scalar="1/1" mediaStart="10753/1" mediaDuration="60/1" trackNumber="0" src="4" >
             <Transformer>
              <VectorParam id="1823"  name="translation">
               <InterpolatingParam id="1824" interp="linr"  time="-9999999/1" value="0" leadInLength="0/1"  />
               <InterpolatingParam id="1825" interp="linr"  time="-9999999/1" value="0" leadInLength="0/1"  />
               <InterpolatingParam id="1826" interp="linr"  time="-9999999/1" value="0" leadInLength="0/1"  />
              </VectorParam>
              <VectorParam id="1827"  name="rotation">
               <InterpolatingParam id="1828" interp="linr"  time="-9999999/1" value="0" leadInLength="0/1"  />
               <InterpolatingParam id="1829" interp="linr"  time="-9999999/1" value="0" leadInLength="0/1"  />
               <InterpolatingParam id="1830" interp="linr"  time="-9999999/1" value="0" leadInLength="0/1"  />
              </VectorParam>
              <VectorParam id="1831"  name="shear">
               <InterpolatingParam id="1832" interp="linr"  time="-9999999/1" value="0" leadInLength="0/1"  />
               <InterpolatingParam id="1833" interp="linr"  time="-9999999/1" value="0" leadInLength="0/1"  />
               <InterpolatingParam id="1834" interp="linr"  time="-9999999/1" value="0" leadInLength="0/1"  />
              </VectorParam>
              <VectorParam id="1835"  name="scale">
               <InterpolatingParam id="1836" interp="linr"  time="-9999999/1" value="1" leadInLength="0/1"  />
               <InterpolatingParam id="1837" interp="linr"  time="-9999999/1" value="1" leadInLength="0/1"  />
               <InterpolatingParam id="1838" interp="linr"  time="-9999999/1" value="1" leadInLength="0/1"  />
              </VectorParam>
              <VectorParam id="1839"  name="anchor">
               <InterpolatingParam id="1840" interp="linr"  time="0/1" value="0" leadInLength="0/1"  />
               <InterpolatingParam id="1841" interp="linr"  time="0/1" value="0" leadInLength="0/1"  />
               <InterpolatingParam id="1842" interp="linr"  time="0/1" value="0" leadInLength="0/1"  />
              </VectorParam>
             </Transformer>
             <Parameters>
              <VectorParam id="1843"  name="sourceCrop">
               <InterpolatingParam id="1844" interp="linr"  time="0/1" value="0" leadInLength="0/1"  />
               <InterpolatingParam id="1845" interp="linr"  time="0/1" value="0" leadInLength="0/1"  />
               <InterpolatingParam id="1846" interp="linr"  time="0/1" value="0" leadInLength="0/1"  />
               <InterpolatingParam id="1847" interp="linr"  time="0/1" value="0" leadInLength="0/1"  />
              </VectorParam>
              <VectorParam id="1848"  name="geometryCrop">
               <InterpolatingParam id="1849" interp="linr"  time="-9999999/1" value="0" leadInLength="0/1"  />
               <InterpolatingParam id="1850" interp="linr"  time="-9999999/1" value="0" leadInLength="0/1"  />
               <InterpolatingParam id="1851" interp="linr"  time="-9999999/1" value="0" leadInLength="0/1"  />
               <InterpolatingParam id="1852" interp="linr"  time="-9999999/1" value="0" leadInLength="0/1"  />
              </VectorParam>
              <InterpolatingParam id="1853" interp="linr"  time="-9999999/1" value="1" leadInLength="0/1"  name="opacity"/>
              <InterpolatingParam id="1854" interp="linr"  time="0/1" value="0" leadInLength="0/1"  name="cursorOpacity"/>
              <InterpolatingParam id="1855" interp="linr"  time="0/1" value="0" leadInLength="0/1"  name="cursorScale"/>
             </Parameters>
             <Attributes>
              <Attribute id="1856" value="" name="ident"/>
             </Attributes>
             <ExtraData>
              <Entry key="ZoomPanBin">
               <ZoomPanBin id="1857"  >
                <ZoomPanKeyframes>
                 <ZoomPanKeyframe id="1858" timeRangeEnd="-9999999/1" timeRangeDuration="0/1" interpolaterName=""  />
                </ZoomPanKeyframes>
               </ZoomPanBin>
              </Entry>
              <Entry key="CursorEffectBin">
               <CursorEffectBin id="1859"  >
                <CursorEffectKeyframes>
                </CursorEffectKeyframes>
               </CursorEffectBin>
              </Entry>
             </ExtraData>
            </ScreenVMFile>
            <MetaData>
             <entry key="AutoAppliedSmartFocus" val="False"/>
             <entry key="WinSubProjectDisplayName" val=""/>
            </MetaData>
           </UnifiedMedia>
           <UnifiedMedia id="1860"  >
            <AMFile id="1861" start="6888" duration="353" scalar="1/1" mediaStart="10842/1" mediaDuration="353/1" trackNumber="1" src="4" channelNumber="0,1" >
             <Parameters>
              <InterpolatingParam id="1862" interp="linr"  time="0/1" value="1" leadInLength="0/1"  name="volume"/>
              <Parameter id="1863"  name="captions"/>
             </Parameters>
             <Attributes>
              <Attribute id="1864" value="" name="ident"/>
              <Attribute id="1865" value="44100" name="sampleRate"/>
              <Attribute id="1866" value="16" name="bitDepth"/>
              <Attribute id="1867" value="1" name="gain"/>
              <Attribute id="1868" value="0" name="mixToMono"/>
             </Attributes>
            </AMFile>
            <ScreenVMFile id="1869" start="6888" duration="353" scalar="1/1" mediaStart="10842/1" mediaDuration="353/1" trackNumber="0" src="4" >
             <Transformer>
              <VectorParam id="1870"  name="translation">
               <InterpolatingParam id="1871" interp="linr"  time="-9999999/1" value="0" leadInLength="0/1"  />
               <InterpolatingParam id="1872" interp="linr"  time="-9999999/1" value="0" leadInLength="0/1"  />
               <InterpolatingParam id="1873" interp="linr"  time="-9999999/1" value="0" leadInLength="0/1"  />
              </VectorParam>
              <VectorParam id="1874"  name="rotation">
               <InterpolatingParam id="1875" interp="linr"  time="-9999999/1" value="0" leadInLength="0/1"  />
               <InterpolatingParam id="1876" interp="linr"  time="-9999999/1" value="0" leadInLength="0/1"  />
               <InterpolatingParam id="1877" interp="linr"  time="-9999999/1" value="0" leadInLength="0/1"  />
              </VectorParam>
              <VectorParam id="1878"  name="shear">
               <InterpolatingParam id="1879" interp="linr"  time="-9999999/1" value="0" leadInLength="0/1"  />
               <InterpolatingParam id="1880" interp="linr"  time="-9999999/1" value="0" leadInLength="0/1"  />
               <InterpolatingParam id="1881" interp="linr"  time="-9999999/1" value="0" leadInLength="0/1"  />
              </VectorParam>
              <VectorParam id="1882"  name="scale">
               <InterpolatingParam id="1883" interp="linr"  time="-9999999/1" value="1" leadInLength="0/1"  />
               <InterpolatingParam id="1884" interp="linr"  time="-9999999/1" value="1" leadInLength="0/1"  />
               <InterpolatingParam id="1885" interp="linr"  time="-9999999/1" value="1" leadInLength="0/1"  />
              </VectorParam>
              <VectorParam id="1886"  name="anchor">
               <InterpolatingParam id="1887" interp="linr"  time="0/1" value="0" leadInLength="0/1"  />
               <InterpolatingParam id="1888" interp="linr"  time="0/1" value="0" leadInLength="0/1"  />
               <InterpolatingParam id="1889" interp="linr"  time="0/1" value="0" leadInLength="0/1"  />
              </VectorParam>
             </Transformer>
             <Parameters>
              <VectorParam id="1890"  name="sourceCrop">
               <InterpolatingParam id="1891" interp="linr"  time="0/1" value="0" leadInLength="0/1"  />
               <InterpolatingParam id="1892" interp="linr"  time="0/1" value="0" leadInLength="0/1"  />
               <InterpolatingParam id="1893" interp="linr"  time="0/1" value="0" leadInLength="0/1"  />
               <InterpolatingParam id="1894" interp="linr"  time="0/1" value="0" leadInLength="0/1"  />
              </VectorParam>
              <VectorParam id="1895"  name="geometryCrop">
               <InterpolatingParam id="1896" interp="linr"  time="-9999999/1" value="0" leadInLength="0/1"  />
               <InterpolatingParam id="1897" interp="linr"  time="-9999999/1" value="0" leadInLength="0/1"  />
               <InterpolatingParam id="1898" interp="linr"  time="-9999999/1" value="0" leadInLength="0/1"  />
               <InterpolatingParam id="1899" interp="linr"  time="-9999999/1" value="0" leadInLength="0/1"  />
              </VectorParam>
              <InterpolatingParam id="1900" interp="linr"  time="-9999999/1" value="1" leadInLength="0/1"  name="opacity"/>
              <InterpolatingParam id="1901" interp="linr"  time="0/1" value="0" leadInLength="0/1"  name="cursorOpacity"/>
              <InterpolatingParam id="1902" interp="linr"  time="0/1" value="0" leadInLength="0/1"  name="cursorScale"/>
             </Parameters>
             <Attributes>
              <Attribute id="1903" value="" name="ident"/>
             </Attributes>
             <ExtraData>
              <Entry key="ZoomPanBin">
               <ZoomPanBin id="1904"  >
                <ZoomPanKeyframes>
                 <ZoomPanKeyframe id="1905" timeRangeEnd="-9999999/1" timeRangeDuration="0/1" interpolaterName=""  />
                </ZoomPanKeyframes>
               </ZoomPanBin>
              </Entry>
              <Entry key="CursorEffectBin">
               <CursorEffectBin id="1906"  >
                <CursorEffectKeyframes>
                </CursorEffectKeyframes>
               </CursorEffectBin>
              </Entry>
             </ExtraData>
            </ScreenVMFile>
            <MetaData>
             <entry key="AutoAppliedSmartFocus" val="False"/>
             <entry key="WinSubProjectDisplayName" val=""/>
            </MetaData>
           </UnifiedMedia>
           <UnifiedMedia id="1907"  >
            <AMFile id="1908" start="7241" duration="447" scalar="1/1" mediaStart="12209/1" mediaDuration="447/1" trackNumber="1" src="4" channelNumber="0,1" >
             <Parameters>
              <InterpolatingParam id="1909" interp="linr"  time="0/1" value="1" leadInLength="0/1"  name="volume"/>
              <Parameter id="1910"  name="captions"/>
             </Parameters>
             <Attributes>
              <Attribute id="1911" value="" name="ident"/>
              <Attribute id="1912" value="44100" name="sampleRate"/>
              <Attribute id="1913" value="16" name="bitDepth"/>
              <Attribute id="1914" value="1" name="gain"/>
              <Attribute id="1915" value="0" name="mixToMono"/>
             </Attributes>
            </AMFile>
            <ScreenVMFile id="1916" start="7241" duration="447" scalar="1/1" mediaStart="12209/1" mediaDuration="447/1" trackNumber="0" src="4" >
             <Transformer>
              <VectorParam id="1917"  name="translation">
               <InterpolatingParam id="1918" interp="linr"  time="-9999999/1" value="0" leadInLength="0/1"  />
               <InterpolatingParam id="1919" interp="linr"  time="-9999999/1" value="0" leadInLength="0/1"  />
               <InterpolatingParam id="1920" interp="linr"  time="-9999999/1" value="0" leadInLength="0/1"  />
              </VectorParam>
              <VectorParam id="1921"  name="rotation">
               <InterpolatingParam id="1922" interp="linr"  time="-9999999/1" value="0" leadInLength="0/1"  />
               <InterpolatingParam id="1923" interp="linr"  time="-9999999/1" value="0" leadInLength="0/1"  />
               <InterpolatingParam id="1924" interp="linr"  time="-9999999/1" value="0" leadInLength="0/1"  />
              </VectorParam>
              <VectorParam id="1925"  name="shear">
               <InterpolatingParam id="1926" interp="linr"  time="-9999999/1" value="0" leadInLength="0/1"  />
               <InterpolatingParam id="1927" interp="linr"  time="-9999999/1" value="0" leadInLength="0/1"  />
               <InterpolatingParam id="1928" interp="linr"  time="-9999999/1" value="0" leadInLength="0/1"  />
              </VectorParam>
              <VectorParam id="1929"  name="scale">
               <InterpolatingParam id="1930" interp="linr"  time="-9999999/1" value="1" leadInLength="0/1"  />
               <InterpolatingParam id="1931" interp="linr"  time="-9999999/1" value="1" leadInLength="0/1"  />
               <InterpolatingParam id="1932" interp="linr"  time="-9999999/1" value="1" leadInLength="0/1"  />
              </VectorParam>
              <VectorParam id="1933"  name="anchor">
               <InterpolatingParam id="1934" interp="linr"  time="0/1" value="0" leadInLength="0/1"  />
               <InterpolatingParam id="1935" interp="linr"  time="0/1" value="0" leadInLength="0/1"  />
               <InterpolatingParam id="1936" interp="linr"  time="0/1" value="0" leadInLength="0/1"  />
              </VectorParam>
             </Transformer>
             <Parameters>
              <VectorParam id="1937"  name="sourceCrop">
               <InterpolatingParam id="1938" interp="linr"  time="0/1" value="0" leadInLength="0/1"  />
               <InterpolatingParam id="1939" interp="linr"  time="0/1" value="0" leadInLength="0/1"  />
               <InterpolatingParam id="1940" interp="linr"  time="0/1" value="0" leadInLength="0/1"  />
               <InterpolatingParam id="1941" interp="linr"  time="0/1" value="0" leadInLength="0/1"  />
              </VectorParam>
              <VectorParam id="1942"  name="geometryCrop">
               <InterpolatingParam id="1943" interp="linr"  time="-9999999/1" value="0" leadInLength="0/1"  />
               <InterpolatingParam id="1944" interp="linr"  time="-9999999/1" value="0" leadInLength="0/1"  />
               <InterpolatingParam id="1945" interp="linr"  time="-9999999/1" value="0" leadInLength="0/1"  />
               <InterpolatingParam id="1946" interp="linr"  time="-9999999/1" value="0" leadInLength="0/1"  />
              </VectorParam>
              <InterpolatingParam id="1947" interp="linr"  time="-9999999/1" value="1" leadInLength="0/1"  name="opacity"/>
              <InterpolatingParam id="1948" interp="linr"  time="0/1" value="0" leadInLength="0/1"  name="cursorOpacity"/>
              <InterpolatingParam id="1949" interp="linr"  time="0/1" value="0" leadInLength="0/1"  name="cursorScale"/>
             </Parameters>
             <Attributes>
              <Attribute id="1950" value="" name="ident"/>
             </Attributes>
             <ExtraData>
              <Entry key="ZoomPanBin">
               <ZoomPanBin id="1951"  >
                <ZoomPanKeyframes>
                 <ZoomPanKeyframe id="1952" timeRangeEnd="-9999999/1" timeRangeDuration="0/1" interpolaterName=""  />
                </ZoomPanKeyframes>
               </ZoomPanBin>
              </Entry>
              <Entry key="CursorEffectBin">
               <CursorEffectBin id="1953"  >
                <CursorEffectKeyframes>
                </CursorEffectKeyframes>
               </CursorEffectBin>
              </Entry>
             </ExtraData>
            </ScreenVMFile>
            <MetaData>
             <entry key="AutoAppliedSmartFocus" val="False"/>
             <entry key="WinSubProjectDisplayName" val=""/>
            </MetaData>
           </UnifiedMedia>
           <UnifiedMedia id="1954"  >
            <AMFile id="1955" start="7688" duration="410" scalar="1/1" mediaStart="12746/1" mediaDuration="410/1" trackNumber="1" src="4" channelNumber="0,1" >
             <Parameters>
              <InterpolatingParam id="1956" interp="linr"  time="0/1" value="1" leadInLength="0/1"  name="volume"/>
              <Parameter id="1957"  name="captions"/>
             </Parameters>
             <Attributes>
              <Attribute id="1958" value="" name="ident"/>
              <Attribute id="1959" value="44100" name="sampleRate"/>
              <Attribute id="1960" value="16" name="bitDepth"/>
              <Attribute id="1961" value="1" name="gain"/>
              <Attribute id="1962" value="0" name="mixToMono"/>
             </Attributes>
            </AMFile>
            <ScreenVMFile id="1963" start="7688" duration="410" scalar="1/1" mediaStart="12746/1" mediaDuration="410/1" trackNumber="0" src="4" >
             <Transformer>
              <VectorParam id="1964"  name="translation">
               <InterpolatingParam id="1965" interp="linr"  time="-9999999/1" value="0" leadInLength="0/1"  />
               <InterpolatingParam id="1966" interp="linr"  time="-9999999/1" value="0" leadInLength="0/1"  />
               <InterpolatingParam id="1967" interp="linr"  time="-9999999/1" value="0" leadInLength="0/1"  />
              </VectorParam>
              <VectorParam id="1968"  name="rotation">
               <InterpolatingParam id="1969" interp="linr"  time="-9999999/1" value="0" leadInLength="0/1"  />
               <InterpolatingParam id="1970" interp="linr"  time="-9999999/1" value="0" leadInLength="0/1"  />
               <InterpolatingParam id="1971" interp="linr"  time="-9999999/1" value="0" leadInLength="0/1"  />
              </VectorParam>
              <VectorParam id="1972"  name="shear">
               <InterpolatingParam id="1973" interp="linr"  time="-9999999/1" value="0" leadInLength="0/1"  />
               <InterpolatingParam id="1974" interp="linr"  time="-9999999/1" value="0" leadInLength="0/1"  />
               <InterpolatingParam id="1975" interp="linr"  time="-9999999/1" value="0" leadInLength="0/1"  />
              </VectorParam>
              <VectorParam id="1976"  name="scale">
               <InterpolatingParam id="1977" interp="linr"  time="-9999999/1" value="1" leadInLength="0/1"  />
               <InterpolatingParam id="1978" interp="linr"  time="-9999999/1" value="1" leadInLength="0/1"  />
               <InterpolatingParam id="1979" interp="linr"  time="-9999999/1" value="1" leadInLength="0/1"  />
              </VectorParam>
              <VectorParam id="1980"  name="anchor">
               <InterpolatingParam id="1981" interp="linr"  time="0/1" value="0" leadInLength="0/1"  />
               <InterpolatingParam id="1982" interp="linr"  time="0/1" value="0" leadInLength="0/1"  />
               <InterpolatingParam id="1983" interp="linr"  time="0/1" value="0" leadInLength="0/1"  />
              </VectorParam>
             </Transformer>
             <Parameters>
              <VectorParam id="1984"  name="sourceCrop">
               <InterpolatingParam id="1985" interp="linr"  time="0/1" value="0" leadInLength="0/1"  />
               <InterpolatingParam id="1986" interp="linr"  time="0/1" value="0" leadInLength="0/1"  />
               <InterpolatingParam id="1987" interp="linr"  time="0/1" value="0" leadInLength="0/1"  />
               <InterpolatingParam id="1988" interp="linr"  time="0/1" value="0" leadInLength="0/1"  />
              </VectorParam>
              <VectorParam id="1989"  name="geometryCrop">
               <InterpolatingParam id="1990" interp="linr"  time="-9999999/1" value="0" leadInLength="0/1"  />
               <InterpolatingParam id="1991" interp="linr"  time="-9999999/1" value="0" leadInLength="0/1"  />
               <InterpolatingParam id="1992" interp="linr"  time="-9999999/1" value="0" leadInLength="0/1"  />
               <InterpolatingParam id="1993" interp="linr"  time="-9999999/1" value="0" leadInLength="0/1"  />
              </VectorParam>
              <InterpolatingParam id="1994" interp="linr"  time="-9999999/1" value="1" leadInLength="0/1"  name="opacity"/>
              <InterpolatingParam id="1995" interp="linr"  time="0/1" value="0" leadInLength="0/1"  name="cursorOpacity"/>
              <InterpolatingParam id="1996" interp="linr"  time="0/1" value="0" leadInLength="0/1"  name="cursorScale"/>
             </Parameters>
             <Attributes>
              <Attribute id="1997" value="" name="ident"/>
             </Attributes>
             <ExtraData>
              <Entry key="ZoomPanBin">
               <ZoomPanBin id="1998"  >
                <ZoomPanKeyframes>
                 <ZoomPanKeyframe id="1999" timeRangeEnd="-9999999/1" timeRangeDuration="0/1" interpolaterName=""  />
                </ZoomPanKeyframes>
               </ZoomPanBin>
              </Entry>
              <Entry key="CursorEffectBin">
               <CursorEffectBin id="2000"  >
                <CursorEffectKeyframes>
                </CursorEffectKeyframes>
               </CursorEffectBin>
              </Entry>
             </ExtraData>
            </ScreenVMFile>
            <MetaData>
             <entry key="AutoAppliedSmartFocus" val="False"/>
             <entry key="WinSubProjectDisplayName" val=""/>
            </MetaData>
           </UnifiedMedia>
           <UnifiedMedia id="2001"  >
            <AMFile id="2002" start="8098" duration="117" scalar="1/1" mediaStart="13234/1" mediaDuration="117/1" trackNumber="1" src="4" channelNumber="0,1" >
             <Parameters>
              <InterpolatingParam id="2003" interp="linr"  time="0/1" value="1" leadInLength="0/1"  name="volume"/>
              <Parameter id="2004"  name="captions"/>
             </Parameters>
             <Attributes>
              <Attribute id="2005" value="" name="ident"/>
              <Attribute id="2006" value="44100" name="sampleRate"/>
              <Attribute id="2007" value="16" name="bitDepth"/>
              <Attribute id="2008" value="1" name="gain"/>
              <Attribute id="2009" value="0" name="mixToMono"/>
             </Attributes>
            </AMFile>
            <ScreenVMFile id="2010" start="8098" duration="117" scalar="1/1" mediaStart="13234/1" mediaDuration="117/1" trackNumber="0" src="4" >
             <Transformer>
              <VectorParam id="2011"  name="translation">
               <InterpolatingParam id="2012" interp="linr"  time="-9999999/1" value="0" leadInLength="0/1"  />
               <InterpolatingParam id="2013" interp="linr"  time="-9999999/1" value="0" leadInLength="0/1"  />
               <InterpolatingParam id="2014" interp="linr"  time="-9999999/1" value="0" leadInLength="0/1"  />
              </VectorParam>
              <VectorParam id="2015"  name="rotation">
               <InterpolatingParam id="2016" interp="linr"  time="-9999999/1" value="0" leadInLength="0/1"  />
               <InterpolatingParam id="2017" interp="linr"  time="-9999999/1" value="0" leadInLength="0/1"  />
               <InterpolatingParam id="2018" interp="linr"  time="-9999999/1" value="0" leadInLength="0/1"  />
              </VectorParam>
              <VectorParam id="2019"  name="shear">
               <InterpolatingParam id="2020" interp="linr"  time="-9999999/1" value="0" leadInLength="0/1"  />
               <InterpolatingParam id="2021" interp="linr"  time="-9999999/1" value="0" leadInLength="0/1"  />
               <InterpolatingParam id="2022" interp="linr"  time="-9999999/1" value="0" leadInLength="0/1"  />
              </VectorParam>
              <VectorParam id="2023"  name="scale">
               <InterpolatingParam id="2024" interp="linr"  time="-9999999/1" value="1" leadInLength="0/1"  />
               <InterpolatingParam id="2025" interp="linr"  time="-9999999/1" value="1" leadInLength="0/1"  />
               <InterpolatingParam id="2026" interp="linr"  time="-9999999/1" value="1" leadInLength="0/1"  />
              </VectorParam>
              <VectorParam id="2027"  name="anchor">
               <InterpolatingParam id="2028" interp="linr"  time="0/1" value="0" leadInLength="0/1"  />
               <InterpolatingParam id="2029" interp="linr"  time="0/1" value="0" leadInLength="0/1"  />
               <InterpolatingParam id="2030" interp="linr"  time="0/1" value="0" leadInLength="0/1"  />
              </VectorParam>
             </Transformer>
             <Parameters>
              <VectorParam id="2031"  name="sourceCrop">
               <InterpolatingParam id="2032" interp="linr"  time="0/1" value="0" leadInLength="0/1"  />
               <InterpolatingParam id="2033" interp="linr"  time="0/1" value="0" leadInLength="0/1"  />
               <InterpolatingParam id="2034" interp="linr"  time="0/1" value="0" leadInLength="0/1"  />
               <InterpolatingParam id="2035" interp="linr"  time="0/1" value="0" leadInLength="0/1"  />
              </VectorParam>
              <VectorParam id="2036"  name="geometryCrop">
               <InterpolatingParam id="2037" interp="linr"  time="-9999999/1" value="0" leadInLength="0/1"  />
               <InterpolatingParam id="2038" interp="linr"  time="-9999999/1" value="0" leadInLength="0/1"  />
               <InterpolatingParam id="2039" interp="linr"  time="-9999999/1" value="0" leadInLength="0/1"  />
               <InterpolatingParam id="2040" interp="linr"  time="-9999999/1" value="0" leadInLength="0/1"  />
              </VectorParam>
              <InterpolatingParam id="2041" interp="linr"  time="-9999999/1" value="1" leadInLength="0/1"  name="opacity"/>
              <InterpolatingParam id="2042" interp="linr"  time="0/1" value="0" leadInLength="0/1"  name="cursorOpacity"/>
              <InterpolatingParam id="2043" interp="linr"  time="0/1" value="0" leadInLength="0/1"  name="cursorScale"/>
             </Parameters>
             <Attributes>
              <Attribute id="2044" value="" name="ident"/>
             </Attributes>
             <ExtraData>
              <Entry key="ZoomPanBin">
               <ZoomPanBin id="2045"  >
                <ZoomPanKeyframes>
                 <ZoomPanKeyframe id="2046" timeRangeEnd="-9999999/1" timeRangeDuration="0/1" interpolaterName=""  />
                </ZoomPanKeyframes>
               </ZoomPanBin>
              </Entry>
              <Entry key="CursorEffectBin">
               <CursorEffectBin id="2047"  >
                <CursorEffectKeyframes>
                </CursorEffectKeyframes>
               </CursorEffectBin>
              </Entry>
             </ExtraData>
            </ScreenVMFile>
            <MetaData>
             <entry key="AutoAppliedSmartFocus" val="False"/>
             <entry key="WinSubProjectDisplayName" val=""/>
            </MetaData>
           </UnifiedMedia>
           <UnifiedMedia id="2048"  >
            <AMFile id="2049" start="8215" duration="316" scalar="1/1" mediaStart="13506/1" mediaDuration="316/1" trackNumber="1" src="4" channelNumber="0,1" >
             <Parameters>
              <InterpolatingParam id="2050" interp="linr"  time="0/1" value="1" leadInLength="0/1"  name="volume"/>
              <Parameter id="2051"  name="captions"/>
             </Parameters>
             <Attributes>
              <Attribute id="2052" value="" name="ident"/>
              <Attribute id="2053" value="44100" name="sampleRate"/>
              <Attribute id="2054" value="16" name="bitDepth"/>
              <Attribute id="2055" value="1" name="gain"/>
              <Attribute id="2056" value="0" name="mixToMono"/>
             </Attributes>
            </AMFile>
            <ScreenVMFile id="2057" start="8215" duration="316" scalar="1/1" mediaStart="13506/1" mediaDuration="316/1" trackNumber="0" src="4" >
             <Transformer>
              <VectorParam id="2058"  name="translation">
               <InterpolatingParam id="2059" interp="linr"  time="-9999999/1" value="0" leadInLength="0/1"  />
               <InterpolatingParam id="2060" interp="linr"  time="-9999999/1" value="0" leadInLength="0/1"  />
               <InterpolatingParam id="2061" interp="linr"  time="-9999999/1" value="0" leadInLength="0/1"  />
              </VectorParam>
              <VectorParam id="2062"  name="rotation">
               <InterpolatingParam id="2063" interp="linr"  time="-9999999/1" value="0" leadInLength="0/1"  />
               <InterpolatingParam id="2064" interp="linr"  time="-9999999/1" value="0" leadInLength="0/1"  />
               <InterpolatingParam id="2065" interp="linr"  time="-9999999/1" value="0" leadInLength="0/1"  />
              </VectorParam>
              <VectorParam id="2066"  name="shear">
               <InterpolatingParam id="2067" interp="linr"  time="-9999999/1" value="0" leadInLength="0/1"  />
               <InterpolatingParam id="2068" interp="linr"  time="-9999999/1" value="0" leadInLength="0/1"  />
               <InterpolatingParam id="2069" interp="linr"  time="-9999999/1" value="0" leadInLength="0/1"  />
              </VectorParam>
              <VectorParam id="2070"  name="scale">
               <InterpolatingParam id="2071" interp="linr"  time="-9999999/1" value="1" leadInLength="0/1"  />
               <InterpolatingParam id="2072" interp="linr"  time="-9999999/1" value="1" leadInLength="0/1"  />
               <InterpolatingParam id="2073" interp="linr"  time="-9999999/1" value="1" leadInLength="0/1"  />
              </VectorParam>
              <VectorParam id="2074"  name="anchor">
               <InterpolatingParam id="2075" interp="linr"  time="0/1" value="0" leadInLength="0/1"  />
               <InterpolatingParam id="2076" interp="linr"  time="0/1" value="0" leadInLength="0/1"  />
               <InterpolatingParam id="2077" interp="linr"  time="0/1" value="0" leadInLength="0/1"  />
              </VectorParam>
             </Transformer>
             <Parameters>
              <VectorParam id="2078"  name="sourceCrop">
               <InterpolatingParam id="2079" interp="linr"  time="0/1" value="0" leadInLength="0/1"  />
               <InterpolatingParam id="2080" interp="linr"  time="0/1" value="0" leadInLength="0/1"  />
               <InterpolatingParam id="2081" interp="linr"  time="0/1" value="0" leadInLength="0/1"  />
               <InterpolatingParam id="2082" interp="linr"  time="0/1" value="0" leadInLength="0/1"  />
              </VectorParam>
              <VectorParam id="2083"  name="geometryCrop">
               <InterpolatingParam id="2084" interp="linr"  time="-9999999/1" value="0" leadInLength="0/1"  />
               <InterpolatingParam id="2085" interp="linr"  time="-9999999/1" value="0" leadInLength="0/1"  />
               <InterpolatingParam id="2086" interp="linr"  time="-9999999/1" value="0" leadInLength="0/1"  />
               <InterpolatingParam id="2087" interp="linr"  time="-9999999/1" value="0" leadInLength="0/1"  />
              </VectorParam>
              <InterpolatingParam id="2088" interp="linr"  time="-9999999/1" value="1" leadInLength="0/1"  name="opacity"/>
              <InterpolatingParam id="2089" interp="linr"  time="0/1" value="0" leadInLength="0/1"  name="cursorOpacity"/>
              <InterpolatingParam id="2090" interp="linr"  time="0/1" value="0" leadInLength="0/1"  name="cursorScale"/>
             </Parameters>
             <Attributes>
              <Attribute id="2091" value="" name="ident"/>
             </Attributes>
             <ExtraData>
              <Entry key="ZoomPanBin">
               <ZoomPanBin id="2092"  >
                <ZoomPanKeyframes>
                 <ZoomPanKeyframe id="2093" timeRangeEnd="-9999999/1" timeRangeDuration="0/1" interpolaterName=""  />
                </ZoomPanKeyframes>
               </ZoomPanBin>
              </Entry>
              <Entry key="CursorEffectBin">
               <CursorEffectBin id="2094"  >
                <CursorEffectKeyframes>
                </CursorEffectKeyframes>
               </CursorEffectBin>
              </Entry>
             </ExtraData>
            </ScreenVMFile>
            <MetaData>
             <entry key="AutoAppliedSmartFocus" val="False"/>
             <entry key="WinSubProjectDisplayName" val=""/>
            </MetaData>
           </UnifiedMedia>
           <UnifiedMedia id="2095"  >
            <AMFile id="2096" start="8531" duration="270" scalar="1/1" mediaStart="14304/1" mediaDuration="270/1" trackNumber="1" src="4" channelNumber="0,1" >
             <Parameters>
              <InterpolatingParam id="2097" interp="linr"  time="0/1" value="1" leadInLength="0/1"  name="volume"/>
              <Parameter id="2098"  name="captions"/>
             </Parameters>
             <Attributes>
              <Attribute id="2099" value="" name="ident"/>
              <Attribute id="2100" value="44100" name="sampleRate"/>
              <Attribute id="2101" value="16" name="bitDepth"/>
              <Attribute id="2102" value="1" name="gain"/>
              <Attribute id="2103" value="0" name="mixToMono"/>
             </Attributes>
            </AMFile>
            <ScreenVMFile id="2104" start="8531" duration="270" scalar="1/1" mediaStart="14304/1" mediaDuration="270/1" trackNumber="0" src="4" >
             <Transformer>
              <VectorParam id="2105"  name="translation">
               <InterpolatingParam id="2106" interp="linr"  time="-9999999/1" value="0" leadInLength="0/1"  />
               <InterpolatingParam id="2107" interp="linr"  time="-9999999/1" value="0" leadInLength="0/1"  />
               <InterpolatingParam id="2108" interp="linr"  time="-9999999/1" value="0" leadInLength="0/1"  />
              </VectorParam>
              <VectorParam id="2109"  name="rotation">
               <InterpolatingParam id="2110" interp="linr"  time="-9999999/1" value="0" leadInLength="0/1"  />
               <InterpolatingParam id="2111" interp="linr"  time="-9999999/1" value="0" leadInLength="0/1"  />
               <InterpolatingParam id="2112" interp="linr"  time="-9999999/1" value="0" leadInLength="0/1"  />
              </VectorParam>
              <VectorParam id="2113"  name="shear">
               <InterpolatingParam id="2114" interp="linr"  time="-9999999/1" value="0" leadInLength="0/1"  />
               <InterpolatingParam id="2115" interp="linr"  time="-9999999/1" value="0" leadInLength="0/1"  />
               <InterpolatingParam id="2116" interp="linr"  time="-9999999/1" value="0" leadInLength="0/1"  />
              </VectorParam>
              <VectorParam id="2117"  name="scale">
               <InterpolatingParam id="2118" interp="linr"  time="-9999999/1" value="1" leadInLength="0/1"  />
               <InterpolatingParam id="2119" interp="linr"  time="-9999999/1" value="1" leadInLength="0/1"  />
               <InterpolatingParam id="2120" interp="linr"  time="-9999999/1" value="1" leadInLength="0/1"  />
              </VectorParam>
              <VectorParam id="2121"  name="anchor">
               <InterpolatingParam id="2122" interp="linr"  time="0/1" value="0" leadInLength="0/1"  />
               <InterpolatingParam id="2123" interp="linr"  time="0/1" value="0" leadInLength="0/1"  />
               <InterpolatingParam id="2124" interp="linr"  time="0/1" value="0" leadInLength="0/1"  />
              </VectorParam>
             </Transformer>
             <Parameters>
              <VectorParam id="2125"  name="sourceCrop">
               <InterpolatingParam id="2126" interp="linr"  time="0/1" value="0" leadInLength="0/1"  />
               <InterpolatingParam id="2127" interp="linr"  time="0/1" value="0" leadInLength="0/1"  />
               <InterpolatingParam id="2128" interp="linr"  time="0/1" value="0" leadInLength="0/1"  />
               <InterpolatingParam id="2129" interp="linr"  time="0/1" value="0" leadInLength="0/1"  />
              </VectorParam>
              <VectorParam id="2130"  name="geometryCrop">
               <InterpolatingParam id="2131" interp="linr"  time="-9999999/1" value="0" leadInLength="0/1"  />
               <InterpolatingParam id="2132" interp="linr"  time="-9999999/1" value="0" leadInLength="0/1"  />
               <InterpolatingParam id="2133" interp="linr"  time="-9999999/1" value="0" leadInLength="0/1"  />
               <InterpolatingParam id="2134" interp="linr"  time="-9999999/1" value="0" leadInLength="0/1"  />
              </VectorParam>
              <InterpolatingParam id="2135" interp="linr"  time="-9999999/1" value="1" leadInLength="0/1"  name="opacity"/>
              <InterpolatingParam id="2136" interp="linr"  time="0/1" value="0" leadInLength="0/1"  name="cursorOpacity"/>
              <InterpolatingParam id="2137" interp="linr"  time="0/1" value="0" leadInLength="0/1"  name="cursorScale"/>
             </Parameters>
             <Attributes>
              <Attribute id="2138" value="" name="ident"/>
             </Attributes>
             <ExtraData>
              <Entry key="ZoomPanBin">
               <ZoomPanBin id="2139"  >
                <ZoomPanKeyframes>
                 <ZoomPanKeyframe id="2140" timeRangeEnd="-9999999/1" timeRangeDuration="0/1" interpolaterName=""  />
                </ZoomPanKeyframes>
               </ZoomPanBin>
              </Entry>
              <Entry key="CursorEffectBin">
               <CursorEffectBin id="2141"  >
                <CursorEffectKeyframes>
                </CursorEffectKeyframes>
               </CursorEffectBin>
              </Entry>
             </ExtraData>
            </ScreenVMFile>
            <MetaData>
             <entry key="AutoAppliedSmartFocus" val="False"/>
             <entry key="WinSubProjectDisplayName" val=""/>
            </MetaData>
           </UnifiedMedia>
           <UnifiedMedia id="2142"  >
            <AMFile id="2143" start="8801" duration="269" scalar="1/1" mediaStart="14939/1" mediaDuration="269/1" trackNumber="1" src="4" channelNumber="0,1" >
             <Parameters>
              <InterpolatingParam id="2144" interp="linr"  time="0/1" value="1" leadInLength="0/1"  name="volume"/>
              <Parameter id="2145"  name="captions"/>
             </Parameters>
             <Attributes>
              <Attribute id="2146" value="" name="ident"/>
              <Attribute id="2147" value="44100" name="sampleRate"/>
              <Attribute id="2148" value="16" name="bitDepth"/>
              <Attribute id="2149" value="1" name="gain"/>
              <Attribute id="2150" value="0" name="mixToMono"/>
             </Attributes>
            </AMFile>
            <ScreenVMFile id="2151" start="8801" duration="269" scalar="1/1" mediaStart="14939/1" mediaDuration="269/1" trackNumber="0" src="4" >
             <Transformer>
              <VectorParam id="2152"  name="translation">
               <InterpolatingParam id="2153" interp="linr"  time="-9999999/1" value="0" leadInLength="0/1"  />
               <InterpolatingParam id="2154" interp="linr"  time="-9999999/1" value="0" leadInLength="0/1"  />
               <InterpolatingParam id="2155" interp="linr"  time="-9999999/1" value="0" leadInLength="0/1"  />
              </VectorParam>
              <VectorParam id="2156"  name="rotation">
               <InterpolatingParam id="2157" interp="linr"  time="-9999999/1" value="0" leadInLength="0/1"  />
               <InterpolatingParam id="2158" interp="linr"  time="-9999999/1" value="0" leadInLength="0/1"  />
               <InterpolatingParam id="2159" interp="linr"  time="-9999999/1" value="0" leadInLength="0/1"  />
              </VectorParam>
              <VectorParam id="2160"  name="shear">
               <InterpolatingParam id="2161" interp="linr"  time="-9999999/1" value="0" leadInLength="0/1"  />
               <InterpolatingParam id="2162" interp="linr"  time="-9999999/1" value="0" leadInLength="0/1"  />
               <InterpolatingParam id="2163" interp="linr"  time="-9999999/1" value="0" leadInLength="0/1"  />
              </VectorParam>
              <VectorParam id="2164"  name="scale">
               <InterpolatingParam id="2165" interp="linr"  time="-9999999/1" value="1" leadInLength="0/1"  />
               <InterpolatingParam id="2166" interp="linr"  time="-9999999/1" value="1" leadInLength="0/1"  />
               <InterpolatingParam id="2167" interp="linr"  time="-9999999/1" value="1" leadInLength="0/1"  />
              </VectorParam>
              <VectorParam id="2168"  name="anchor">
               <InterpolatingParam id="2169" interp="linr"  time="0/1" value="0" leadInLength="0/1"  />
               <InterpolatingParam id="2170" interp="linr"  time="0/1" value="0" leadInLength="0/1"  />
               <InterpolatingParam id="2171" interp="linr"  time="0/1" value="0" leadInLength="0/1"  />
              </VectorParam>
             </Transformer>
             <Parameters>
              <VectorParam id="2172"  name="sourceCrop">
               <InterpolatingParam id="2173" interp="linr"  time="0/1" value="0" leadInLength="0/1"  />
               <InterpolatingParam id="2174" interp="linr"  time="0/1" value="0" leadInLength="0/1"  />
               <InterpolatingParam id="2175" interp="linr"  time="0/1" value="0" leadInLength="0/1"  />
               <InterpolatingParam id="2176" interp="linr"  time="0/1" value="0" leadInLength="0/1"  />
              </VectorParam>
              <VectorParam id="2177"  name="geometryCrop">
               <InterpolatingParam id="2178" interp="linr"  time="-9999999/1" value="0" leadInLength="0/1"  />
               <InterpolatingParam id="2179" interp="linr"  time="-9999999/1" value="0" leadInLength="0/1"  />
               <InterpolatingParam id="2180" interp="linr"  time="-9999999/1" value="0" leadInLength="0/1"  />
               <InterpolatingParam id="2181" interp="linr"  time="-9999999/1" value="0" leadInLength="0/1"  />
              </VectorParam>
              <InterpolatingParam id="2182" interp="linr"  time="-9999999/1" value="1" leadInLength="0/1"  name="opacity"/>
              <InterpolatingParam id="2183" interp="linr"  time="0/1" value="0" leadInLength="0/1"  name="cursorOpacity"/>
              <InterpolatingParam id="2184" interp="linr"  time="0/1" value="0" leadInLength="0/1"  name="cursorScale"/>
             </Parameters>
             <Attributes>
              <Attribute id="2185" value="" name="ident"/>
             </Attributes>
             <ExtraData>
              <Entry key="ZoomPanBin">
               <ZoomPanBin id="2186"  >
                <ZoomPanKeyframes>
                 <ZoomPanKeyframe id="2187" timeRangeEnd="-9999999/1" timeRangeDuration="0/1" interpolaterName=""  />
                </ZoomPanKeyframes>
               </ZoomPanBin>
              </Entry>
              <Entry key="CursorEffectBin">
               <CursorEffectBin id="2188"  >
                <CursorEffectKeyframes>
                </CursorEffectKeyframes>
               </CursorEffectBin>
              </Entry>
             </ExtraData>
            </ScreenVMFile>
            <MetaData>
             <entry key="AutoAppliedSmartFocus" val="False"/>
             <entry key="WinSubProjectDisplayName" val=""/>
            </MetaData>
           </UnifiedMedia>
           <UnifiedMedia id="2189"  >
            <AMFile id="2190" start="9070" duration="143" scalar="1/1" mediaStart="15295/1" mediaDuration="143/1" trackNumber="1" src="4" channelNumber="0,1" >
             <Parameters>
              <InterpolatingParam id="2191" interp="linr"  time="0/1" value="1" leadInLength="0/1"  name="volume"/>
              <Parameter id="2192"  name="captions"/>
             </Parameters>
             <Attributes>
              <Attribute id="2193" value="" name="ident"/>
              <Attribute id="2194" value="44100" name="sampleRate"/>
              <Attribute id="2195" value="16" name="bitDepth"/>
              <Attribute id="2196" value="1" name="gain"/>
              <Attribute id="2197" value="0" name="mixToMono"/>
             </Attributes>
            </AMFile>
            <ScreenVMFile id="2198" start="9070" duration="143" scalar="1/1" mediaStart="15295/1" mediaDuration="143/1" trackNumber="0" src="4" >
             <Transformer>
              <VectorParam id="2199"  name="translation">
               <InterpolatingParam id="2200" interp="linr"  time="-9999999/1" value="0" leadInLength="0/1"  />
               <InterpolatingParam id="2201" interp="linr"  time="-9999999/1" value="0" leadInLength="0/1"  />
               <InterpolatingParam id="2202" interp="linr"  time="-9999999/1" value="0" leadInLength="0/1"  />
              </VectorParam>
              <VectorParam id="2203"  name="rotation">
               <InterpolatingParam id="2204" interp="linr"  time="-9999999/1" value="0" leadInLength="0/1"  />
               <InterpolatingParam id="2205" interp="linr"  time="-9999999/1" value="0" leadInLength="0/1"  />
               <InterpolatingParam id="2206" interp="linr"  time="-9999999/1" value="0" leadInLength="0/1"  />
              </VectorParam>
              <VectorParam id="2207"  name="shear">
               <InterpolatingParam id="2208" interp="linr"  time="-9999999/1" value="0" leadInLength="0/1"  />
               <InterpolatingParam id="2209" interp="linr"  time="-9999999/1" value="0" leadInLength="0/1"  />
               <InterpolatingParam id="2210" interp="linr"  time="-9999999/1" value="0" leadInLength="0/1"  />
              </VectorParam>
              <VectorParam id="2211"  name="scale">
               <InterpolatingParam id="2212" interp="linr"  time="-9999999/1" value="1" leadInLength="0/1"  />
               <InterpolatingParam id="2213" interp="linr"  time="-9999999/1" value="1" leadInLength="0/1"  />
               <InterpolatingParam id="2214" interp="linr"  time="-9999999/1" value="1" leadInLength="0/1"  />
              </VectorParam>
              <VectorParam id="2215"  name="anchor">
               <InterpolatingParam id="2216" interp="linr"  time="0/1" value="0" leadInLength="0/1"  />
               <InterpolatingParam id="2217" interp="linr"  time="0/1" value="0" leadInLength="0/1"  />
               <InterpolatingParam id="2218" interp="linr"  time="0/1" value="0" leadInLength="0/1"  />
              </VectorParam>
             </Transformer>
             <Parameters>
              <VectorParam id="2219"  name="sourceCrop">
               <InterpolatingParam id="2220" interp="linr"  time="0/1" value="0" leadInLength="0/1"  />
               <InterpolatingParam id="2221" interp="linr"  time="0/1" value="0" leadInLength="0/1"  />
               <InterpolatingParam id="2222" interp="linr"  time="0/1" value="0" leadInLength="0/1"  />
               <InterpolatingParam id="2223" interp="linr"  time="0/1" value="0" leadInLength="0/1"  />
              </VectorParam>
              <VectorParam id="2224"  name="geometryCrop">
               <InterpolatingParam id="2225" interp="linr"  time="-9999999/1" value="0" leadInLength="0/1"  />
               <InterpolatingParam id="2226" interp="linr"  time="-9999999/1" value="0" leadInLength="0/1"  />
               <InterpolatingParam id="2227" interp="linr"  time="-9999999/1" value="0" leadInLength="0/1"  />
               <InterpolatingParam id="2228" interp="linr"  time="-9999999/1" value="0" leadInLength="0/1"  />
              </VectorParam>
              <InterpolatingParam id="2229" interp="linr"  time="-9999999/1" value="1" leadInLength="0/1"  name="opacity"/>
              <InterpolatingParam id="2230" interp="linr"  time="0/1" value="0" leadInLength="0/1"  name="cursorOpacity"/>
              <InterpolatingParam id="2231" interp="linr"  time="0/1" value="0" leadInLength="0/1"  name="cursorScale"/>
             </Parameters>
             <Attributes>
              <Attribute id="2232" value="" name="ident"/>
             </Attributes>
             <ExtraData>
              <Entry key="ZoomPanBin">
               <ZoomPanBin id="2233"  >
                <ZoomPanKeyframes>
                 <ZoomPanKeyframe id="2234" timeRangeEnd="-9999999/1" timeRangeDuration="0/1" interpolaterName=""  />
                </ZoomPanKeyframes>
               </ZoomPanBin>
              </Entry>
              <Entry key="CursorEffectBin">
               <CursorEffectBin id="2235"  >
                <CursorEffectKeyframes>
                </CursorEffectKeyframes>
               </CursorEffectBin>
              </Entry>
             </ExtraData>
            </ScreenVMFile>
            <MetaData>
             <entry key="AutoAppliedSmartFocus" val="False"/>
             <entry key="WinSubProjectDisplayName" val=""/>
            </MetaData>
           </UnifiedMedia>
           <UnifiedMedia id="2236"  >
            <AMFile id="2237" start="9213" duration="138" scalar="1/1" mediaStart="15497/1" mediaDuration="138/1" trackNumber="1" src="4" channelNumber="0,1" >
             <Parameters>
              <InterpolatingParam id="2238" interp="linr"  time="0/1" value="1" leadInLength="0/1"  name="volume"/>
              <Parameter id="2239"  name="captions"/>
             </Parameters>
             <Attributes>
              <Attribute id="2240" value="" name="ident"/>
              <Attribute id="2241" value="44100" name="sampleRate"/>
              <Attribute id="2242" value="16" name="bitDepth"/>
              <Attribute id="2243" value="1" name="gain"/>
              <Attribute id="2244" value="0" name="mixToMono"/>
             </Attributes>
            </AMFile>
            <ScreenVMFile id="2245" start="9213" duration="138" scalar="1/1" mediaStart="15497/1" mediaDuration="138/1" trackNumber="0" src="4" >
             <Transformer>
              <VectorParam id="2246"  name="translation">
               <InterpolatingParam id="2247" interp="linr"  time="-9999999/1" value="0" leadInLength="0/1"  />
               <InterpolatingParam id="2248" interp="linr"  time="-9999999/1" value="0" leadInLength="0/1"  />
               <InterpolatingParam id="2249" interp="linr"  time="-9999999/1" value="0" leadInLength="0/1"  />
              </VectorParam>
              <VectorParam id="2250"  name="rotation">
               <InterpolatingParam id="2251" interp="linr"  time="-9999999/1" value="0" leadInLength="0/1"  />
               <InterpolatingParam id="2252" interp="linr"  time="-9999999/1" value="0" leadInLength="0/1"  />
               <InterpolatingParam id="2253" interp="linr"  time="-9999999/1" value="0" leadInLength="0/1"  />
              </VectorParam>
              <VectorParam id="2254"  name="shear">
               <InterpolatingParam id="2255" interp="linr"  time="-9999999/1" value="0" leadInLength="0/1"  />
               <InterpolatingParam id="2256" interp="linr"  time="-9999999/1" value="0" leadInLength="0/1"  />
               <InterpolatingParam id="2257" interp="linr"  time="-9999999/1" value="0" leadInLength="0/1"  />
              </VectorParam>
              <VectorParam id="2258"  name="scale">
               <InterpolatingParam id="2259" interp="linr"  time="-9999999/1" value="1" leadInLength="0/1"  />
               <InterpolatingParam id="2260" interp="linr"  time="-9999999/1" value="1" leadInLength="0/1"  />
               <InterpolatingParam id="2261" interp="linr"  time="-9999999/1" value="1" leadInLength="0/1"  />
              </VectorParam>
              <VectorParam id="2262"  name="anchor">
               <InterpolatingParam id="2263" interp="linr"  time="0/1" value="0" leadInLength="0/1"  />
               <InterpolatingParam id="2264" interp="linr"  time="0/1" value="0" leadInLength="0/1"  />
               <InterpolatingParam id="2265" interp="linr"  time="0/1" value="0" leadInLength="0/1"  />
              </VectorParam>
             </Transformer>
             <Parameters>
              <VectorParam id="2266"  name="sourceCrop">
               <InterpolatingParam id="2267" interp="linr"  time="0/1" value="0" leadInLength="0/1"  />
               <InterpolatingParam id="2268" interp="linr"  time="0/1" value="0" leadInLength="0/1"  />
               <InterpolatingParam id="2269" interp="linr"  time="0/1" value="0" leadInLength="0/1"  />
               <InterpolatingParam id="2270" interp="linr"  time="0/1" value="0" leadInLength="0/1"  />
              </VectorParam>
              <VectorParam id="2271"  name="geometryCrop">
               <InterpolatingParam id="2272" interp="linr"  time="-9999999/1" value="0" leadInLength="0/1"  />
               <InterpolatingParam id="2273" interp="linr"  time="-9999999/1" value="0" leadInLength="0/1"  />
               <InterpolatingParam id="2274" interp="linr"  time="-9999999/1" value="0" leadInLength="0/1"  />
               <InterpolatingParam id="2275" interp="linr"  time="-9999999/1" value="0" leadInLength="0/1"  />
              </VectorParam>
              <InterpolatingParam id="2276" interp="linr"  time="-9999999/1" value="1" leadInLength="0/1"  name="opacity"/>
              <InterpolatingParam id="2277" interp="linr"  time="0/1" value="0" leadInLength="0/1"  name="cursorOpacity"/>
              <InterpolatingParam id="2278" interp="linr"  time="0/1" value="0" leadInLength="0/1"  name="cursorScale"/>
             </Parameters>
             <Attributes>
              <Attribute id="2279" value="" name="ident"/>
             </Attributes>
             <ExtraData>
              <Entry key="ZoomPanBin">
               <ZoomPanBin id="2280"  >
                <ZoomPanKeyframes>
                 <ZoomPanKeyframe id="2281" timeRangeEnd="-9999999/1" timeRangeDuration="0/1" interpolaterName=""  />
                </ZoomPanKeyframes>
               </ZoomPanBin>
              </Entry>
              <Entry key="CursorEffectBin">
               <CursorEffectBin id="2282"  >
                <CursorEffectKeyframes>
                </CursorEffectKeyframes>
               </CursorEffectBin>
              </Entry>
             </ExtraData>
            </ScreenVMFile>
            <MetaData>
             <entry key="AutoAppliedSmartFocus" val="False"/>
             <entry key="WinSubProjectDisplayName" val=""/>
            </MetaData>
           </UnifiedMedia>
           <UnifiedMedia id="2283"  >
            <AMFile id="2284" start="9351" duration="92" scalar="1/1" mediaStart="15905/1" mediaDuration="92/1" trackNumber="1" src="4" channelNumber="0,1" >
             <Parameters>
              <InterpolatingParam id="2285" interp="linr"  time="0/1" value="1" leadInLength="0/1"  name="volume"/>
              <Parameter id="2286"  name="captions"/>
             </Parameters>
             <Attributes>
              <Attribute id="2287" value="" name="ident"/>
              <Attribute id="2288" value="44100" name="sampleRate"/>
              <Attribute id="2289" value="16" name="bitDepth"/>
              <Attribute id="2290" value="1" name="gain"/>
              <Attribute id="2291" value="0" name="mixToMono"/>
             </Attributes>
            </AMFile>
            <ScreenVMFile id="2292" start="9351" duration="92" scalar="1/1" mediaStart="15905/1" mediaDuration="92/1" trackNumber="0" src="4" >
             <Transformer>
              <VectorParam id="2293"  name="translation">
               <InterpolatingParam id="2294" interp="linr"  time="-9999999/1" value="0" leadInLength="0/1"  />
               <InterpolatingParam id="2295" interp="linr"  time="-9999999/1" value="0" leadInLength="0/1"  />
               <InterpolatingParam id="2296" interp="linr"  time="-9999999/1" value="0" leadInLength="0/1"  />
              </VectorParam>
              <VectorParam id="2297"  name="rotation">
               <InterpolatingParam id="2298" interp="linr"  time="-9999999/1" value="0" leadInLength="0/1"  />
               <InterpolatingParam id="2299" interp="linr"  time="-9999999/1" value="0" leadInLength="0/1"  />
               <InterpolatingParam id="2300" interp="linr"  time="-9999999/1" value="0" leadInLength="0/1"  />
              </VectorParam>
              <VectorParam id="2301"  name="shear">
               <InterpolatingParam id="2302" interp="linr"  time="-9999999/1" value="0" leadInLength="0/1"  />
               <InterpolatingParam id="2303" interp="linr"  time="-9999999/1" value="0" leadInLength="0/1"  />
               <InterpolatingParam id="2304" interp="linr"  time="-9999999/1" value="0" leadInLength="0/1"  />
              </VectorParam>
              <VectorParam id="2305"  name="scale">
               <InterpolatingParam id="2306" interp="linr"  time="-9999999/1" value="1" leadInLength="0/1"  />
               <InterpolatingParam id="2307" interp="linr"  time="-9999999/1" value="1" leadInLength="0/1"  />
               <InterpolatingParam id="2308" interp="linr"  time="-9999999/1" value="1" leadInLength="0/1"  />
              </VectorParam>
              <VectorParam id="2309"  name="anchor">
               <InterpolatingParam id="2310" interp="linr"  time="0/1" value="0" leadInLength="0/1"  />
               <InterpolatingParam id="2311" interp="linr"  time="0/1" value="0" leadInLength="0/1"  />
               <InterpolatingParam id="2312" interp="linr"  time="0/1" value="0" leadInLength="0/1"  />
              </VectorParam>
             </Transformer>
             <Parameters>
              <VectorParam id="2313"  name="sourceCrop">
               <InterpolatingParam id="2314" interp="linr"  time="0/1" value="0" leadInLength="0/1"  />
               <InterpolatingParam id="2315" interp="linr"  time="0/1" value="0" leadInLength="0/1"  />
               <InterpolatingParam id="2316" interp="linr"  time="0/1" value="0" leadInLength="0/1"  />
               <InterpolatingParam id="2317" interp="linr"  time="0/1" value="0" leadInLength="0/1"  />
              </VectorParam>
              <VectorParam id="2318"  name="geometryCrop">
               <InterpolatingParam id="2319" interp="linr"  time="-9999999/1" value="0" leadInLength="0/1"  />
               <InterpolatingParam id="2320" interp="linr"  time="-9999999/1" value="0" leadInLength="0/1"  />
               <InterpolatingParam id="2321" interp="linr"  time="-9999999/1" value="0" leadInLength="0/1"  />
               <InterpolatingParam id="2322" interp="linr"  time="-9999999/1" value="0" leadInLength="0/1"  />
              </VectorParam>
              <InterpolatingParam id="2323" interp="linr"  time="-9999999/1" value="1" leadInLength="0/1"  name="opacity"/>
              <InterpolatingParam id="2324" interp="linr"  time="0/1" value="0" leadInLength="0/1"  name="cursorOpacity"/>
              <InterpolatingParam id="2325" interp="linr"  time="0/1" value="0" leadInLength="0/1"  name="cursorScale"/>
             </Parameters>
             <Attributes>
              <Attribute id="2326" value="" name="ident"/>
             </Attributes>
             <ExtraData>
              <Entry key="ZoomPanBin">
               <ZoomPanBin id="2327"  >
                <ZoomPanKeyframes>
                 <ZoomPanKeyframe id="2328" timeRangeEnd="-9999999/1" timeRangeDuration="0/1" interpolaterName=""  />
                </ZoomPanKeyframes>
               </ZoomPanBin>
              </Entry>
              <Entry key="CursorEffectBin">
               <CursorEffectBin id="2329"  >
                <CursorEffectKeyframes>
                </CursorEffectKeyframes>
               </CursorEffectBin>
              </Entry>
             </ExtraData>
            </ScreenVMFile>
            <MetaData>
             <entry key="AutoAppliedSmartFocus" val="False"/>
             <entry key="WinSubProjectDisplayName" val=""/>
            </MetaData>
           </UnifiedMedia>
           <UnifiedMedia id="2330"  >
            <AMFile id="2331" start="9443" duration="391" scalar="1/1" mediaStart="16063/1" mediaDuration="391/1" trackNumber="1" src="4" channelNumber="0,1" >
             <Parameters>
              <InterpolatingParam id="2332" interp="linr"  time="0/1" value="1" leadInLength="0/1"  name="volume"/>
              <Parameter id="2333"  name="captions"/>
             </Parameters>
             <Attributes>
              <Attribute id="2334" value="" name="ident"/>
              <Attribute id="2335" value="44100" name="sampleRate"/>
              <Attribute id="2336" value="16" name="bitDepth"/>
              <Attribute id="2337" value="1" name="gain"/>
              <Attribute id="2338" value="0" name="mixToMono"/>
             </Attributes>
            </AMFile>
            <ScreenVMFile id="2339" start="9443" duration="391" scalar="1/1" mediaStart="16063/1" mediaDuration="391/1" trackNumber="0" src="4" >
             <Transformer>
              <VectorParam id="2340"  name="translation">
               <InterpolatingParam id="2341" interp="linr"  time="-9999999/1" value="0" leadInLength="0/1"  />
               <InterpolatingParam id="2342" interp="linr"  time="-9999999/1" value="0" leadInLength="0/1"  />
               <InterpolatingParam id="2343" interp="linr"  time="-9999999/1" value="0" leadInLength="0/1"  />
              </VectorParam>
              <VectorParam id="2344"  name="rotation">
               <InterpolatingParam id="2345" interp="linr"  time="-9999999/1" value="0" leadInLength="0/1"  />
               <InterpolatingParam id="2346" interp="linr"  time="-9999999/1" value="0" leadInLength="0/1"  />
               <InterpolatingParam id="2347" interp="linr"  time="-9999999/1" value="0" leadInLength="0/1"  />
              </VectorParam>
              <VectorParam id="2348"  name="shear">
               <InterpolatingParam id="2349" interp="linr"  time="-9999999/1" value="0" leadInLength="0/1"  />
               <InterpolatingParam id="2350" interp="linr"  time="-9999999/1" value="0" leadInLength="0/1"  />
               <InterpolatingParam id="2351" interp="linr"  time="-9999999/1" value="0" leadInLength="0/1"  />
              </VectorParam>
              <VectorParam id="2352"  name="scale">
               <InterpolatingParam id="2353" interp="linr"  time="-9999999/1" value="1" leadInLength="0/1"  />
               <InterpolatingParam id="2354" interp="linr"  time="-9999999/1" value="1" leadInLength="0/1"  />
               <InterpolatingParam id="2355" interp="linr"  time="-9999999/1" value="1" leadInLength="0/1"  />
              </VectorParam>
              <VectorParam id="2356"  name="anchor">
               <InterpolatingParam id="2357" interp="linr"  time="0/1" value="0" leadInLength="0/1"  />
               <InterpolatingParam id="2358" interp="linr"  time="0/1" value="0" leadInLength="0/1"  />
               <InterpolatingParam id="2359" interp="linr"  time="0/1" value="0" leadInLength="0/1"  />
              </VectorParam>
             </Transformer>
             <Parameters>
              <VectorParam id="2360"  name="sourceCrop">
               <InterpolatingParam id="2361" interp="linr"  time="0/1" value="0" leadInLength="0/1"  />
               <InterpolatingParam id="2362" interp="linr"  time="0/1" value="0" leadInLength="0/1"  />
               <InterpolatingParam id="2363" interp="linr"  time="0/1" value="0" leadInLength="0/1"  />
               <InterpolatingParam id="2364" interp="linr"  time="0/1" value="0" leadInLength="0/1"  />
              </VectorParam>
              <VectorParam id="2365"  name="geometryCrop">
               <InterpolatingParam id="2366" interp="linr"  time="-9999999/1" value="0" leadInLength="0/1"  />
               <InterpolatingParam id="2367" interp="linr"  time="-9999999/1" value="0" leadInLength="0/1"  />
               <InterpolatingParam id="2368" interp="linr"  time="-9999999/1" value="0" leadInLength="0/1"  />
               <InterpolatingParam id="2369" interp="linr"  time="-9999999/1" value="0" leadInLength="0/1"  />
              </VectorParam>
              <InterpolatingParam id="2370" interp="linr"  time="-9999999/1" value="1" leadInLength="0/1"  name="opacity"/>
              <InterpolatingParam id="2371" interp="linr"  time="0/1" value="0" leadInLength="0/1"  name="cursorOpacity"/>
              <InterpolatingParam id="2372" interp="linr"  time="0/1" value="0" leadInLength="0/1"  name="cursorScale"/>
             </Parameters>
             <Attributes>
              <Attribute id="2373" value="" name="ident"/>
             </Attributes>
             <ExtraData>
              <Entry key="ZoomPanBin">
               <ZoomPanBin id="2374"  >
                <ZoomPanKeyframes>
                 <ZoomPanKeyframe id="2375" timeRangeEnd="-9999999/1" timeRangeDuration="0/1" interpolaterName=""  />
                </ZoomPanKeyframes>
               </ZoomPanBin>
              </Entry>
              <Entry key="CursorEffectBin">
               <CursorEffectBin id="2376"  >
                <CursorEffectKeyframes>
                </CursorEffectKeyframes>
               </CursorEffectBin>
              </Entry>
             </ExtraData>
            </ScreenVMFile>
            <MetaData>
             <entry key="AutoAppliedSmartFocus" val="False"/>
             <entry key="WinSubProjectDisplayName" val=""/>
            </MetaData>
           </UnifiedMedia>
           <UnifiedMedia id="2377"  >
            <AMFile id="2378" start="9834" duration="74" scalar="1/1" mediaStart="16547/1" mediaDuration="74/1" trackNumber="1" src="4" channelNumber="0,1" >
             <Parameters>
              <InterpolatingParam id="2379" interp="linr"  time="0/1" value="1" leadInLength="0/1"  name="volume"/>
              <Parameter id="2380"  name="captions"/>
             </Parameters>
             <Attributes>
              <Attribute id="2381" value="" name="ident"/>
              <Attribute id="2382" value="44100" name="sampleRate"/>
              <Attribute id="2383" value="16" name="bitDepth"/>
              <Attribute id="2384" value="1" name="gain"/>
              <Attribute id="2385" value="0" name="mixToMono"/>
             </Attributes>
            </AMFile>
            <ScreenVMFile id="2386" start="9834" duration="74" scalar="1/1" mediaStart="16547/1" mediaDuration="74/1" trackNumber="0" src="4" >
             <Transformer>
              <VectorParam id="2387"  name="translation">
               <InterpolatingParam id="2388" interp="linr"  time="-9999999/1" value="0" leadInLength="0/1"  />
               <InterpolatingParam id="2389" interp="linr"  time="-9999999/1" value="0" leadInLength="0/1"  />
               <InterpolatingParam id="2390" interp="linr"  time="-9999999/1" value="0" leadInLength="0/1"  />
              </VectorParam>
              <VectorParam id="2391"  name="rotation">
               <InterpolatingParam id="2392" interp="linr"  time="-9999999/1" value="0" leadInLength="0/1"  />
               <InterpolatingParam id="2393" interp="linr"  time="-9999999/1" value="0" leadInLength="0/1"  />
               <InterpolatingParam id="2394" interp="linr"  time="-9999999/1" value="0" leadInLength="0/1"  />
              </VectorParam>
              <VectorParam id="2395"  name="shear">
               <InterpolatingParam id="2396" interp="linr"  time="-9999999/1" value="0" leadInLength="0/1"  />
               <InterpolatingParam id="2397" interp="linr"  time="-9999999/1" value="0" leadInLength="0/1"  />
               <InterpolatingParam id="2398" interp="linr"  time="-9999999/1" value="0" leadInLength="0/1"  />
              </VectorParam>
              <VectorParam id="2399"  name="scale">
               <InterpolatingParam id="2400" interp="linr"  time="-9999999/1" value="1" leadInLength="0/1"  />
               <InterpolatingParam id="2401" interp="linr"  time="-9999999/1" value="1" leadInLength="0/1"  />
               <InterpolatingParam id="2402" interp="linr"  time="-9999999/1" value="1" leadInLength="0/1"  />
              </VectorParam>
              <VectorParam id="2403"  name="anchor">
               <InterpolatingParam id="2404" interp="linr"  time="0/1" value="0" leadInLength="0/1"  />
               <InterpolatingParam id="2405" interp="linr"  time="0/1" value="0" leadInLength="0/1"  />
               <InterpolatingParam id="2406" interp="linr"  time="0/1" value="0" leadInLength="0/1"  />
              </VectorParam>
             </Transformer>
             <Parameters>
              <VectorParam id="2407"  name="sourceCrop">
               <InterpolatingParam id="2408" interp="linr"  time="0/1" value="0" leadInLength="0/1"  />
               <InterpolatingParam id="2409" interp="linr"  time="0/1" value="0" leadInLength="0/1"  />
               <InterpolatingParam id="2410" interp="linr"  time="0/1" value="0" leadInLength="0/1"  />
               <InterpolatingParam id="2411" interp="linr"  time="0/1" value="0" leadInLength="0/1"  />
              </VectorParam>
              <VectorParam id="2412"  name="geometryCrop">
               <InterpolatingParam id="2413" interp="linr"  time="-9999999/1" value="0" leadInLength="0/1"  />
               <InterpolatingParam id="2414" interp="linr"  time="-9999999/1" value="0" leadInLength="0/1"  />
               <InterpolatingParam id="2415" interp="linr"  time="-9999999/1" value="0" leadInLength="0/1"  />
               <InterpolatingParam id="2416" interp="linr"  time="-9999999/1" value="0" leadInLength="0/1"  />
              </VectorParam>
              <InterpolatingParam id="2417" interp="linr"  time="-9999999/1" value="1" leadInLength="0/1"  name="opacity"/>
              <InterpolatingParam id="2418" interp="linr"  time="0/1" value="0" leadInLength="0/1"  name="cursorOpacity"/>
              <InterpolatingParam id="2419" interp="linr"  time="0/1" value="0" leadInLength="0/1"  name="cursorScale"/>
             </Parameters>
             <Attributes>
              <Attribute id="2420" value="" name="ident"/>
             </Attributes>
             <ExtraData>
              <Entry key="ZoomPanBin">
               <ZoomPanBin id="2421"  >
                <ZoomPanKeyframes>
                 <ZoomPanKeyframe id="2422" timeRangeEnd="-9999999/1" timeRangeDuration="0/1" interpolaterName=""  />
                </ZoomPanKeyframes>
               </ZoomPanBin>
              </Entry>
              <Entry key="CursorEffectBin">
               <CursorEffectBin id="2423"  >
                <CursorEffectKeyframes>
                </CursorEffectKeyframes>
               </CursorEffectBin>
              </Entry>
             </ExtraData>
            </ScreenVMFile>
            <MetaData>
             <entry key="AutoAppliedSmartFocus" val="False"/>
             <entry key="WinSubProjectDisplayName" val=""/>
            </MetaData>
           </UnifiedMedia>
           <UnifiedMedia id="2424"  >
            <AMFile id="2425" start="9908" duration="249" scalar="1/1" mediaStart="17036/1" mediaDuration="249/1" trackNumber="1" src="4" channelNumber="0,1" >
             <Parameters>
              <InterpolatingParam id="2426" interp="linr"  time="0/1" value="1" leadInLength="0/1"  name="volume"/>
              <Parameter id="2427"  name="captions"/>
             </Parameters>
             <Attributes>
              <Attribute id="2428" value="" name="ident"/>
              <Attribute id="2429" value="44100" name="sampleRate"/>
              <Attribute id="2430" value="16" name="bitDepth"/>
              <Attribute id="2431" value="1" name="gain"/>
              <Attribute id="2432" value="0" name="mixToMono"/>
             </Attributes>
            </AMFile>
            <ScreenVMFile id="2433" start="9908" duration="249" scalar="1/1" mediaStart="17036/1" mediaDuration="249/1" trackNumber="0" src="4" >
             <Transformer>
              <VectorParam id="2434"  name="translation">
               <InterpolatingParam id="2435" interp="linr"  time="-9999999/1" value="0" leadInLength="0/1"  />
               <InterpolatingParam id="2436" interp="linr"  time="-9999999/1" value="0" leadInLength="0/1"  />
               <InterpolatingParam id="2437" interp="linr"  time="-9999999/1" value="0" leadInLength="0/1"  />
              </VectorParam>
              <VectorParam id="2438"  name="rotation">
               <InterpolatingParam id="2439" interp="linr"  time="-9999999/1" value="0" leadInLength="0/1"  />
               <InterpolatingParam id="2440" interp="linr"  time="-9999999/1" value="0" leadInLength="0/1"  />
               <InterpolatingParam id="2441" interp="linr"  time="-9999999/1" value="0" leadInLength="0/1"  />
              </VectorParam>
              <VectorParam id="2442"  name="shear">
               <InterpolatingParam id="2443" interp="linr"  time="-9999999/1" value="0" leadInLength="0/1"  />
               <InterpolatingParam id="2444" interp="linr"  time="-9999999/1" value="0" leadInLength="0/1"  />
               <InterpolatingParam id="2445" interp="linr"  time="-9999999/1" value="0" leadInLength="0/1"  />
              </VectorParam>
              <VectorParam id="2446"  name="scale">
               <InterpolatingParam id="2447" interp="linr"  time="-9999999/1" value="1" leadInLength="0/1"  />
               <InterpolatingParam id="2448" interp="linr"  time="-9999999/1" value="1" leadInLength="0/1"  />
               <InterpolatingParam id="2449" interp="linr"  time="-9999999/1" value="1" leadInLength="0/1"  />
              </VectorParam>
              <VectorParam id="2450"  name="anchor">
               <InterpolatingParam id="2451" interp="linr"  time="0/1" value="0" leadInLength="0/1"  />
               <InterpolatingParam id="2452" interp="linr"  time="0/1" value="0" leadInLength="0/1"  />
               <InterpolatingParam id="2453" interp="linr"  time="0/1" value="0" leadInLength="0/1"  />
              </VectorParam>
             </Transformer>
             <Parameters>
              <VectorParam id="2454"  name="sourceCrop">
               <InterpolatingParam id="2455" interp="linr"  time="0/1" value="0" leadInLength="0/1"  />
               <InterpolatingParam id="2456" interp="linr"  time="0/1" value="0" leadInLength="0/1"  />
               <InterpolatingParam id="2457" interp="linr"  time="0/1" value="0" leadInLength="0/1"  />
               <InterpolatingParam id="2458" interp="linr"  time="0/1" value="0" leadInLength="0/1"  />
              </VectorParam>
              <VectorParam id="2459"  name="geometryCrop">
               <InterpolatingParam id="2460" interp="linr"  time="-9999999/1" value="0" leadInLength="0/1"  />
               <InterpolatingParam id="2461" interp="linr"  time="-9999999/1" value="0" leadInLength="0/1"  />
               <InterpolatingParam id="2462" interp="linr"  time="-9999999/1" value="0" leadInLength="0/1"  />
               <InterpolatingParam id="2463" interp="linr"  time="-9999999/1" value="0" leadInLength="0/1"  />
              </VectorParam>
              <InterpolatingParam id="2464" interp="linr"  time="-9999999/1" value="1" leadInLength="0/1"  name="opacity"/>
              <InterpolatingParam id="2465" interp="linr"  time="0/1" value="0" leadInLength="0/1"  name="cursorOpacity"/>
              <InterpolatingParam id="2466" interp="linr"  time="0/1" value="0" leadInLength="0/1"  name="cursorScale"/>
             </Parameters>
             <Attributes>
              <Attribute id="2467" value="" name="ident"/>
             </Attributes>
             <ExtraData>
              <Entry key="ZoomPanBin">
               <ZoomPanBin id="2468"  >
                <ZoomPanKeyframes>
                 <ZoomPanKeyframe id="2469" timeRangeEnd="-9999999/1" timeRangeDuration="0/1" interpolaterName=""  />
                </ZoomPanKeyframes>
               </ZoomPanBin>
              </Entry>
              <Entry key="CursorEffectBin">
               <CursorEffectBin id="2470"  >
                <CursorEffectKeyframes>
                </CursorEffectKeyframes>
               </CursorEffectBin>
              </Entry>
             </ExtraData>
            </ScreenVMFile>
            <MetaData>
             <entry key="AutoAppliedSmartFocus" val="False"/>
             <entry key="WinSubProjectDisplayName" val=""/>
            </MetaData>
           </UnifiedMedia>
           <UnifiedMedia id="2471"  >
            <AMFile id="2472" start="10157" duration="438" scalar="1/1" mediaStart="17573/1" mediaDuration="438/1" trackNumber="1" src="4" channelNumber="0,1" >
             <Parameters>
              <InterpolatingParam id="2473" interp="linr"  time="0/1" value="1" leadInLength="0/1"  name="volume"/>
              <Parameter id="2474"  name="captions"/>
             </Parameters>
             <Attributes>
              <Attribute id="2475" value="" name="ident"/>
              <Attribute id="2476" value="44100" name="sampleRate"/>
              <Attribute id="2477" value="16" name="bitDepth"/>
              <Attribute id="2478" value="1" name="gain"/>
              <Attribute id="2479" value="0" name="mixToMono"/>
             </Attributes>
            </AMFile>
            <ScreenVMFile id="2480" start="10157" duration="438" scalar="1/1" mediaStart="17573/1" mediaDuration="438/1" trackNumber="0" src="4" >
             <Transformer>
              <VectorParam id="2481"  name="translation">
               <InterpolatingParam id="2482" interp="linr"  time="-9999999/1" value="0" leadInLength="0/1"  />
               <InterpolatingParam id="2483" interp="linr"  time="-9999999/1" value="0" leadInLength="0/1"  />
               <InterpolatingParam id="2484" interp="linr"  time="-9999999/1" value="0" leadInLength="0/1"  />
              </VectorParam>
              <VectorParam id="2485"  name="rotation">
               <InterpolatingParam id="2486" interp="linr"  time="-9999999/1" value="0" leadInLength="0/1"  />
               <InterpolatingParam id="2487" interp="linr"  time="-9999999/1" value="0" leadInLength="0/1"  />
               <InterpolatingParam id="2488" interp="linr"  time="-9999999/1" value="0" leadInLength="0/1"  />
              </VectorParam>
              <VectorParam id="2489"  name="shear">
               <InterpolatingParam id="2490" interp="linr"  time="-9999999/1" value="0" leadInLength="0/1"  />
               <InterpolatingParam id="2491" interp="linr"  time="-9999999/1" value="0" leadInLength="0/1"  />
               <InterpolatingParam id="2492" interp="linr"  time="-9999999/1" value="0" leadInLength="0/1"  />
              </VectorParam>
              <VectorParam id="2493"  name="scale">
               <InterpolatingParam id="2494" interp="linr"  time="-9999999/1" value="1" leadInLength="0/1"  />
               <InterpolatingParam id="2495" interp="linr"  time="-9999999/1" value="1" leadInLength="0/1"  />
               <InterpolatingParam id="2496" interp="linr"  time="-9999999/1" value="1" leadInLength="0/1"  />
              </VectorParam>
              <VectorParam id="2497"  name="anchor">
               <InterpolatingParam id="2498" interp="linr"  time="0/1" value="0" leadInLength="0/1"  />
               <InterpolatingParam id="2499" interp="linr"  time="0/1" value="0" leadInLength="0/1"  />
               <InterpolatingParam id="2500" interp="linr"  time="0/1" value="0" leadInLength="0/1"  />
              </VectorParam>
             </Transformer>
             <Parameters>
              <VectorParam id="2501"  name="sourceCrop">
               <InterpolatingParam id="2502" interp="linr"  time="0/1" value="0" leadInLength="0/1"  />
               <InterpolatingParam id="2503" interp="linr"  time="0/1" value="0" leadInLength="0/1"  />
               <InterpolatingParam id="2504" interp="linr"  time="0/1" value="0" leadInLength="0/1"  />
               <InterpolatingParam id="2505" interp="linr"  time="0/1" value="0" leadInLength="0/1"  />
              </VectorParam>
              <VectorParam id="2506"  name="geometryCrop">
               <InterpolatingParam id="2507" interp="linr"  time="-9999999/1" value="0" leadInLength="0/1"  />
               <InterpolatingParam id="2508" interp="linr"  time="-9999999/1" value="0" leadInLength="0/1"  />
               <InterpolatingParam id="2509" interp="linr"  time="-9999999/1" value="0" leadInLength="0/1"  />
               <InterpolatingParam id="2510" interp="linr"  time="-9999999/1" value="0" leadInLength="0/1"  />
              </VectorParam>
              <InterpolatingParam id="2511" interp="linr"  time="-9999999/1" value="1" leadInLength="0/1"  name="opacity"/>
              <InterpolatingParam id="2512" interp="linr"  time="0/1" value="0" leadInLength="0/1"  name="cursorOpacity"/>
              <InterpolatingParam id="2513" interp="linr"  time="0/1" value="0" leadInLength="0/1"  name="cursorScale"/>
             </Parameters>
             <Attributes>
              <Attribute id="2514" value="" name="ident"/>
             </Attributes>
             <ExtraData>
              <Entry key="ZoomPanBin">
               <ZoomPanBin id="2515"  >
                <ZoomPanKeyframes>
                 <ZoomPanKeyframe id="2516" timeRangeEnd="-9999999/1" timeRangeDuration="0/1" interpolaterName=""  />
                </ZoomPanKeyframes>
               </ZoomPanBin>
              </Entry>
              <Entry key="CursorEffectBin">
               <CursorEffectBin id="2517"  >
                <CursorEffectKeyframes>
                </CursorEffectKeyframes>
               </CursorEffectBin>
              </Entry>
             </ExtraData>
            </ScreenVMFile>
            <MetaData>
             <entry key="AutoAppliedSmartFocus" val="False"/>
             <entry key="WinSubProjectDisplayName" val=""/>
            </MetaData>
           </UnifiedMedia>
           <UnifiedMedia id="2518"  >
            <AMFile id="2519" start="10595" duration="167" scalar="1/1" mediaStart="18231/1" mediaDuration="167/1" trackNumber="1" src="4" channelNumber="0,1" >
             <Parameters>
              <InterpolatingParam id="2520" interp="linr"  time="0/1" value="1" leadInLength="0/1"  name="volume"/>
              <Parameter id="2521"  name="captions"/>
             </Parameters>
             <Attributes>
              <Attribute id="2522" value="" name="ident"/>
              <Attribute id="2523" value="44100" name="sampleRate"/>
              <Attribute id="2524" value="16" name="bitDepth"/>
              <Attribute id="2525" value="1" name="gain"/>
              <Attribute id="2526" value="0" name="mixToMono"/>
             </Attributes>
            </AMFile>
            <ScreenVMFile id="2527" start="10595" duration="167" scalar="1/1" mediaStart="18231/1" mediaDuration="167/1" trackNumber="0" src="4" >
             <Transformer>
              <VectorParam id="2528"  name="translation">
               <InterpolatingParam id="2529" interp="linr"  time="-9999999/1" value="0" leadInLength="0/1"  />
               <InterpolatingParam id="2530" interp="linr"  time="-9999999/1" value="0" leadInLength="0/1"  />
               <InterpolatingParam id="2531" interp="linr"  time="-9999999/1" value="0" leadInLength="0/1"  />
              </VectorParam>
              <VectorParam id="2532"  name="rotation">
               <InterpolatingParam id="2533" interp="linr"  time="-9999999/1" value="0" leadInLength="0/1"  />
               <InterpolatingParam id="2534" interp="linr"  time="-9999999/1" value="0" leadInLength="0/1"  />
               <InterpolatingParam id="2535" interp="linr"  time="-9999999/1" value="0" leadInLength="0/1"  />
              </VectorParam>
              <VectorParam id="2536"  name="shear">
               <InterpolatingParam id="2537" interp="linr"  time="-9999999/1" value="0" leadInLength="0/1"  />
               <InterpolatingParam id="2538" interp="linr"  time="-9999999/1" value="0" leadInLength="0/1"  />
               <InterpolatingParam id="2539" interp="linr"  time="-9999999/1" value="0" leadInLength="0/1"  />
              </VectorParam>
              <VectorParam id="2540"  name="scale">
               <InterpolatingParam id="2541" interp="linr"  time="-9999999/1" value="1" leadInLength="0/1"  />
               <InterpolatingParam id="2542" interp="linr"  time="-9999999/1" value="1" leadInLength="0/1"  />
               <InterpolatingParam id="2543" interp="linr"  time="-9999999/1" value="1" leadInLength="0/1"  />
              </VectorParam>
              <VectorParam id="2544"  name="anchor">
               <InterpolatingParam id="2545" interp="linr"  time="0/1" value="0" leadInLength="0/1"  />
               <InterpolatingParam id="2546" interp="linr"  time="0/1" value="0" leadInLength="0/1"  />
               <InterpolatingParam id="2547" interp="linr"  time="0/1" value="0" leadInLength="0/1"  />
              </VectorParam>
             </Transformer>
             <Parameters>
              <VectorParam id="2548"  name="sourceCrop">
               <InterpolatingParam id="2549" interp="linr"  time="0/1" value="0" leadInLength="0/1"  />
               <InterpolatingParam id="2550" interp="linr"  time="0/1" value="0" leadInLength="0/1"  />
               <InterpolatingParam id="2551" interp="linr"  time="0/1" value="0" leadInLength="0/1"  />
               <InterpolatingParam id="2552" interp="linr"  time="0/1" value="0" leadInLength="0/1"  />
              </VectorParam>
              <VectorParam id="2553"  name="geometryCrop">
               <InterpolatingParam id="2554" interp="linr"  time="-9999999/1" value="0" leadInLength="0/1"  />
               <InterpolatingParam id="2555" interp="linr"  time="-9999999/1" value="0" leadInLength="0/1"  />
               <InterpolatingParam id="2556" interp="linr"  time="-9999999/1" value="0" leadInLength="0/1"  />
               <InterpolatingParam id="2557" interp="linr"  time="-9999999/1" value="0" leadInLength="0/1"  />
              </VectorParam>
              <InterpolatingParam id="2558" interp="linr"  time="-9999999/1" value="1" leadInLength="0/1"  name="opacity"/>
              <InterpolatingParam id="2559" interp="linr"  time="0/1" value="0" leadInLength="0/1"  name="cursorOpacity"/>
              <InterpolatingParam id="2560" interp="linr"  time="0/1" value="0" leadInLength="0/1"  name="cursorScale"/>
             </Parameters>
             <Attributes>
              <Attribute id="2561" value="" name="ident"/>
             </Attributes>
             <ExtraData>
              <Entry key="ZoomPanBin">
               <ZoomPanBin id="2562"  >
                <ZoomPanKeyframes>
                 <ZoomPanKeyframe id="2563" timeRangeEnd="-9999999/1" timeRangeDuration="0/1" interpolaterName=""  />
                </ZoomPanKeyframes>
               </ZoomPanBin>
              </Entry>
              <Entry key="CursorEffectBin">
               <CursorEffectBin id="2564"  >
                <CursorEffectKeyframes>
                </CursorEffectKeyframes>
               </CursorEffectBin>
              </Entry>
             </ExtraData>
            </ScreenVMFile>
            <MetaData>
             <entry key="AutoAppliedSmartFocus" val="False"/>
             <entry key="WinSubProjectDisplayName" val=""/>
            </MetaData>
           </UnifiedMedia>
           <UnifiedMedia id="2565"  >
            <AMFile id="2566" start="10762" duration="41" scalar="1/1" mediaStart="18434/1" mediaDuration="41/1" trackNumber="1" src="4" channelNumber="0,1" >
             <Parameters>
              <InterpolatingParam id="2567" interp="linr"  time="0/1" value="1" leadInLength="0/1"  name="volume"/>
              <Parameter id="2568"  name="captions"/>
             </Parameters>
             <Attributes>
              <Attribute id="2569" value="" name="ident"/>
              <Attribute id="2570" value="44100" name="sampleRate"/>
              <Attribute id="2571" value="16" name="bitDepth"/>
              <Attribute id="2572" value="1" name="gain"/>
              <Attribute id="2573" value="0" name="mixToMono"/>
             </Attributes>
            </AMFile>
            <ScreenVMFile id="2574" start="10762" duration="41" scalar="1/1" mediaStart="18434/1" mediaDuration="41/1" trackNumber="0" src="4" >
             <Transformer>
              <VectorParam id="2575"  name="translation">
               <InterpolatingParam id="2576" interp="linr"  time="-9999999/1" value="0" leadInLength="0/1"  />
               <InterpolatingParam id="2577" interp="linr"  time="-9999999/1" value="0" leadInLength="0/1"  />
               <InterpolatingParam id="2578" interp="linr"  time="-9999999/1" value="0" leadInLength="0/1"  />
              </VectorParam>
              <VectorParam id="2579"  name="rotation">
               <InterpolatingParam id="2580" interp="linr"  time="-9999999/1" value="0" leadInLength="0/1"  />
               <InterpolatingParam id="2581" interp="linr"  time="-9999999/1" value="0" leadInLength="0/1"  />
               <InterpolatingParam id="2582" interp="linr"  time="-9999999/1" value="0" leadInLength="0/1"  />
              </VectorParam>
              <VectorParam id="2583"  name="shear">
               <InterpolatingParam id="2584" interp="linr"  time="-9999999/1" value="0" leadInLength="0/1"  />
               <InterpolatingParam id="2585" interp="linr"  time="-9999999/1" value="0" leadInLength="0/1"  />
               <InterpolatingParam id="2586" interp="linr"  time="-9999999/1" value="0" leadInLength="0/1"  />
              </VectorParam>
              <VectorParam id="2587"  name="scale">
               <InterpolatingParam id="2588" interp="linr"  time="-9999999/1" value="1" leadInLength="0/1"  />
               <InterpolatingParam id="2589" interp="linr"  time="-9999999/1" value="1" leadInLength="0/1"  />
               <InterpolatingParam id="2590" interp="linr"  time="-9999999/1" value="1" leadInLength="0/1"  />
              </VectorParam>
              <VectorParam id="2591"  name="anchor">
               <InterpolatingParam id="2592" interp="linr"  time="0/1" value="0" leadInLength="0/1"  />
               <InterpolatingParam id="2593" interp="linr"  time="0/1" value="0" leadInLength="0/1"  />
               <InterpolatingParam id="2594" interp="linr"  time="0/1" value="0" leadInLength="0/1"  />
              </VectorParam>
             </Transformer>
             <Parameters>
              <VectorParam id="2595"  name="sourceCrop">
               <InterpolatingParam id="2596" interp="linr"  time="0/1" value="0" leadInLength="0/1"  />
               <InterpolatingParam id="2597" interp="linr"  time="0/1" value="0" leadInLength="0/1"  />
               <InterpolatingParam id="2598" interp="linr"  time="0/1" value="0" leadInLength="0/1"  />
               <InterpolatingParam id="2599" interp="linr"  time="0/1" value="0" leadInLength="0/1"  />
              </VectorParam>
              <VectorParam id="2600"  name="geometryCrop">
               <InterpolatingParam id="2601" interp="linr"  time="-9999999/1" value="0" leadInLength="0/1"  />
               <InterpolatingParam id="2602" interp="linr"  time="-9999999/1" value="0" leadInLength="0/1"  />
               <InterpolatingParam id="2603" interp="linr"  time="-9999999/1" value="0" leadInLength="0/1"  />
               <InterpolatingParam id="2604" interp="linr"  time="-9999999/1" value="0" leadInLength="0/1"  />
              </VectorParam>
              <InterpolatingParam id="2605" interp="linr"  time="-9999999/1" value="1" leadInLength="0/1"  name="opacity"/>
              <InterpolatingParam id="2606" interp="linr"  time="0/1" value="0" leadInLength="0/1"  name="cursorOpacity"/>
              <InterpolatingParam id="2607" interp="linr"  time="0/1" value="0" leadInLength="0/1"  name="cursorScale"/>
             </Parameters>
             <Attributes>
              <Attribute id="2608" value="" name="ident"/>
             </Attributes>
             <ExtraData>
              <Entry key="ZoomPanBin">
               <ZoomPanBin id="2609"  >
                <ZoomPanKeyframes>
                 <ZoomPanKeyframe id="2610" timeRangeEnd="-9999999/1" timeRangeDuration="0/1" interpolaterName=""  />
                </ZoomPanKeyframes>
               </ZoomPanBin>
              </Entry>
              <Entry key="CursorEffectBin">
               <CursorEffectBin id="2611"  >
                <CursorEffectKeyframes>
                </CursorEffectKeyframes>
               </CursorEffectBin>
              </Entry>
             </ExtraData>
            </ScreenVMFile>
            <MetaData>
             <entry key="AutoAppliedSmartFocus" val="False"/>
             <entry key="WinSubProjectDisplayName" val=""/>
            </MetaData>
           </UnifiedMedia>
           <UnifiedMedia id="2612"  >
            <AMFile id="2613" start="10803" duration="199" scalar="1/1" mediaStart="18489/1" mediaDuration="199/1" trackNumber="1" src="4" channelNumber="0,1" >
             <Parameters>
              <InterpolatingParam id="2614" interp="linr"  time="0/1" value="1" leadInLength="0/1"  name="volume"/>
              <Parameter id="2615"  name="captions"/>
             </Parameters>
             <Attributes>
              <Attribute id="2616" value="" name="ident"/>
              <Attribute id="2617" value="44100" name="sampleRate"/>
              <Attribute id="2618" value="16" name="bitDepth"/>
              <Attribute id="2619" value="1" name="gain"/>
              <Attribute id="2620" value="0" name="mixToMono"/>
             </Attributes>
            </AMFile>
            <ScreenVMFile id="2621" start="10803" duration="199" scalar="1/1" mediaStart="18489/1" mediaDuration="199/1" trackNumber="0" src="4" >
             <Transformer>
              <VectorParam id="2622"  name="translation">
               <InterpolatingParam id="2623" interp="linr"  time="-9999999/1" value="0" leadInLength="0/1"  />
               <InterpolatingParam id="2624" interp="linr"  time="-9999999/1" value="0" leadInLength="0/1"  />
               <InterpolatingParam id="2625" interp="linr"  time="-9999999/1" value="0" leadInLength="0/1"  />
              </VectorParam>
              <VectorParam id="2626"  name="rotation">
               <InterpolatingParam id="2627" interp="linr"  time="-9999999/1" value="0" leadInLength="0/1"  />
               <InterpolatingParam id="2628" interp="linr"  time="-9999999/1" value="0" leadInLength="0/1"  />
               <InterpolatingParam id="2629" interp="linr"  time="-9999999/1" value="0" leadInLength="0/1"  />
              </VectorParam>
              <VectorParam id="2630"  name="shear">
               <InterpolatingParam id="2631" interp="linr"  time="-9999999/1" value="0" leadInLength="0/1"  />
               <InterpolatingParam id="2632" interp="linr"  time="-9999999/1" value="0" leadInLength="0/1"  />
               <InterpolatingParam id="2633" interp="linr"  time="-9999999/1" value="0" leadInLength="0/1"  />
              </VectorParam>
              <VectorParam id="2634"  name="scale">
               <InterpolatingParam id="2635" interp="linr"  time="-9999999/1" value="1" leadInLength="0/1"  />
               <InterpolatingParam id="2636" interp="linr"  time="-9999999/1" value="1" leadInLength="0/1"  />
               <InterpolatingParam id="2637" interp="linr"  time="-9999999/1" value="1" leadInLength="0/1"  />
              </VectorParam>
              <VectorParam id="2638"  name="anchor">
               <InterpolatingParam id="2639" interp="linr"  time="0/1" value="0" leadInLength="0/1"  />
               <InterpolatingParam id="2640" interp="linr"  time="0/1" value="0" leadInLength="0/1"  />
               <InterpolatingParam id="2641" interp="linr"  time="0/1" value="0" leadInLength="0/1"  />
              </VectorParam>
             </Transformer>
             <Parameters>
              <VectorParam id="2642"  name="sourceCrop">
               <InterpolatingParam id="2643" interp="linr"  time="0/1" value="0" leadInLength="0/1"  />
               <InterpolatingParam id="2644" interp="linr"  time="0/1" value="0" leadInLength="0/1"  />
               <InterpolatingParam id="2645" interp="linr"  time="0/1" value="0" leadInLength="0/1"  />
               <InterpolatingParam id="2646" interp="linr"  time="0/1" value="0" leadInLength="0/1"  />
              </VectorParam>
              <VectorParam id="2647"  name="geometryCrop">
               <InterpolatingParam id="2648" interp="linr"  time="-9999999/1" value="0" leadInLength="0/1"  />
               <InterpolatingParam id="2649" interp="linr"  time="-9999999/1" value="0" leadInLength="0/1"  />
               <InterpolatingParam id="2650" interp="linr"  time="-9999999/1" value="0" leadInLength="0/1"  />
               <InterpolatingParam id="2651" interp="linr"  time="-9999999/1" value="0" leadInLength="0/1"  />
              </VectorParam>
              <InterpolatingParam id="2652" interp="linr"  time="-9999999/1" value="1" leadInLength="0/1"  name="opacity"/>
              <InterpolatingParam id="2653" interp="linr"  time="0/1" value="0" leadInLength="0/1"  name="cursorOpacity"/>
              <InterpolatingParam id="2654" interp="linr"  time="0/1" value="0" leadInLength="0/1"  name="cursorScale"/>
             </Parameters>
             <Attributes>
              <Attribute id="2655" value="" name="ident"/>
             </Attributes>
             <ExtraData>
              <Entry key="ZoomPanBin">
               <ZoomPanBin id="2656"  >
                <ZoomPanKeyframes>
                 <ZoomPanKeyframe id="2657" timeRangeEnd="-9999999/1" timeRangeDuration="0/1" interpolaterName=""  />
                </ZoomPanKeyframes>
               </ZoomPanBin>
              </Entry>
              <Entry key="CursorEffectBin">
               <CursorEffectBin id="2658"  >
                <CursorEffectKeyframes>
                </CursorEffectKeyframes>
               </CursorEffectBin>
              </Entry>
             </ExtraData>
            </ScreenVMFile>
            <MetaData>
             <entry key="AutoAppliedSmartFocus" val="False"/>
             <entry key="WinSubProjectDisplayName" val=""/>
            </MetaData>
           </UnifiedMedia>
           <UnifiedMedia id="2659"  >
            <AMFile id="2660" start="11002" duration="273" scalar="1/1" mediaStart="19241/1" mediaDuration="273/1" trackNumber="1" src="4" channelNumber="0,1" >
             <Parameters>
              <InterpolatingParam id="2661" interp="linr"  time="0/1" value="1" leadInLength="0/1"  name="volume"/>
              <Parameter id="2662"  name="captions"/>
             </Parameters>
             <Attributes>
              <Attribute id="2663" value="" name="ident"/>
              <Attribute id="2664" value="44100" name="sampleRate"/>
              <Attribute id="2665" value="16" name="bitDepth"/>
              <Attribute id="2666" value="1" name="gain"/>
              <Attribute id="2667" value="0" name="mixToMono"/>
             </Attributes>
            </AMFile>
            <ScreenVMFile id="2668" start="11002" duration="273" scalar="1/1" mediaStart="19241/1" mediaDuration="273/1" trackNumber="0" src="4" >
             <Transformer>
              <VectorParam id="2669"  name="translation">
               <InterpolatingParam id="2670" interp="linr"  time="-9999999/1" value="0" leadInLength="0/1"  />
               <InterpolatingParam id="2671" interp="linr"  time="-9999999/1" value="0" leadInLength="0/1"  />
               <InterpolatingParam id="2672" interp="linr"  time="-9999999/1" value="0" leadInLength="0/1"  />
              </VectorParam>
              <VectorParam id="2673"  name="rotation">
               <InterpolatingParam id="2674" interp="linr"  time="-9999999/1" value="0" leadInLength="0/1"  />
               <InterpolatingParam id="2675" interp="linr"  time="-9999999/1" value="0" leadInLength="0/1"  />
               <InterpolatingParam id="2676" interp="linr"  time="-9999999/1" value="0" leadInLength="0/1"  />
              </VectorParam>
              <VectorParam id="2677"  name="shear">
               <InterpolatingParam id="2678" interp="linr"  time="-9999999/1" value="0" leadInLength="0/1"  />
               <InterpolatingParam id="2679" interp="linr"  time="-9999999/1" value="0" leadInLength="0/1"  />
               <InterpolatingParam id="2680" interp="linr"  time="-9999999/1" value="0" leadInLength="0/1"  />
              </VectorParam>
              <VectorParam id="2681"  name="scale">
               <InterpolatingParam id="2682" interp="linr"  time="-9999999/1" value="1" leadInLength="0/1"  />
               <InterpolatingParam id="2683" interp="linr"  time="-9999999/1" value="1" leadInLength="0/1"  />
               <InterpolatingParam id="2684" interp="linr"  time="-9999999/1" value="1" leadInLength="0/1"  />
              </VectorParam>
              <VectorParam id="2685"  name="anchor">
               <InterpolatingParam id="2686" interp="linr"  time="0/1" value="0" leadInLength="0/1"  />
               <InterpolatingParam id="2687" interp="linr"  time="0/1" value="0" leadInLength="0/1"  />
               <InterpolatingParam id="2688" interp="linr"  time="0/1" value="0" leadInLength="0/1"  />
              </VectorParam>
             </Transformer>
             <Parameters>
              <VectorParam id="2689"  name="sourceCrop">
               <InterpolatingParam id="2690" interp="linr"  time="0/1" value="0" leadInLength="0/1"  />
               <InterpolatingParam id="2691" interp="linr"  time="0/1" value="0" leadInLength="0/1"  />
               <InterpolatingParam id="2692" interp="linr"  time="0/1" value="0" leadInLength="0/1"  />
               <InterpolatingParam id="2693" interp="linr"  time="0/1" value="0" leadInLength="0/1"  />
              </VectorParam>
              <VectorParam id="2694"  name="geometryCrop">
               <InterpolatingParam id="2695" interp="linr"  time="-9999999/1" value="0" leadInLength="0/1"  />
               <InterpolatingParam id="2696" interp="linr"  time="-9999999/1" value="0" leadInLength="0/1"  />
               <InterpolatingParam id="2697" interp="linr"  time="-9999999/1" value="0" leadInLength="0/1"  />
               <InterpolatingParam id="2698" interp="linr"  time="-9999999/1" value="0" leadInLength="0/1"  />
              </VectorParam>
              <InterpolatingParam id="2699" interp="linr"  time="-9999999/1" value="1" leadInLength="0/1"  name="opacity"/>
              <InterpolatingParam id="2700" interp="linr"  time="0/1" value="0" leadInLength="0/1"  name="cursorOpacity"/>
              <InterpolatingParam id="2701" interp="linr"  time="0/1" value="0" leadInLength="0/1"  name="cursorScale"/>
             </Parameters>
             <Attributes>
              <Attribute id="2702" value="" name="ident"/>
             </Attributes>
             <ExtraData>
              <Entry key="ZoomPanBin">
               <ZoomPanBin id="2703"  >
                <ZoomPanKeyframes>
                 <ZoomPanKeyframe id="2704" timeRangeEnd="-9999999/1" timeRangeDuration="0/1" interpolaterName=""  />
                </ZoomPanKeyframes>
               </ZoomPanBin>
              </Entry>
              <Entry key="CursorEffectBin">
               <CursorEffectBin id="2705"  >
                <CursorEffectKeyframes>
                </CursorEffectKeyframes>
               </CursorEffectBin>
              </Entry>
             </ExtraData>
            </ScreenVMFile>
            <MetaData>
             <entry key="AutoAppliedSmartFocus" val="False"/>
             <entry key="WinSubProjectDisplayName" val=""/>
            </MetaData>
           </UnifiedMedia>
           <UnifiedMedia id="2706"  >
            <AMFile id="2707" start="11275" duration="394" scalar="1/1" mediaStart="19749/1" mediaDuration="394/1" trackNumber="1" src="4" channelNumber="0,1" >
             <Parameters>
              <InterpolatingParam id="2708" interp="linr"  time="0/1" value="1" leadInLength="0/1"  name="volume"/>
              <Parameter id="2709"  name="captions"/>
             </Parameters>
             <Attributes>
              <Attribute id="2710" value="" name="ident"/>
              <Attribute id="2711" value="44100" name="sampleRate"/>
              <Attribute id="2712" value="16" name="bitDepth"/>
              <Attribute id="2713" value="1" name="gain"/>
              <Attribute id="2714" value="0" name="mixToMono"/>
             </Attributes>
            </AMFile>
            <ScreenVMFile id="2715" start="11275" duration="394" scalar="1/1" mediaStart="19749/1" mediaDuration="394/1" trackNumber="0" src="4" >
             <Transformer>
              <VectorParam id="2716"  name="translation">
               <InterpolatingParam id="2717" interp="linr"  time="-9999999/1" value="0" leadInLength="0/1"  />
               <InterpolatingParam id="2718" interp="linr"  time="-9999999/1" value="0" leadInLength="0/1"  />
               <InterpolatingParam id="2719" interp="linr"  time="-9999999/1" value="0" leadInLength="0/1"  />
              </VectorParam>
              <VectorParam id="2720"  name="rotation">
               <InterpolatingParam id="2721" interp="linr"  time="-9999999/1" value="0" leadInLength="0/1"  />
               <InterpolatingParam id="2722" interp="linr"  time="-9999999/1" value="0" leadInLength="0/1"  />
               <InterpolatingParam id="2723" interp="linr"  time="-9999999/1" value="0" leadInLength="0/1"  />
              </VectorParam>
              <VectorParam id="2724"  name="shear">
               <InterpolatingParam id="2725" interp="linr"  time="-9999999/1" value="0" leadInLength="0/1"  />
               <InterpolatingParam id="2726" interp="linr"  time="-9999999/1" value="0" leadInLength="0/1"  />
               <InterpolatingParam id="2727" interp="linr"  time="-9999999/1" value="0" leadInLength="0/1"  />
              </VectorParam>
              <VectorParam id="2728"  name="scale">
               <InterpolatingParam id="2729" interp="linr"  time="-9999999/1" value="1" leadInLength="0/1"  />
               <InterpolatingParam id="2730" interp="linr"  time="-9999999/1" value="1" leadInLength="0/1"  />
               <InterpolatingParam id="2731" interp="linr"  time="-9999999/1" value="1" leadInLength="0/1"  />
              </VectorParam>
              <VectorParam id="2732"  name="anchor">
               <InterpolatingParam id="2733" interp="linr"  time="0/1" value="0" leadInLength="0/1"  />
               <InterpolatingParam id="2734" interp="linr"  time="0/1" value="0" leadInLength="0/1"  />
               <InterpolatingParam id="2735" interp="linr"  time="0/1" value="0" leadInLength="0/1"  />
              </VectorParam>
             </Transformer>
             <Parameters>
              <VectorParam id="2736"  name="sourceCrop">
               <InterpolatingParam id="2737" interp="linr"  time="0/1" value="0" leadInLength="0/1"  />
               <InterpolatingParam id="2738" interp="linr"  time="0/1" value="0" leadInLength="0/1"  />
               <InterpolatingParam id="2739" interp="linr"  time="0/1" value="0" leadInLength="0/1"  />
               <InterpolatingParam id="2740" interp="linr"  time="0/1" value="0" leadInLength="0/1"  />
              </VectorParam>
              <VectorParam id="2741"  name="geometryCrop">
               <InterpolatingParam id="2742" interp="linr"  time="-9999999/1" value="0" leadInLength="0/1"  />
               <InterpolatingParam id="2743" interp="linr"  time="-9999999/1" value="0" leadInLength="0/1"  />
               <InterpolatingParam id="2744" interp="linr"  time="-9999999/1" value="0" leadInLength="0/1"  />
               <InterpolatingParam id="2745" interp="linr"  time="-9999999/1" value="0" leadInLength="0/1"  />
              </VectorParam>
              <InterpolatingParam id="2746" interp="linr"  time="-9999999/1" value="1" leadInLength="0/1"  name="opacity"/>
              <InterpolatingParam id="2747" interp="linr"  time="0/1" value="0" leadInLength="0/1"  name="cursorOpacity"/>
              <InterpolatingParam id="2748" interp="linr"  time="0/1" value="0" leadInLength="0/1"  name="cursorScale"/>
             </Parameters>
             <Attributes>
              <Attribute id="2749" value="" name="ident"/>
             </Attributes>
             <ExtraData>
              <Entry key="ZoomPanBin">
               <ZoomPanBin id="2750"  >
                <ZoomPanKeyframes>
                 <ZoomPanKeyframe id="2751" timeRangeEnd="-9999999/1" timeRangeDuration="0/1" interpolaterName=""  />
                </ZoomPanKeyframes>
               </ZoomPanBin>
              </Entry>
              <Entry key="CursorEffectBin">
               <CursorEffectBin id="2752"  >
                <CursorEffectKeyframes>
                </CursorEffectKeyframes>
               </CursorEffectBin>
              </Entry>
             </ExtraData>
            </ScreenVMFile>
            <MetaData>
             <entry key="AutoAppliedSmartFocus" val="False"/>
             <entry key="WinSubProjectDisplayName" val=""/>
            </MetaData>
           </UnifiedMedia>
           <UnifiedMedia id="2753"  >
            <AMFile id="2754" start="11669" duration="163" scalar="1/1" mediaStart="20280/1" mediaDuration="163/1" trackNumber="1" src="4" channelNumber="0,1" >
             <Parameters>
              <InterpolatingParam id="2755" interp="linr"  time="0/1" value="1" leadInLength="0/1"  name="volume"/>
              <Parameter id="2756"  name="captions"/>
             </Parameters>
             <Attributes>
              <Attribute id="2757" value="" name="ident"/>
              <Attribute id="2758" value="44100" name="sampleRate"/>
              <Attribute id="2759" value="16" name="bitDepth"/>
              <Attribute id="2760" value="1" name="gain"/>
              <Attribute id="2761" value="0" name="mixToMono"/>
             </Attributes>
            </AMFile>
            <ScreenVMFile id="2762" start="11669" duration="163" scalar="1/1" mediaStart="20280/1" mediaDuration="163/1" trackNumber="0" src="4" >
             <Transformer>
              <VectorParam id="2763"  name="translation">
               <InterpolatingParam id="2764" interp="linr"  time="-9999999/1" value="0" leadInLength="0/1"  />
               <InterpolatingParam id="2765" interp="linr"  time="-9999999/1" value="0" leadInLength="0/1"  />
               <InterpolatingParam id="2766" interp="linr"  time="-9999999/1" value="0" leadInLength="0/1"  />
              </VectorParam>
              <VectorParam id="2767"  name="rotation">
               <InterpolatingParam id="2768" interp="linr"  time="-9999999/1" value="0" leadInLength="0/1"  />
               <InterpolatingParam id="2769" interp="linr"  time="-9999999/1" value="0" leadInLength="0/1"  />
               <InterpolatingParam id="2770" interp="linr"  time="-9999999/1" value="0" leadInLength="0/1"  />
              </VectorParam>
              <VectorParam id="2771"  name="shear">
               <InterpolatingParam id="2772" interp="linr"  time="-9999999/1" value="0" leadInLength="0/1"  />
               <InterpolatingParam id="2773" interp="linr"  time="-9999999/1" value="0" leadInLength="0/1"  />
               <InterpolatingParam id="2774" interp="linr"  time="-9999999/1" value="0" leadInLength="0/1"  />
              </VectorParam>
              <VectorParam id="2775"  name="scale">
               <InterpolatingParam id="2776" interp="linr"  time="-9999999/1" value="1" leadInLength="0/1"  />
               <InterpolatingParam id="2777" interp="linr"  time="-9999999/1" value="1" leadInLength="0/1"  />
               <InterpolatingParam id="2778" interp="linr"  time="-9999999/1" value="1" leadInLength="0/1"  />
              </VectorParam>
              <VectorParam id="2779"  name="anchor">
               <InterpolatingParam id="2780" interp="linr"  time="0/1" value="0" leadInLength="0/1"  />
               <InterpolatingParam id="2781" interp="linr"  time="0/1" value="0" leadInLength="0/1"  />
               <InterpolatingParam id="2782" interp="linr"  time="0/1" value="0" leadInLength="0/1"  />
              </VectorParam>
             </Transformer>
             <Parameters>
              <VectorParam id="2783"  name="sourceCrop">
               <InterpolatingParam id="2784" interp="linr"  time="0/1" value="0" leadInLength="0/1"  />
               <InterpolatingParam id="2785" interp="linr"  time="0/1" value="0" leadInLength="0/1"  />
               <InterpolatingParam id="2786" interp="linr"  time="0/1" value="0" leadInLength="0/1"  />
               <InterpolatingParam id="2787" interp="linr"  time="0/1" value="0" leadInLength="0/1"  />
              </VectorParam>
              <VectorParam id="2788"  name="geometryCrop">
               <InterpolatingParam id="2789" interp="linr"  time="-9999999/1" value="0" leadInLength="0/1"  />
               <InterpolatingParam id="2790" interp="linr"  time="-9999999/1" value="0" leadInLength="0/1"  />
               <InterpolatingParam id="2791" interp="linr"  time="-9999999/1" value="0" leadInLength="0/1"  />
               <InterpolatingParam id="2792" interp="linr"  time="-9999999/1" value="0" leadInLength="0/1"  />
              </VectorParam>
              <InterpolatingParam id="2793" interp="linr"  time="-9999999/1" value="1" leadInLength="0/1"  name="opacity"/>
              <InterpolatingParam id="2794" interp="linr"  time="0/1" value="0" leadInLength="0/1"  name="cursorOpacity"/>
              <InterpolatingParam id="2795" interp="linr"  time="0/1" value="0" leadInLength="0/1"  name="cursorScale"/>
             </Parameters>
             <Attributes>
              <Attribute id="2796" value="" name="ident"/>
             </Attributes>
             <ExtraData>
              <Entry key="ZoomPanBin">
               <ZoomPanBin id="2797"  >
                <ZoomPanKeyframes>
                 <ZoomPanKeyframe id="2798" timeRangeEnd="-9999999/1" timeRangeDuration="0/1" interpolaterName=""  />
                </ZoomPanKeyframes>
               </ZoomPanBin>
              </Entry>
              <Entry key="CursorEffectBin">
               <CursorEffectBin id="2799"  >
                <CursorEffectKeyframes>
                </CursorEffectKeyframes>
               </CursorEffectBin>
              </Entry>
             </ExtraData>
            </ScreenVMFile>
            <MetaData>
             <entry key="AutoAppliedSmartFocus" val="False"/>
             <entry key="WinSubProjectDisplayName" val=""/>
            </MetaData>
           </UnifiedMedia>
           <UnifiedMedia id="2800"  >
            <AMFile id="2801" start="11832" duration="272" scalar="1/1" mediaStart="22491/1" mediaDuration="272/1" trackNumber="1" src="4" channelNumber="0,1" >
             <Parameters>
              <InterpolatingParam id="2802" interp="linr"  time="0/1" value="1" leadInLength="0/1"  name="volume"/>
              <Parameter id="2803"  name="captions"/>
             </Parameters>
             <Attributes>
              <Attribute id="2804" value="" name="ident"/>
              <Attribute id="2805" value="44100" name="sampleRate"/>
              <Attribute id="2806" value="16" name="bitDepth"/>
              <Attribute id="2807" value="1" name="gain"/>
              <Attribute id="2808" value="0" name="mixToMono"/>
             </Attributes>
            </AMFile>
            <ScreenVMFile id="2809" start="11832" duration="272" scalar="1/1" mediaStart="22491/1" mediaDuration="272/1" trackNumber="0" src="4" >
             <Transformer>
              <VectorParam id="2810"  name="translation">
               <InterpolatingParam id="2811" interp="linr"  time="-9999999/1" value="0" leadInLength="0/1"  />
               <InterpolatingParam id="2812" interp="linr"  time="-9999999/1" value="0" leadInLength="0/1"  />
               <InterpolatingParam id="2813" interp="linr"  time="-9999999/1" value="0" leadInLength="0/1"  />
              </VectorParam>
              <VectorParam id="2814"  name="rotation">
               <InterpolatingParam id="2815" interp="linr"  time="-9999999/1" value="0" leadInLength="0/1"  />
               <InterpolatingParam id="2816" interp="linr"  time="-9999999/1" value="0" leadInLength="0/1"  />
               <InterpolatingParam id="2817" interp="linr"  time="-9999999/1" value="0" leadInLength="0/1"  />
              </VectorParam>
              <VectorParam id="2818"  name="shear">
               <InterpolatingParam id="2819" interp="linr"  time="-9999999/1" value="0" leadInLength="0/1"  />
               <InterpolatingParam id="2820" interp="linr"  time="-9999999/1" value="0" leadInLength="0/1"  />
               <InterpolatingParam id="2821" interp="linr"  time="-9999999/1" value="0" leadInLength="0/1"  />
              </VectorParam>
              <VectorParam id="2822"  name="scale">
               <InterpolatingParam id="2823" interp="linr"  time="-9999999/1" value="1" leadInLength="0/1"  />
               <InterpolatingParam id="2824" interp="linr"  time="-9999999/1" value="1" leadInLength="0/1"  />
               <InterpolatingParam id="2825" interp="linr"  time="-9999999/1" value="1" leadInLength="0/1"  />
              </VectorParam>
              <VectorParam id="2826"  name="anchor">
               <InterpolatingParam id="2827" interp="linr"  time="0/1" value="0" leadInLength="0/1"  />
               <InterpolatingParam id="2828" interp="linr"  time="0/1" value="0" leadInLength="0/1"  />
               <InterpolatingParam id="2829" interp="linr"  time="0/1" value="0" leadInLength="0/1"  />
              </VectorParam>
             </Transformer>
             <Parameters>
              <VectorParam id="2830"  name="sourceCrop">
               <InterpolatingParam id="2831" interp="linr"  time="0/1" value="0" leadInLength="0/1"  />
               <InterpolatingParam id="2832" interp="linr"  time="0/1" value="0" leadInLength="0/1"  />
               <InterpolatingParam id="2833" interp="linr"  time="0/1" value="0" leadInLength="0/1"  />
               <InterpolatingParam id="2834" interp="linr"  time="0/1" value="0" leadInLength="0/1"  />
              </VectorParam>
              <VectorParam id="2835"  name="geometryCrop">
               <InterpolatingParam id="2836" interp="linr"  time="-9999999/1" value="0" leadInLength="0/1"  />
               <InterpolatingParam id="2837" interp="linr"  time="-9999999/1" value="0" leadInLength="0/1"  />
               <InterpolatingParam id="2838" interp="linr"  time="-9999999/1" value="0" leadInLength="0/1"  />
               <InterpolatingParam id="2839" interp="linr"  time="-9999999/1" value="0" leadInLength="0/1"  />
              </VectorParam>
              <InterpolatingParam id="2840" interp="linr"  time="-9999999/1" value="1" leadInLength="0/1"  name="opacity"/>
              <InterpolatingParam id="2841" interp="linr"  time="0/1" value="0" leadInLength="0/1"  name="cursorOpacity"/>
              <InterpolatingParam id="2842" interp="linr"  time="0/1" value="0" leadInLength="0/1"  name="cursorScale"/>
             </Parameters>
             <Attributes>
              <Attribute id="2843" value="" name="ident"/>
             </Attributes>
             <ExtraData>
              <Entry key="ZoomPanBin">
               <ZoomPanBin id="2844"  >
                <ZoomPanKeyframes>
                 <ZoomPanKeyframe id="2845" timeRangeEnd="-9999999/1" timeRangeDuration="0/1" interpolaterName=""  />
                </ZoomPanKeyframes>
               </ZoomPanBin>
              </Entry>
              <Entry key="CursorEffectBin">
               <CursorEffectBin id="2846"  >
                <CursorEffectKeyframes>
                </CursorEffectKeyframes>
               </CursorEffectBin>
              </Entry>
             </ExtraData>
            </ScreenVMFile>
            <MetaData>
             <entry key="AutoAppliedSmartFocus" val="False"/>
             <entry key="WinSubProjectDisplayName" val=""/>
            </MetaData>
           </UnifiedMedia>
           <UnifiedMedia id="2847"  >
            <AMFile id="2848" start="12104" duration="372" scalar="1/1" mediaStart="22972/1" mediaDuration="372/1" trackNumber="1" src="4" channelNumber="0,1" >
             <Parameters>
              <InterpolatingParam id="2849" interp="linr"  time="0/1" value="1" leadInLength="0/1"  name="volume"/>
              <Parameter id="2850"  name="captions"/>
             </Parameters>
             <Attributes>
              <Attribute id="2851" value="" name="ident"/>
              <Attribute id="2852" value="44100" name="sampleRate"/>
              <Attribute id="2853" value="16" name="bitDepth"/>
              <Attribute id="2854" value="1" name="gain"/>
              <Attribute id="2855" value="0" name="mixToMono"/>
             </Attributes>
            </AMFile>
            <ScreenVMFile id="2856" start="12104" duration="372" scalar="1/1" mediaStart="22972/1" mediaDuration="372/1" trackNumber="0" src="4" >
             <Transformer>
              <VectorParam id="2857"  name="translation">
               <InterpolatingParam id="2858" interp="linr"  time="-9999999/1" value="0" leadInLength="0/1"  />
               <InterpolatingParam id="2859" interp="linr"  time="-9999999/1" value="0" leadInLength="0/1"  />
               <InterpolatingParam id="2860" interp="linr"  time="-9999999/1" value="0" leadInLength="0/1"  />
              </VectorParam>
              <VectorParam id="2861"  name="rotation">
               <InterpolatingParam id="2862" interp="linr"  time="-9999999/1" value="0" leadInLength="0/1"  />
               <InterpolatingParam id="2863" interp="linr"  time="-9999999/1" value="0" leadInLength="0/1"  />
               <InterpolatingParam id="2864" interp="linr"  time="-9999999/1" value="0" leadInLength="0/1"  />
              </VectorParam>
              <VectorParam id="2865"  name="shear">
               <InterpolatingParam id="2866" interp="linr"  time="-9999999/1" value="0" leadInLength="0/1"  />
               <InterpolatingParam id="2867" interp="linr"  time="-9999999/1" value="0" leadInLength="0/1"  />
               <InterpolatingParam id="2868" interp="linr"  time="-9999999/1" value="0" leadInLength="0/1"  />
              </VectorParam>
              <VectorParam id="2869"  name="scale">
               <InterpolatingParam id="2870" interp="linr"  time="-9999999/1" value="1" leadInLength="0/1"  />
               <InterpolatingParam id="2871" interp="linr"  time="-9999999/1" value="1" leadInLength="0/1"  />
               <InterpolatingParam id="2872" interp="linr"  time="-9999999/1" value="1" leadInLength="0/1"  />
              </VectorParam>
              <VectorParam id="2873"  name="anchor">
               <InterpolatingParam id="2874" interp="linr"  time="0/1" value="0" leadInLength="0/1"  />
               <InterpolatingParam id="2875" interp="linr"  time="0/1" value="0" leadInLength="0/1"  />
               <InterpolatingParam id="2876" interp="linr"  time="0/1" value="0" leadInLength="0/1"  />
              </VectorParam>
             </Transformer>
             <Parameters>
              <VectorParam id="2877"  name="sourceCrop">
               <InterpolatingParam id="2878" interp="linr"  time="0/1" value="0" leadInLength="0/1"  />
               <InterpolatingParam id="2879" interp="linr"  time="0/1" value="0" leadInLength="0/1"  />
               <InterpolatingParam id="2880" interp="linr"  time="0/1" value="0" leadInLength="0/1"  />
               <InterpolatingParam id="2881" interp="linr"  time="0/1" value="0" leadInLength="0/1"  />
              </VectorParam>
              <VectorParam id="2882"  name="geometryCrop">
               <InterpolatingParam id="2883" interp="linr"  time="-9999999/1" value="0" leadInLength="0/1"  />
               <InterpolatingParam id="2884" interp="linr"  time="-9999999/1" value="0" leadInLength="0/1"  />
               <InterpolatingParam id="2885" interp="linr"  time="-9999999/1" value="0" leadInLength="0/1"  />
               <InterpolatingParam id="2886" interp="linr"  time="-9999999/1" value="0" leadInLength="0/1"  />
              </VectorParam>
              <InterpolatingParam id="2887" interp="linr"  time="-9999999/1" value="1" leadInLength="0/1"  name="opacity"/>
              <InterpolatingParam id="2888" interp="linr"  time="0/1" value="0" leadInLength="0/1"  name="cursorOpacity"/>
              <InterpolatingParam id="2889" interp="linr"  time="0/1" value="0" leadInLength="0/1"  name="cursorScale"/>
             </Parameters>
             <Attributes>
              <Attribute id="2890" value="" name="ident"/>
             </Attributes>
             <ExtraData>
              <Entry key="ZoomPanBin">
               <ZoomPanBin id="2891"  >
                <ZoomPanKeyframes>
                 <ZoomPanKeyframe id="2892" timeRangeEnd="-9999999/1" timeRangeDuration="0/1" interpolaterName=""  />
                </ZoomPanKeyframes>
               </ZoomPanBin>
              </Entry>
              <Entry key="CursorEffectBin">
               <CursorEffectBin id="2893"  >
                <CursorEffectKeyframes>
                </CursorEffectKeyframes>
               </CursorEffectBin>
              </Entry>
             </ExtraData>
            </ScreenVMFile>
            <MetaData>
             <entry key="AutoAppliedSmartFocus" val="False"/>
             <entry key="WinSubProjectDisplayName" val=""/>
            </MetaData>
           </UnifiedMedia>
           <UnifiedMedia id="2894"  >
            <AMFile id="2895" start="12476" duration="288" scalar="1/1" mediaStart="31660/1" mediaDuration="288/1" trackNumber="1" src="4" channelNumber="0,1" >
             <Parameters>
              <InterpolatingParam id="2896" interp="linr"  time="0/1" value="1" leadInLength="0/1"  name="volume"/>
              <Parameter id="2897"  name="captions"/>
             </Parameters>
             <Attributes>
              <Attribute id="2898" value="" name="ident"/>
              <Attribute id="2899" value="44100" name="sampleRate"/>
              <Attribute id="2900" value="16" name="bitDepth"/>
              <Attribute id="2901" value="1" name="gain"/>
              <Attribute id="2902" value="0" name="mixToMono"/>
             </Attributes>
            </AMFile>
            <ScreenVMFile id="2903" start="12476" duration="288" scalar="1/1" mediaStart="31660/1" mediaDuration="288/1" trackNumber="0" src="4" >
             <Transformer>
              <VectorParam id="2904"  name="translation">
               <InterpolatingParam id="2905" interp="linr"  time="-9999999/1" value="0" leadInLength="0/1"  />
               <InterpolatingParam id="2906" interp="linr"  time="-9999999/1" value="0" leadInLength="0/1"  />
               <InterpolatingParam id="2907" interp="linr"  time="-9999999/1" value="0" leadInLength="0/1"  />
              </VectorParam>
              <VectorParam id="2908"  name="rotation">
               <InterpolatingParam id="2909" interp="linr"  time="-9999999/1" value="0" leadInLength="0/1"  />
               <InterpolatingParam id="2910" interp="linr"  time="-9999999/1" value="0" leadInLength="0/1"  />
               <InterpolatingParam id="2911" interp="linr"  time="-9999999/1" value="0" leadInLength="0/1"  />
              </VectorParam>
              <VectorParam id="2912"  name="shear">
               <InterpolatingParam id="2913" interp="linr"  time="-9999999/1" value="0" leadInLength="0/1"  />
               <InterpolatingParam id="2914" interp="linr"  time="-9999999/1" value="0" leadInLength="0/1"  />
               <InterpolatingParam id="2915" interp="linr"  time="-9999999/1" value="0" leadInLength="0/1"  />
              </VectorParam>
              <VectorParam id="2916"  name="scale">
               <InterpolatingParam id="2917" interp="linr"  time="-9999999/1" value="1" leadInLength="0/1"  />
               <InterpolatingParam id="2918" interp="linr"  time="-9999999/1" value="1" leadInLength="0/1"  />
               <InterpolatingParam id="2919" interp="linr"  time="-9999999/1" value="1" leadInLength="0/1"  />
              </VectorParam>
              <VectorParam id="2920"  name="anchor">
               <InterpolatingParam id="2921" interp="linr"  time="0/1" value="0" leadInLength="0/1"  />
               <InterpolatingParam id="2922" interp="linr"  time="0/1" value="0" leadInLength="0/1"  />
               <InterpolatingParam id="2923" interp="linr"  time="0/1" value="0" leadInLength="0/1"  />
              </VectorParam>
             </Transformer>
             <Parameters>
              <VectorParam id="2924"  name="sourceCrop">
               <InterpolatingParam id="2925" interp="linr"  time="0/1" value="0" leadInLength="0/1"  />
               <InterpolatingParam id="2926" interp="linr"  time="0/1" value="0" leadInLength="0/1"  />
               <InterpolatingParam id="2927" interp="linr"  time="0/1" value="0" leadInLength="0/1"  />
               <InterpolatingParam id="2928" interp="linr"  time="0/1" value="0" leadInLength="0/1"  />
              </VectorParam>
              <VectorParam id="2929"  name="geometryCrop">
               <InterpolatingParam id="2930" interp="linr"  time="-9999999/1" value="0" leadInLength="0/1"  />
               <InterpolatingParam id="2931" interp="linr"  time="-9999999/1" value="0" leadInLength="0/1"  />
               <InterpolatingParam id="2932" interp="linr"  time="-9999999/1" value="0" leadInLength="0/1"  />
               <InterpolatingParam id="2933" interp="linr"  time="-9999999/1" value="0" leadInLength="0/1"  />
              </VectorParam>
              <InterpolatingParam id="2934" interp="linr"  time="-9999999/1" value="1" leadInLength="0/1"  name="opacity"/>
              <InterpolatingParam id="2935" interp="linr"  time="0/1" value="0" leadInLength="0/1"  name="cursorOpacity"/>
              <InterpolatingParam id="2936" interp="linr"  time="0/1" value="0" leadInLength="0/1"  name="cursorScale"/>
             </Parameters>
             <Attributes>
              <Attribute id="2937" value="" name="ident"/>
             </Attributes>
             <ExtraData>
              <Entry key="ZoomPanBin">
               <ZoomPanBin id="2938"  >
                <ZoomPanKeyframes>
                 <ZoomPanKeyframe id="2939" timeRangeEnd="-9999999/1" timeRangeDuration="0/1" interpolaterName=""  />
                </ZoomPanKeyframes>
               </ZoomPanBin>
              </Entry>
              <Entry key="CursorEffectBin">
               <CursorEffectBin id="2940"  >
                <CursorEffectKeyframes>
                </CursorEffectKeyframes>
               </CursorEffectBin>
              </Entry>
             </ExtraData>
            </ScreenVMFile>
            <MetaData>
             <entry key="AutoAppliedSmartFocus" val="False"/>
             <entry key="WinSubProjectDisplayName" val=""/>
            </MetaData>
           </UnifiedMedia>
           <UnifiedMedia id="2941"  >
            <AMFile id="2942" start="12764" duration="1377" scalar="1/1" mediaStart="32326/1" mediaDuration="1377/1" trackNumber="1" src="4" channelNumber="0,1" >
             <Parameters>
              <InterpolatingParam id="2943" interp="linr"  time="0/1" value="1" leadInLength="0/1"  name="volume"/>
              <Parameter id="2944"  name="captions"/>
             </Parameters>
             <Attributes>
              <Attribute id="2945" value="" name="ident"/>
              <Attribute id="2946" value="44100" name="sampleRate"/>
              <Attribute id="2947" value="16" name="bitDepth"/>
              <Attribute id="2948" value="1" name="gain"/>
              <Attribute id="2949" value="0" name="mixToMono"/>
             </Attributes>
            </AMFile>
            <ScreenVMFile id="2950" start="12764" duration="1377" scalar="1/1" mediaStart="32326/1" mediaDuration="1377/1" trackNumber="0" src="4" >
             <Transformer>
              <VectorParam id="2951"  name="translation">
               <InterpolatingParam id="2952" interp="linr"  time="-9999999/1" value="0" leadInLength="0/1"  />
               <InterpolatingParam id="2953" interp="linr"  time="-9999999/1" value="0" leadInLength="0/1"  />
               <InterpolatingParam id="2954" interp="linr"  time="-9999999/1" value="0" leadInLength="0/1"  />
              </VectorParam>
              <VectorParam id="2955"  name="rotation">
               <InterpolatingParam id="2956" interp="linr"  time="-9999999/1" value="0" leadInLength="0/1"  />
               <InterpolatingParam id="2957" interp="linr"  time="-9999999/1" value="0" leadInLength="0/1"  />
               <InterpolatingParam id="2958" interp="linr"  time="-9999999/1" value="0" leadInLength="0/1"  />
              </VectorParam>
              <VectorParam id="2959"  name="shear">
               <InterpolatingParam id="2960" interp="linr"  time="-9999999/1" value="0" leadInLength="0/1"  />
               <InterpolatingParam id="2961" interp="linr"  time="-9999999/1" value="0" leadInLength="0/1"  />
               <InterpolatingParam id="2962" interp="linr"  time="-9999999/1" value="0" leadInLength="0/1"  />
              </VectorParam>
              <VectorParam id="2963"  name="scale">
               <InterpolatingParam id="2964" interp="linr"  time="-9999999/1" value="1" leadInLength="0/1"  />
               <InterpolatingParam id="2965" interp="linr"  time="-9999999/1" value="1" leadInLength="0/1"  />
               <InterpolatingParam id="2966" interp="linr"  time="-9999999/1" value="1" leadInLength="0/1"  />
              </VectorParam>
              <VectorParam id="2967"  name="anchor">
               <InterpolatingParam id="2968" interp="linr"  time="0/1" value="0" leadInLength="0/1"  />
               <InterpolatingParam id="2969" interp="linr"  time="0/1" value="0" leadInLength="0/1"  />
               <InterpolatingParam id="2970" interp="linr"  time="0/1" value="0" leadInLength="0/1"  />
              </VectorParam>
             </Transformer>
             <Parameters>
              <VectorParam id="2971"  name="sourceCrop">
               <InterpolatingParam id="2972" interp="linr"  time="0/1" value="0" leadInLength="0/1"  />
               <InterpolatingParam id="2973" interp="linr"  time="0/1" value="0" leadInLength="0/1"  />
               <InterpolatingParam id="2974" interp="linr"  time="0/1" value="0" leadInLength="0/1"  />
               <InterpolatingParam id="2975" interp="linr"  time="0/1" value="0" leadInLength="0/1"  />
              </VectorParam>
              <VectorParam id="2976"  name="geometryCrop">
               <InterpolatingParam id="2977" interp="linr"  time="-9999999/1" value="0" leadInLength="0/1"  />
               <InterpolatingParam id="2978" interp="linr"  time="-9999999/1" value="0" leadInLength="0/1"  />
               <InterpolatingParam id="2979" interp="linr"  time="-9999999/1" value="0" leadInLength="0/1"  />
               <InterpolatingParam id="2980" interp="linr"  time="-9999999/1" value="0" leadInLength="0/1"  />
              </VectorParam>
              <InterpolatingParam id="2981" interp="linr"  time="-9999999/1" value="1" leadInLength="0/1"  name="opacity"/>
              <InterpolatingParam id="2982" interp="linr"  time="0/1" value="0" leadInLength="0/1"  name="cursorOpacity"/>
              <InterpolatingParam id="2983" interp="linr"  time="0/1" value="0" leadInLength="0/1"  name="cursorScale"/>
             </Parameters>
             <Attributes>
              <Attribute id="2984" value="" name="ident"/>
             </Attributes>
             <ExtraData>
              <Entry key="ZoomPanBin">
               <ZoomPanBin id="2985"  >
                <ZoomPanKeyframes>
                 <ZoomPanKeyframe id="2986" timeRangeEnd="-9999999/1" timeRangeDuration="0/1" interpolaterName=""  />
                </ZoomPanKeyframes>
               </ZoomPanBin>
              </Entry>
              <Entry key="CursorEffectBin">
               <CursorEffectBin id="2987"  >
                <CursorEffectKeyframes>
                </CursorEffectKeyframes>
               </CursorEffectBin>
              </Entry>
             </ExtraData>
            </ScreenVMFile>
            <MetaData>
             <entry key="AutoAppliedSmartFocus" val="False"/>
             <entry key="WinSubProjectDisplayName" val=""/>
            </MetaData>
           </UnifiedMedia>
           <UnifiedMedia id="2988"  >
            <AMFile id="2989" start="14141" duration="63" scalar="1/1" mediaStart="33796/1" mediaDuration="63/1" trackNumber="1" src="4" channelNumber="0,1" >
             <Parameters>
              <InterpolatingParam id="2990" interp="linr"  time="0/1" value="1" leadInLength="0/1"  name="volume"/>
              <Parameter id="2991"  name="captions"/>
             </Parameters>
             <Attributes>
              <Attribute id="2992" value="" name="ident"/>
              <Attribute id="2993" value="44100" name="sampleRate"/>
              <Attribute id="2994" value="16" name="bitDepth"/>
              <Attribute id="2995" value="1" name="gain"/>
              <Attribute id="2996" value="0" name="mixToMono"/>
             </Attributes>
            </AMFile>
            <ScreenVMFile id="2997" start="14141" duration="63" scalar="1/1" mediaStart="33796/1" mediaDuration="63/1" trackNumber="0" src="4" >
             <Transformer>
              <VectorParam id="2998"  name="translation">
               <InterpolatingParam id="2999" interp="linr"  time="-9999999/1" value="0" leadInLength="0/1"  />
               <InterpolatingParam id="3000" interp="linr"  time="-9999999/1" value="0" leadInLength="0/1"  />
               <InterpolatingParam id="3001" interp="linr"  time="-9999999/1" value="0" leadInLength="0/1"  />
              </VectorParam>
              <VectorParam id="3002"  name="rotation">
               <InterpolatingParam id="3003" interp="linr"  time="-9999999/1" value="0" leadInLength="0/1"  />
               <InterpolatingParam id="3004" interp="linr"  time="-9999999/1" value="0" leadInLength="0/1"  />
               <InterpolatingParam id="3005" interp="linr"  time="-9999999/1" value="0" leadInLength="0/1"  />
              </VectorParam>
              <VectorParam id="3006"  name="shear">
               <InterpolatingParam id="3007" interp="linr"  time="-9999999/1" value="0" leadInLength="0/1"  />
               <InterpolatingParam id="3008" interp="linr"  time="-9999999/1" value="0" leadInLength="0/1"  />
               <InterpolatingParam id="3009" interp="linr"  time="-9999999/1" value="0" leadInLength="0/1"  />
              </VectorParam>
              <VectorParam id="3010"  name="scale">
               <InterpolatingParam id="3011" interp="linr"  time="-9999999/1" value="1" leadInLength="0/1"  />
               <InterpolatingParam id="3012" interp="linr"  time="-9999999/1" value="1" leadInLength="0/1"  />
               <InterpolatingParam id="3013" interp="linr"  time="-9999999/1" value="1" leadInLength="0/1"  />
              </VectorParam>
              <VectorParam id="3014"  name="anchor">
               <InterpolatingParam id="3015" interp="linr"  time="0/1" value="0" leadInLength="0/1"  />
               <InterpolatingParam id="3016" interp="linr"  time="0/1" value="0" leadInLength="0/1"  />
               <InterpolatingParam id="3017" interp="linr"  time="0/1" value="0" leadInLength="0/1"  />
              </VectorParam>
             </Transformer>
             <Parameters>
              <VectorParam id="3018"  name="sourceCrop">
               <InterpolatingParam id="3019" interp="linr"  time="0/1" value="0" leadInLength="0/1"  />
               <InterpolatingParam id="3020" interp="linr"  time="0/1" value="0" leadInLength="0/1"  />
               <InterpolatingParam id="3021" interp="linr"  time="0/1" value="0" leadInLength="0/1"  />
               <InterpolatingParam id="3022" interp="linr"  time="0/1" value="0" leadInLength="0/1"  />
              </VectorParam>
              <VectorParam id="3023"  name="geometryCrop">
               <InterpolatingParam id="3024" interp="linr"  time="-9999999/1" value="0" leadInLength="0/1"  />
               <InterpolatingParam id="3025" interp="linr"  time="-9999999/1" value="0" leadInLength="0/1"  />
               <InterpolatingParam id="3026" interp="linr"  time="-9999999/1" value="0" leadInLength="0/1"  />
               <InterpolatingParam id="3027" interp="linr"  time="-9999999/1" value="0" leadInLength="0/1"  />
              </VectorParam>
              <InterpolatingParam id="3028" interp="linr"  time="-9999999/1" value="1" leadInLength="0/1"  name="opacity"/>
              <InterpolatingParam id="3029" interp="linr"  time="0/1" value="0" leadInLength="0/1"  name="cursorOpacity"/>
              <InterpolatingParam id="3030" interp="linr"  time="0/1" value="0" leadInLength="0/1"  name="cursorScale"/>
             </Parameters>
             <Attributes>
              <Attribute id="3031" value="" name="ident"/>
             </Attributes>
             <ExtraData>
              <Entry key="ZoomPanBin">
               <ZoomPanBin id="3032"  >
                <ZoomPanKeyframes>
                 <ZoomPanKeyframe id="3033" timeRangeEnd="-9999999/1" timeRangeDuration="0/1" interpolaterName=""  />
                </ZoomPanKeyframes>
               </ZoomPanBin>
              </Entry>
              <Entry key="CursorEffectBin">
               <CursorEffectBin id="3034"  >
                <CursorEffectKeyframes>
                </CursorEffectKeyframes>
               </CursorEffectBin>
              </Entry>
             </ExtraData>
            </ScreenVMFile>
            <MetaData>
             <entry key="AutoAppliedSmartFocus" val="False"/>
             <entry key="WinSubProjectDisplayName" val=""/>
            </MetaData>
           </UnifiedMedia>
           <UnifiedMedia id="3035"  >
            <AMFile id="3036" start="14204" duration="68" scalar="1/1" mediaStart="33894/1" mediaDuration="68/1" trackNumber="1" src="4" channelNumber="0,1" >
             <Parameters>
              <InterpolatingParam id="3037" interp="linr"  time="0/1" value="1" leadInLength="0/1"  name="volume"/>
              <Parameter id="3038"  name="captions"/>
             </Parameters>
             <Attributes>
              <Attribute id="3039" value="" name="ident"/>
              <Attribute id="3040" value="44100" name="sampleRate"/>
              <Attribute id="3041" value="16" name="bitDepth"/>
              <Attribute id="3042" value="1" name="gain"/>
              <Attribute id="3043" value="0" name="mixToMono"/>
             </Attributes>
            </AMFile>
            <ScreenVMFile id="3044" start="14204" duration="68" scalar="1/1" mediaStart="33894/1" mediaDuration="68/1" trackNumber="0" src="4" >
             <Transformer>
              <VectorParam id="3045"  name="translation">
               <InterpolatingParam id="3046" interp="linr"  time="-9999999/1" value="0" leadInLength="0/1"  />
               <InterpolatingParam id="3047" interp="linr"  time="-9999999/1" value="0" leadInLength="0/1"  />
               <InterpolatingParam id="3048" interp="linr"  time="-9999999/1" value="0" leadInLength="0/1"  />
              </VectorParam>
              <VectorParam id="3049"  name="rotation">
               <InterpolatingParam id="3050" interp="linr"  time="-9999999/1" value="0" leadInLength="0/1"  />
               <InterpolatingParam id="3051" interp="linr"  time="-9999999/1" value="0" leadInLength="0/1"  />
               <InterpolatingParam id="3052" interp="linr"  time="-9999999/1" value="0" leadInLength="0/1"  />
              </VectorParam>
              <VectorParam id="3053"  name="shear">
               <InterpolatingParam id="3054" interp="linr"  time="-9999999/1" value="0" leadInLength="0/1"  />
               <InterpolatingParam id="3055" interp="linr"  time="-9999999/1" value="0" leadInLength="0/1"  />
               <InterpolatingParam id="3056" interp="linr"  time="-9999999/1" value="0" leadInLength="0/1"  />
              </VectorParam>
              <VectorParam id="3057"  name="scale">
               <InterpolatingParam id="3058" interp="linr"  time="-9999999/1" value="1" leadInLength="0/1"  />
               <InterpolatingParam id="3059" interp="linr"  time="-9999999/1" value="1" leadInLength="0/1"  />
               <InterpolatingParam id="3060" interp="linr"  time="-9999999/1" value="1" leadInLength="0/1"  />
              </VectorParam>
              <VectorParam id="3061"  name="anchor">
               <InterpolatingParam id="3062" interp="linr"  time="0/1" value="0" leadInLength="0/1"  />
               <InterpolatingParam id="3063" interp="linr"  time="0/1" value="0" leadInLength="0/1"  />
               <InterpolatingParam id="3064" interp="linr"  time="0/1" value="0" leadInLength="0/1"  />
              </VectorParam>
             </Transformer>
             <Parameters>
              <VectorParam id="3065"  name="sourceCrop">
               <InterpolatingParam id="3066" interp="linr"  time="0/1" value="0" leadInLength="0/1"  />
               <InterpolatingParam id="3067" interp="linr"  time="0/1" value="0" leadInLength="0/1"  />
               <InterpolatingParam id="3068" interp="linr"  time="0/1" value="0" leadInLength="0/1"  />
               <InterpolatingParam id="3069" interp="linr"  time="0/1" value="0" leadInLength="0/1"  />
              </VectorParam>
              <VectorParam id="3070"  name="geometryCrop">
               <InterpolatingParam id="3071" interp="linr"  time="-9999999/1" value="0" leadInLength="0/1"  />
               <InterpolatingParam id="3072" interp="linr"  time="-9999999/1" value="0" leadInLength="0/1"  />
               <InterpolatingParam id="3073" interp="linr"  time="-9999999/1" value="0" leadInLength="0/1"  />
               <InterpolatingParam id="3074" interp="linr"  time="-9999999/1" value="0" leadInLength="0/1"  />
              </VectorParam>
              <InterpolatingParam id="3075" interp="linr"  time="-9999999/1" value="1" leadInLength="0/1"  name="opacity"/>
              <InterpolatingParam id="3076" interp="linr"  time="0/1" value="0" leadInLength="0/1"  name="cursorOpacity"/>
              <InterpolatingParam id="3077" interp="linr"  time="0/1" value="0" leadInLength="0/1"  name="cursorScale"/>
             </Parameters>
             <Attributes>
              <Attribute id="3078" value="" name="ident"/>
             </Attributes>
             <ExtraData>
              <Entry key="ZoomPanBin">
               <ZoomPanBin id="3079"  >
                <ZoomPanKeyframes>
                 <ZoomPanKeyframe id="3080" timeRangeEnd="-9999999/1" timeRangeDuration="0/1" interpolaterName=""  />
                </ZoomPanKeyframes>
               </ZoomPanBin>
              </Entry>
              <Entry key="CursorEffectBin">
               <CursorEffectBin id="3081"  >
                <CursorEffectKeyframes>
                </CursorEffectKeyframes>
               </CursorEffectBin>
              </Entry>
             </ExtraData>
            </ScreenVMFile>
            <MetaData>
             <entry key="AutoAppliedSmartFocus" val="False"/>
             <entry key="WinSubProjectDisplayName" val=""/>
            </MetaData>
           </UnifiedMedia>
           <UnifiedMedia id="3082"  >
            <AMFile id="3083" start="14272" duration="26" scalar="1/1" mediaStart="33995/1" mediaDuration="26/1" trackNumber="1" src="4" channelNumber="0,1" >
             <Parameters>
              <InterpolatingParam id="3084" interp="linr"  time="0/1" value="1" leadInLength="0/1"  name="volume"/>
              <Parameter id="3085"  name="captions"/>
             </Parameters>
             <Attributes>
              <Attribute id="3086" value="" name="ident"/>
              <Attribute id="3087" value="44100" name="sampleRate"/>
              <Attribute id="3088" value="16" name="bitDepth"/>
              <Attribute id="3089" value="1" name="gain"/>
              <Attribute id="3090" value="0" name="mixToMono"/>
             </Attributes>
            </AMFile>
            <ScreenVMFile id="3091" start="14272" duration="26" scalar="1/1" mediaStart="33995/1" mediaDuration="26/1" trackNumber="0" src="4" >
             <Transformer>
              <VectorParam id="3092"  name="translation">
               <InterpolatingParam id="3093" interp="linr"  time="-9999999/1" value="0" leadInLength="0/1"  />
               <InterpolatingParam id="3094" interp="linr"  time="-9999999/1" value="0" leadInLength="0/1"  />
               <InterpolatingParam id="3095" interp="linr"  time="-9999999/1" value="0" leadInLength="0/1"  />
              </VectorParam>
              <VectorParam id="3096"  name="rotation">
               <InterpolatingParam id="3097" interp="linr"  time="-9999999/1" value="0" leadInLength="0/1"  />
               <InterpolatingParam id="3098" interp="linr"  time="-9999999/1" value="0" leadInLength="0/1"  />
               <InterpolatingParam id="3099" interp="linr"  time="-9999999/1" value="0" leadInLength="0/1"  />
              </VectorParam>
              <VectorParam id="3100"  name="shear">
               <InterpolatingParam id="3101" interp="linr"  time="-9999999/1" value="0" leadInLength="0/1"  />
               <InterpolatingParam id="3102" interp="linr"  time="-9999999/1" value="0" leadInLength="0/1"  />
               <InterpolatingParam id="3103" interp="linr"  time="-9999999/1" value="0" leadInLength="0/1"  />
              </VectorParam>
              <VectorParam id="3104"  name="scale">
               <InterpolatingParam id="3105" interp="linr"  time="-9999999/1" value="1" leadInLength="0/1"  />
               <InterpolatingParam id="3106" interp="linr"  time="-9999999/1" value="1" leadInLength="0/1"  />
               <InterpolatingParam id="3107" interp="linr"  time="-9999999/1" value="1" leadInLength="0/1"  />
              </VectorParam>
              <VectorParam id="3108"  name="anchor">
               <InterpolatingParam id="3109" interp="linr"  time="0/1" value="0" leadInLength="0/1"  />
               <InterpolatingParam id="3110" interp="linr"  time="0/1" value="0" leadInLength="0/1"  />
               <InterpolatingParam id="3111" interp="linr"  time="0/1" value="0" leadInLength="0/1"  />
              </VectorParam>
             </Transformer>
             <Parameters>
              <VectorParam id="3112"  name="sourceCrop">
               <InterpolatingParam id="3113" interp="linr"  time="0/1" value="0" leadInLength="0/1"  />
               <InterpolatingParam id="3114" interp="linr"  time="0/1" value="0" leadInLength="0/1"  />
               <InterpolatingParam id="3115" interp="linr"  time="0/1" value="0" leadInLength="0/1"  />
               <InterpolatingParam id="3116" interp="linr"  time="0/1" value="0" leadInLength="0/1"  />
              </VectorParam>
              <VectorParam id="3117"  name="geometryCrop">
               <InterpolatingParam id="3118" interp="linr"  time="-9999999/1" value="0" leadInLength="0/1"  />
               <InterpolatingParam id="3119" interp="linr"  time="-9999999/1" value="0" leadInLength="0/1"  />
               <InterpolatingParam id="3120" interp="linr"  time="-9999999/1" value="0" leadInLength="0/1"  />
               <InterpolatingParam id="3121" interp="linr"  time="-9999999/1" value="0" leadInLength="0/1"  />
              </VectorParam>
              <InterpolatingParam id="3122" interp="linr"  time="-9999999/1" value="1" leadInLength="0/1"  name="opacity"/>
              <InterpolatingParam id="3123" interp="linr"  time="0/1" value="0" leadInLength="0/1"  name="cursorOpacity"/>
              <InterpolatingParam id="3124" interp="linr"  time="0/1" value="0" leadInLength="0/1"  name="cursorScale"/>
             </Parameters>
             <Attributes>
              <Attribute id="3125" value="" name="ident"/>
             </Attributes>
             <ExtraData>
              <Entry key="ZoomPanBin">
               <ZoomPanBin id="3126"  >
                <ZoomPanKeyframes>
                 <ZoomPanKeyframe id="3127" timeRangeEnd="-9999999/1" timeRangeDuration="0/1" interpolaterName=""  />
                </ZoomPanKeyframes>
               </ZoomPanBin>
              </Entry>
              <Entry key="CursorEffectBin">
               <CursorEffectBin id="3128"  >
                <CursorEffectKeyframes>
                </CursorEffectKeyframes>
               </CursorEffectBin>
              </Entry>
             </ExtraData>
            </ScreenVMFile>
            <MetaData>
             <entry key="AutoAppliedSmartFocus" val="False"/>
             <entry key="WinSubProjectDisplayName" val=""/>
            </MetaData>
           </UnifiedMedia>
           <UnifiedMedia id="3129"  >
            <AMFile id="3130" start="14298" duration="26" scalar="1/1" mediaStart="34048/1" mediaDuration="26/1" trackNumber="1" src="4" channelNumber="0,1" >
             <Parameters>
              <InterpolatingParam id="3131" interp="linr"  time="0/1" value="1" leadInLength="0/1"  name="volume"/>
              <Parameter id="3132"  name="captions"/>
             </Parameters>
             <Attributes>
              <Attribute id="3133" value="" name="ident"/>
              <Attribute id="3134" value="44100" name="sampleRate"/>
              <Attribute id="3135" value="16" name="bitDepth"/>
              <Attribute id="3136" value="1" name="gain"/>
              <Attribute id="3137" value="0" name="mixToMono"/>
             </Attributes>
            </AMFile>
            <ScreenVMFile id="3138" start="14298" duration="26" scalar="1/1" mediaStart="34048/1" mediaDuration="26/1" trackNumber="0" src="4" >
             <Transformer>
              <VectorParam id="3139"  name="translation">
               <InterpolatingParam id="3140" interp="linr"  time="-9999999/1" value="0" leadInLength="0/1"  />
               <InterpolatingParam id="3141" interp="linr"  time="-9999999/1" value="0" leadInLength="0/1"  />
               <InterpolatingParam id="3142" interp="linr"  time="-9999999/1" value="0" leadInLength="0/1"  />
              </VectorParam>
              <VectorParam id="3143"  name="rotation">
               <InterpolatingParam id="3144" interp="linr"  time="-9999999/1" value="0" leadInLength="0/1"  />
               <InterpolatingParam id="3145" interp="linr"  time="-9999999/1" value="0" leadInLength="0/1"  />
               <InterpolatingParam id="3146" interp="linr"  time="-9999999/1" value="0" leadInLength="0/1"  />
              </VectorParam>
              <VectorParam id="3147"  name="shear">
               <InterpolatingParam id="3148" interp="linr"  time="-9999999/1" value="0" leadInLength="0/1"  />
               <InterpolatingParam id="3149" interp="linr"  time="-9999999/1" value="0" leadInLength="0/1"  />
               <InterpolatingParam id="3150" interp="linr"  time="-9999999/1" value="0" leadInLength="0/1"  />
              </VectorParam>
              <VectorParam id="3151"  name="scale">
               <InterpolatingParam id="3152" interp="linr"  time="-9999999/1" value="1" leadInLength="0/1"  />
               <InterpolatingParam id="3153" interp="linr"  time="-9999999/1" value="1" leadInLength="0/1"  />
               <InterpolatingParam id="3154" interp="linr"  time="-9999999/1" value="1" leadInLength="0/1"  />
              </VectorParam>
              <VectorParam id="3155"  name="anchor">
               <InterpolatingParam id="3156" interp="linr"  time="0/1" value="0" leadInLength="0/1"  />
               <InterpolatingParam id="3157" interp="linr"  time="0/1" value="0" leadInLength="0/1"  />
               <InterpolatingParam id="3158" interp="linr"  time="0/1" value="0" leadInLength="0/1"  />
              </VectorParam>
             </Transformer>
             <Parameters>
              <VectorParam id="3159"  name="sourceCrop">
               <InterpolatingParam id="3160" interp="linr"  time="0/1" value="0" leadInLength="0/1"  />
               <InterpolatingParam id="3161" interp="linr"  time="0/1" value="0" leadInLength="0/1"  />
               <InterpolatingParam id="3162" interp="linr"  time="0/1" value="0" leadInLength="0/1"  />
               <InterpolatingParam id="3163" interp="linr"  time="0/1" value="0" leadInLength="0/1"  />
              </VectorParam>
              <VectorParam id="3164"  name="geometryCrop">
               <InterpolatingParam id="3165" interp="linr"  time="-9999999/1" value="0" leadInLength="0/1"  />
               <InterpolatingParam id="3166" interp="linr"  time="-9999999/1" value="0" leadInLength="0/1"  />
               <InterpolatingParam id="3167" interp="linr"  time="-9999999/1" value="0" leadInLength="0/1"  />
               <InterpolatingParam id="3168" interp="linr"  time="-9999999/1" value="0" leadInLength="0/1"  />
              </VectorParam>
              <InterpolatingParam id="3169" interp="linr"  time="-9999999/1" value="1" leadInLength="0/1"  name="opacity"/>
              <InterpolatingParam id="3170" interp="linr"  time="0/1" value="0" leadInLength="0/1"  name="cursorOpacity"/>
              <InterpolatingParam id="3171" interp="linr"  time="0/1" value="0" leadInLength="0/1"  name="cursorScale"/>
             </Parameters>
             <Attributes>
              <Attribute id="3172" value="" name="ident"/>
             </Attributes>
             <ExtraData>
              <Entry key="ZoomPanBin">
               <ZoomPanBin id="3173"  >
                <ZoomPanKeyframes>
                 <ZoomPanKeyframe id="3174" timeRangeEnd="-9999999/1" timeRangeDuration="0/1" interpolaterName=""  />
                </ZoomPanKeyframes>
               </ZoomPanBin>
              </Entry>
              <Entry key="CursorEffectBin">
               <CursorEffectBin id="3175"  >
                <CursorEffectKeyframes>
                </CursorEffectKeyframes>
               </CursorEffectBin>
              </Entry>
             </ExtraData>
            </ScreenVMFile>
            <MetaData>
             <entry key="AutoAppliedSmartFocus" val="False"/>
             <entry key="WinSubProjectDisplayName" val=""/>
            </MetaData>
           </UnifiedMedia>
           <UnifiedMedia id="3176"  >
            <AMFile id="3177" start="14324" duration="87" scalar="1/1" mediaStart="34091/1" mediaDuration="87/1" trackNumber="1" src="4" channelNumber="0,1" >
             <Parameters>
              <InterpolatingParam id="3178" interp="linr"  time="0/1" value="1" leadInLength="0/1"  name="volume"/>
              <Parameter id="3179"  name="captions"/>
             </Parameters>
             <Attributes>
              <Attribute id="3180" value="" name="ident"/>
              <Attribute id="3181" value="44100" name="sampleRate"/>
              <Attribute id="3182" value="16" name="bitDepth"/>
              <Attribute id="3183" value="1" name="gain"/>
              <Attribute id="3184" value="0" name="mixToMono"/>
             </Attributes>
            </AMFile>
            <ScreenVMFile id="3185" start="14324" duration="87" scalar="1/1" mediaStart="34091/1" mediaDuration="87/1" trackNumber="0" src="4" >
             <Transformer>
              <VectorParam id="3186"  name="translation">
               <InterpolatingParam id="3187" interp="linr"  time="-9999999/1" value="0" leadInLength="0/1"  />
               <InterpolatingParam id="3188" interp="linr"  time="-9999999/1" value="0" leadInLength="0/1"  />
               <InterpolatingParam id="3189" interp="linr"  time="-9999999/1" value="0" leadInLength="0/1"  />
              </VectorParam>
              <VectorParam id="3190"  name="rotation">
               <InterpolatingParam id="3191" interp="linr"  time="-9999999/1" value="0" leadInLength="0/1"  />
               <InterpolatingParam id="3192" interp="linr"  time="-9999999/1" value="0" leadInLength="0/1"  />
               <InterpolatingParam id="3193" interp="linr"  time="-9999999/1" value="0" leadInLength="0/1"  />
              </VectorParam>
              <VectorParam id="3194"  name="shear">
               <InterpolatingParam id="3195" interp="linr"  time="-9999999/1" value="0" leadInLength="0/1"  />
               <InterpolatingParam id="3196" interp="linr"  time="-9999999/1" value="0" leadInLength="0/1"  />
               <InterpolatingParam id="3197" interp="linr"  time="-9999999/1" value="0" leadInLength="0/1"  />
              </VectorParam>
              <VectorParam id="3198"  name="scale">
               <InterpolatingParam id="3199" interp="linr"  time="-9999999/1" value="1" leadInLength="0/1"  />
               <InterpolatingParam id="3200" interp="linr"  time="-9999999/1" value="1" leadInLength="0/1"  />
               <InterpolatingParam id="3201" interp="linr"  time="-9999999/1" value="1" leadInLength="0/1"  />
              </VectorParam>
              <VectorParam id="3202"  name="anchor">
               <InterpolatingParam id="3203" interp="linr"  time="0/1" value="0" leadInLength="0/1"  />
               <InterpolatingParam id="3204" interp="linr"  time="0/1" value="0" leadInLength="0/1"  />
               <InterpolatingParam id="3205" interp="linr"  time="0/1" value="0" leadInLength="0/1"  />
              </VectorParam>
             </Transformer>
             <Parameters>
              <VectorParam id="3206"  name="sourceCrop">
               <InterpolatingParam id="3207" interp="linr"  time="0/1" value="0" leadInLength="0/1"  />
               <InterpolatingParam id="3208" interp="linr"  time="0/1" value="0" leadInLength="0/1"  />
               <InterpolatingParam id="3209" interp="linr"  time="0/1" value="0" leadInLength="0/1"  />
               <InterpolatingParam id="3210" interp="linr"  time="0/1" value="0" leadInLength="0/1"  />
              </VectorParam>
              <VectorParam id="3211"  name="geometryCrop">
               <InterpolatingParam id="3212" interp="linr"  time="-9999999/1" value="0" leadInLength="0/1"  />
               <InterpolatingParam id="3213" interp="linr"  time="-9999999/1" value="0" leadInLength="0/1"  />
               <InterpolatingParam id="3214" interp="linr"  time="-9999999/1" value="0" leadInLength="0/1"  />
               <InterpolatingParam id="3215" interp="linr"  time="-9999999/1" value="0" leadInLength="0/1"  />
              </VectorParam>
              <InterpolatingParam id="3216" interp="linr"  time="-9999999/1" value="1" leadInLength="0/1"  name="opacity"/>
              <InterpolatingParam id="3217" interp="linr"  time="0/1" value="0" leadInLength="0/1"  name="cursorOpacity"/>
              <InterpolatingParam id="3218" interp="linr"  time="0/1" value="0" leadInLength="0/1"  name="cursorScale"/>
             </Parameters>
             <Attributes>
              <Attribute id="3219" value="" name="ident"/>
             </Attributes>
             <ExtraData>
              <Entry key="ZoomPanBin">
               <ZoomPanBin id="3220"  >
                <ZoomPanKeyframes>
                 <ZoomPanKeyframe id="3221" timeRangeEnd="-9999999/1" timeRangeDuration="0/1" interpolaterName=""  />
                </ZoomPanKeyframes>
               </ZoomPanBin>
              </Entry>
              <Entry key="CursorEffectBin">
               <CursorEffectBin id="3222"  >
                <CursorEffectKeyframes>
                </CursorEffectKeyframes>
               </CursorEffectBin>
              </Entry>
             </ExtraData>
            </ScreenVMFile>
            <MetaData>
             <entry key="AutoAppliedSmartFocus" val="False"/>
             <entry key="WinSubProjectDisplayName" val=""/>
            </MetaData>
           </UnifiedMedia>
           <UnifiedMedia id="3223"  >
            <AMFile id="3224" start="14411" duration="58" scalar="1/1" mediaStart="34192/1" mediaDuration="58/1" trackNumber="1" src="4" channelNumber="0,1" >
             <Parameters>
              <InterpolatingParam id="3225" interp="linr"  time="0/1" value="1" leadInLength="0/1"  name="volume"/>
              <Parameter id="3226"  name="captions"/>
             </Parameters>
             <Attributes>
              <Attribute id="3227" value="" name="ident"/>
              <Attribute id="3228" value="44100" name="sampleRate"/>
              <Attribute id="3229" value="16" name="bitDepth"/>
              <Attribute id="3230" value="1" name="gain"/>
              <Attribute id="3231" value="0" name="mixToMono"/>
             </Attributes>
            </AMFile>
            <ScreenVMFile id="3232" start="14411" duration="58" scalar="1/1" mediaStart="34192/1" mediaDuration="58/1" trackNumber="0" src="4" >
             <Transformer>
              <VectorParam id="3233"  name="translation">
               <InterpolatingParam id="3234" interp="linr"  time="-9999999/1" value="0" leadInLength="0/1"  />
               <InterpolatingParam id="3235" interp="linr"  time="-9999999/1" value="0" leadInLength="0/1"  />
               <InterpolatingParam id="3236" interp="linr"  time="-9999999/1" value="0" leadInLength="0/1"  />
              </VectorParam>
              <VectorParam id="3237"  name="rotation">
               <InterpolatingParam id="3238" interp="linr"  time="-9999999/1" value="0" leadInLength="0/1"  />
               <InterpolatingParam id="3239" interp="linr"  time="-9999999/1" value="0" leadInLength="0/1"  />
               <InterpolatingParam id="3240" interp="linr"  time="-9999999/1" value="0" leadInLength="0/1"  />
              </VectorParam>
              <VectorParam id="3241"  name="shear">
               <InterpolatingParam id="3242" interp="linr"  time="-9999999/1" value="0" leadInLength="0/1"  />
               <InterpolatingParam id="3243" interp="linr"  time="-9999999/1" value="0" leadInLength="0/1"  />
               <InterpolatingParam id="3244" interp="linr"  time="-9999999/1" value="0" leadInLength="0/1"  />
              </VectorParam>
              <VectorParam id="3245"  name="scale">
               <InterpolatingParam id="3246" interp="linr"  time="-9999999/1" value="1" leadInLength="0/1"  />
               <InterpolatingParam id="3247" interp="linr"  time="-9999999/1" value="1" leadInLength="0/1"  />
               <InterpolatingParam id="3248" interp="linr"  time="-9999999/1" value="1" leadInLength="0/1"  />
              </VectorParam>
              <VectorParam id="3249"  name="anchor">
               <InterpolatingParam id="3250" interp="linr"  time="0/1" value="0" leadInLength="0/1"  />
               <InterpolatingParam id="3251" interp="linr"  time="0/1" value="0" leadInLength="0/1"  />
               <InterpolatingParam id="3252" interp="linr"  time="0/1" value="0" leadInLength="0/1"  />
              </VectorParam>
             </Transformer>
             <Parameters>
              <VectorParam id="3253"  name="sourceCrop">
               <InterpolatingParam id="3254" interp="linr"  time="0/1" value="0" leadInLength="0/1"  />
               <InterpolatingParam id="3255" interp="linr"  time="0/1" value="0" leadInLength="0/1"  />
               <InterpolatingParam id="3256" interp="linr"  time="0/1" value="0" leadInLength="0/1"  />
               <InterpolatingParam id="3257" interp="linr"  time="0/1" value="0" leadInLength="0/1"  />
              </VectorParam>
              <VectorParam id="3258"  name="geometryCrop">
               <InterpolatingParam id="3259" interp="linr"  time="-9999999/1" value="0" leadInLength="0/1"  />
               <InterpolatingParam id="3260" interp="linr"  time="-9999999/1" value="0" leadInLength="0/1"  />
               <InterpolatingParam id="3261" interp="linr"  time="-9999999/1" value="0" leadInLength="0/1"  />
               <InterpolatingParam id="3262" interp="linr"  time="-9999999/1" value="0" leadInLength="0/1"  />
              </VectorParam>
              <InterpolatingParam id="3263" interp="linr"  time="-9999999/1" value="1" leadInLength="0/1"  name="opacity"/>
              <InterpolatingParam id="3264" interp="linr"  time="0/1" value="0" leadInLength="0/1"  name="cursorOpacity"/>
              <InterpolatingParam id="3265" interp="linr"  time="0/1" value="0" leadInLength="0/1"  name="cursorScale"/>
             </Parameters>
             <Attributes>
              <Attribute id="3266" value="" name="ident"/>
             </Attributes>
             <ExtraData>
              <Entry key="ZoomPanBin">
               <ZoomPanBin id="3267"  >
                <ZoomPanKeyframes>
                 <ZoomPanKeyframe id="3268" timeRangeEnd="-9999999/1" timeRangeDuration="0/1" interpolaterName=""  />
                </ZoomPanKeyframes>
               </ZoomPanBin>
              </Entry>
              <Entry key="CursorEffectBin">
               <CursorEffectBin id="3269"  >
                <CursorEffectKeyframes>
                </CursorEffectKeyframes>
               </CursorEffectBin>
              </Entry>
             </ExtraData>
            </ScreenVMFile>
            <MetaData>
             <entry key="AutoAppliedSmartFocus" val="False"/>
             <entry key="WinSubProjectDisplayName" val=""/>
            </MetaData>
           </UnifiedMedia>
           <UnifiedMedia id="3270"  >
            <AMFile id="3271" start="14469" duration="22" scalar="1/1" mediaStart="34282/1" mediaDuration="22/1" trackNumber="1" src="4" channelNumber="0,1" >
             <Parameters>
              <InterpolatingParam id="3272" interp="linr"  time="0/1" value="1" leadInLength="0/1"  name="volume"/>
              <Parameter id="3273"  name="captions"/>
             </Parameters>
             <Attributes>
              <Attribute id="3274" value="" name="ident"/>
              <Attribute id="3275" value="44100" name="sampleRate"/>
              <Attribute id="3276" value="16" name="bitDepth"/>
              <Attribute id="3277" value="1" name="gain"/>
              <Attribute id="3278" value="0" name="mixToMono"/>
             </Attributes>
            </AMFile>
            <ScreenVMFile id="3279" start="14469" duration="22" scalar="1/1" mediaStart="34282/1" mediaDuration="22/1" trackNumber="0" src="4" >
             <Transformer>
              <VectorParam id="3280"  name="translation">
               <InterpolatingParam id="3281" interp="linr"  time="-9999999/1" value="0" leadInLength="0/1"  />
               <InterpolatingParam id="3282" interp="linr"  time="-9999999/1" value="0" leadInLength="0/1"  />
               <InterpolatingParam id="3283" interp="linr"  time="-9999999/1" value="0" leadInLength="0/1"  />
              </VectorParam>
              <VectorParam id="3284"  name="rotation">
               <InterpolatingParam id="3285" interp="linr"  time="-9999999/1" value="0" leadInLength="0/1"  />
               <InterpolatingParam id="3286" interp="linr"  time="-9999999/1" value="0" leadInLength="0/1"  />
               <InterpolatingParam id="3287" interp="linr"  time="-9999999/1" value="0" leadInLength="0/1"  />
              </VectorParam>
              <VectorParam id="3288"  name="shear">
               <InterpolatingParam id="3289" interp="linr"  time="-9999999/1" value="0" leadInLength="0/1"  />
               <InterpolatingParam id="3290" interp="linr"  time="-9999999/1" value="0" leadInLength="0/1"  />
               <InterpolatingParam id="3291" interp="linr"  time="-9999999/1" value="0" leadInLength="0/1"  />
              </VectorParam>
              <VectorParam id="3292"  name="scale">
               <InterpolatingParam id="3293" interp="linr"  time="-9999999/1" value="1" leadInLength="0/1"  />
               <InterpolatingParam id="3294" interp="linr"  time="-9999999/1" value="1" leadInLength="0/1"  />
               <InterpolatingParam id="3295" interp="linr"  time="-9999999/1" value="1" leadInLength="0/1"  />
              </VectorParam>
              <VectorParam id="3296"  name="anchor">
               <InterpolatingParam id="3297" interp="linr"  time="0/1" value="0" leadInLength="0/1"  />
               <InterpolatingParam id="3298" interp="linr"  time="0/1" value="0" leadInLength="0/1"  />
               <InterpolatingParam id="3299" interp="linr"  time="0/1" value="0" leadInLength="0/1"  />
              </VectorParam>
             </Transformer>
             <Parameters>
              <VectorParam id="3300"  name="sourceCrop">
               <InterpolatingParam id="3301" interp="linr"  time="0/1" value="0" leadInLength="0/1"  />
               <InterpolatingParam id="3302" interp="linr"  time="0/1" value="0" leadInLength="0/1"  />
               <InterpolatingParam id="3303" interp="linr"  time="0/1" value="0" leadInLength="0/1"  />
               <InterpolatingParam id="3304" interp="linr"  time="0/1" value="0" leadInLength="0/1"  />
              </VectorParam>
              <VectorParam id="3305"  name="geometryCrop">
               <InterpolatingParam id="3306" interp="linr"  time="-9999999/1" value="0" leadInLength="0/1"  />
               <InterpolatingParam id="3307" interp="linr"  time="-9999999/1" value="0" leadInLength="0/1"  />
               <InterpolatingParam id="3308" interp="linr"  time="-9999999/1" value="0" leadInLength="0/1"  />
               <InterpolatingParam id="3309" interp="linr"  time="-9999999/1" value="0" leadInLength="0/1"  />
              </VectorParam>
              <InterpolatingParam id="3310" interp="linr"  time="-9999999/1" value="1" leadInLength="0/1"  name="opacity"/>
              <InterpolatingParam id="3311" interp="linr"  time="0/1" value="0" leadInLength="0/1"  name="cursorOpacity"/>
              <InterpolatingParam id="3312" interp="linr"  time="0/1" value="0" leadInLength="0/1"  name="cursorScale"/>
             </Parameters>
             <Attributes>
              <Attribute id="3313" value="" name="ident"/>
             </Attributes>
             <ExtraData>
              <Entry key="ZoomPanBin">
               <ZoomPanBin id="3314"  >
                <ZoomPanKeyframes>
                 <ZoomPanKeyframe id="3315" timeRangeEnd="-9999999/1" timeRangeDuration="0/1" interpolaterName=""  />
                </ZoomPanKeyframes>
               </ZoomPanBin>
              </Entry>
              <Entry key="CursorEffectBin">
               <CursorEffectBin id="3316"  >
                <CursorEffectKeyframes>
                </CursorEffectKeyframes>
               </CursorEffectBin>
              </Entry>
             </ExtraData>
            </ScreenVMFile>
            <MetaData>
             <entry key="AutoAppliedSmartFocus" val="False"/>
             <entry key="WinSubProjectDisplayName" val=""/>
            </MetaData>
           </UnifiedMedia>
           <UnifiedMedia id="3317"  >
            <AMFile id="3318" start="14491" duration="20" scalar="1/1" mediaStart="34339/1" mediaDuration="20/1" trackNumber="1" src="4" channelNumber="0,1" >
             <Parameters>
              <InterpolatingParam id="3319" interp="linr"  time="0/1" value="1" leadInLength="0/1"  name="volume"/>
              <Parameter id="3320"  name="captions"/>
             </Parameters>
             <Attributes>
              <Attribute id="3321" value="" name="ident"/>
              <Attribute id="3322" value="44100" name="sampleRate"/>
              <Attribute id="3323" value="16" name="bitDepth"/>
              <Attribute id="3324" value="1" name="gain"/>
              <Attribute id="3325" value="0" name="mixToMono"/>
             </Attributes>
            </AMFile>
            <ScreenVMFile id="3326" start="14491" duration="20" scalar="1/1" mediaStart="34339/1" mediaDuration="20/1" trackNumber="0" src="4" >
             <Transformer>
              <VectorParam id="3327"  name="translation">
               <InterpolatingParam id="3328" interp="linr"  time="-9999999/1" value="0" leadInLength="0/1"  />
               <InterpolatingParam id="3329" interp="linr"  time="-9999999/1" value="0" leadInLength="0/1"  />
               <InterpolatingParam id="3330" interp="linr"  time="-9999999/1" value="0" leadInLength="0/1"  />
              </VectorParam>
              <VectorParam id="3331"  name="rotation">
               <InterpolatingParam id="3332" interp="linr"  time="-9999999/1" value="0" leadInLength="0/1"  />
               <InterpolatingParam id="3333" interp="linr"  time="-9999999/1" value="0" leadInLength="0/1"  />
               <InterpolatingParam id="3334" interp="linr"  time="-9999999/1" value="0" leadInLength="0/1"  />
              </VectorParam>
              <VectorParam id="3335"  name="shear">
               <InterpolatingParam id="3336" interp="linr"  time="-9999999/1" value="0" leadInLength="0/1"  />
               <InterpolatingParam id="3337" interp="linr"  time="-9999999/1" value="0" leadInLength="0/1"  />
               <InterpolatingParam id="3338" interp="linr"  time="-9999999/1" value="0" leadInLength="0/1"  />
              </VectorParam>
              <VectorParam id="3339"  name="scale">
               <InterpolatingParam id="3340" interp="linr"  time="-9999999/1" value="1" leadInLength="0/1"  />
               <InterpolatingParam id="3341" interp="linr"  time="-9999999/1" value="1" leadInLength="0/1"  />
               <InterpolatingParam id="3342" interp="linr"  time="-9999999/1" value="1" leadInLength="0/1"  />
              </VectorParam>
              <VectorParam id="3343"  name="anchor">
               <InterpolatingParam id="3344" interp="linr"  time="0/1" value="0" leadInLength="0/1"  />
               <InterpolatingParam id="3345" interp="linr"  time="0/1" value="0" leadInLength="0/1"  />
               <InterpolatingParam id="3346" interp="linr"  time="0/1" value="0" leadInLength="0/1"  />
              </VectorParam>
             </Transformer>
             <Parameters>
              <VectorParam id="3347"  name="sourceCrop">
               <InterpolatingParam id="3348" interp="linr"  time="0/1" value="0" leadInLength="0/1"  />
               <InterpolatingParam id="3349" interp="linr"  time="0/1" value="0" leadInLength="0/1"  />
               <InterpolatingParam id="3350" interp="linr"  time="0/1" value="0" leadInLength="0/1"  />
               <InterpolatingParam id="3351" interp="linr"  time="0/1" value="0" leadInLength="0/1"  />
              </VectorParam>
              <VectorParam id="3352"  name="geometryCrop">
               <InterpolatingParam id="3353" interp="linr"  time="-9999999/1" value="0" leadInLength="0/1"  />
               <InterpolatingParam id="3354" interp="linr"  time="-9999999/1" value="0" leadInLength="0/1"  />
               <InterpolatingParam id="3355" interp="linr"  time="-9999999/1" value="0" leadInLength="0/1"  />
               <InterpolatingParam id="3356" interp="linr"  time="-9999999/1" value="0" leadInLength="0/1"  />
              </VectorParam>
              <InterpolatingParam id="3357" interp="linr"  time="-9999999/1" value="1" leadInLength="0/1"  name="opacity"/>
              <InterpolatingParam id="3358" interp="linr"  time="0/1" value="0" leadInLength="0/1"  name="cursorOpacity"/>
              <InterpolatingParam id="3359" interp="linr"  time="0/1" value="0" leadInLength="0/1"  name="cursorScale"/>
             </Parameters>
             <Attributes>
              <Attribute id="3360" value="" name="ident"/>
             </Attributes>
             <ExtraData>
              <Entry key="ZoomPanBin">
               <ZoomPanBin id="3361"  >
                <ZoomPanKeyframes>
                 <ZoomPanKeyframe id="3362" timeRangeEnd="-9999999/1" timeRangeDuration="0/1" interpolaterName=""  />
                </ZoomPanKeyframes>
               </ZoomPanBin>
              </Entry>
              <Entry key="CursorEffectBin">
               <CursorEffectBin id="3363"  >
                <CursorEffectKeyframes>
                </CursorEffectKeyframes>
               </CursorEffectBin>
              </Entry>
             </ExtraData>
            </ScreenVMFile>
            <MetaData>
             <entry key="AutoAppliedSmartFocus" val="False"/>
             <entry key="WinSubProjectDisplayName" val=""/>
            </MetaData>
           </UnifiedMedia>
           <UnifiedMedia id="3364"  >
            <AMFile id="3365" start="14511" duration="30" scalar="1/1" mediaStart="34464/1" mediaDuration="30/1" trackNumber="1" src="4" channelNumber="0,1" >
             <Parameters>
              <InterpolatingParam id="3366" interp="linr"  time="0/1" value="1" leadInLength="0/1"  name="volume"/>
              <Parameter id="3367"  name="captions"/>
             </Parameters>
             <Attributes>
              <Attribute id="3368" value="" name="ident"/>
              <Attribute id="3369" value="44100" name="sampleRate"/>
              <Attribute id="3370" value="16" name="bitDepth"/>
              <Attribute id="3371" value="1" name="gain"/>
              <Attribute id="3372" value="0" name="mixToMono"/>
             </Attributes>
            </AMFile>
            <ScreenVMFile id="3373" start="14511" duration="30" scalar="1/1" mediaStart="34464/1" mediaDuration="30/1" trackNumber="0" src="4" >
             <Transformer>
              <VectorParam id="3374"  name="translation">
               <InterpolatingParam id="3375" interp="linr"  time="-9999999/1" value="0" leadInLength="0/1"  />
               <InterpolatingParam id="3376" interp="linr"  time="-9999999/1" value="0" leadInLength="0/1"  />
               <InterpolatingParam id="3377" interp="linr"  time="-9999999/1" value="0" leadInLength="0/1"  />
              </VectorParam>
              <VectorParam id="3378"  name="rotation">
               <InterpolatingParam id="3379" interp="linr"  time="-9999999/1" value="0" leadInLength="0/1"  />
               <InterpolatingParam id="3380" interp="linr"  time="-9999999/1" value="0" leadInLength="0/1"  />
               <InterpolatingParam id="3381" interp="linr"  time="-9999999/1" value="0" leadInLength="0/1"  />
              </VectorParam>
              <VectorParam id="3382"  name="shear">
               <InterpolatingParam id="3383" interp="linr"  time="-9999999/1" value="0" leadInLength="0/1"  />
               <InterpolatingParam id="3384" interp="linr"  time="-9999999/1" value="0" leadInLength="0/1"  />
               <InterpolatingParam id="3385" interp="linr"  time="-9999999/1" value="0" leadInLength="0/1"  />
              </VectorParam>
              <VectorParam id="3386"  name="scale">
               <InterpolatingParam id="3387" interp="linr"  time="-9999999/1" value="1" leadInLength="0/1"  />
               <InterpolatingParam id="3388" interp="linr"  time="-9999999/1" value="1" leadInLength="0/1"  />
               <InterpolatingParam id="3389" interp="linr"  time="-9999999/1" value="1" leadInLength="0/1"  />
              </VectorParam>
              <VectorParam id="3390"  name="anchor">
               <InterpolatingParam id="3391" interp="linr"  time="0/1" value="0" leadInLength="0/1"  />
               <InterpolatingParam id="3392" interp="linr"  time="0/1" value="0" leadInLength="0/1"  />
               <InterpolatingParam id="3393" interp="linr"  time="0/1" value="0" leadInLength="0/1"  />
              </VectorParam>
             </Transformer>
             <Parameters>
              <VectorParam id="3394"  name="sourceCrop">
               <InterpolatingParam id="3395" interp="linr"  time="0/1" value="0" leadInLength="0/1"  />
               <InterpolatingParam id="3396" interp="linr"  time="0/1" value="0" leadInLength="0/1"  />
               <InterpolatingParam id="3397" interp="linr"  time="0/1" value="0" leadInLength="0/1"  />
               <InterpolatingParam id="3398" interp="linr"  time="0/1" value="0" leadInLength="0/1"  />
              </VectorParam>
              <VectorParam id="3399"  name="geometryCrop">
               <InterpolatingParam id="3400" interp="linr"  time="-9999999/1" value="0" leadInLength="0/1"  />
               <InterpolatingParam id="3401" interp="linr"  time="-9999999/1" value="0" leadInLength="0/1"  />
               <InterpolatingParam id="3402" interp="linr"  time="-9999999/1" value="0" leadInLength="0/1"  />
               <InterpolatingParam id="3403" interp="linr"  time="-9999999/1" value="0" leadInLength="0/1"  />
              </VectorParam>
              <InterpolatingParam id="3404" interp="linr"  time="-9999999/1" value="1" leadInLength="0/1"  name="opacity"/>
              <InterpolatingParam id="3405" interp="linr"  time="0/1" value="0" leadInLength="0/1"  name="cursorOpacity"/>
              <InterpolatingParam id="3406" interp="linr"  time="0/1" value="0" leadInLength="0/1"  name="cursorScale"/>
             </Parameters>
             <Attributes>
              <Attribute id="3407" value="" name="ident"/>
             </Attributes>
             <ExtraData>
              <Entry key="ZoomPanBin">
               <ZoomPanBin id="3408"  >
                <ZoomPanKeyframes>
                 <ZoomPanKeyframe id="3409" timeRangeEnd="-9999999/1" timeRangeDuration="0/1" interpolaterName=""  />
                </ZoomPanKeyframes>
               </ZoomPanBin>
              </Entry>
              <Entry key="CursorEffectBin">
               <CursorEffectBin id="3410"  >
                <CursorEffectKeyframes>
                </CursorEffectKeyframes>
               </CursorEffectBin>
              </Entry>
             </ExtraData>
            </ScreenVMFile>
            <MetaData>
             <entry key="AutoAppliedSmartFocus" val="False"/>
             <entry key="WinSubProjectDisplayName" val=""/>
            </MetaData>
           </UnifiedMedia>
           <UnifiedMedia id="3411"  >
            <AMFile id="3412" start="14541" duration="99" scalar="1/1" mediaStart="34610/1" mediaDuration="99/1" trackNumber="1" src="4" channelNumber="0,1" >
             <Parameters>
              <InterpolatingParam id="3413" interp="linr"  time="0/1" value="1" leadInLength="0/1"  name="volume"/>
              <Parameter id="3414"  name="captions"/>
             </Parameters>
             <Attributes>
              <Attribute id="3415" value="" name="ident"/>
              <Attribute id="3416" value="44100" name="sampleRate"/>
              <Attribute id="3417" value="16" name="bitDepth"/>
              <Attribute id="3418" value="1" name="gain"/>
              <Attribute id="3419" value="0" name="mixToMono"/>
             </Attributes>
            </AMFile>
            <ScreenVMFile id="3420" start="14541" duration="99" scalar="1/1" mediaStart="34610/1" mediaDuration="99/1" trackNumber="0" src="4" >
             <Transformer>
              <VectorParam id="3421"  name="translation">
               <InterpolatingParam id="3422" interp="linr"  time="-9999999/1" value="0" leadInLength="0/1"  />
               <InterpolatingParam id="3423" interp="linr"  time="-9999999/1" value="0" leadInLength="0/1"  />
               <InterpolatingParam id="3424" interp="linr"  time="-9999999/1" value="0" leadInLength="0/1"  />
              </VectorParam>
              <VectorParam id="3425"  name="rotation">
               <InterpolatingParam id="3426" interp="linr"  time="-9999999/1" value="0" leadInLength="0/1"  />
               <InterpolatingParam id="3427" interp="linr"  time="-9999999/1" value="0" leadInLength="0/1"  />
               <InterpolatingParam id="3428" interp="linr"  time="-9999999/1" value="0" leadInLength="0/1"  />
              </VectorParam>
              <VectorParam id="3429"  name="shear">
               <InterpolatingParam id="3430" interp="linr"  time="-9999999/1" value="0" leadInLength="0/1"  />
               <InterpolatingParam id="3431" interp="linr"  time="-9999999/1" value="0" leadInLength="0/1"  />
               <InterpolatingParam id="3432" interp="linr"  time="-9999999/1" value="0" leadInLength="0/1"  />
              </VectorParam>
              <VectorParam id="3433"  name="scale">
               <InterpolatingParam id="3434" interp="linr"  time="-9999999/1" value="1" leadInLength="0/1"  />
               <InterpolatingParam id="3435" interp="linr"  time="-9999999/1" value="1" leadInLength="0/1"  />
               <InterpolatingParam id="3436" interp="linr"  time="-9999999/1" value="1" leadInLength="0/1"  />
              </VectorParam>
              <VectorParam id="3437"  name="anchor">
               <InterpolatingParam id="3438" interp="linr"  time="0/1" value="0" leadInLength="0/1"  />
               <InterpolatingParam id="3439" interp="linr"  time="0/1" value="0" leadInLength="0/1"  />
               <InterpolatingParam id="3440" interp="linr"  time="0/1" value="0" leadInLength="0/1"  />
              </VectorParam>
             </Transformer>
             <Parameters>
              <VectorParam id="3441"  name="sourceCrop">
               <InterpolatingParam id="3442" interp="linr"  time="0/1" value="0" leadInLength="0/1"  />
               <InterpolatingParam id="3443" interp="linr"  time="0/1" value="0" leadInLength="0/1"  />
               <InterpolatingParam id="3444" interp="linr"  time="0/1" value="0" leadInLength="0/1"  />
               <InterpolatingParam id="3445" interp="linr"  time="0/1" value="0" leadInLength="0/1"  />
              </VectorParam>
              <VectorParam id="3446"  name="geometryCrop">
               <InterpolatingParam id="3447" interp="linr"  time="-9999999/1" value="0" leadInLength="0/1"  />
               <InterpolatingParam id="3448" interp="linr"  time="-9999999/1" value="0" leadInLength="0/1"  />
               <InterpolatingParam id="3449" interp="linr"  time="-9999999/1" value="0" leadInLength="0/1"  />
               <InterpolatingParam id="3450" interp="linr"  time="-9999999/1" value="0" leadInLength="0/1"  />
              </VectorParam>
              <InterpolatingParam id="3451" interp="linr"  time="-9999999/1" value="1" leadInLength="0/1"  name="opacity"/>
              <InterpolatingParam id="3452" interp="linr"  time="0/1" value="0" leadInLength="0/1"  name="cursorOpacity"/>
              <InterpolatingParam id="3453" interp="linr"  time="0/1" value="0" leadInLength="0/1"  name="cursorScale"/>
             </Parameters>
             <Attributes>
              <Attribute id="3454" value="" name="ident"/>
             </Attributes>
             <ExtraData>
              <Entry key="ZoomPanBin">
               <ZoomPanBin id="3455"  >
                <ZoomPanKeyframes>
                 <ZoomPanKeyframe id="3456" timeRangeEnd="-9999999/1" timeRangeDuration="0/1" interpolaterName=""  />
                </ZoomPanKeyframes>
               </ZoomPanBin>
              </Entry>
              <Entry key="CursorEffectBin">
               <CursorEffectBin id="3457"  >
                <CursorEffectKeyframes>
                </CursorEffectKeyframes>
               </CursorEffectBin>
              </Entry>
             </ExtraData>
            </ScreenVMFile>
            <MetaData>
             <entry key="AutoAppliedSmartFocus" val="False"/>
             <entry key="WinSubProjectDisplayName" val=""/>
            </MetaData>
           </UnifiedMedia>
           <UnifiedMedia id="3458"  >
            <AMFile id="3459" start="14640" duration="29" scalar="1/1" mediaStart="34722/1" mediaDuration="29/1" trackNumber="1" src="4" channelNumber="0,1" >
             <Parameters>
              <InterpolatingParam id="3460" interp="linr"  time="0/1" value="1" leadInLength="0/1"  name="volume"/>
              <Parameter id="3461"  name="captions"/>
             </Parameters>
             <Attributes>
              <Attribute id="3462" value="" name="ident"/>
              <Attribute id="3463" value="44100" name="sampleRate"/>
              <Attribute id="3464" value="16" name="bitDepth"/>
              <Attribute id="3465" value="1" name="gain"/>
              <Attribute id="3466" value="0" name="mixToMono"/>
             </Attributes>
            </AMFile>
            <ScreenVMFile id="3467" start="14640" duration="29" scalar="1/1" mediaStart="34722/1" mediaDuration="29/1" trackNumber="0" src="4" >
             <Transformer>
              <VectorParam id="3468"  name="translation">
               <InterpolatingParam id="3469" interp="linr"  time="-9999999/1" value="0" leadInLength="0/1"  />
               <InterpolatingParam id="3470" interp="linr"  time="-9999999/1" value="0" leadInLength="0/1"  />
               <InterpolatingParam id="3471" interp="linr"  time="-9999999/1" value="0" leadInLength="0/1"  />
              </VectorParam>
              <VectorParam id="3472"  name="rotation">
               <InterpolatingParam id="3473" interp="linr"  time="-9999999/1" value="0" leadInLength="0/1"  />
               <InterpolatingParam id="3474" interp="linr"  time="-9999999/1" value="0" leadInLength="0/1"  />
               <InterpolatingParam id="3475" interp="linr"  time="-9999999/1" value="0" leadInLength="0/1"  />
              </VectorParam>
              <VectorParam id="3476"  name="shear">
               <InterpolatingParam id="3477" interp="linr"  time="-9999999/1" value="0" leadInLength="0/1"  />
               <InterpolatingParam id="3478" interp="linr"  time="-9999999/1" value="0" leadInLength="0/1"  />
               <InterpolatingParam id="3479" interp="linr"  time="-9999999/1" value="0" leadInLength="0/1"  />
              </VectorParam>
              <VectorParam id="3480"  name="scale">
               <InterpolatingParam id="3481" interp="linr"  time="-9999999/1" value="1" leadInLength="0/1"  />
               <InterpolatingParam id="3482" interp="linr"  time="-9999999/1" value="1" leadInLength="0/1"  />
               <InterpolatingParam id="3483" interp="linr"  time="-9999999/1" value="1" leadInLength="0/1"  />
              </VectorParam>
              <VectorParam id="3484"  name="anchor">
               <InterpolatingParam id="3485" interp="linr"  time="0/1" value="0" leadInLength="0/1"  />
               <InterpolatingParam id="3486" interp="linr"  time="0/1" value="0" leadInLength="0/1"  />
               <InterpolatingParam id="3487" interp="linr"  time="0/1" value="0" leadInLength="0/1"  />
              </VectorParam>
             </Transformer>
             <Parameters>
              <VectorParam id="3488"  name="sourceCrop">
               <InterpolatingParam id="3489" interp="linr"  time="0/1" value="0" leadInLength="0/1"  />
               <InterpolatingParam id="3490" interp="linr"  time="0/1" value="0" leadInLength="0/1"  />
               <InterpolatingParam id="3491" interp="linr"  time="0/1" value="0" leadInLength="0/1"  />
               <InterpolatingParam id="3492" interp="linr"  time="0/1" value="0" leadInLength="0/1"  />
              </VectorParam>
              <VectorParam id="3493"  name="geometryCrop">
               <InterpolatingParam id="3494" interp="linr"  time="-9999999/1" value="0" leadInLength="0/1"  />
               <InterpolatingParam id="3495" interp="linr"  time="-9999999/1" value="0" leadInLength="0/1"  />
               <InterpolatingParam id="3496" interp="linr"  time="-9999999/1" value="0" leadInLength="0/1"  />
               <InterpolatingParam id="3497" interp="linr"  time="-9999999/1" value="0" leadInLength="0/1"  />
              </VectorParam>
              <InterpolatingParam id="3498" interp="linr"  time="-9999999/1" value="1" leadInLength="0/1"  name="opacity"/>
              <InterpolatingParam id="3499" interp="linr"  time="0/1" value="0" leadInLength="0/1"  name="cursorOpacity"/>
              <InterpolatingParam id="3500" interp="linr"  time="0/1" value="0" leadInLength="0/1"  name="cursorScale"/>
             </Parameters>
             <Attributes>
              <Attribute id="3501" value="" name="ident"/>
             </Attributes>
             <ExtraData>
              <Entry key="ZoomPanBin">
               <ZoomPanBin id="3502"  >
                <ZoomPanKeyframes>
                 <ZoomPanKeyframe id="3503" timeRangeEnd="-9999999/1" timeRangeDuration="0/1" interpolaterName=""  />
                </ZoomPanKeyframes>
               </ZoomPanBin>
              </Entry>
              <Entry key="CursorEffectBin">
               <CursorEffectBin id="3504"  >
                <CursorEffectKeyframes>
                </CursorEffectKeyframes>
               </CursorEffectBin>
              </Entry>
             </ExtraData>
            </ScreenVMFile>
            <MetaData>
             <entry key="AutoAppliedSmartFocus" val="False"/>
             <entry key="WinSubProjectDisplayName" val=""/>
            </MetaData>
           </UnifiedMedia>
           <UnifiedMedia id="3505"  >
            <AMFile id="3506" start="14669" duration="91" scalar="1/1" mediaStart="34868/1" mediaDuration="91/1" trackNumber="1" src="4" channelNumber="0,1" >
             <Parameters>
              <InterpolatingParam id="3507" interp="linr"  time="0/1" value="1" leadInLength="0/1"  name="volume"/>
              <Parameter id="3508"  name="captions"/>
             </Parameters>
             <Attributes>
              <Attribute id="3509" value="" name="ident"/>
              <Attribute id="3510" value="44100" name="sampleRate"/>
              <Attribute id="3511" value="16" name="bitDepth"/>
              <Attribute id="3512" value="1" name="gain"/>
              <Attribute id="3513" value="0" name="mixToMono"/>
             </Attributes>
            </AMFile>
            <ScreenVMFile id="3514" start="14669" duration="91" scalar="1/1" mediaStart="34868/1" mediaDuration="91/1" trackNumber="0" src="4" >
             <Transformer>
              <VectorParam id="3515"  name="translation">
               <InterpolatingParam id="3516" interp="linr"  time="-9999999/1" value="0" leadInLength="0/1"  />
               <InterpolatingParam id="3517" interp="linr"  time="-9999999/1" value="0" leadInLength="0/1"  />
               <InterpolatingParam id="3518" interp="linr"  time="-9999999/1" value="0" leadInLength="0/1"  />
              </VectorParam>
              <VectorParam id="3519"  name="rotation">
               <InterpolatingParam id="3520" interp="linr"  time="-9999999/1" value="0" leadInLength="0/1"  />
               <InterpolatingParam id="3521" interp="linr"  time="-9999999/1" value="0" leadInLength="0/1"  />
               <InterpolatingParam id="3522" interp="linr"  time="-9999999/1" value="0" leadInLength="0/1"  />
              </VectorParam>
              <VectorParam id="3523"  name="shear">
               <InterpolatingParam id="3524" interp="linr"  time="-9999999/1" value="0" leadInLength="0/1"  />
               <InterpolatingParam id="3525" interp="linr"  time="-9999999/1" value="0" leadInLength="0/1"  />
               <InterpolatingParam id="3526" interp="linr"  time="-9999999/1" value="0" leadInLength="0/1"  />
              </VectorParam>
              <VectorParam id="3527"  name="scale">
               <InterpolatingParam id="3528" interp="linr"  time="-9999999/1" value="1" leadInLength="0/1"  />
               <InterpolatingParam id="3529" interp="linr"  time="-9999999/1" value="1" leadInLength="0/1"  />
               <InterpolatingParam id="3530" interp="linr"  time="-9999999/1" value="1" leadInLength="0/1"  />
              </VectorParam>
              <VectorParam id="3531"  name="anchor">
               <InterpolatingParam id="3532" interp="linr"  time="0/1" value="0" leadInLength="0/1"  />
               <InterpolatingParam id="3533" interp="linr"  time="0/1" value="0" leadInLength="0/1"  />
               <InterpolatingParam id="3534" interp="linr"  time="0/1" value="0" leadInLength="0/1"  />
              </VectorParam>
             </Transformer>
             <Parameters>
              <VectorParam id="3535"  name="sourceCrop">
               <InterpolatingParam id="3536" interp="linr"  time="0/1" value="0" leadInLength="0/1"  />
               <InterpolatingParam id="3537" interp="linr"  time="0/1" value="0" leadInLength="0/1"  />
               <InterpolatingParam id="3538" interp="linr"  time="0/1" value="0" leadInLength="0/1"  />
               <InterpolatingParam id="3539" interp="linr"  time="0/1" value="0" leadInLength="0/1"  />
              </VectorParam>
              <VectorParam id="3540"  name="geometryCrop">
               <InterpolatingParam id="3541" interp="linr"  time="-9999999/1" value="0" leadInLength="0/1"  />
               <InterpolatingParam id="3542" interp="linr"  time="-9999999/1" value="0" leadInLength="0/1"  />
               <InterpolatingParam id="3543" interp="linr"  time="-9999999/1" value="0" leadInLength="0/1"  />
               <InterpolatingParam id="3544" interp="linr"  time="-9999999/1" value="0" leadInLength="0/1"  />
              </VectorParam>
              <InterpolatingParam id="3545" interp="linr"  time="-9999999/1" value="1" leadInLength="0/1"  name="opacity"/>
              <InterpolatingParam id="3546" interp="linr"  time="0/1" value="0" leadInLength="0/1"  name="cursorOpacity"/>
              <InterpolatingParam id="3547" interp="linr"  time="0/1" value="0" leadInLength="0/1"  name="cursorScale"/>
             </Parameters>
             <Attributes>
              <Attribute id="3548" value="" name="ident"/>
             </Attributes>
             <ExtraData>
              <Entry key="ZoomPanBin">
               <ZoomPanBin id="3549"  >
                <ZoomPanKeyframes>
                 <ZoomPanKeyframe id="3550" timeRangeEnd="-9999999/1" timeRangeDuration="0/1" interpolaterName=""  />
                </ZoomPanKeyframes>
               </ZoomPanBin>
              </Entry>
              <Entry key="CursorEffectBin">
               <CursorEffectBin id="3551"  >
                <CursorEffectKeyframes>
                </CursorEffectKeyframes>
               </CursorEffectBin>
              </Entry>
             </ExtraData>
            </ScreenVMFile>
            <MetaData>
             <entry key="AutoAppliedSmartFocus" val="False"/>
             <entry key="WinSubProjectDisplayName" val=""/>
            </MetaData>
           </UnifiedMedia>
           <UnifiedMedia id="3552"  >
            <AMFile id="3553" start="14760" duration="11" scalar="1/1" mediaStart="35341/1" mediaDuration="11/1" trackNumber="1" src="4" channelNumber="0,1" >
             <Parameters>
              <InterpolatingParam id="3554" interp="linr"  time="0/1" value="1" leadInLength="0/1"  name="volume"/>
              <Parameter id="3555"  name="captions"/>
             </Parameters>
             <Attributes>
              <Attribute id="3556" value="" name="ident"/>
              <Attribute id="3557" value="44100" name="sampleRate"/>
              <Attribute id="3558" value="16" name="bitDepth"/>
              <Attribute id="3559" value="1" name="gain"/>
              <Attribute id="3560" value="0" name="mixToMono"/>
             </Attributes>
            </AMFile>
            <ScreenVMFile id="3561" start="14760" duration="11" scalar="1/1" mediaStart="35341/1" mediaDuration="11/1" trackNumber="0" src="4" >
             <Transformer>
              <VectorParam id="3562"  name="translation">
               <InterpolatingParam id="3563" interp="linr"  time="-9999999/1" value="0" leadInLength="0/1"  />
               <InterpolatingParam id="3564" interp="linr"  time="-9999999/1" value="0" leadInLength="0/1"  />
               <InterpolatingParam id="3565" interp="linr"  time="-9999999/1" value="0" leadInLength="0/1"  />
              </VectorParam>
              <VectorParam id="3566"  name="rotation">
               <InterpolatingParam id="3567" interp="linr"  time="-9999999/1" value="0" leadInLength="0/1"  />
               <InterpolatingParam id="3568" interp="linr"  time="-9999999/1" value="0" leadInLength="0/1"  />
               <InterpolatingParam id="3569" interp="linr"  time="-9999999/1" value="0" leadInLength="0/1"  />
              </VectorParam>
              <VectorParam id="3570"  name="shear">
               <InterpolatingParam id="3571" interp="linr"  time="-9999999/1" value="0" leadInLength="0/1"  />
               <InterpolatingParam id="3572" interp="linr"  time="-9999999/1" value="0" leadInLength="0/1"  />
               <InterpolatingParam id="3573" interp="linr"  time="-9999999/1" value="0" leadInLength="0/1"  />
              </VectorParam>
              <VectorParam id="3574"  name="scale">
               <InterpolatingParam id="3575" interp="linr"  time="-9999999/1" value="1" leadInLength="0/1"  />
               <InterpolatingParam id="3576" interp="linr"  time="-9999999/1" value="1" leadInLength="0/1"  />
               <InterpolatingParam id="3577" interp="linr"  time="-9999999/1" value="1" leadInLength="0/1"  />
              </VectorParam>
              <VectorParam id="3578"  name="anchor">
               <InterpolatingParam id="3579" interp="linr"  time="0/1" value="0" leadInLength="0/1"  />
               <InterpolatingParam id="3580" interp="linr"  time="0/1" value="0" leadInLength="0/1"  />
               <InterpolatingParam id="3581" interp="linr"  time="0/1" value="0" leadInLength="0/1"  />
              </VectorParam>
             </Transformer>
             <Parameters>
              <VectorParam id="3582"  name="sourceCrop">
               <InterpolatingParam id="3583" interp="linr"  time="0/1" value="0" leadInLength="0/1"  />
               <InterpolatingParam id="3584" interp="linr"  time="0/1" value="0" leadInLength="0/1"  />
               <InterpolatingParam id="3585" interp="linr"  time="0/1" value="0" leadInLength="0/1"  />
               <InterpolatingParam id="3586" interp="linr"  time="0/1" value="0" leadInLength="0/1"  />
              </VectorParam>
              <VectorParam id="3587"  name="geometryCrop">
               <InterpolatingParam id="3588" interp="linr"  time="-9999999/1" value="0" leadInLength="0/1"  />
               <InterpolatingParam id="3589" interp="linr"  time="-9999999/1" value="0" leadInLength="0/1"  />
               <InterpolatingParam id="3590" interp="linr"  time="-9999999/1" value="0" leadInLength="0/1"  />
               <InterpolatingParam id="3591" interp="linr"  time="-9999999/1" value="0" leadInLength="0/1"  />
              </VectorParam>
              <InterpolatingParam id="3592" interp="linr"  time="-9999999/1" value="1" leadInLength="0/1"  name="opacity"/>
              <InterpolatingParam id="3593" interp="linr"  time="0/1" value="0" leadInLength="0/1"  name="cursorOpacity"/>
              <InterpolatingParam id="3594" interp="linr"  time="0/1" value="0" leadInLength="0/1"  name="cursorScale"/>
             </Parameters>
             <Attributes>
              <Attribute id="3595" value="" name="ident"/>
             </Attributes>
             <ExtraData>
              <Entry key="ZoomPanBin">
               <ZoomPanBin id="3596"  >
                <ZoomPanKeyframes>
                 <ZoomPanKeyframe id="3597" timeRangeEnd="-9999999/1" timeRangeDuration="0/1" interpolaterName=""  />
                </ZoomPanKeyframes>
               </ZoomPanBin>
              </Entry>
              <Entry key="CursorEffectBin">
               <CursorEffectBin id="3598"  >
                <CursorEffectKeyframes>
                </CursorEffectKeyframes>
               </CursorEffectBin>
              </Entry>
             </ExtraData>
            </ScreenVMFile>
            <MetaData>
             <entry key="AutoAppliedSmartFocus" val="False"/>
             <entry key="WinSubProjectDisplayName" val=""/>
            </MetaData>
           </UnifiedMedia>
          </Medias>
         </GenericTrack>
        </StitchedMedia>
       </Medias>
      </GenericTrack>
      <GenericTrack id="3599"  >
       <Attributes>
        <Attribute id="3600" value="" name="ident"/>
        <Attribute id="3601" value="0" name="audioMuted"/>
        <Attribute id="3602" value="0" name="videoHidden"/>
       </Attributes>
       <MetaData>
        <entry key="IsLocked" val="False"/>
        <entry key="WinTrackHeight" val="62"/>
       </MetaData>
       <Medias>
        <AMFile id="3603" start="9334" duration="28" scalar="1/1" mediaStart="26/1" mediaDuration="28/1" trackNumber="0" src="6" channelNumber="0" >
         <Parameters>
          <InterpolatingParam id="3604" interp="linr"  name="volume">
           <Keyframes>
           <Keyframe id="3605"  time="0/1" value="1" leadInLength="0/1"  />
           <Keyframe id="3606"  time="31/1" value="1" leadInLength="0/1"  />
           <Keyframe id="3607"  time="32/1" value="0.64000000000000012" leadInLength="0/1"  />
           <Keyframe id="3608"  time="49/1" value="0.64000000000000012" leadInLength="0/1"  />
           <Keyframe id="3609"  time="50/1" value="1" leadInLength="0/1"  />
           </Keyframes>
          </InterpolatingParam>
          <Parameter id="3610"  name="captions"/>
         </Parameters>
         <Attributes>
          <Attribute id="3611" value="" name="ident"/>
          <Attribute id="3612" value="16000" name="sampleRate"/>
          <Attribute id="3613" value="16" name="bitDepth"/>
          <Attribute id="3614" value="1" name="gain"/>
          <Attribute id="3615" value="0" name="mixToMono"/>
         </Attributes>
         <MetaData>
          <entry key="WinSubProjectDisplayName" val=""/>
         </MetaData>
        </AMFile>
       </Medias>
      </GenericTrack>
      <GenericTrack id="3616"  >
       <Attributes>
        <Attribute id="3617" value="" name="ident"/>
        <Attribute id="3618" value="0" name="audioMuted"/>
        <Attribute id="3619" value="0" name="videoHidden"/>
       </Attributes>
       <MetaData>
        <entry key="IsLocked" val="False"/>
        <entry key="WinTrackHeight" val="62"/>
       </MetaData>
       <Medias>
        <Caption id="3620" start="0" duration="210" scalar="1/1" mediaStart="0/1" mediaDuration="210/1" maxMediaDuration="9.22337e+018"  allowTrimOut="1"  >
         <Parameters>
          <Parameter id="3621"  name="captionData">
           <Keyframes>
           <Keyframe id="3622"  time="-9999999/1" value="{92,This video describes a new program to help &#xa;USGS groundwater modelers create model &#xa;archives,0}" leadInLength="0/1"  />
           <Keyframe id="3623"  time="302/1" value="{31,when groundwater model archives,0}" leadInLength="0/1"  />
           <Keyframe id="3624"  time="380/1" value="{52,of the name of the new program is small archive &#xa;are,0}" leadInLength="0/1"  />
           <Keyframe id="3625"  time="501/1" value="{69,only USGS modelers are required to comply with &#xa;USGS archiving policy,0}" leadInLength="0/1"  />
           <Keyframe id="3626"  time="712/1" value="{82,others however they choose to use model are &#xa;covered create archives of their work,0}" leadInLength="0/1"  />
           <Keyframe id="3627"  time="905/1" value="{144,one of main advantages of model archive are &#xa;used a hells the user organize some of files in the &#xa;proper directory structure for the archive in ,0}" leadInLength="0/1"  />
           <Keyframe id="3628"  time="1237/1" value="{96,addition it can automatically generate some parts &#xa;of the read the text and model Meta data file,0}" leadInLength="0/1"  />
           <Keyframe id="3629"  time="1459/1" value="{109,model archive are leads a modeler through the &#xa;process of creating a model archive in a step by &#xa;step fashion,0}" leadInLength="0/1"  />
           <Keyframe id="3630"  time="1685/1" value="{71,at each step model or cover shows a separate &#xa;pain related to that step,0}" leadInLength="0/1"  />
           <Keyframe id="3631"  time="1872/1" value="{67,each pain has an explanation of what needs to be &#xa;done in that step,0}" leadInLength="0/1"  />
           <Keyframe id="3632"  time="2030/1" value="{93,the pain may also that cools to help the user &#xa;accomplish the task first game getting started,0}" leadInLength="0/1"  />
           <Keyframe id="3633"  time="2244/1" value="{59,provides an overview of the process of creating &#xa;an archive,0}" leadInLength="0/1"  />
           <Keyframe id="3634"  time="2400/1" value="{33,the button at the top of the pain,0}" leadInLength="0/1"  />
           <Keyframe id="3635"  time="2499/1" value="{83,directs the user to the USGS groundwater &#xa;modeling archived web site that provides ,0}" leadInLength="0/1"  />
           <Keyframe id="3636"  time="2692/1" value="{52,guidance on creating archives that meet USGS &#xa;policy,0}" leadInLength="0/1"  />
           <Keyframe id="3637"  time="2885/1" value="{61,after reading the website the user can press the &#xa;next button,0}" leadInLength="0/1"  />
           <Keyframe id="3638"  time="3036/1" value="{139,to continue bonds and Mimi taxpaying each &#xa;model archive is required to having read me text &#xa;file that provides an overview of the archived,0}" leadInLength="0/1"  />
           <Keyframe id="3639"  time="3388/1" value="{104,the user can create or edit the read me text file by &#xa;clicking on the edit read me file button work and ,0}" leadInLength="0/1"  />
           <Keyframe id="3640"  time="3704/1" value="{67,created in a text editor of their choice and &#xa;selected on the Spain,0}" leadInLength="0/1"  />
           <Keyframe id="3641"  time="4020/1" value="{108,the archive will need to have a digital object &#xa;identify are worn Doi will be included in leaving &#xa;text file,0}" leadInLength="0/1"  />
           <Keyframe id="3642"  time="4277/1" value="{71,USGS users can reserve eight Doi using the &#xa;open guy like creation tool,0}" leadInLength="0/1"  />
           <Keyframe id="3643"  time="4559/1" value="{80,to read me text file must include a description of &#xa;all the files in the archive,0}" leadInLength="0/1"  />
           <Keyframe id="3644"  time="4734/1" value="{97,model archive are can automatically append the &#xa;descriptions of all the files to remain text file,0}" leadInLength="0/1"  />
           <Keyframe id="3645"  time="4919/1" value="{17,if this check box,0}" leadInLength="0/1"  />
           <Keyframe id="3646"  time="4994/1" value="{55,is checked that will be described in more detail &#xa;later,0}" leadInLength="0/1"  />
           <Keyframe id="3647"  time="5119/1" value="{66,next T model Gere Ref text file elsewhere in the &#xa;model is located,0}" leadInLength="0/1"  />
           <Keyframe id="3648"  time="5312/1" value="{132,it can be used by the indexing web sites to &#xa;search for models based on the corners were to &#xa;show weary model was located on the map,0}" leadInLength="0/1"  />
           <Keyframe id="3649"  time="5792/1" value="{27,next to dual raffish a file,0}" leadInLength="0/1"  />
           <Keyframe id="3650"  time="5887/1" value="{89,out one supports this ice look corners of the &#xa;model in the projection used for the model,0}" leadInLength="0/1"  />
           <Keyframe id="3651"  time="6099/1" value="{52,it shows the active and inactive parts of the &#xa;model,0}" leadInLength="0/1"  />
           <Keyframe id="3652"  time="6213/1" value="{86,if you use ModelMuse to create your model &#xa;ModelMuse can create the shade file for you,0}" leadInLength="0/1"  />
           <Keyframe id="3653"  time="6428/1" value="{44,this is described in greater detail and help,0}" leadInLength="0/1"  />
           <Keyframe id="3654"  time="6541/1" value="{71,the F1 key is used to access the help from model &#xa;for model archive are,0}" leadInLength="0/1"  />
           <Keyframe id="3655"  time="6770/1" value="{12,next to each,0}" leadInLength="0/1"  />
           <Keyframe id="3656"  time="6832/1" value="{39,archive requires a browse graphic image,0}" leadInLength="0/1"  />
           <Keyframe id="3657"  time="6982/1" value="{111,typically this might include an outline of the &#xa;models from those with limited boundaries were &#xa;other landmarks,0}" leadInLength="0/1"  />
           <Keyframe id="3658"  time="7185/1" value="{22,next an important part,0}" leadInLength="0/1"  />
           <Keyframe id="3659"  time="7272/1" value="{77,of the model archive is another data there&apos;s a &#xa;specific format from Avondale,0}" leadInLength="0/1"  />
           <Keyframe id="3660"  time="7478/1" value="{56,model archive are includes a built in meditative &#xa;editor,0}" leadInLength="0/1"  />
           <Keyframe id="3661"  time="7633/1" value="{59,or you can use any of the number of other men &#xa;Data Centers,0}" leadInLength="0/1"  />
           <Keyframe id="3662"  time="8051/1" value="{147,if you need to create Meta data for geographic &#xa;information that is not part of a model archived &#xa;the mandate of venture in model archive are also ,0}" leadInLength="0/1"  />
           <Keyframe id="3663"  time="8304/1" value="{59,exist as a standalone program aimed at GE &#xa;cement and enter,0}" leadInLength="0/1"  />
           <Keyframe id="3664"  time="8473/1" value="{122,FG DC manager and kills and meditate and &#xa;amateur in mall archive will be covered in greater &#xa;detail than a separate video,0}" leadInLength="0/1"  />
           <Keyframe id="3665"  time="8746/1" value="{119,model archive reuses a file name extensions to &#xa;identify model files and to assign default &#xa;descriptions to those files,0}" leadInLength="0/1"  />
           <Keyframe id="3666"  time="9007/1" value="{97,you can edit the extensions recognized by model &#xa;archive are began to descriptions will be saved ,0}" leadInLength="0/1"  />
           <Keyframe id="3667"  time="9192/1" value="{92,for use in future archives if used ModelMuse to &#xa;create your model you can use archive lists,0}" leadInLength="0/1"  />
           <Keyframe id="3668"  time="9377/1" value="{0,,0}" leadInLength="0/1"  />
           <Keyframe id="3669"  time="9453/1" value="{33,generated by ModelMuse to include,0}" leadInLength="0/1"  />
           <Keyframe id="3670"  time="9536/1" value="{26,model files in the archive,0}" leadInLength="0/1"  />
           <Keyframe id="3671"  time="9940/1" value="{3,who,0}" leadInLength="0/1"  />
           <Keyframe id="3672"  time="10098/1" value="{43,another way to include files in the archive,0}" leadInLength="0/1"  />
           <Keyframe id="3673"  time="10205/1" value="{56,is to select some directories containing them all &#xa;files,0}" leadInLength="0/1"  />
           <Keyframe id="3674"  time="10588/1" value="{71,model archive are we use the file extensions to &#xa;properly sort of files,0}" leadInLength="0/1"  />
           <Keyframe id="3675"  time="10963/1" value="{61,regardless of which meant they use descriptions &#xa;of each file,0}" leadInLength="0/1"  />
           <Keyframe id="3676"  time="11080/1" value="{58,will be assigned to each file based on the file &#xa;extension,0}" leadInLength="0/1"  />
           <Keyframe id="3677"  time="11230/1" value="{73,you can edit the file descriptions for and remove &#xa;files from the archive,0}" leadInLength="0/1"  />
           <Keyframe id="3678"  time="11613/1" value="{90,the file descriptions will be appended to the read &#xa;the text file when the archivist David,0}" leadInLength="0/1"  />
           <Keyframe id="3679"  time="11793/1" value="{104,when you&apos;re ready to create the archive selected &#xa;and the folder and click the creek park are often &#xa;are,0}" leadInLength="0/1"  />
           <Keyframe id="3680"  time="12726/1" value="{51,less looking at a change was made to the Meta &#xa;data,0}" leadInLength="0/1"  />
           <Keyframe id="3681"  time="12876/1" value="{27,win the archive was created,0}" leadInLength="0/1"  />
           <Keyframe id="3682"  time="12982/1" value="{44,and all the Meta data file and a hole in one,0}" leadInLength="0/1"  />
           <Keyframe id="3683"  time="13120/1" value="{6,in the,0}" leadInLength="0/1"  />
           <Keyframe id="3684"  time="13275/1" value="{12,mall archive,0}" leadInLength="0/1"  />
           <Keyframe id="3685"  time="13388/1" value="{15,will go down to,0}" leadInLength="0/1"  />
           <Keyframe id="3686"  time="13489/1" value="{14,a year host on,0}" leadInLength="0/1"  />
           <Keyframe id="3687"  time="13942/1" value="{3,and,0}" leadInLength="0/1"  />
           <Keyframe id="3688"  time="13984/1" value="{51,under standard order process here is the number &#xa;of,0}" leadInLength="0/1"  />
           <Keyframe id="3689"  time="14142/1" value="{117,there&apos;s some data that have been added to the &#xa;Meta data file about all the files that the user to &#xa;download from the,0}" leadInLength="0/1"  />
           <Keyframe id="3690"  time="14444/1" value="{104,archive sold these have been added &#xa;automatically by model archived is you don&apos;t have &#xa;to do it yourself,0}" leadInLength="0/1"  />
           </Keyframes>
          </Parameter>
          <Parameter id="3691"  name="toc"/>
          <Parameter id="3692"  name="quiz"/>
         </Parameters>
         <Attributes>
         </Attributes>
         <MetaData>
          <entry key="WinSubProjectDisplayName" val=""/>
         </MetaData>
        </Caption>
        <Caption id="3693" start="210" duration="3369" scalar="1/1" mediaStart="210/1" mediaDuration="3369/1" maxMediaDuration="9.22337e+018"  allowTrimOut="1"  >
         <Parameters>
          <Parameter id="3694"  name="captionData">
           <Keyframes>
           <Keyframe id="3695"  time="-9999999/1" value="{65,that comply with the USGS policy on groundwater &#xa;model archives. ,0}" leadInLength="0/1"  />
           <Keyframe id="3696"  time="380/1" value="{46,The name of the new program is ModelArchiver. ,0}" leadInLength="0/1"  />
           <Keyframe id="3697"  time="501/1" value="{61,Only USGS modelers are required to comply with &#xa;USGS policy. ,0}" leadInLength="0/1"  />
           <Keyframe id="3698"  time="712/1" value="{83,Others, however, may choose to use &#xa;ModelArchiver to create archives of their work.,0}" leadInLength="0/1"  />
           <Keyframe id="3699"  time="905/1" value="{140,One main advantages of ModelArchiver is that it &#xa;helps the user organize the model files in the &#xa;proper directory structure for the archive.,0}" leadInLength="0/1"  />
           <Keyframe id="3700"  time="1206/1" value="{97,In addition, it can automatically generate some &#xa;parts of the readme.txt and model metadata file.,0}" leadInLength="0/1"  />
           <Keyframe id="3701"  time="1459/1" value="{108,ModelArchiver leads the modeler through the &#xa;process of creating a model archive in a step-by-&#xa;step fashion.,0}" leadInLength="0/1"  />
           <Keyframe id="3702"  time="1685/1" value="{72,At each step, ModelArchiver shows a separate &#xa;pane related to that step.,0}" leadInLength="0/1"  />
           <Keyframe id="3703"  time="1872/1" value="{69,Each pane has an explanation of what needs to &#xa;be done in that step. ,0}" leadInLength="0/1"  />
           <Keyframe id="3704"  time="2030/1" value="{67,The pane may also have tools to help the user &#xa;accomplish the task.,0}" leadInLength="0/1"  />
           <Keyframe id="3705"  time="2165/1" value="{99,The first pane, “Getting Started”, provides an &#xa;overview of the process of creating an archive.,0}" leadInLength="0/1"  />
           <Keyframe id="3706"  time="2400/1" value="{102,The button at the top of the pane, directs the user &#xa;to the USGS groundwater model archiving web &#xa;site,0}" leadInLength="0/1"  />
           <Keyframe id="3707"  time="2642/1" value="{68,which provides guidance on creating archives &#xa;that meet USGS policy.,0}" leadInLength="0/1"  />
           <Keyframe id="3708"  time="2885/1" value="{111,After reading the web site, the user can press the &#xa;“Next” button to move on to the “readme.txt” &#xa;pane.,0}" leadInLength="0/1"  />
           <Keyframe id="3709"  time="3136/1" value="{100,Each model archive is required to have a &#xa;readme.txt file that provides an overview of the &#xa;archive.,0}" leadInLength="0/1"  />
           <Keyframe id="3710"  time="3388/1" value="{94,The user can create or edit the readme.txt file by &#xa;clicking the “Edit Readme file” button,0}" leadInLength="0/1"  />
           <Keyframe id="3711"  time="3704/1" value="{67,created in a text editor of their choice and &#xa;selected on the Spain,0}" leadInLength="0/1"  />
           <Keyframe id="3712"  time="4020/1" value="{108,the archive will need to have a digital object &#xa;identify are worn Doi will be included in leaving &#xa;text file,0}" leadInLength="0/1"  />
           <Keyframe id="3713"  time="4277/1" value="{71,USGS users can reserve eight Doi using the &#xa;open guy like creation tool,0}" leadInLength="0/1"  />
           <Keyframe id="3714"  time="4559/1" value="{80,to read me text file must include a description of &#xa;all the files in the archive,0}" leadInLength="0/1"  />
           <Keyframe id="3715"  time="4734/1" value="{97,model archive are can automatically append the &#xa;descriptions of all the files to remain text file,0}" leadInLength="0/1"  />
           <Keyframe id="3716"  time="4919/1" value="{17,if this check box,0}" leadInLength="0/1"  />
           <Keyframe id="3717"  time="4994/1" value="{55,is checked that will be described in more detail &#xa;later,0}" leadInLength="0/1"  />
           <Keyframe id="3718"  time="5119/1" value="{66,next T model Gere Ref text file elsewhere in the &#xa;model is located,0}" leadInLength="0/1"  />
           <Keyframe id="3719"  time="5312/1" value="{132,it can be used by the indexing web sites to &#xa;search for models based on the corners were to &#xa;show weary model was located on the map,0}" leadInLength="0/1"  />
           <Keyframe id="3720"  time="5792/1" value="{27,next to dual raffish a file,0}" leadInLength="0/1"  />
           <Keyframe id="3721"  time="5887/1" value="{89,out one supports this ice look corners of the &#xa;model in the projection used for the model,0}" leadInLength="0/1"  />
           <Keyframe id="3722"  time="6099/1" value="{52,it shows the active and inactive parts of the &#xa;model,0}" leadInLength="0/1"  />
           <Keyframe id="3723"  time="6213/1" value="{86,if you use ModelMuse to create your model &#xa;ModelMuse can create the shade file for you,0}" leadInLength="0/1"  />
           <Keyframe id="3724"  time="6428/1" value="{44,this is described in greater detail and help,0}" leadInLength="0/1"  />
           <Keyframe id="3725"  time="6541/1" value="{71,the F1 key is used to access the help from model &#xa;for model archive are,0}" leadInLength="0/1"  />
           <Keyframe id="3726"  time="6770/1" value="{12,next to each,0}" leadInLength="0/1"  />
           <Keyframe id="3727"  time="6832/1" value="{39,archive requires a browse graphic image,0}" leadInLength="0/1"  />
           <Keyframe id="3728"  time="6982/1" value="{111,typically this might include an outline of the &#xa;models from those with limited boundaries were &#xa;other landmarks,0}" leadInLength="0/1"  />
           <Keyframe id="3729"  time="7185/1" value="{22,next an important part,0}" leadInLength="0/1"  />
           <Keyframe id="3730"  time="7272/1" value="{77,of the model archive is another data there&apos;s a &#xa;specific format from Avondale,0}" leadInLength="0/1"  />
           <Keyframe id="3731"  time="7478/1" value="{56,model archive are includes a built in meditative &#xa;editor,0}" leadInLength="0/1"  />
           <Keyframe id="3732"  time="7633/1" value="{59,or you can use any of the number of other men &#xa;Data Centers,0}" leadInLength="0/1"  />
           <Keyframe id="3733"  time="8051/1" value="{147,if you need to create Meta data for geographic &#xa;information that is not part of a model archived &#xa;the mandate of venture in model archive are also ,0}" leadInLength="0/1"  />
           <Keyframe id="3734"  time="8304/1" value="{59,exist as a standalone program aimed at GE &#xa;cement and enter,0}" leadInLength="0/1"  />
           <Keyframe id="3735"  time="8473/1" value="{122,FG DC manager and kills and meditate and &#xa;amateur in mall archive will be covered in greater &#xa;detail than a separate video,0}" leadInLength="0/1"  />
           <Keyframe id="3736"  time="8746/1" value="{119,model archive reuses a file name extensions to &#xa;identify model files and to assign default &#xa;descriptions to those files,0}" leadInLength="0/1"  />
           <Keyframe id="3737"  time="9007/1" value="{97,you can edit the extensions recognized by model &#xa;archive are began to descriptions will be saved ,0}" leadInLength="0/1"  />
           <Keyframe id="3738"  time="9192/1" value="{92,for use in future archives if used ModelMuse to &#xa;create your model you can use archive lists,0}" leadInLength="0/1"  />
           <Keyframe id="3739"  time="9377/1" value="{0,,0}" leadInLength="0/1"  />
           <Keyframe id="3740"  time="9453/1" value="{33,generated by ModelMuse to include,0}" leadInLength="0/1"  />
           <Keyframe id="3741"  time="9536/1" value="{26,model files in the archive,0}" leadInLength="0/1"  />
           <Keyframe id="3742"  time="9940/1" value="{3,who,0}" leadInLength="0/1"  />
           <Keyframe id="3743"  time="10098/1" value="{43,another way to include files in the archive,0}" leadInLength="0/1"  />
           <Keyframe id="3744"  time="10205/1" value="{56,is to select some directories containing them all &#xa;files,0}" leadInLength="0/1"  />
           <Keyframe id="3745"  time="10588/1" value="{71,model archive are we use the file extensions to &#xa;properly sort of files,0}" leadInLength="0/1"  />
           <Keyframe id="3746"  time="10963/1" value="{61,regardless of which meant they use descriptions &#xa;of each file,0}" leadInLength="0/1"  />
           <Keyframe id="3747"  time="11080/1" value="{58,will be assigned to each file based on the file &#xa;extension,0}" leadInLength="0/1"  />
           <Keyframe id="3748"  time="11230/1" value="{73,you can edit the file descriptions for and remove &#xa;files from the archive,0}" leadInLength="0/1"  />
           <Keyframe id="3749"  time="11613/1" value="{90,the file descriptions will be appended to the read &#xa;the text file when the archivist David,0}" leadInLength="0/1"  />
           <Keyframe id="3750"  time="11793/1" value="{104,when you&apos;re ready to create the archive selected &#xa;and the folder and click the creek park are often &#xa;are,0}" leadInLength="0/1"  />
           <Keyframe id="3751"  time="12726/1" value="{51,less looking at a change was made to the Meta &#xa;data,0}" leadInLength="0/1"  />
           <Keyframe id="3752"  time="12876/1" value="{27,win the archive was created,0}" leadInLength="0/1"  />
           <Keyframe id="3753"  time="12982/1" value="{44,and all the Meta data file and a hole in one,0}" leadInLength="0/1"  />
           <Keyframe id="3754"  time="13120/1" value="{6,in the,0}" leadInLength="0/1"  />
           <Keyframe id="3755"  time="13275/1" value="{12,mall archive,0}" leadInLength="0/1"  />
           <Keyframe id="3756"  time="13388/1" value="{15,will go down to,0}" leadInLength="0/1"  />
           <Keyframe id="3757"  time="13489/1" value="{14,a year host on,0}" leadInLength="0/1"  />
           <Keyframe id="3758"  time="13942/1" value="{3,and,0}" leadInLength="0/1"  />
           <Keyframe id="3759"  time="13984/1" value="{51,under standard order process here is the number &#xa;of,0}" leadInLength="0/1"  />
           <Keyframe id="3760"  time="14142/1" value="{117,there&apos;s some data that have been added to the &#xa;Meta data file about all the files that the user to &#xa;download from the,0}" leadInLength="0/1"  />
           <Keyframe id="3761"  time="14444/1" value="{104,archive sold these have been added &#xa;automatically by model archived is you don&apos;t have &#xa;to do it yourself,0}" leadInLength="0/1"  />
           </Keyframes>
          </Parameter>
          <Parameter id="3762"  name="toc"/>
          <Parameter id="3763"  name="quiz"/>
         </Parameters>
         <Attributes>
         </Attributes>
         <MetaData>
          <entry key="WinSubProjectDisplayName" val=""/>
         </MetaData>
        </Caption>
        <Caption id="3764" start="3579" duration="808" scalar="1/1" mediaStart="3579/1" mediaDuration="808/1" maxMediaDuration="9.22337e+018"  allowTrimOut="1"  >
         <Parameters>
          <Parameter id="3765"  name="captionData">
           <Keyframes>
           <Keyframe id="3766"  time="-9999999/1" value="{65,that comply with the USGS policy on groundwater &#xa;model archives. ,0}" leadInLength="0/1"  />
           <Keyframe id="3767"  time="380/1" value="{46,The name of the new program is ModelArchiver. ,0}" leadInLength="0/1"  />
           <Keyframe id="3768"  time="501/1" value="{61,Only USGS modelers are required to comply with &#xa;USGS policy. ,0}" leadInLength="0/1"  />
           <Keyframe id="3769"  time="712/1" value="{83,Others, however, may choose to use &#xa;ModelArchiver to create archives of their work.,0}" leadInLength="0/1"  />
           <Keyframe id="3770"  time="905/1" value="{140,One main advantages of ModelArchiver is that it &#xa;helps the user organize the model files in the &#xa;proper directory structure for the archive.,0}" leadInLength="0/1"  />
           <Keyframe id="3771"  time="1206/1" value="{97,In addition, it can automatically generate some &#xa;parts of the readme.txt and model metadata file.,0}" leadInLength="0/1"  />
           <Keyframe id="3772"  time="1459/1" value="{108,ModelArchiver leads the modeler through the &#xa;process of creating a model archive in a step-by-&#xa;step fashion.,0}" leadInLength="0/1"  />
           <Keyframe id="3773"  time="1685/1" value="{72,At each step, ModelArchiver shows a separate &#xa;pane related to that step.,0}" leadInLength="0/1"  />
           <Keyframe id="3774"  time="1872/1" value="{69,Each pane has an explanation of what needs to &#xa;be done in that step. ,0}" leadInLength="0/1"  />
           <Keyframe id="3775"  time="2030/1" value="{67,The pane may also have tools to help the user &#xa;accomplish the task.,0}" leadInLength="0/1"  />
           <Keyframe id="3776"  time="2165/1" value="{99,The first pane, “Getting Started”, provides an &#xa;overview of the process of creating an archive.,0}" leadInLength="0/1"  />
           <Keyframe id="3777"  time="2400/1" value="{102,The button at the top of the pane, directs the user &#xa;to the USGS groundwater model archiving web &#xa;site,0}" leadInLength="0/1"  />
           <Keyframe id="3778"  time="2642/1" value="{68,which provides guidance on creating archives &#xa;that meet USGS policy.,0}" leadInLength="0/1"  />
           <Keyframe id="3779"  time="2885/1" value="{111,After reading the web site, the user can press the &#xa;“Next” button to move on to the “readme.txt” &#xa;pane.,0}" leadInLength="0/1"  />
           <Keyframe id="3780"  time="3136/1" value="{100,Each model archive is required to have a &#xa;readme.txt file that provides an overview of the &#xa;archive.,0}" leadInLength="0/1"  />
           <Keyframe id="3781"  time="3388/1" value="{80,or can create it in the text editor of their choice &#xa;and select it on this pane.,0}" leadInLength="0/1"  />
           <Keyframe id="3782"  time="4020/1" value="{118,The archive will need to have a “Digital Object &#xa;Identifier” or DOI that will be included in the &#xa;readme.txt file.,0}" leadInLength="0/1"  />
           <Keyframe id="3783"  time="4277/1" value="{59,USGS users can reserve a DOI using the DOI &#xa;creation tool. ,0}" leadInLength="0/1"  />
           <Keyframe id="3784"  time="4559/1" value="{80,to read me text file must include a description of &#xa;all the files in the archive,0}" leadInLength="0/1"  />
           <Keyframe id="3785"  time="4734/1" value="{97,model archive are can automatically append the &#xa;descriptions of all the files to remain text file,0}" leadInLength="0/1"  />
           <Keyframe id="3786"  time="4919/1" value="{17,if this check box,0}" leadInLength="0/1"  />
           <Keyframe id="3787"  time="4994/1" value="{55,is checked that will be described in more detail &#xa;later,0}" leadInLength="0/1"  />
           <Keyframe id="3788"  time="5119/1" value="{66,next T model Gere Ref text file elsewhere in the &#xa;model is located,0}" leadInLength="0/1"  />
           <Keyframe id="3789"  time="5312/1" value="{132,it can be used by the indexing web sites to &#xa;search for models based on the corners were to &#xa;show weary model was located on the map,0}" leadInLength="0/1"  />
           <Keyframe id="3790"  time="5792/1" value="{27,next to dual raffish a file,0}" leadInLength="0/1"  />
           <Keyframe id="3791"  time="5887/1" value="{89,out one supports this ice look corners of the &#xa;model in the projection used for the model,0}" leadInLength="0/1"  />
           <Keyframe id="3792"  time="6099/1" value="{52,it shows the active and inactive parts of the &#xa;model,0}" leadInLength="0/1"  />
           <Keyframe id="3793"  time="6213/1" value="{86,if you use ModelMuse to create your model &#xa;ModelMuse can create the shade file for you,0}" leadInLength="0/1"  />
           <Keyframe id="3794"  time="6428/1" value="{44,this is described in greater detail and help,0}" leadInLength="0/1"  />
           <Keyframe id="3795"  time="6541/1" value="{71,the F1 key is used to access the help from model &#xa;for model archive are,0}" leadInLength="0/1"  />
           <Keyframe id="3796"  time="6770/1" value="{12,next to each,0}" leadInLength="0/1"  />
           <Keyframe id="3797"  time="6832/1" value="{39,archive requires a browse graphic image,0}" leadInLength="0/1"  />
           <Keyframe id="3798"  time="6982/1" value="{111,typically this might include an outline of the &#xa;models from those with limited boundaries were &#xa;other landmarks,0}" leadInLength="0/1"  />
           <Keyframe id="3799"  time="7185/1" value="{22,next an important part,0}" leadInLength="0/1"  />
           <Keyframe id="3800"  time="7272/1" value="{77,of the model archive is another data there&apos;s a &#xa;specific format from Avondale,0}" leadInLength="0/1"  />
           <Keyframe id="3801"  time="7478/1" value="{56,model archive are includes a built in meditative &#xa;editor,0}" leadInLength="0/1"  />
           <Keyframe id="3802"  time="7633/1" value="{59,or you can use any of the number of other men &#xa;Data Centers,0}" leadInLength="0/1"  />
           <Keyframe id="3803"  time="8051/1" value="{147,if you need to create Meta data for geographic &#xa;information that is not part of a model archived &#xa;the mandate of venture in model archive are also ,0}" leadInLength="0/1"  />
           <Keyframe id="3804"  time="8304/1" value="{59,exist as a standalone program aimed at GE &#xa;cement and enter,0}" leadInLength="0/1"  />
           <Keyframe id="3805"  time="8473/1" value="{122,FG DC manager and kills and meditate and &#xa;amateur in mall archive will be covered in greater &#xa;detail than a separate video,0}" leadInLength="0/1"  />
           <Keyframe id="3806"  time="8746/1" value="{119,model archive reuses a file name extensions to &#xa;identify model files and to assign default &#xa;descriptions to those files,0}" leadInLength="0/1"  />
           <Keyframe id="3807"  time="9007/1" value="{97,you can edit the extensions recognized by model &#xa;archive are began to descriptions will be saved ,0}" leadInLength="0/1"  />
           <Keyframe id="3808"  time="9192/1" value="{92,for use in future archives if used ModelMuse to &#xa;create your model you can use archive lists,0}" leadInLength="0/1"  />
           <Keyframe id="3809"  time="9377/1" value="{0,,0}" leadInLength="0/1"  />
           <Keyframe id="3810"  time="9453/1" value="{33,generated by ModelMuse to include,0}" leadInLength="0/1"  />
           <Keyframe id="3811"  time="9536/1" value="{26,model files in the archive,0}" leadInLength="0/1"  />
           <Keyframe id="3812"  time="9940/1" value="{3,who,0}" leadInLength="0/1"  />
           <Keyframe id="3813"  time="10098/1" value="{43,another way to include files in the archive,0}" leadInLength="0/1"  />
           <Keyframe id="3814"  time="10205/1" value="{56,is to select some directories containing them all &#xa;files,0}" leadInLength="0/1"  />
           <Keyframe id="3815"  time="10588/1" value="{71,model archive are we use the file extensions to &#xa;properly sort of files,0}" leadInLength="0/1"  />
           <Keyframe id="3816"  time="10963/1" value="{61,regardless of which meant they use descriptions &#xa;of each file,0}" leadInLength="0/1"  />
           <Keyframe id="3817"  time="11080/1" value="{58,will be assigned to each file based on the file &#xa;extension,0}" leadInLength="0/1"  />
           <Keyframe id="3818"  time="11230/1" value="{73,you can edit the file descriptions for and remove &#xa;files from the archive,0}" leadInLength="0/1"  />
           <Keyframe id="3819"  time="11613/1" value="{90,the file descriptions will be appended to the read &#xa;the text file when the archivist David,0}" leadInLength="0/1"  />
           <Keyframe id="3820"  time="11793/1" value="{104,when you&apos;re ready to create the archive selected &#xa;and the folder and click the creek park are often &#xa;are,0}" leadInLength="0/1"  />
           <Keyframe id="3821"  time="12726/1" value="{51,less looking at a change was made to the Meta &#xa;data,0}" leadInLength="0/1"  />
           <Keyframe id="3822"  time="12876/1" value="{27,win the archive was created,0}" leadInLength="0/1"  />
           <Keyframe id="3823"  time="12982/1" value="{44,and all the Meta data file and a hole in one,0}" leadInLength="0/1"  />
           <Keyframe id="3824"  time="13120/1" value="{6,in the,0}" leadInLength="0/1"  />
           <Keyframe id="3825"  time="13275/1" value="{12,mall archive,0}" leadInLength="0/1"  />
           <Keyframe id="3826"  time="13388/1" value="{15,will go down to,0}" leadInLength="0/1"  />
           <Keyframe id="3827"  time="13489/1" value="{14,a year host on,0}" leadInLength="0/1"  />
           <Keyframe id="3828"  time="13942/1" value="{3,and,0}" leadInLength="0/1"  />
           <Keyframe id="3829"  time="13984/1" value="{51,under standard order process here is the number &#xa;of,0}" leadInLength="0/1"  />
           <Keyframe id="3830"  time="14142/1" value="{117,there&apos;s some data that have been added to the &#xa;Meta data file about all the files that the user to &#xa;download from the,0}" leadInLength="0/1"  />
           <Keyframe id="3831"  time="14444/1" value="{104,archive sold these have been added &#xa;automatically by model archived is you don&apos;t have &#xa;to do it yourself,0}" leadInLength="0/1"  />
           </Keyframes>
          </Parameter>
          <Parameter id="3832"  name="toc"/>
          <Parameter id="3833"  name="quiz"/>
         </Parameters>
         <Attributes>
         </Attributes>
         <MetaData>
          <entry key="WinSubProjectDisplayName" val=""/>
         </MetaData>
        </Caption>
        <Caption id="3834" start="4387" duration="10270" scalar="1/1" mediaStart="4402/1" mediaDuration="10270/1" maxMediaDuration="9.22337e+018"  allowTrimOut="1"  >
         <Parameters>
          <Parameter id="3835"  name="captionData">
           <Keyframes>
           <Keyframe id="3836"  time="-9999999/1" value="{65,that comply with the USGS policy on groundwater &#xa;model archives. ,0}" leadInLength="0/1"  />
           <Keyframe id="3837"  time="380/1" value="{46,The name of the new program is ModelArchiver. ,0}" leadInLength="0/1"  />
           <Keyframe id="3838"  time="501/1" value="{61,Only USGS modelers are required to comply with &#xa;USGS policy. ,0}" leadInLength="0/1"  />
           <Keyframe id="3839"  time="712/1" value="{83,Others, however, may choose to use &#xa;ModelArchiver to create archives of their work.,0}" leadInLength="0/1"  />
           <Keyframe id="3840"  time="905/1" value="{140,One main advantages of ModelArchiver is that it &#xa;helps the user organize the model files in the &#xa;proper directory structure for the archive.,0}" leadInLength="0/1"  />
           <Keyframe id="3841"  time="1206/1" value="{97,In addition, it can automatically generate some &#xa;parts of the readme.txt and model metadata file.,0}" leadInLength="0/1"  />
           <Keyframe id="3842"  time="1459/1" value="{108,ModelArchiver leads the modeler through the &#xa;process of creating a model archive in a step-by-&#xa;step fashion.,0}" leadInLength="0/1"  />
           <Keyframe id="3843"  time="1685/1" value="{72,At each step, ModelArchiver shows a separate &#xa;pane related to that step.,0}" leadInLength="0/1"  />
           <Keyframe id="3844"  time="1872/1" value="{69,Each pane has an explanation of what needs to &#xa;be done in that step. ,0}" leadInLength="0/1"  />
           <Keyframe id="3845"  time="2030/1" value="{67,The pane may also have tools to help the user &#xa;accomplish the task.,0}" leadInLength="0/1"  />
           <Keyframe id="3846"  time="2165/1" value="{99,The first pane, “Getting Started”, provides an &#xa;overview of the process of creating an archive.,0}" leadInLength="0/1"  />
           <Keyframe id="3847"  time="2400/1" value="{102,The button at the top of the pane, directs the user &#xa;to the USGS groundwater model archiving web &#xa;site,0}" leadInLength="0/1"  />
           <Keyframe id="3848"  time="2642/1" value="{68,which provides guidance on creating archives &#xa;that meet USGS policy.,0}" leadInLength="0/1"  />
           <Keyframe id="3849"  time="2885/1" value="{111,After reading the web site, the user can press the &#xa;“Next” button to move on to the “readme.txt” &#xa;pane.,0}" leadInLength="0/1"  />
           <Keyframe id="3850"  time="3136/1" value="{100,Each model archive is required to have a &#xa;readme.txt file that provides an overview of the &#xa;archive.,0}" leadInLength="0/1"  />
           <Keyframe id="3851"  time="3388/1" value="{80,or can create it in the text editor of their choice &#xa;and select it on this pane.,0}" leadInLength="0/1"  />
           <Keyframe id="3852"  time="4020/1" value="{118,The archive will need to have a “Digital Object &#xa;Identifier” or DOI that will be included in the &#xa;readme.txt file.,0}" leadInLength="0/1"  />
           <Keyframe id="3853"  time="4277/1" value="{59,USGS users can reserve a DOI using the DOI &#xa;creation tool. ,0}" leadInLength="0/1"  />
           <Keyframe id="3854"  time="4559/1" value="{81,The readme.txt file must include a description of &#xa;all the files in the archive. ,0}" leadInLength="0/1"  />
           <Keyframe id="3855"  time="4734/1" value="{126,ModelArchiver can automatically append the &#xa;descriptions of all the files to the readme.txt file if &#xa;this checkbox is checked.,0}" leadInLength="0/1"  />
           <Keyframe id="3856"  time="5016/1" value="{44,That will be described in more detail later.,0}" leadInLength="0/1"  />
           <Keyframe id="3857"  time="5119/1" value="{65,Next the modelgeoref.txt file tells where the model &#xa;is located. ,0}" leadInLength="0/1"  />
           <Keyframe id="3858"  time="5312/1" value="{132,It can be used by indexing web sites to search for &#xa;models based on their coordinates or to show &#xa;where a model is located on a map.,0}" leadInLength="0/1"  />
           <Keyframe id="3859"  time="5792/1" value="{112,Next, the Georef Shapefile outlines the precise &#xa;coordinates of the model in the projection used &#xa;for the model.,0}" leadInLength="0/1"  />
           <Keyframe id="3860"  time="6099/1" value="{53,It shows the active and inactive parts of the &#xa;model.,0}" leadInLength="0/1"  />
           <Keyframe id="3861"  time="6213/1" value="{87,If you use ModelMuse to create your model, &#xa;ModelMuse can create the Shapefile for you.,0}" leadInLength="0/1"  />
           <Keyframe id="3862"  time="6428/1" value="{49,This is described in greater detail in the help. ,0}" leadInLength="0/1"  />
           <Keyframe id="3863"  time="6541/1" value="{53,The F1 key is used to access help for &#xa;ModelArchiver.,0}" leadInLength="0/1"  />
           <Keyframe id="3864"  time="6770/1" value="{52,Next, each archive requires a Browse Graphic &#xa;image.,0}" leadInLength="0/1"  />
           <Keyframe id="3865"  time="6982/1" value="{112,Typically, this might include an outline of the &#xa;model superimposed on political boundaries or &#xa;other landmarks.,0}" leadInLength="0/1"  />
           <Keyframe id="3866"  time="7185/1" value="{63,Next, an important part of the model archive is the &#xa;metadata. ,0}" leadInLength="0/1"  />
           <Keyframe id="3867"  time="7375/1" value="{41,There is a specific format for metadata. ,0}" leadInLength="0/1"  />
           <Keyframe id="3868"  time="7454/1" value="{122,ModelArchiver includes a built-in metadata editor &#xa;for metadata or you can use any of a number of &#xa;other metadata editors.,0}" leadInLength="0/1"  />
           <Keyframe id="3869"  time="8051/1" value="{95,If you need to create metadata for geographic &#xa;information that is not part of a model archive,,0}" leadInLength="0/1"  />
           <Keyframe id="3870"  time="8220/1" value="{97,the metadata editor in ModelArchiver also exists &#xa;as a stand-alone program named &#xa;FgdcMetaeditor.,0}" leadInLength="0/1"  />
           <Keyframe id="3871"  time="8473/1" value="{121,FgdcMetaeditor and the built-in metadata editor in &#xa;ModelArchiver will be covered in greater detail in a &#xa;separate video.,0}" leadInLength="0/1"  />
           <Keyframe id="3872"  time="8746/1" value="{116,ModelArchiver uses file name extensions to &#xa;identify model files and to assign default &#xa;descriptions of those files.,0}" leadInLength="0/1"  />
           <Keyframe id="3873"  time="9007/1" value="{57,You can edit the extensions recognized by &#xa;ModelArchiver.,0}" leadInLength="0/1"  />
           <Keyframe id="3874"  time="9148/1" value="{66,The edited descriptions will be saved for use in &#xa;future archives.,0}" leadInLength="0/1"  />
           <Keyframe id="3875"  time="9282/1" value="{140,If you used ModelMuse to create your model, you &#xa;can use “archive lists” generated by ModelMuse &#xa;to include model files in the archive. ,0}" leadInLength="0/1"  />
           <Keyframe id="3876"  time="9940/1" value="{101,Another way to include files in the archive is to &#xa;select subdirectories containing the model files. ,0}" leadInLength="0/1"  />
           <Keyframe id="3877"  time="10588/1" value="{71,ModelArchiver will use the file extensions to &#xa;properly sort the files.,0}" leadInLength="0/1"  />
           <Keyframe id="3878"  time="10963/1" value="{122,Regardless of which method you use, &#xa;descriptions of each file will be assigned to each &#xa;file based on the file extension.,0}" leadInLength="0/1"  />
           <Keyframe id="3879"  time="11230/1" value="{84,You can edit file descriptions and add or remove &#xa;files or folders from the archive.,0}" leadInLength="0/1"  />
           <Keyframe id="3880"  time="11613/1" value="{91,The file descriptions will be appended to the &#xa;readme.txt file when the archive is created.,0}" leadInLength="0/1"  />
           <Keyframe id="3881"  time="11793/1" value="{110,When you are ready to create the archive, select &#xa;an empty folder, and click the “Create archive” &#xa;button.,0}" leadInLength="0/1"  />
           <Keyframe id="3882"  time="12726/1" value="{83,Let&apos;s look at a change that was made to the &#xa;metadata when the archive was created.,0}" leadInLength="0/1"  />
           <Keyframe id="3883"  time="12982/1" value="{62,Open the metadata file and open the one in the &#xa;model archive.,0}" leadInLength="0/1"  />
           <Keyframe id="3884"  time="13388/1" value="{56,We&apos;ll go down to the bottom here... close to the &#xa;bottom,0}" leadInLength="0/1"  />
           <Keyframe id="3885"  time="13942/1" value="{56,and under &quot;Standard Order Process&quot; there is a &#xa;number of,0}" leadInLength="0/1"  />
           <Keyframe id="3886"  time="14142/1" value="{132,there&apos;s some data that have been added to the &#xa;metadata file about all the files that a user could &#xa;download from the model archive.,0}" leadInLength="0/1"  />
           <Keyframe id="3887"  time="14475/1" value="{97,So all these have been added automatically by &#xa;ModelArchiver so you don&apos;t have to do it yourself.,0}" leadInLength="0/1"  />
           </Keyframes>
          </Parameter>
          <Parameter id="3888"  name="toc"/>
          <Parameter id="3889"  name="quiz"/>
         </Parameters>
         <Attributes>
         </Attributes>
         <MetaData>
          <entry key="WinSubProjectDisplayName" val=""/>
         </MetaData>
        </Caption>
       </Medias>
      </GenericTrack>
      <GenericTrack id="3890"  >
       <Attributes>
        <Attribute id="3891" value="" name="ident"/>
        <Attribute id="3892" value="0" name="audioMuted"/>
        <Attribute id="3893" value="0" name="videoHidden"/>
       </Attributes>
       <MetaData>
        <entry key="IsLocked" val="False"/>
        <entry key="WinTrackHeight" val="62"/>
       </MetaData>
       <Medias>
       </Medias>
      </GenericTrack>
     </Tracks>
    </GenericMixer>
   <CaptionAttributes id="3894"  >
    <Attribute id="3895" value="1" name="captionsEnabled"/>
    <Attribute id="3896" value="Arial" name="captionsFontName"/>
    <Attribute id="3897" value="20" name="captionsFontSize"/>
    <Attribute id="3898" value="(0,0,0,255)" name="captionsBackgroundColor"/>
    <Attribute id="3899" value="(255,255,255,255)" name="captionsForegroundColor"/>
    <Attribute id="3900" value="en" name="lang"/>
    <Attribute id="3901" value="0" name="captionsAlignment"/>
    <Attribute id="3902" value="1" name="captionsDefaultFontSize"/>
    <Attribute id="3903" value="0.5" name="captionsOpacity"/>
    <Attribute id="3904" value="1" name="captionsBackgroundEnabled"/>
    <Attribute id="3905" value="1" name="captionsBackgroundOnlyAroundText"/>
   </CaptionAttributes>
   <Parameters>
    <VectorParam id="3906"  name="eyePosition">
     <InterpolatingParam id="3907" interp="linr"  time="0/1" value="0" leadInLength="0/1"  />
     <InterpolatingParam id="3908" interp="linr"  time="0/1" value="0" leadInLength="0/1"  />
     <InterpolatingParam id="3909" interp="linr"  time="0/1" value="3000" leadInLength="0/1"  />
    </VectorParam>
    <VectorParam id="3910"  name="eyeLookAtPosition">
     <InterpolatingParam id="3911" interp="linr"  time="0/1" value="0" leadInLength="0/1"  />
     <InterpolatingParam id="3912" interp="linr"  time="0/1" value="0" leadInLength="0/1"  />
     <InterpolatingParam id="3913" interp="linr"  time="0/1" value="0" leadInLength="0/1"  />
    </VectorParam>
    <VectorParam id="3914"  name="eyeUpVector">
     <InterpolatingParam id="3915" interp="linr"  time="0/1" value="0" leadInLength="0/1"  />
     <InterpolatingParam id="3916" interp="linr"  time="0/1" value="1" leadInLength="0/1"  />
     <InterpolatingParam id="3917" interp="linr"  time="0/1" value="0" leadInLength="0/1"  />
    </VectorParam>
    <InterpolatingParam id="3918" interp="linr"  time="0/1" value="0.199337304" leadInLength="0/1"  name="fov"/>
    <InterpolatingParam id="3919" interp="linr"  time="0/1" value="1.5" leadInLength="0/1"  name="nearClipDistance"/>
    <InterpolatingParam id="3920" interp="linr"  time="0/1" value="6000" leadInLength="0/1"  name="farClipDistance"/>
   </Parameters>
  </Timeline>
 </Project>
</GoProject>
</CSMLData>

</Project_Data>
